<?xml version="1.0" standalone="no"?>
<!DOCTYPE svg PUBLIC "-//W3C//DTD SVG 20010904//EN"
 "http://www.w3.org/TR/2001/REC-SVG-20010904/DTD/svg10.dtd">
<svg version="1.0" xmlns="http://www.w3.org/2000/svg"
 width="370.000000pt" height="673.000000pt" viewBox="0 0 370.000000 673.000000"
 preserveAspectRatio="xMidYMid meet">

<g transform="translate(0.000000,673.000000) scale(0.100000,-0.100000)"
fill="#000000" stroke="none">
<path d="M1669 5882 c-18 -22 -36 -53 -74 -128 -21 -41 -36 -60 -47 -58 -41 6
-123 -133 -133 -224 -11 -96 -15 -109 -49 -146 -19 -19 -36 -45 -39 -58 -4
-13 -20 -32 -37 -43 -16 -11 -43 -41 -59 -66 -15 -25 -72 -84 -126 -129 -54
-46 -93 -86 -86 -88 6 -2 9 -8 5 -13 -12 -20 36 -7 65 17 35 29 66 26 58 -6
-8 -31 1 -24 23 19 11 22 24 42 30 46 5 3 -2 -17 -16 -44 -13 -28 -29 -53 -34
-56 -5 -3 -19 -27 -32 -53 -13 -26 -26 -48 -30 -50 -5 -2 -8 -12 -8 -23 0 -11
-9 -27 -20 -36 -11 -10 -20 -22 -20 -28 0 -5 35 26 78 71 52 54 88 102 111
149 19 39 35 75 35 80 3 31 20 54 49 66 18 7 51 28 75 46 23 19 42 30 42 26 0
-14 -83 -122 -133 -175 -24 -25 -41 -52 -37 -58 4 -6 11 -1 18 15 6 14 16 25
22 25 6 0 28 12 48 28 21 16 34 21 30 12 -3 -8 -13 -41 -22 -72 -9 -31 -21
-60 -26 -63 -6 -3 -9 -18 -9 -33 1 -19 3 -21 6 -9 3 13 11 17 24 14 12 -3 26
4 39 20 13 17 20 21 20 11 0 -9 -9 -27 -21 -41 -11 -15 -28 -55 -38 -89 -32
-111 -55 -162 -88 -198 -27 -29 -33 -43 -33 -80 0 -65 25 -154 65 -234 19 -38
33 -71 31 -74 -3 -2 -11 9 -20 25 -18 32 -66 80 -66 65 0 -6 5 -14 11 -17 6
-4 8 -13 5 -21 -3 -8 -1 -25 4 -39 11 -29 2 -117 -11 -109 -5 3 -9 2 -9 -3 0
-9 24 -88 36 -118 7 -18 6 -19 -8 -4 -34 33 -69 178 -79 319 -5 74 -7 155 -4
180 4 35 3 40 -5 25 -8 -15 -9 -3 -5 43 3 34 4 62 1 62 -9 0 -35 -104 -35
-140 0 -19 2 -59 4 -87 2 -29 -1 -53 -6 -53 -5 0 -9 18 -9 41 0 24 -4 38 -10
34 -28 -17 10 238 40 270 17 18 36 69 61 165 2 8 -2 14 -9 12 -8 -1 -3 14 12
41 34 57 33 67 -1 25 -14 -18 -60 -68 -102 -110 -57 -59 -78 -75 -88 -66 -10
8 -13 7 -13 -2 0 -7 -7 -18 -15 -24 -16 -12 -32 -72 -17 -62 14 9 -19 -86 -42
-118 -14 -21 -16 -31 -8 -34 7 -2 12 -8 12 -13 0 -6 -4 -7 -10 -4 -6 4 -11 -9
-12 -32 -2 -52 -3 -45 21 -163 l21 -105 -20 -25 c-11 -14 -31 -46 -45 -72 -16
-30 -37 -53 -57 -62 -18 -9 -60 -40 -92 -70 -59 -55 -59 -55 -53 -101 4 -25
13 -59 22 -75 27 -53 20 -83 -26 -109 l-41 -23 6 -52 6 -51 -123 -125 c-182
-185 -352 -372 -447 -493 -45 -59 -87 -107 -91 -107 -5 0 -9 -292 -9 -650 0
-547 2 -650 14 -650 7 0 22 12 32 28 9 15 41 51 70 80 30 30 58 70 66 92 7 22
18 40 23 40 15 1 27 -77 22 -147 -6 -77 -17 -94 -209 -307 -16 -17 -18 -40
-17 -165 l0 -146 72 80 c108 121 198 205 218 205 14 0 18 -12 24 -74 4 -44 3
-81 -3 -92 -12 -23 -27 -114 -18 -114 8 0 40 74 66 155 13 39 29 77 37 85 23
26 16 -22 -22 -131 -38 -112 -40 -120 -24 -116 6 1 11 -23 14 -58 25 -441 25
-513 -5 -630 -5 -22 -10 -48 -10 -57 0 -31 18 -19 31 19 35 110 87 181 123
167 10 -4 22 6 36 28 13 22 20 27 20 16 0 -20 15 -24 25 -8 12 19 22 10 18
-17 -3 -27 -3 -27 8 -5 7 12 16 22 20 22 4 0 10 13 14 29 3 16 12 34 19 40 12
11 12 -6 -9 -172 -3 -29 -2 -46 3 -43 14 8 39 92 47 156 14 104 72 297 130
425 15 33 31 89 36 124 7 48 16 69 37 90 15 14 37 40 48 56 31 43 38 27 15
-36 -44 -121 -81 -248 -75 -263 3 -8 -29 -122 -72 -253 -42 -131 -79 -258 -82
-283 -5 -44 -4 -45 15 -28 11 10 27 18 35 18 24 0 34 20 48 95 23 125 59 233
115 342 42 82 62 139 86 238 34 142 43 171 85 290 23 62 34 81 50 83 30 4 26
14 222 -553 49 -143 97 -280 106 -305 26 -68 53 -194 66 -300 6 -52 15 -112
21 -132 l10 -38 259 0 258 0 12 35 c6 19 15 35 19 35 10 0 57 114 66 159 4 19
26 73 50 120 23 47 48 104 55 126 22 71 46 71 30 0 -10 -46 -8 -52 13 -30 31
31 48 13 25 -26 -19 -29 12 -49 76 -49 107 0 142 24 138 93 -1 15 2 27 8 27
10 0 13 -28 10 -87 -1 -18 3 -33 9 -33 26 0 59 25 72 53 10 22 32 40 76 62 95
48 93 45 93 146 0 49 -7 137 -15 196 -27 197 -45 406 -52 600 l-6 192 29 6
c16 4 41 13 56 21 14 8 31 14 37 14 8 0 11 -53 11 -167 0 -93 5 -206 10 -253
5 -47 17 -175 25 -285 17 -226 22 -265 34 -265 11 0 51 93 51 119 0 33 22 72
39 69 9 -2 16 -10 16 -18 0 -25 29 -17 43 12 7 16 17 28 21 28 5 0 12 11 15
24 15 60 75 33 113 -52 14 -32 54 -117 89 -189 35 -73 64 -135 64 -138 0 -14
154 -373 176 -412 19 -32 32 -43 50 -43 24 0 24 1 24 103 0 95 -3 108 -36 187
-99 233 -243 597 -244 616 0 11 9 29 20 39 26 23 40 76 40 150 0 71 18 64 24
-9 5 -45 16 -77 16 -45 0 8 14 27 31 44 25 24 32 27 39 15 7 -11 10 -4 10 25
0 52 -36 347 -49 405 -6 25 -11 62 -11 82 0 20 -4 40 -10 43 -5 3 -10 17 -10
31 0 14 -5 35 -11 46 -7 12 -13 39 -14 59 -2 21 -8 53 -13 71 -6 18 -18 68
-27 111 -9 43 -30 117 -47 165 -16 48 -35 105 -41 127 -6 22 -25 94 -43 160
-18 66 -41 140 -50 165 -16 40 -18 85 -16 428 l2 383 -35 207 c-52 307 -110
598 -139 697 -8 28 -24 95 -36 150 -31 151 -41 183 -59 198 -23 21 -150 87
-166 87 -11 0 -104 69 -143 107 -15 15 -36 18 -27 4 3 -5 -4 -12 -15 -16 -12
-4 -33 3 -57 19 -20 14 -38 24 -40 22 -2 -2 1 -16 7 -31 7 -19 7 -31 -1 -41
-6 -7 -8 -18 -4 -24 3 -5 2 -10 -3 -10 -5 0 -13 24 -16 52 -4 29 -13 56 -19
61 -9 6 -9 10 1 14 8 3 10 9 4 16 -5 7 -12 25 -16 40 -4 15 -10 26 -15 23 -8
-5 -41 88 -41 116 0 9 -9 26 -20 39 l-20 24 5 -25 c3 -14 9 -52 14 -85 10 -62
36 -135 49 -135 4 0 12 -11 19 -25 9 -20 8 -25 -3 -25 -8 0 -14 9 -14 20 0 11
-6 20 -14 20 -7 0 -20 14 -27 32 -13 32 -13 32 -20 8 -5 -23 -7 -22 -17 14 -9
32 -27 64 -69 125 -2 2 -6 2 -9 -1 -3 -3 8 -30 25 -60 17 -30 31 -61 30 -69 0
-8 -4 -5 -9 6 -16 40 -67 114 -74 108 -4 -4 -9 3 -13 15 -3 12 -10 22 -15 22
-6 0 -8 9 -5 20 5 18 -22 95 -52 149 -23 41 -34 9 -13 -40 21 -50 19 -69 -9
-69 -12 0 -19 -7 -19 -20 0 -27 20 -68 36 -74 17 -6 19 15 3 31 -6 6 -8 21 -4
34 7 20 8 21 17 5 5 -9 11 -32 14 -49 2 -18 10 -63 19 -102 15 -74 9 -94 -22
-76 -10 6 -12 11 -5 11 6 0 12 5 12 11 0 5 -4 8 -9 4 -5 -3 -15 11 -22 30 -7
19 -16 35 -20 35 -4 0 -9 9 -12 20 -3 13 -10 18 -21 14 -11 -4 -19 2 -26 21
-14 36 -13 45 4 39 8 -3 16 -1 20 4 9 15 -23 51 -72 82 -26 16 -43 30 -37 30
5 0 -9 10 -32 23 -23 12 -54 33 -70 46 -15 13 -37 31 -48 40 -33 26 23 -36 92
-104 59 -57 64 -65 98 -169 20 -60 34 -114 32 -120 -5 -14 28 -77 37 -71 3 3
4 2 2 -1 -3 -3 4 -15 15 -27 12 -13 19 -36 20 -61 0 -40 17 -97 18 -66 1 13 2
13 11 0 5 -8 10 -53 11 -100 0 -47 3 -79 6 -72 2 6 9 12 14 12 5 0 6 -23 3
-55 -5 -37 -3 -55 4 -55 6 0 12 15 14 33 2 19 7 -1 11 -48 7 -77 20 -158 33
-217 5 -22 3 -28 -9 -28 -46 0 -53 -104 -12 -174 32 -55 28 -74 -5 -22 -12 20
-30 42 -41 49 -32 23 -51 150 -43 302 4 72 10 137 13 145 4 8 4 33 1 55 -6 46
-11 37 -31 -60 -7 -33 -16 -64 -22 -70 -9 -10 -8 6 9 217 5 63 2 90 -16 149
-24 81 -70 160 -70 122 0 -12 -7 -28 -15 -37 -8 -8 -15 -19 -15 -25 0 -14 -32
-51 -43 -51 -5 0 0 16 12 36 19 32 20 38 7 62 l-14 27 -7 -28 c-4 -15 -16 -32
-26 -38 -15 -8 -24 -4 -44 17 -14 15 -24 33 -21 40 3 7 1 25 -3 40 l-7 28 -33
-47 c-17 -26 -37 -47 -44 -47 -8 1 -6 5 3 13 21 16 60 81 65 108 7 33 -11 57
-58 78 -39 17 -126 36 -155 34 -16 -1 -11 29 8 44 10 9 11 12 3 13 -14 0 -18
30 -5 30 4 0 16 16 26 35 11 19 25 35 32 35 17 0 74 49 74 63 0 7 -9 18 -21
25 -22 14 -39 5 -77 -38 -11 -13 -12 -12 -3 6 12 24 6 34 -20 34 -36 0 -95
-141 -103 -244 -2 -24 -7 -49 -10 -55 -4 -6 -4 -20 -1 -31 4 -11 4 -20 1 -20
-3 0 -10 15 -15 33 -6 20 -9 24 -10 12 0 -11 15 -42 34 -70 20 -27 43 -60 51
-72 13 -18 14 -30 6 -60 -10 -36 -11 -36 -10 -8 0 17 0 37 -1 45 -2 22 -19 -1
-23 -30 -5 -39 -20 -30 -38 25 l-17 50 -6 -125 c-3 -69 -5 -138 -3 -155 2 -16
4 -49 4 -72 1 -24 6 -43 10 -43 5 0 25 37 46 83 l37 82 -5 -65 c-2 -36 -12
-99 -22 -140 -20 -84 -21 -106 -9 -135 8 -19 8 -19 -9 -2 -20 19 -31 23 -20 6
3 -6 1 -14 -5 -18 -12 -8 27 -97 76 -174 15 -23 26 -48 24 -56 -1 -7 2 -10 8
-6 6 3 11 2 11 -4 0 -27 -22 -16 -62 32 -40 48 -98 152 -98 176 0 25 -20 8
-39 -32 -12 -24 -35 -56 -52 -72 -28 -24 -31 -31 -25 -69 4 -29 3 -37 -4 -26
-5 8 -10 23 -10 34 0 12 -5 16 -16 12 -9 -3 -14 -3 -12 1 66 136 113 307 89
322 -7 5 -12 11 -12 15 3 20 -3 17 -35 -19 -44 -50 -60 -80 -95 -180 -16 -44
-29 -72 -29 -62 0 23 35 126 71 209 16 36 29 78 29 93 0 14 7 37 16 50 12 18
15 49 15 132 -2 195 13 319 46 386 19 39 13 42 -28 14 -58 -39 -66 -40 -24 -3
84 76 118 106 122 106 10 0 0 -22 -23 -50 -29 -34 -28 -52 1 -20 10 11 25 20
33 20 10 0 13 8 10 29 -2 17 -1 28 4 25 4 -3 8 4 8 15 0 12 5 21 10 21 6 0 10
9 10 21 0 11 5 29 10 40 7 11 7 19 1 19 -5 0 -11 -6 -14 -12 -3 -10 -8 -10
-17 -2 -9 9 -8 17 5 37 9 14 12 27 8 30 -15 10 -63 -5 -63 -20 0 -8 -5 -11
-11 -7 -20 12 -1 70 55 168 31 54 66 110 77 125 11 16 19 38 17 50 l-3 22 -22
-21 c-31 -29 -29 -9 2 24 39 42 57 73 47 80 -5 3 -16 -2 -23 -12z m-173 -459
c-9 -29 -19 -86 -20 -110 -1 -15 -7 -23 -18 -23 -26 0 -25 5 17 108 18 42 31
58 21 25z m126 -255 c-10 -22 -11 -21 -11 12 -1 26 2 31 11 22 8 -8 8 -17 0
-34z m-252 -23 c-7 -8 -17 -15 -22 -15 -6 0 -5 7 2 15 7 8 17 15 22 15 6 0 5
-7 -2 -15z m458 -137 c-3 -14 -18 -28 -30 -28 -4 0 0 9 9 20 20 23 24 25 21 8z
m592 -188 c-8 -5 -19 -10 -25 -10 -5 0 -3 5 5 10 8 5 20 10 25 10 6 0 3 -5 -5
-10z m500 -96 c30 -16 50 -33 50 -43 0 -10 11 -41 25 -70 30 -60 42 -111 28
-111 -9 0 -31 41 -52 101 -6 16 -30 36 -71 58 -66 35 -79 53 -60 76 17 20 22
19 80 -11z m-468 -26 c-7 -7 -12 -8 -12 -2 0 14 12 26 19 19 2 -3 -1 -11 -7
-17z m38 -42 c0 -3 -4 -8 -10 -11 -5 -3 -10 -1 -10 4 0 6 5 11 10 11 6 0 10
-2 10 -4z m87 -32 c-3 -3 -12 -4 -19 -1 -8 3 -5 6 6 6 11 1 17 -2 13 -5z m-42
-14 c-3 -5 -16 -10 -28 -9 -20 1 -20 2 3 9 14 4 26 8 28 9 2 1 0 -3 -3 -9z
m168 -114 c10 -8 20 -26 22 -41 1 -15 7 -30 12 -34 5 -3 15 -31 20 -60 9 -45
8 -59 -5 -78 -8 -13 -21 -22 -28 -19 -8 3 -18 -3 -23 -12 -9 -15 -11 -14 -12
8 -1 14 -1 32 0 41 1 9 -5 21 -13 28 -21 17 -29 -3 -17 -42 31 -102 41 -177
22 -177 -5 0 -19 21 -31 48 -12 26 -25 54 -30 62 -5 8 -32 61 -61 118 -55 108
-56 122 -7 127 13 2 42 12 63 24 46 24 63 26 88 7z m-566 -88 c-8 -29 -21 -67
-30 -83 l-17 -30 6 29 c5 20 3 27 -4 22 -6 -3 4 22 21 57 18 35 33 63 35 61 2
-1 -3 -26 -11 -56z m-1167 -6 c0 -5 -9 -19 -20 -32 -25 -28 -26 -18 -2 15 19
27 22 29 22 17z m640 -2 c0 -5 -4 -10 -10 -10 -5 0 -10 5 -10 10 0 6 5 10 10
10 6 0 10 -4 10 -10z m1340 -40 c0 -5 7 -10 15 -10 8 0 15 -4 15 -10 0 -14
-33 -13 -48 2 -16 16 -15 28 3 28 8 0 15 -4 15 -10z m-5 -60 c3 6 11 8 16 4 6
-4 6 -11 -1 -19 -7 -8 -7 -15 -1 -19 5 -3 12 0 15 6 3 7 3 3 0 -9 -3 -13 6
-43 23 -75 38 -72 39 -75 19 -59 -10 8 -27 33 -38 54 -11 22 -38 66 -59 97
-46 68 -51 89 -10 42 18 -19 32 -28 36 -22z m-150 -210 c3 -5 1 -10 -4 -10 -6
0 -11 -9 -11 -21 0 -15 5 -19 15 -15 10 4 15 -1 15 -14 0 -11 3 -20 8 -20 11
0 42 -59 42 -81 0 -11 -7 -19 -17 -19 -9 0 -32 -12 -51 -27 -26 -19 -37 -23
-40 -14 -3 8 -13 22 -23 32 -10 10 -20 35 -23 56 -2 21 -6 45 -9 53 -14 40
-17 71 -7 65 5 -3 10 -19 10 -36 0 -19 5 -29 15 -29 8 0 15 -7 15 -15 0 -9 6
-12 15 -9 10 4 15 20 15 50 0 32 -4 44 -15 44 -8 0 -15 5 -15 11 0 5 -5 7 -10
4 -13 -8 -9 17 4 27 11 7 61 -15 71 -32z m-417 -95 c1 -31 -1 -35 -8 -20 -5
11 -8 40 -8 65 0 37 1 41 8 20 4 -14 8 -43 8 -65z m702 -35 c-6 -12 -14 -20
-17 -17 -2 3 1 14 8 26 7 11 15 18 17 16 2 -2 -2 -13 -8 -25z m-719 -47 c-8
-15 -10 -15 -11 -2 0 17 10 32 18 25 2 -3 -1 -13 -7 -23z m374 -63 c3 -5 1
-10 -4 -10 -6 0 -11 5 -11 10 0 6 2 10 4 10 3 0 8 -4 11 -10z m-745 -144 c0
-3 -4 -8 -10 -11 -5 -3 -10 -1 -10 4 0 6 5 11 10 11 6 0 10 -2 10 -4z m-153
-372 c-3 -3 -12 -4 -19 -1 -8 3 -5 6 6 6 11 1 17 -2 13 -5z m153 -19 c0 -13
-4 -14 -20 -5 -11 6 -20 13 -20 15 0 3 9 5 20 5 11 0 20 -7 20 -15z m-30 -150
l35 -14 -42 2 c-27 1 -43 7 -43 15 0 15 5 14 50 -3z m125 -24 c3 -5 1 -12 -5
-16 -5 -3 -10 1 -10 9 0 18 6 21 15 7z m775 -226 c0 -231 -20 -219 -40 25 -7
90 -6 108 7 123 9 9 20 17 25 17 4 0 8 -74 8 -165z m-1090 95 c0 -5 -7 -10
-16 -10 -8 0 -12 5 -9 10 3 6 10 10 16 10 5 0 9 -4 9 -10z m-10 -173 c0 -7 -9
-13 -20 -14 -23 -2 -26 7 -8 25 13 13 28 7 28 -11z m-420 -27 c0 -5 -4 -10
-10 -10 -5 0 -10 5 -10 10 0 6 5 10 10 10 6 0 10 -4 10 -10z m46 -15 c17 -16
14 -18 -10 -9 -9 3 -16 10 -16 15 0 13 9 11 26 -6z m366 0 c0 -5 -5 -11 -11
-13 -6 -2 -11 4 -11 13 0 9 5 15 11 13 6 -2 11 -8 11 -13z m-2 -34 c0 -6 15
-11 32 -13 23 -2 34 -9 36 -22 3 -13 0 -17 -9 -14 -55 21 -56 20 -63 -21 -9
-56 -24 -60 -23 -6 2 47 -2 52 -34 35 -16 -9 -19 -7 -19 14 0 21 4 24 30 20
17 -3 30 -1 30 5 0 6 5 11 10 11 6 0 10 -4 10 -9z m-17 -230 c-6 -61 -12 -74
-30 -63 -8 5 -7 25 4 76 18 79 34 71 26 -13z m-1018 -1948 c-7 -42 -19 -60
-29 -44 -7 11 19 81 30 81 3 0 3 -17 -1 -37z m-65 -20 c0 -23 -17 -49 -26 -41
-9 10 4 58 16 58 6 0 10 -8 10 -17z"/>
<path d="M1610 5631 c0 -10 -7 -24 -16 -31 -8 -8 -22 -29 -30 -49 -8 -19 -20
-39 -27 -43 -7 -4 -7 -8 -2 -8 6 0 33 20 60 45 34 30 44 44 33 45 -14 0 -16 6
-11 30 3 17 3 30 -1 30 -3 0 -6 -8 -6 -19z"/>
<path d="M2040 5553 c0 -6 7 -16 15 -23 9 -7 29 -30 46 -51 27 -35 29 -41 16
-59 -14 -20 -14 -20 -40 12 -21 25 -27 28 -27 14 0 -10 8 -33 19 -50 25 -41
37 -81 22 -72 -6 4 -11 3 -11 -2 0 -14 46 -31 69 -25 26 7 26 18 1 66 -11 20
-20 43 -20 49 1 7 8 0 16 -15 21 -39 29 -27 10 14 -28 60 -116 168 -116 142z"/>
<path d="M2255 5510 c-3 -5 -1 -28 5 -51 8 -31 8 -44 -1 -55 -6 -8 -9 -18 -5
-21 4 -4 11 -1 16 7 14 22 12 7 -5 -33 -18 -44 -18 -48 -2 -44 7 1 11 -7 10
-20 -3 -25 77 -148 92 -142 5 2 10 18 11 34 1 17 2 57 4 91 2 45 -3 70 -18
100 l-21 39 -1 -52 c0 -61 -15 -71 -23 -15 -9 64 -39 172 -47 172 -5 0 -12 -4
-15 -10z"/>
<path d="M2220 5496 c0 -7 8 -20 17 -27 15 -12 16 -12 10 4 -4 10 -7 23 -7 28
0 5 -4 9 -10 9 -5 0 -10 -6 -10 -14z"/>
<path d="M2184 5465 c1 -25 10 -32 20 -16 7 11 -3 41 -14 41 -4 0 -7 -11 -6
-25z"/>
<path d="M2200 5422 c0 -5 7 -17 15 -28 15 -19 20 -8 9 20 -6 17 -24 22 -24 8z"/>
<path d="M2459 5340 c-1 -19 -3 -27 -6 -17 -2 9 -9 17 -14 17 -13 0 -11 -39 5
-96 8 -27 17 -68 21 -91 4 -24 10 -45 15 -48 19 -12 27 159 9 213 -17 53 -29
62 -30 22z"/>
<path d="M1902 5225 c0 -16 2 -22 5 -12 2 9 2 23 0 30 -3 6 -5 -1 -5 -18z"/>
<path d="M1537 5206 c-4 -10 -7 -25 -6 -34 0 -11 4 -9 10 7 5 13 8 29 6 35 -2
5 -6 2 -10 -8z"/>
<path d="M1970 5148 c0 -38 4 -68 9 -68 20 0 61 -54 61 -81 0 -16 5 -29 10
-29 18 0 11 45 -16 99 -15 29 -35 73 -45 99 l-18 47 -1 -67z"/>
<path d="M2200 5128 c0 -23 12 -58 19 -58 10 0 1 59 -10 66 -5 3 -9 -1 -9 -8z"/>
<path d="M906 4795 c-9 -13 -16 -31 -16 -39 0 -8 -9 -18 -20 -21 -21 -7 -28
-25 -9 -25 7 0 9 -9 6 -22 -6 -21 -4 -21 19 5 13 15 24 39 24 51 0 13 7 29 15
36 16 14 20 40 6 40 -5 0 -16 -11 -25 -25z"/>
<path d="M1461 4731 c-8 -5 -9 -11 -3 -15 5 -3 12 1 16 9 6 17 6 18 -13 6z"/>
<path d="M908 4630 c-26 -11 -61 -17 -77 -15 -34 4 -48 -7 -28 -22 22 -18 91
-3 127 28 41 33 40 34 -22 9z"/>
<path d="M761 4564 c-6 -15 -9 -29 -7 -32 8 -7 45 41 39 50 -8 15 -20 8 -32
-18z"/>
<path d="M1212 4550 c0 -14 2 -19 5 -12 2 6 2 18 0 25 -3 6 -5 1 -5 -13z"/>
<path d="M1581 4534 c0 -11 3 -14 6 -6 3 7 2 16 -1 19 -3 4 -6 -2 -5 -13z"/>
<path d="M1201 4503 c0 -5 4 -17 9 -28 8 -18 9 -17 9 8 1 15 -3 27 -9 27 -5 0
-10 -3 -9 -7z"/>
<path d="M2251 4494 c0 -11 3 -14 6 -6 3 7 2 16 -1 19 -3 4 -6 -2 -5 -13z"/>
<path d="M2241 4454 c0 -11 3 -14 6 -6 3 7 2 16 -1 19 -3 4 -6 -2 -5 -13z"/>
<path d="M2225 4410 c3 -5 8 -10 11 -10 2 0 4 5 4 10 0 6 -5 10 -11 10 -5 0
-7 -4 -4 -10z"/>
<path d="M1200 4379 c0 -51 11 -99 23 -99 11 0 1 95 -13 119 -7 12 -9 6 -10
-20z"/>
<path d="M2241 4352 c-21 -75 -24 -102 -12 -102 12 0 17 19 25 93 7 57 1 61
-13 9z"/>
<path d="M874 4345 c-10 -8 -14 -15 -8 -15 6 0 17 7 24 15 16 19 9 19 -16 0z"/>
<path d="M1212 4235 c0 -16 2 -22 5 -12 2 9 2 23 0 30 -3 6 -5 -1 -5 -18z"/>
</g>
</svg>
