<?xml version="1.0" standalone="no"?>
<!DOCTYPE svg PUBLIC "-//W3C//DTD SVG 20010904//EN"
 "http://www.w3.org/TR/2001/REC-SVG-20010904/DTD/svg10.dtd">
<svg version="1.0" xmlns="http://www.w3.org/2000/svg"
 width="271.000000pt" height="484.000000pt" viewBox="0 0 271.000000 484.000000"
 preserveAspectRatio="xMidYMid meet">

<g transform="translate(0.000000,484.000000) scale(0.100000,-0.100000)"
fill="#000000" stroke="none">
<path d="M1082 4803 c-39 -55 -51 -91 -66 -192 -8 -57 -18 -106 -21 -110 -4
-3 -12 2 -19 12 -19 25 -22 22 -23 -20 0 -21 -1 -47 -1 -58 -3 -73 7 -154 22
-184 13 -25 15 -36 6 -41 -7 -4 -10 -15 -8 -25 5 -26 -84 -115 -115 -115 -53
0 -82 19 -107 71 -13 29 -29 57 -34 63 -30 31 -166 338 -181 405 -4 17 -15 36
-26 41 -15 8 -17 7 -13 -5 4 -8 10 -15 14 -15 5 0 6 -9 3 -19 -3 -10 2 -30 11
-43 15 -23 13 -38 -6 -38 -4 0 -8 6 -8 14 0 8 -7 21 -15 29 -8 8 -25 39 -39
68 -47 106 -54 105 -48 -7 3 -57 9 -101 15 -103 27 -10 77 -76 83 -110 9 -46
36 -101 63 -125 12 -11 21 -28 21 -38 0 -16 18 -58 52 -118 4 -8 11 -22 14
-30 4 -8 16 -35 27 -59 25 -55 34 -135 17 -146 -23 -14 -74 -14 -97 1 -13 8
-23 10 -23 4 0 -5 -5 -10 -11 -10 -6 0 -9 6 -6 14 3 8 -5 19 -19 26 -21 12
-28 10 -62 -13 -42 -30 -77 -34 -106 -12 -20 15 -56 87 -56 111 0 8 -7 41 -17
74 l-16 60 -17 -28 c-16 -27 -31 -105 -56 -287 -21 -159 -19 -180 26 -274 32
-66 39 -90 34 -116 -8 -44 5 -65 100 -163 45 -46 93 -106 107 -135 34 -67 43
-144 24 -198 -21 -58 -19 -102 6 -133 12 -15 26 -46 31 -69 6 -28 22 -54 46
-77 20 -20 45 -49 54 -65 10 -17 26 -41 37 -55 31 -37 94 -229 88 -265 -3 -16
-15 -57 -27 -89 -18 -51 -20 -66 -11 -102 22 -85 9 -224 -21 -224 -17 0 -29
-52 -19 -82 11 -31 -17 -165 -46 -222 -11 -21 -14 -45 -9 -79 3 -28 0 -96 -6
-151 -7 -56 -12 -121 -11 -146 3 -99 -19 -226 -58 -348 -44 -136 -51 -200 -33
-329 11 -81 37 -120 83 -125 23 -3 26 -7 24 -37 -2 -44 -18 -61 -36 -37 -12
16 -15 15 -40 -23 -29 -43 -35 -81 -14 -81 18 0 33 12 46 38 14 27 48 27 65
-1 9 -14 6 -26 -11 -57 -17 -29 -23 -55 -23 -104 0 -79 6 -96 35 -96 51 0 80
20 109 75 30 58 77 101 100 92 8 -3 19 -38 26 -86 l14 -81 497 0 497 0 11 30
c5 17 18 33 28 36 10 4 36 15 59 25 23 11 48 17 57 14 15 -6 33 -43 39 -80 3
-19 11 -20 158 -20 l154 0 7 32 c3 18 20 46 38 62 27 25 31 36 31 83 1 74 36
157 78 181 17 10 59 21 92 24 l60 6 0 742 0 743 -107 54 c-261 132 -384 221
-428 309 -10 19 -26 44 -37 55 -19 21 -19 22 7 28 16 4 33 2 41 -5 17 -14 197
-6 253 10 31 10 111 75 111 91 0 3 -15 11 -33 18 -30 11 -33 15 -29 45 3 23
-2 38 -17 51 -12 11 -21 28 -21 38 0 10 -8 35 -19 56 -10 21 -21 71 -24 114
-5 59 -13 88 -32 118 -26 41 -31 43 -75 41 -31 -2 -63 30 -58 56 5 23 45 20
64 -5 23 -30 15 -2 -21 75 -19 41 -35 79 -35 83 0 5 -13 29 -30 53 -16 25 -30
52 -30 60 0 14 -23 39 -31 34 -2 -1 -2 2 2 6 3 4 2 29 -2 55 -11 65 -11 142 0
142 15 0 73 64 87 97 21 48 17 123 -7 123 -4 0 -15 -15 -24 -34 -24 -50 -78
-56 -95 -12 -5 13 -18 26 -30 29 -21 5 -22 3 -17 -31 3 -20 9 -47 13 -59 8
-27 -10 -31 -33 -7 -13 13 -17 13 -24 2 -7 -10 -12 -10 -26 5 -13 13 -14 17
-3 17 10 0 11 3 3 11 -6 6 -9 18 -6 25 3 8 1 14 -5 14 -5 0 -17 21 -27 48 -10
26 -28 66 -41 90 -13 23 -35 81 -49 127 -14 47 -30 85 -35 85 -6 0 -10 -3 -10
-7 -1 -32 -50 -39 -50 -7 0 8 -25 30 -56 50 -58 37 -73 58 -58 79 41 55 45 65
36 81 -9 15 -11 15 -23 -7 -7 -13 -13 -27 -14 -31 0 -4 -6 -13 -14 -20 -10
-10 -12 -10 -7 0 10 17 -9 15 -24 -3 -7 -9 -27 -26 -44 -37 -17 -12 3 12 44
53 41 40 78 73 82 72 5 -2 8 2 8 7 0 6 -4 10 -9 10 -12 0 -5 40 9 54 5 5 10
14 10 20 0 9 -25 -17 -47 -51 -11 -16 -12 -14 -7 12 l6 30 -16 -22 c-21 -29
-41 -31 -26 -4 13 24 13 31 0 31 -5 0 -13 -14 -18 -32 -4 -17 -14 -34 -21 -36
-10 -3 -11 0 -4 13 6 9 7 34 3 56 -4 21 -3 36 1 33 5 -3 9 -15 9 -27 1 -21 1
-21 15 -3 17 23 10 73 -15 101 -10 11 -25 34 -33 50 -24 46 -74 88 -98 82 -15
-4 -19 -2 -15 9 3 8 1 14 -5 14 -5 0 -15 13 -20 29 -6 15 -20 33 -32 39 -12 7
-33 20 -47 29 -14 10 -4 -6 23 -34 26 -29 47 -56 47 -60 0 -4 -16 10 -34 32
-38 44 -54 49 -74 23 -7 -10 -17 -18 -22 -18 -5 0 -35 -12 -66 -26 -31 -14
-62 -23 -69 -20 -23 8 -55 82 -55 126 0 26 -4 39 -10 35 -12 -8 -5 32 16 83
16 39 2 42 -24 5z m33 -220 c14 -23 25 -50 23 -60 -5 -26 -68 93 -67 126 l1
26 8 -26 c4 -14 20 -44 35 -66z m320 -54 c4 -6 9 -31 11 -57 3 -25 9 -51 15
-58 7 -8 6 -13 -2 -16 -6 -2 -13 -25 -16 -51 -3 -26 -10 -47 -15 -47 -5 0 -7
8 -4 18 7 25 10 137 4 148 -13 21 -19 74 -9 74 5 0 13 -5 16 -11z m121 -95
c19 -35 13 -67 -11 -58 -9 4 -15 1 -15 -7 0 -10 -3 -10 -12 -1 -10 10 -10 15
0 21 11 7 10 10 -3 15 -9 3 -14 10 -10 15 3 6 -1 27 -10 47 -8 20 -15 38 -15
41 0 13 61 -46 76 -73z m-986 26 c0 -5 -5 -10 -11 -10 -5 0 -7 5 -4 10 3 6 8
10 11 10 2 0 4 -4 4 -10z m70 -150 c0 -5 -4 -10 -10 -10 -5 0 -10 5 -10 10 0
6 5 10 10 10 6 0 10 -4 10 -10z m989 -94 c9 -10 8 -15 -2 -19 -8 -3 -13 3 -13
14 0 23 0 23 15 5z m-259 -21 c14 -19 14 -19 -2 -6 -10 7 -18 18 -18 24 0 6 1
8 3 6 1 -2 9 -13 17 -24z m211 -6 c-5 -13 -10 -19 -10 -12 -1 15 10 45 15 40
3 -2 0 -15 -5 -28z m-24 -21 c-3 -7 -5 -2 -5 12 0 14 2 19 5 13 2 -7 2 -19 0
-25z m-123 -89 c-5 -74 -4 -91 7 -87 7 2 16 15 20 29 6 20 7 21 8 4 1 -17 4
-15 20 11 11 18 25 35 32 40 7 4 1 -12 -14 -37 -15 -24 -35 -59 -44 -76 -17
-34 -33 -43 -33 -20 0 7 5 18 11 24 7 7 6 12 -4 16 -10 4 -13 -4 -12 -30 0
-19 -3 -37 -9 -40 -5 -4 -6 27 -1 78 4 46 8 96 9 112 5 59 6 67 12 67 3 0 2
-41 -2 -91z m98 19 c-8 -8 -9 -4 -5 13 4 13 8 18 11 10 2 -7 -1 -18 -6 -23z
m20 -115 c-12 -23 -22 -104 -13 -98 9 5 -23 -92 -32 -102 -4 -3 -6 22 -6 56 1
33 5 64 10 67 5 3 9 22 9 43 0 41 6 51 27 51 10 0 11 -5 5 -17z m-55 -35 c-3
-7 -5 -2 -5 12 0 14 2 19 5 13 2 -7 2 -19 0 -25z m-10 -40 c-3 -8 -6 -5 -6 6
-1 11 2 17 5 13 3 -3 4 -12 1 -19z m-35 -38 c-6 -17 -9 -36 -6 -44 3 -7 -3
-19 -12 -27 -16 -13 -17 -12 -7 5 7 12 8 29 3 42 -6 14 -4 32 3 48 17 35 32
15 19 -24z m-1088 24 c18 -17 22 -39 6 -29 -11 7 -33 45 -26 45 2 0 12 -7 20
-16z m1113 -26 c-3 -8 -6 -5 -6 6 -1 11 2 17 5 13 3 -3 4 -12 1 -19z m-834 -5
c-7 -2 -21 -2 -30 0 -10 3 -4 5 12 5 17 0 24 -2 18 -5z m838 -66 c-10 -9 -11
-8 -5 6 3 10 9 15 12 12 3 -3 0 -11 -7 -18z m-700 -180 c-10 -9 -11 -8 -5 6 3
10 9 15 12 12 3 -3 0 -11 -7 -18z m1184 -54 c-9 -15 -14 -20 -11 -10 4 11 9
31 13 45 5 19 8 22 11 10 2 -9 -4 -29 -13 -45z m20 -33 c3 -5 1 -10 -4 -10 -6
0 -11 5 -11 10 0 6 2 10 4 10 3 0 8 -4 11 -10z m113 -7 c-5 -25 -28 -28 -28
-4 0 12 6 21 16 21 9 0 14 -7 12 -17z m-1146 -25 c-6 -6 -15 -8 -19 -4 -4 4
-1 11 7 16 19 12 27 3 12 -12z m958 -46 c15 -78 26 -123 35 -147 7 -16 4 -15
-12 5 l-21 25 -1 -45 c-2 -95 -10 -182 -16 -189 -4 -3 -6 3 -5 14 1 11 2 29 1
39 -1 18 -2 19 -21 1 -23 -21 -34 -16 -24 9 5 14 9 15 15 4 6 -9 9 -3 9 17 0
17 4 35 9 40 19 20 31 187 17 220 -11 24 -14 75 -4 69 4 -2 12 -30 18 -62z
m-20 -94 c0 -28 -8 -21 -19 15 -8 29 -9 30 -10 7 -1 -15 -5 -30 -11 -36 -5 -5
-11 -19 -13 -31 -2 -13 -6 -26 -10 -29 -4 -4 -7 -13 -7 -19 0 -7 -8 -30 -17
-51 -9 -22 -17 -42 -17 -46 -2 -16 -48 -68 -62 -68 -12 0 -10 7 9 33 28 38 45
80 49 122 2 18 9 30 18 30 8 1 14 7 12 14 -4 18 27 94 41 103 14 9 37 -18 37
-44z m-154 -65 c-11 -11 -19 6 -11 24 8 17 8 17 12 0 3 -10 2 -21 -1 -24z
m-27 -87 c-7 -40 -7 -61 0 -70 8 -10 4 -16 -15 -27 -14 -7 -32 -26 -40 -41
-13 -25 -13 -28 1 -28 8 0 15 -4 15 -10 0 -5 -4 -10 -10 -10 -5 0 -10 -19 -11
-42 -2 -77 -17 -2 -18 89 -1 69 1 81 14 77 8 -4 15 -14 15 -23 0 -10 3 -12 8
-4 4 6 7 34 7 61 0 40 2 49 15 44 12 -4 13 -2 3 9 -7 7 -13 18 -13 24 0 5 4 3
10 -5 8 -12 10 -12 16 3 12 33 14 11 3 -47z m479 -34 c7 -5 16 -23 21 -40 10
-32 9 -33 -28 -36 -8 -1 -17 -10 -21 -21 -6 -16 -8 -14 -8 10 1 17 -4 40 -11
52 -16 31 -15 33 29 42 3 0 11 -3 18 -7z m45 -119 c2 -10 8 -25 11 -34 5 -11
1 -19 -10 -23 -13 -5 -14 -4 -6 7 9 10 6 17 -8 30 -11 9 -20 21 -20 27 0 17
27 11 33 -7z m-1003 -20 c0 -5 -4 -14 -9 -21 -6 -10 -10 -9 -14 7 -3 14 0 21
9 21 8 0 14 -3 14 -7z m37 -39 c-3 -3 -12 -4 -19 -1 -8 3 -5 6 6 6 11 1 17 -2
13 -5z m784 -50 c19 -11 -13 -24 -33 -13 -13 7 -18 6 -18 -5 0 -9 -7 -12 -20
-9 -22 6 -22 6 -14 27 4 11 16 14 40 11 19 -2 39 -7 45 -11z m-694 -46 c-3 -8
-6 -5 -6 6 -1 11 2 17 5 13 3 -3 4 -12 1 -19z m560 -25 c-4 -3 -1 -13 7 -22
13 -14 11 -16 -20 -18 -30 -1 -33 1 -23 13 9 11 9 14 0 14 -7 0 -9 5 -6 10 3
6 16 10 27 10 12 0 18 -3 15 -7z m419 -58 c8 -24 8 -37 1 -42 -13 -8 -46 37
-40 54 4 9 0 11 -11 7 -21 -8 -20 6 2 22 21 15 31 7 48 -41z m-1016 15 c0 -5
-4 -10 -10 -10 -5 0 -10 5 -10 10 0 6 5 10 10 10 6 0 10 -4 10 -10z m-285 -40
c-10 -11 -20 -18 -23 -15 -3 3 3 14 13 25 10 11 20 18 23 15 3 -3 -3 -14 -13
-25z m324 17 c8 -10 7 -14 -4 -14 -8 0 -15 6 -15 14 0 7 2 13 4 13 2 0 9 -6
15 -13z m-309 -42 c-13 -14 -26 -23 -28 -20 -3 3 5 16 18 30 13 14 26 23 28
20 3 -3 -5 -16 -18 -30z m768 24 c-2 -6 -8 -10 -13 -10 -5 0 -11 4 -13 10 -2
6 4 11 13 11 9 0 15 -5 13 -11z m60 -1 c8 -8 6 -16 -10 -30 -26 -22 -48 -23
-48 -2 0 11 6 15 20 11 23 -6 26 3 8 21 -9 9 -9 12 3 12 8 0 20 -5 27 -12z
m-104 -33 c11 -8 15 -15 10 -15 -6 0 -19 7 -30 15 -10 8 -14 14 -9 14 6 0 19
-6 29 -14z m-224 -5 c0 -13 -20 -13 -40 0 -12 8 -9 10 13 10 15 0 27 -4 27
-10z m830 -47 c0 -13 -2 -23 -4 -23 -2 0 -12 -3 -21 -6 -14 -6 -16 -1 -13 27
5 56 37 58 38 2z m-600 20 c0 -5 -5 -15 -10 -23 -8 -12 -10 -11 -10 8 0 12 5
22 10 22 6 0 10 -3 10 -7z m-157 -22 c15 -8 27 -21 27 -29 0 -11 -10 -7 -32
14 -18 16 -35 31 -38 33 -7 5 10 -2 43 -18z m424 -18 c-3 -10 -5 -4 -5 12 0
17 2 24 5 18 2 -7 2 -21 0 -30z m143 -49 c0 -8 7 -14 15 -14 8 0 15 5 15 11 0
7 15 9 43 5 23 -3 45 -5 49 -5 3 -1 5 -9 4 -18 -3 -19 -36 -34 -51 -23 -6 5
-29 10 -53 13 -48 5 -63 14 -43 26 11 7 11 10 0 17 -8 5 -21 18 -29 29 -13 17
-11 16 18 -4 17 -12 32 -29 32 -37z m-453 40 c-3 -3 -12 -4 -19 -1 -8 3 -5 6
6 6 11 1 17 -2 13 -5z m687 -70 c9 -24 7 -44 -5 -44 -5 0 -9 8 -7 18 1 9 -1
23 -5 30 -5 6 -4 12 1 12 6 0 13 -7 16 -16z m-155 -78 c0 -14 -2 -16 -6 -6 -4
8 -12 21 -20 28 -7 7 -13 21 -13 30 1 14 5 12 20 -7 11 -13 20 -33 19 -45z
m-93 29 c-11 -8 -25 -15 -30 -15 -6 1 0 7 14 15 32 19 40 18 16 0z m199 -33
c-3 -3 -11 0 -18 7 -9 10 -8 11 6 5 10 -3 15 -9 12 -12z m-777 -191 c-2 -14
-7 -26 -13 -28 -6 -2 -11 33 -11 90 l-2 92 14 -65 c8 -36 13 -76 12 -89z m847
104 c17 -13 26 -24 20 -25 -5 0 -23 11 -40 25 -16 13 -25 24 -20 25 6 0 24
-11 40 -25z m-680 -358 c4 5 5 2 1 -5 -11 -19 -36 4 -35 32 1 18 2 18 13 -7 7
-15 16 -24 21 -20z m-127 -15 c2 -25 -2 -51 -10 -60 -12 -16 -11 -16 6 -2 18
14 18 13 11 -10 -8 -25 -8 -25 14 -6 17 16 21 16 21 4 0 -18 -26 -42 -37 -35
-4 3 -9 -26 -9 -65 -2 -56 -6 -73 -22 -88 -26 -25 -32 -11 -32 78 0 48 -5 71
-17 85 -10 11 -12 17 -6 13 26 -15 39 15 35 77 -4 57 -4 59 19 55 20 -3 24 -9
27 -46z m129 -44 c-3 -8 -6 -5 -6 6 -1 11 2 17 5 13 3 -3 4 -12 1 -19z m20 0
c-3 -8 -6 -5 -6 6 -1 11 2 17 5 13 3 -3 4 -12 1 -19z m-112 2 c-3 -5 -11 -10
-16 -10 -6 0 -7 5 -4 10 3 6 11 10 16 10 6 0 7 -4 4 -10z m65 -83 c0 -2 -12
-14 -27 -28 l-28 -24 24 28 c23 25 31 32 31 24z m185 -154 c3 -14 2 -30 -4
-36 -15 -15 -41 11 -37 37 3 11 5 24 5 28 2 17 30 -6 36 -29z m-175 -100 c8
-10 14 -29 12 -43 -2 -20 -1 -22 7 -10 8 11 11 11 11 2 0 -7 -7 -15 -15 -18
-8 -4 -12 -10 -9 -15 3 -5 -1 -6 -8 -4 -20 8 -68 -64 -116 -175 l-11 -25 0 23
c-1 13 4 33 10 45 7 12 12 30 13 42 1 11 7 20 14 20 19 0 29 21 48 102 9 40
20 73 23 73 4 0 13 -8 21 -17z m193 -12 c-12 -9 -23 -23 -26 -31 -4 -12 -6
-12 -12 3 -8 19 32 60 49 50 5 -3 0 -13 -11 -22z m42 -32 c-4 -5 1 -19 9 -31
23 -33 20 -46 -9 -40 -14 2 -22 9 -19 14 4 6 1 14 -7 18 -11 7 -11 13 0 34 8
14 18 23 23 20 4 -3 6 -10 3 -15z m5 -84 c0 -8 -82 -57 -87 -52 -2 3 13 17 34
31 36 25 53 32 53 21z m36 -138 c-10 -7 -34 -22 -53 -34 -41 -28 -47 -28 -33
-4 5 11 29 26 52 34 52 19 59 19 34 4z m64 -87 c0 -11 -7 -20 -15 -20 -18 0
-19 6 -2 25 16 19 17 18 17 -5z m0 -210 c0 -11 -7 -23 -15 -27 -25 -9 -28 3
-8 25 23 26 23 26 23 2z m-95 -412 c9 -29 12 -87 4 -82 -14 8 -11 -14 6 -39 8
-14 11 -28 6 -36 -12 -19 -34 -3 -28 19 3 13 0 17 -10 13 -12 -5 -14 -1 -7 18
5 13 8 45 7 72 -3 43 12 65 22 35z m17 -310 c-4 -18 -6 -19 -14 -4 -12 22 -1
57 11 37 5 -7 6 -22 3 -33z"/>
<path d="M1611 2034 c0 -11 3 -14 6 -6 3 7 2 16 -1 19 -3 4 -6 -2 -5 -13z"/>
<path d="M1592 1940 c0 -14 2 -19 5 -12 2 6 2 18 0 25 -3 6 -5 1 -5 -13z"/>
<path d="M1616 1928 c-11 -36 -13 -58 -6 -58 4 0 10 16 12 35 4 35 1 46 -6 23z"/>
<path d="M1490 4814 c0 -12 15 -44 33 -70 41 -59 64 -143 48 -173 -10 -17 -16
-19 -38 -10 -24 9 -25 8 -12 -8 7 -10 32 -36 54 -59 28 -27 48 -62 64 -105 12
-35 25 -71 28 -79 4 -11 7 -9 14 8 10 27 1 75 -12 66 -5 -3 -8 -2 -7 3 1 4 -1
25 -5 45 -5 25 -12 35 -21 32 -8 -3 -22 10 -36 33 l-22 38 23 -21 c39 -34 53
-40 40 -16 -18 34 -12 49 9 23 28 -32 27 -2 -1 33 -20 26 -14 37 9 14 8 -8 12
-8 12 -1 0 6 -7 16 -15 23 -8 6 -14 15 -13 18 4 12 -32 72 -43 72 -6 0 -8 4
-5 8 3 5 -12 27 -33 49 -21 22 -46 53 -54 69 -14 25 -16 26 -17 8z"/>
<path d="M1443 4595 c0 -8 4 -15 9 -15 4 0 8 4 8 9 0 6 -4 12 -8 15 -5 3 -9
-1 -9 -9z"/>
<path d="M1677 4433 c-4 -3 -7 -13 -7 -22 1 -13 3 -13 11 2 11 19 8 33 -4 20z"/>
<path d="M1712 4415 c0 -16 -4 -44 -7 -62 -6 -27 -4 -31 11 -29 10 2 20 9 22
16 3 7 0 10 -7 6 -6 -4 -11 -1 -11 7 0 8 9 17 21 20 17 5 19 9 9 27 -6 11 -15
18 -20 15 -5 -3 -11 3 -13 12 -2 10 -5 5 -5 -12z"/>
<path d="M2130 3986 c0 -70 -21 -143 -48 -168 l-24 -23 21 42 c29 58 26 69
-10 39 -17 -14 -35 -26 -40 -26 -12 0 -40 -56 -32 -64 4 -3 -1 -6 -10 -6 -10
0 -17 5 -17 12 0 6 -3 8 -7 5 -3 -4 -12 -2 -20 4 -10 9 -13 8 -13 -4 0 -8 7
-20 15 -27 8 -7 15 -9 15 -5 0 5 9 0 20 -10 11 -10 20 -24 20 -32 0 -7 8 -13
19 -13 10 0 24 -7 31 -15 39 -47 123 27 131 115 4 46 -33 220 -47 220 -2 0 -4
-20 -4 -44z"/>
</g>
</svg>
