<?xml version="1.0" standalone="no"?>
<!DOCTYPE svg PUBLIC "-//W3C//DTD SVG 20010904//EN"
 "http://www.w3.org/TR/2001/REC-SVG-20010904/DTD/svg10.dtd">
<svg version="1.0" xmlns="http://www.w3.org/2000/svg"
 width="229.000000pt" height="415.000000pt" viewBox="0 0 229.000000 415.000000"
 preserveAspectRatio="xMidYMid meet">

<g transform="translate(0.000000,415.000000) scale(0.100000,-0.100000)"
fill="#000000" stroke="none">
<path d="M1305 4079 l100 -50 16 -62 c10 -34 22 -63 28 -65 6 -2 11 -16 11
-30 0 -15 7 -49 15 -77 9 -27 20 -67 26 -87 7 -27 15 -38 29 -38 30 0 33 18
11 65 -12 25 -21 49 -21 55 0 6 -8 22 -17 37 -10 14 -19 35 -20 46 -2 11 -14
42 -28 69 -26 53 -31 73 -15 63 5 -3 8 0 5 7 -3 7 -20 19 -38 27 -17 8 -41 22
-53 33 -22 19 -114 58 -137 58 -6 -1 33 -23 88 -51z"/>
<path d="M1092 4067 c-45 -46 -58 -69 -102 -182 -28 -71 -50 -133 -50 -137 0
-4 -12 -33 -26 -64 -30 -66 -28 -83 23 -163 31 -49 32 -53 9 -32 -26 24 -26
24 -41 5 -8 -10 -15 -23 -15 -28 0 -4 -11 -17 -24 -27 -36 -28 -24 -88 23
-115 l26 -15 -25 6 c-14 4 -37 15 -52 26 -29 20 -38 14 -15 -11 10 -12 9 -12
-5 -1 -22 17 -44 5 -27 -15 6 -8 8 -14 4 -14 -4 0 3 -9 16 -20 21 -17 21 -19
4 -13 -11 3 -26 10 -32 16 -10 7 -13 2 -13 -19 0 -37 -41 -106 -103 -175 -91
-102 -241 -249 -282 -276 -22 -15 -44 -32 -50 -37 -13 -14 -82 -46 -98 -46
-20 0 -18 -36 4 -56 32 -28 22 -34 -21 -11 -39 21 -42 21 -54 4 -10 -13 -11
-28 -5 -59 8 -33 7 -44 -7 -59 -20 -23 -34 -24 -34 -5 0 8 -5 18 -11 22 -8 5
-10 -1 -7 -21 12 -63 -50 -365 -75 -365 -2 0 -2 17 0 38 l3 37 -14 -45 c-14
-50 -20 -289 -6 -254 4 12 12 63 16 115 4 59 10 87 14 74 7 -17 8 -16 13 10 2
17 3 8 1 -20 -2 -27 -5 -59 -7 -70 -2 -11 -10 -57 -17 -102 -8 -46 -17 -83
-22 -83 -4 0 -8 -317 -8 -704 l0 -704 33 -11 c19 -6 42 -11 53 -10 46 5 61 -2
75 -33 18 -43 74 -60 113 -35 39 26 46 21 46 -34 0 -46 4 -55 34 -83 36 -34
149 -82 154 -66 2 6 8 10 14 10 6 0 8 -6 5 -14 -3 -8 1 -17 9 -20 9 -3 13 -10
10 -14 -6 -10 68 -84 99 -100 21 -11 66 -15 153 -13 37 1 52 5 52 15 0 8 -7
16 -15 20 -16 6 -21 36 -7 36 5 0 9 13 10 29 0 16 8 43 16 60 9 16 16 43 16
59 0 55 64 445 86 520 4 13 2 22 -4 22 -6 0 -12 -10 -15 -22 -2 -13 -4 -4 -3
19 0 46 4 50 26 31 8 -7 7 -4 -3 8 -22 26 -22 58 0 79 14 15 15 20 3 38 -9 15
-10 22 -1 25 6 2 9 8 6 13 -3 5 -1 18 5 29 9 16 8 20 -5 20 -8 0 -15 5 -15 10
0 6 5 9 11 8 6 -2 14 3 16 10 3 6 0 12 -7 12 -6 0 -8 5 -5 10 4 6 10 8 15 5 4
-3 6 5 4 17 -2 13 -2 17 2 10 3 -6 10 -10 15 -6 5 3 9 -16 9 -41 0 -28 -4 -44
-10 -40 -15 9 -12 -4 5 -21 8 -9 19 -13 24 -10 5 4 12 -2 14 -11 4 -17 5 -17
6 0 0 10 -6 20 -14 23 -21 9 -18 21 7 27 18 5 19 8 8 21 -8 10 -9 16 -2 16 6
0 9 7 5 16 -5 13 -7 13 -14 2 -6 -9 -9 -6 -9 10 0 13 4 21 9 18 5 -3 14 0 20
8 8 9 8 15 2 18 -7 2 -7 14 -2 33 7 22 10 25 11 10 1 -11 4 -29 6 -40 3 -11 5
-24 4 -30 -9 -122 -9 -160 2 -167 7 -4 8 -8 3 -8 -6 0 -11 -12 -10 -28 0 -15
-4 -30 -10 -35 -7 -5 -7 -9 1 -15 10 -7 17 -92 17 -234 1 -38 4 -68 8 -68 6 0
17 -110 25 -260 2 -47 6 -103 9 -125 2 -22 4 -64 4 -93 l1 -52 43 2 c70 3 147
-13 160 -33 10 -16 25 -19 95 -19 46 0 92 5 103 10 10 6 48 13 84 17 63 6 65
7 65 34 0 16 4 29 10 29 5 0 9 -3 9 -7 -5 -28 3 -83 11 -83 5 0 25 11 44 23
19 13 63 29 98 36 57 12 126 38 200 77 14 8 34 14 45 14 29 0 87 19 108 35 17
13 18 16 5 26 -13 9 -13 10 2 6 9 -3 23 2 31 11 13 15 11 23 -11 72 -23 51
-26 53 -32 30 -6 -23 -7 -23 -13 -5 -3 11 -5 36 -5 55 1 19 -2 46 -7 60 -5 14
-9 39 -10 55 -1 17 -5 50 -8 75 -5 31 -4 36 2 15 4 -16 15 -43 23 -60 10 -18
15 -51 14 -83 -2 -37 2 -56 11 -59 7 -3 10 -9 7 -14 -3 -5 0 -9 5 -9 6 0 11
-7 11 -16 0 -9 6 -14 13 -11 6 2 20 -2 30 -11 16 -14 17 -12 17 41 0 36 -4 57
-11 57 -8 0 -8 4 -1 13 12 14 12 156 0 163 -4 3 -8 -1 -8 -8 0 -9 -3 -9 -10 2
-13 20 -13 33 1 24 7 -4 9 1 5 15 -3 11 -9 31 -12 44 -4 12 -11 28 -17 35 -6
7 -12 29 -14 49 -2 20 -8 44 -14 54 -5 10 -12 52 -16 94 -3 41 -8 73 -11 71
-8 -8 -34 23 -28 33 4 5 0 12 -6 14 -9 4 -9 8 -3 14 16 13 16 33 1 27 -8 -3
-17 -1 -21 5 -3 6 1 11 9 11 9 0 16 7 16 16 0 9 -5 12 -13 8 -9 -6 -9 -4 1 7
16 17 16 39 -1 39 -7 0 -13 10 -14 23 0 12 1 16 4 10 3 -7 10 -13 16 -13 7 1
2 9 -10 19 -27 23 -28 28 -8 48 20 19 17 129 -2 125 -17 -3 -17 10 -1 26 10
10 10 15 -1 21 -12 8 -12 17 -2 53 10 35 9 68 -3 176 -9 74 -16 154 -16 178 0
82 -18 44 -22 -46 -2 -56 -8 -94 -16 -102 -11 -11 -12 -9 -4 13 6 14 11 86 11
160 1 75 4 148 7 162 2 15 0 27 -5 27 -8 0 -18 23 -26 55 -2 6 -3 33 -4 60 -2
66 -20 40 -22 -30 0 -27 -3 -44 -6 -37 -2 6 -9 10 -13 7 -5 -3 -7 5 -4 17 3
13 8 33 11 46 3 12 1 22 -5 22 -6 0 -10 33 -9 88 2 64 5 86 15 84 16 -3 16 33
-1 50 -8 7 -13 23 -12 36 1 12 -2 22 -6 22 -4 0 -10 14 -14 30 -4 17 -10 30
-14 30 -5 0 -14 21 -21 48 -24 87 -41 121 -57 115 -12 -5 -14 2 -13 33 3 57 1
66 -10 59 -11 -7 -11 -7 -14 50 -1 22 -9 51 -18 65 -9 14 -15 37 -14 53 1 15
-1 27 -5 27 -4 0 -10 7 -13 16 -3 8 -2 12 4 9 13 -8 13 8 1 20 -5 6 -11 19
-13 30 -1 11 -7 23 -11 26 -4 3 -9 35 -11 71 -2 36 -6 70 -10 76 -3 5 0 12 6
15 10 3 9 8 -2 21 -14 14 -22 14 -98 -4 -89 -21 -265 -27 -292 -10 -12 8 -10
10 10 10 94 3 110 4 110 13 0 5 -11 7 -25 5 -14 -3 -25 -1 -25 3 0 5 9 9 21 9
13 0 18 4 13 13 -4 6 2 4 13 -5 11 -10 23 -18 28 -18 5 0 0 7 -11 15 -24 18
-10 30 49 39 23 4 47 12 54 18 7 6 22 8 33 5 12 -3 17 -1 14 5 -3 5 3 12 15
15 12 3 21 9 21 14 0 12 -3 12 -94 -10 -58 -14 -99 -18 -158 -13 l-80 5 39 13
c46 16 46 16 38 4 -4 -6 5 -10 20 -10 14 0 28 6 31 13 3 8 18 13 34 12 17 -1
30 1 30 4 0 12 65 33 98 31 31 -1 43 12 22 25 -6 4 -7 11 -4 17 10 15 -71 4
-111 -15 -16 -8 -48 -17 -69 -20 -34 -6 -38 -4 -25 8 12 12 39 21 72 24 5 1 5
6 2 11 -7 11 37 31 45 21 3 -4 21 -4 40 0 19 3 29 7 22 8 -7 0 -11 5 -7 10 7
13 -33 34 -51 27 -16 -6 -19 5 -5 19 14 16 -6 56 -24 49 -8 -3 -15 -1 -15 5 0
6 -9 11 -19 11 -13 0 -25 -14 -37 -42 -11 -29 -19 -37 -21 -26 -2 9 4 29 14
44 12 20 14 26 4 23 -8 -3 -23 -29 -34 -58 -12 -32 -24 -48 -29 -43 -6 6 0 29
16 60 14 28 26 60 26 71 0 28 -77 326 -90 351 -8 15 -201 120 -222 120 -2 0
-27 -24 -56 -53z m142 -166 c3 -4 19 -11 36 -14 37 -8 53 -44 44 -94 -9 -47
-39 -65 -106 -61 -50 3 -54 5 -71 40 -26 54 -16 93 31 117 43 22 59 25 66 12z
m-10 -326 c3 -8 1 -15 -4 -15 -6 0 -10 7 -10 15 0 8 2 15 4 15 2 0 6 -7 10
-15z m98 -17 c-7 -7 -12 -8 -12 -2 0 14 12 26 19 19 2 -3 -1 -11 -7 -17z
m-393 -164 c3 -16 1 -17 -13 -5 -10 8 -22 24 -28 35 -11 20 -10 20 13 5 13 -9
26 -25 28 -35z m321 -14 c-8 -5 -19 -10 -25 -10 -5 0 -3 5 5 10 8 5 20 10 25
10 6 0 3 -5 -5 -10z m-240 -30 c0 -5 -2 -10 -4 -10 -3 0 -8 5 -11 10 -3 6 -1
10 4 10 6 0 11 -4 11 -10z m-20 -40 c0 -5 -6 -10 -14 -10 -8 0 -18 5 -21 10
-3 6 3 10 14 10 12 0 21 -4 21 -10z m126 -35 c-11 -8 -25 -15 -30 -15 -6 0 -2
7 8 15 11 8 25 15 30 15 6 0 2 -7 -8 -15z m155 -10 c19 -8 27 -14 19 -14 -14
0 -72 28 -59 29 4 0 22 -7 40 -15z m152 -2 c-7 -2 -19 -2 -25 0 -7 3 -2 5 12
5 14 0 19 -2 13 -5z m-488 -12 c2 -5 -1 -11 -8 -14 -21 -8 -60 -3 -64 9 -4 13
64 17 72 5z m105 -1 c0 -5 -11 -10 -24 -10 -13 0 -31 -3 -40 -6 -9 -3 -16 -1
-16 4 0 10 23 18 63 21 9 0 17 -3 17 -9z m225 -21 c-4 -5 11 -10 32 -10 21 -1
29 -3 18 -6 -11 -2 -63 -15 -116 -28 -112 -29 -151 -31 -184 -9 -32 21 -32 36
0 24 15 -6 26 -6 30 0 7 12 45 13 45 2 0 -4 -5 -13 -12 -20 -9 -9 -9 -12 3
-12 24 1 99 38 99 50 0 6 3 9 8 7 4 -3 15 -1 25 2 29 11 58 11 52 0z m-403
-34 c-17 -30 -115 -145 -153 -180 -36 -34 -39 -35 -18 -9 13 17 45 56 70 85
26 30 57 74 69 98 16 32 24 40 30 30 5 -7 6 -18 2 -24z m438 -14 c0 -9 -9 -12
-153 -50 -72 -19 -81 -19 -108 -6 -38 20 -37 27 1 13 32 -11 105 3 195 36 47
17 65 19 65 7z m280 -42 c0 -26 4 -39 14 -39 16 0 26 -32 20 -66 -2 -13 0 -33
5 -43 7 -11 7 -35 2 -62 l-9 -44 -2 35 c-1 19 -6 49 -10 65 -5 19 -6 6 -3 -35
3 -36 8 -69 10 -73 5 -8 14 -130 16 -194 0 -18 3 -30 7 -28 3 2 11 -5 18 -15
8 -13 8 -21 1 -26 -7 -4 -4 -13 7 -25 9 -10 14 -19 10 -19 -4 0 -16 10 -27 23
l-18 22 -2 -25 c-2 -44 -26 159 -38 320 -16 227 -18 279 -9 274 4 -3 8 -23 8
-45z m-964 -211 c-24 -36 -96 -99 -96 -84 0 6 102 106 108 106 1 0 -4 -10 -12
-22z m-281 -218 c-4 -6 -11 -8 -16 -5 -5 4 -9 2 -9 -2 0 -5 -17 -9 -37 -10
l-38 -1 33 8 c18 4 36 10 39 14 11 10 35 7 28 -4z m805 -95 c36 7 91 20 123
30 32 9 60 15 62 13 7 -7 -157 -57 -208 -64 -45 -6 -49 -5 -87 34 -22 22 -40
44 -40 50 0 5 19 -10 43 -33 l42 -43 65 13z m-61 -55 c14 0 55 7 91 15 36 8
76 17 90 20 14 3 1 -4 -28 -14 -82 -31 -163 -37 -196 -16 -15 10 -32 27 -38
39 -7 14 0 10 22 -11 20 -21 42 -33 59 -33z m257 1 c-3 -5 -21 -13 -39 -16
-17 -4 -36 -10 -42 -14 -12 -7 -18 -8 -51 -10 -14 0 -22 -5 -19 -11 3 -5 0 -7
-8 -4 -8 3 -18 1 -22 -5 -8 -14 -62 -14 -70 -1 -5 8 28 15 38 8 2 -2 10 2 18
9 8 6 32 14 54 18 22 4 47 9 55 10 8 2 31 10 50 18 36 16 46 15 36 -2z m291
-43 c-3 -8 -6 -5 -6 6 -1 11 2 17 5 13 3 -3 4 -12 1 -19z m-557 -20 c0 -16
-20 -47 -20 -33 0 6 -11 -3 -25 -20 -13 -16 -24 -25 -25 -19 0 6 7 18 16 25 9
7 20 23 25 36 9 24 29 32 29 11z m567 -35 c-3 -10 -5 -4 -5 12 0 17 2 24 5 18
2 -7 2 -21 0 -30z m-410 -25 c-3 -8 -6 -5 -6 6 -1 11 2 17 5 13 3 -3 4 -12 1
-19z m-169 -13 c-3 -3 -9 2 -12 12 -6 14 -5 15 5 6 7 -7 10 -15 7 -18z m130 0
c-6 -14 -13 -24 -14 -22 -6 6 9 47 17 47 5 0 3 -11 -3 -25z m-121 -37 c-3 -8
-6 -5 -6 6 -1 11 2 17 5 13 3 -3 4 -12 1 -19z m594 2 c1 -5 2 -13 3 -17 6 -26
15 -73 21 -108 4 -29 3 -36 -4 -25 -9 12 -11 9 -12 -15 -1 -27 -2 -26 -9 10
-14 69 -19 165 -9 165 5 0 10 -4 10 -10z m-506 -38 c-15 -16 -16 -15 -4 12 7
15 15 23 17 16 3 -7 -3 -19 -13 -28z m-51 -28 c3 -8 2 -12 -4 -9 -6 3 -10 10
-10 16 0 14 7 11 14 -7z m879 -96 c-10 -19 -18 -5 -19 35 l-1 42 12 -35 c7
-19 10 -38 8 -42z m-1916 -10 c-3 -8 -6 -5 -6 6 -1 11 2 17 5 13 3 -3 4 -12 1
-19z m1873 -5 c0 -19 -3 -24 -10 -17 -6 6 -8 18 -4 27 9 24 14 21 14 -10z m40
-23 c0 -5 -2 -10 -4 -10 -3 0 -8 5 -11 10 -3 6 -1 10 4 10 6 0 11 -4 11 -10z
m-282 -31 c-3 -8 -7 -3 -11 10 -4 17 -3 21 5 13 5 -5 8 -16 6 -23z m-18 -24
c0 -5 -5 -3 -10 5 -5 8 -10 20 -10 25 0 6 5 3 10 -5 5 -8 10 -19 10 -25z m310
14 c0 -14 -17 -10 -23 5 -4 10 -1 13 9 9 7 -3 14 -9 14 -14z m-303 -176 c-3
-10 -5 -4 -5 12 0 17 2 24 5 18 2 -7 2 -21 0 -30z m10 -90 c-3 -10 -5 -2 -5
17 0 19 2 27 5 18 2 -10 2 -26 0 -35z m300 -41 c-4 -49 -13 -104 -22 -123 -14
-34 -15 -33 -11 36 5 77 9 101 19 111 4 4 7 20 7 36 0 15 3 28 6 28 4 0 4 -40
1 -88z m-1980 -9 c-3 -10 -5 -4 -5 12 0 17 2 24 5 18 2 -7 2 -21 0 -30z m1712
-360 c1 -43 -3 -73 -9 -73 -6 0 -9 48 -9 128 2 103 3 117 9 72 5 -30 8 -88 9
-127z m328 145 c-3 -8 -6 -5 -6 6 -1 11 2 17 5 13 3 -3 4 -12 1 -19z m4 -37
c-6 -10 -7 -21 -4 -25 3 -3 1 -6 -5 -6 -7 0 -12 11 -12 25 0 16 6 25 15 25 12
0 13 -4 6 -19z m-24 -78 c-3 -10 -5 -4 -5 12 0 17 2 24 5 18 2 -7 2 -21 0 -30z
m-994 -13 c3 -13 0 -20 -9 -20 -8 0 -14 9 -14 20 0 11 4 20 9 20 5 0 11 -9 14
-20z m-7 -98 c-3 -21 -6 -45 -7 -55 0 -15 -3 -16 -15 -7 -15 13 -20 45 -5 36
4 -3 6 6 3 21 -3 18 -1 24 7 19 6 -4 11 -3 11 3 0 5 -5 11 -11 13 -5 2 -7 11
-3 22 6 17 8 17 16 1 6 -9 7 -33 4 -53z m64 -48 c0 -13 -4 -24 -10 -24 -5 0
-10 14 -10 31 0 17 4 28 10 24 6 -3 10 -17 10 -31z m1025 -13 c3 -5 1 -12 -5
-16 -5 -3 -10 1 -10 9 0 18 6 21 15 7z m-1121 -33 c-6 -20 -5 -21 10 -9 20 17
20 8 1 -29 -10 -19 -13 -42 -9 -66 4 -25 2 -34 -5 -29 -7 4 -10 31 -7 73 5 83
5 82 12 82 3 0 2 -10 -2 -22z m96 2 c0 -5 -5 -10 -11 -10 -5 0 -7 5 -4 10 3 6
8 10 11 10 2 0 4 -4 4 -10z m715 -40 c-3 -5 -2 -10 4 -10 5 0 12 6 14 13 3 6
6 0 6 -15 1 -32 -2 -34 -23 -12 -14 14 -14 34 0 34 3 0 2 -4 -1 -10z m-108
-72 c-3 -8 -6 -5 -6 6 -1 11 2 17 5 13 3 -3 4 -12 1 -19z m428 -58 c-3 -5 -14
-10 -23 -9 -14 0 -13 2 3 9 27 11 27 11 20 0z m-1904 -244 c-6 -7 -23 -16 -37
-19 -29 -5 -20 8 18 27 28 15 35 12 19 -8z m59 -28 c15 -21 17 -28 6 -19 -16
13 -41 51 -33 51 2 0 14 -15 27 -32z m818 -120 c2 -57 1 -101 -1 -98 -8 9 -17
200 -10 200 5 0 9 -46 11 -102z m-761 70 c-3 -8 -6 -5 -6 6 -1 11 2 17 5 13 3
-3 4 -12 1 -19z m1360 -30 c-3 -8 -6 -5 -6 6 -1 11 2 17 5 13 3 -3 4 -12 1
-19z m-1332 -144 c-12 -28 -12 -39 -2 -57 20 -37 30 -37 54 -1 13 19 25 34 27
34 1 0 1 -24 -2 -52 -4 -59 -27 -112 -43 -102 -7 4 -7 10 0 17 17 17 13 31 -4
17 -9 -7 -13 -20 -10 -28 3 -8 1 -20 -3 -26 -12 -15 -31 -94 -24 -101 13 -13
22 -3 22 26 0 19 4 28 11 23 6 -3 16 0 21 7 7 10 8 5 3 -16 -9 -41 9 -21 25
28 l12 39 14 -27 c17 -34 18 -27 -11 -59 -29 -32 -32 -61 -7 -75 9 -6 12 -11
5 -11 -6 0 -15 5 -19 11 -3 6 -17 8 -30 5 -17 -5 -24 -2 -24 7 0 17 -34 50
-42 41 -4 -3 0 12 7 33 18 48 19 87 4 77 -9 -5 -10 6 -5 37 3 24 2 59 -3 76
-7 26 -5 41 10 73 24 50 35 53 14 4z m1312 -101 c-3 -10 -5 -4 -5 12 0 17 2
24 5 18 2 -7 2 -21 0 -30z m-1640 -9 c-3 -3 -12 -4 -19 -1 -8 3 -5 6 6 6 11 1
17 -2 13 -5z m-26 -37 c-10 -9 -11 -8 -5 6 3 10 9 15 12 12 3 -3 0 -11 -7 -18z
m1666 -29 c-2 -13 -4 -5 -4 17 -1 22 1 32 4 23 2 -10 2 -28 0 -40z m263 -8 c0
-5 -2 -10 -4 -10 -3 0 -8 5 -11 10 -3 6 -1 10 4 10 6 0 11 -4 11 -10z m-1530
-20 c0 -5 -4 -10 -10 -10 -5 0 -10 5 -10 10 0 6 5 10 10 10 6 0 10 -4 10 -10z
m1262 -42 c-7 -7 -12 -8 -12 -2 0 14 12 26 19 19 2 -3 -1 -11 -7 -17z m-1027
-61 c-4 -24 -18 -57 -31 -73 l-23 -29 26 78 c29 85 38 93 28 24z m1028 30 c3
-8 2 -20 -3 -26 -5 -9 -7 -4 -7 13 0 29 2 32 10 13z m-916 -89 c-3 -8 -6 -5
-6 6 -1 11 2 17 5 13 3 -3 4 -12 1 -19z m-256 -25 c13 -16 12 -17 -3 -4 -17
13 -22 21 -14 21 2 0 10 -8 17 -17z m256 -85 c-2 -13 -4 -3 -4 22 0 25 2 35 4
23 2 -13 2 -33 0 -45z m50 30 c-3 -7 -5 -2 -5 12 0 14 2 19 5 13 2 -7 2 -19 0
-25z m-242 -18 c25 -27 28 -51 7 -42 -12 4 -13 7 -3 10 9 3 4 12 -15 28 -16
13 -24 23 -18 24 6 0 19 -9 29 -20z m1142 -27 c-3 -10 -5 -4 -5 12 0 17 2 24
5 18 2 -7 2 -21 0 -30z m-899 16 c-2 -6 -8 -10 -13 -10 -5 0 -11 4 -13 10 -2
6 4 11 13 11 9 0 15 -5 13 -11z m-183 -37 c-3 -3 -11 0 -18 7 -9 10 -8 11 6 5
10 -3 15 -9 12 -12z m169 -25 c-10 -26 -22 -20 -16 9 3 15 8 22 14 16 5 -5 6
-16 2 -25z m531 -37 c3 -6 -1 -7 -9 -4 -18 7 -21 14 -7 14 6 0 13 -4 16 -10z"/>
<path d="M1195 3860 c-4 -7 -3 -16 3 -22 14 -14 47 -6 47 12 0 18 -40 26 -50
10z"/>
<path d="M1180 3810 c-13 -9 -12 -12 4 -25 24 -18 45 -19 68 -1 35 26 -34 51
-72 26z"/>
<path d="M1581 3080 c0 -8 4 -24 9 -35 l9 -20 0 20 c0 11 -4 27 -9 35 -9 13
-10 13 -9 0z"/>
<path d="M460 379 c0 -5 5 -7 10 -4 6 3 10 8 10 11 0 2 -4 4 -10 4 -5 0 -10
-5 -10 -11z"/>
<path d="M400 330 c0 -5 5 -10 10 -10 6 0 10 5 10 10 0 6 -4 10 -10 10 -5 0
-10 -4 -10 -10z"/>
<path d="M1441 3823 c0 -4 4 -17 9 -28 8 -19 9 -19 9 2 1 12 -3 25 -9 28 -5 3
-10 3 -9 -2z"/>
<path d="M1460 3760 c0 -5 5 -10 11 -10 5 0 7 5 4 10 -3 6 -8 10 -11 10 -2 0
-4 -4 -4 -10z"/>
<path d="M41 3490 c0 -25 12 -124 28 -220 16 -96 32 -209 36 -250 11 -130 15
-163 26 -256 l11 -91 34 16 c35 16 45 31 20 31 -24 0 -37 58 -81 365 -9 61
-22 144 -30 185 -7 41 -19 111 -25 155 -16 111 -18 116 -19 65z"/>
<path d="M820 3376 c0 -2 7 -9 15 -16 13 -11 14 -10 9 4 -5 14 -24 23 -24 12z"/>
<path d="M1807 3060 c5 -41 18 -80 27 -80 2 0 -2 19 -9 43 -7 23 -15 51 -18
62 -3 11 -3 0 0 -25z"/>
<path d="M75 2479 c-4 -6 -5 -12 -2 -15 2 -3 7 2 10 11 7 17 1 20 -8 4z"/>
<path d="M63 2419 c-1 -16 2 -29 7 -29 12 0 13 47 3 53 -5 3 -9 -8 -10 -24z"/>
<path d="M37 2316 c-4 -15 -6 -31 -2 -34 10 -10 16 6 13 35 l-3 28 -8 -29z"/>
<path d="M2081 1894 c0 -11 3 -14 6 -6 3 7 2 16 -1 19 -3 4 -6 -2 -5 -13z"/>
<path d="M1010 990 c0 -5 5 -10 11 -10 5 0 7 5 4 10 -3 6 -8 10 -11 10 -2 0
-4 -4 -4 -10z"/>
<path d="M993 953 c-7 -2 -13 -9 -13 -15 0 -6 -8 -17 -17 -25 -16 -13 -16 -13
5 -3 12 6 22 15 22 20 0 6 10 10 22 10 17 0 19 -3 10 -12 -7 -7 -12 -26 -12
-42 0 -23 3 -27 9 -16 6 8 7 18 5 22 -3 4 -1 8 4 8 10 0 9 30 -2 48 -8 13 -13
14 -33 5z"/>
<path d="M997 831 c-3 -12 -1 -21 3 -21 15 0 23 21 12 32 -6 6 -11 2 -15 -11z"/>
<path d="M993 780 c0 -9 7 -22 14 -29 10 -9 13 -6 13 17 0 18 -5 29 -14 29 -8
0 -14 -8 -13 -17z"/>
<path d="M957 720 c-12 -70 -15 -120 -6 -126 5 -3 9 0 9 7 0 7 2 10 5 7 9 -8
-6 -38 -16 -32 -5 3 -9 1 -9 -5 0 -5 4 -12 9 -16 6 -3 6 -18 1 -37 -5 -17 -7
-35 -4 -39 3 -5 -1 -12 -9 -15 -10 -3 -15 -19 -15 -42 1 -20 -2 -50 -5 -67 -3
-16 -11 -86 -17 -155 -7 -68 -14 -128 -16 -132 -8 -13 11 -9 56 11 24 11 49
17 56 14 15 -6 29 37 21 67 -3 11 -1 20 4 20 5 0 9 10 8 23 0 21 -1 21 -9 2
l-8 -20 -7 20 c-14 39 -14 46 -8 76 4 21 8 26 14 18 4 -8 11 -11 14 -7 4 3 1
15 -7 27 -10 16 -10 23 0 33 17 17 15 39 -5 53 -15 11 -15 15 -4 29 10 11 11
28 6 59 -4 23 -9 87 -11 141 -2 60 -8 104 -15 110 -9 8 -10 7 -6 -6 3 -10 2
-20 -3 -23 -5 -3 -10 5 -12 17 -4 18 -6 16 -11 -12z"/>
<path d="M1075 461 c4 -13 0 -24 -12 -31 -15 -10 -15 -11 -1 -6 12 3 18 -2 21
-17 2 -12 5 -1 6 26 0 27 -3 47 -10 47 -6 0 -8 -8 -4 -19z"/>
<path d="M1050 400 c0 -5 5 -10 11 -10 5 0 7 5 4 10 -3 6 -8 10 -11 10 -2 0
-4 -4 -4 -10z"/>
<path d="M1032 130 c0 -14 2 -19 5 -12 2 6 2 18 0 25 -3 6 -5 1 -5 -13z"/>
</g>
</svg>
