<?xml version="1.0" standalone="no"?>
<!DOCTYPE svg PUBLIC "-//W3C//DTD SVG 20010904//EN"
 "http://www.w3.org/TR/2001/REC-SVG-20010904/DTD/svg10.dtd">
<svg version="1.0" xmlns="http://www.w3.org/2000/svg"
 width="294.000000pt" height="535.000000pt" viewBox="0 0 294.000000 535.000000"
 preserveAspectRatio="xMidYMid meet">

<g transform="translate(0.000000,535.000000) scale(0.100000,-0.100000)"
fill="#000000" stroke="none">
<path d="M1215 5332 c-38 -13 -51 -22 -53 -39 -4 -26 -12 -29 -29 -12 -13 13
-58 -10 -81 -43 -7 -10 -18 -16 -23 -13 -5 4 -9 2 -9 -4 0 -16 18 -22 23 -9 3
10 7 10 17 1 13 -12 -2 -19 -53 -27 -10 -1 -17 -5 -17 -9 0 -4 -7 -21 -16 -38
-13 -26 -14 -33 -2 -40 7 -5 8 -9 3 -9 -6 0 -15 -15 -20 -32 -7 -23 -16 -33
-28 -32 -11 1 -17 -4 -16 -15 2 -24 -12 -81 -20 -77 -4 3 -7 -3 -8 -12 -3 -44
-8 -62 -16 -62 -5 0 -5 -10 -2 -21 5 -16 4 -19 -5 -14 -9 6 -12 0 -8 -23 2
-17 1 -29 -4 -26 -4 3 -9 -1 -9 -8 -1 -7 -3 -30 -5 -52 -2 -21 -9 -45 -16 -54
-11 -13 -11 -15 2 -7 12 6 13 5 3 -6 -7 -7 -13 -20 -13 -28 0 -14 1 -14 10 -1
8 12 10 11 10 -7 0 -12 -4 -25 -10 -28 -5 -3 -10 -13 -10 -22 0 -15 14 -10 16
5 4 23 28 72 35 72 6 0 5 -9 -1 -20 -11 -20 3 -30 15 -10 3 6 11 10 16 10 6 0
8 -4 5 -8 -3 -5 -7 -21 -10 -36 -3 -16 -12 -33 -21 -40 -14 -10 -25 -44 -28
-91 -1 -11 -7 -25 -15 -31 -8 -5 -16 -26 -17 -45 -2 -19 -4 -36 -5 -39 0 -3
-5 3 -11 13 -5 9 -15 17 -22 17 -8 0 -8 -3 -2 -8 12 -8 18 -52 7 -51 -18 3
-26 -2 -14 -9 9 -6 7 -13 -8 -30 -11 -11 -20 -24 -20 -28 0 -3 -9 -18 -19 -33
-13 -18 -17 -32 -11 -41 5 -8 6 -18 3 -24 -4 -5 -7 -25 -9 -44 -1 -19 -8 -38
-15 -43 -11 -7 -11 -9 1 -9 8 0 31 19 51 42 l37 42 -2 -31 c-1 -17 -5 -35 -9
-39 -10 -11 -9 -24 4 -24 5 0 7 5 4 10 -3 6 -1 10 5 10 13 0 34 -19 44 -40 3
-9 4 -5 2 8 -3 15 1 22 11 22 18 0 13 32 -6 38 -8 3 -11 0 -7 -7 11 -17 -2
-13 -23 8 -14 14 -16 22 -8 30 8 8 7 14 -2 24 -9 7 -12 8 -7 0 4 -7 -1 -9 -15
-6 -21 6 -21 6 2 19 13 7 20 13 14 14 -5 0 1 7 13 16 12 8 22 23 22 32 0 9 11
30 25 46 14 16 25 33 25 38 0 4 7 8 15 8 8 0 15 -7 15 -15 0 -8 6 -14 13 -12
6 1 11 -6 9 -15 -2 -11 3 -18 13 -18 8 0 15 -8 15 -17 0 -24 -17 -49 -27 -40
-4 4 -2 17 5 27 10 16 10 20 -2 20 -8 0 -16 -6 -19 -12 -4 -10 -7 -10 -18 0
-11 10 -10 12 4 12 9 0 17 7 17 15 0 18 -15 20 -30 3 -52 -64 -80 -101 -80
-106 1 -19 61 -71 75 -66 25 10 38 43 24 60 -7 9 -8 14 -1 14 6 0 12 -6 14
-12 3 -8 9 -4 17 10 6 12 19 22 27 22 11 0 13 6 9 20 -4 13 -2 20 7 20 9 0 13
10 12 28 0 15 2 29 7 32 4 3 18 30 32 60 l25 55 -5 -40 c-2 -22 -7 -47 -10
-55 -4 -8 -13 -35 -22 -60 -28 -76 -183 -296 -200 -285 -11 6 -71 -69 -96
-120 -11 -22 -26 -39 -34 -37 -8 2 -11 -3 -8 -11 3 -8 -1 -14 -9 -14 -8 0 -14
4 -14 8 0 9 21 24 34 24 5 0 10 19 12 42 1 23 5 47 9 52 10 18 -37 8 -57 -11
-10 -10 -24 -15 -33 -12 -15 6 -22 -11 -7 -19 4 -2 2 -2 -5 -1 -7 2 -10 -3 -6
-12 3 -7 9 -14 14 -14 4 0 6 -7 3 -15 -4 -8 -15 -13 -27 -11 -16 2 -22 10 -23
29 -1 15 2 27 5 27 4 0 26 30 50 66 29 44 46 62 51 54 5 -9 17 -10 36 -5 24 7
26 9 9 12 -59 11 -66 14 -58 26 4 8 1 7 -10 -2 -19 -15 -22 -9 -8 18 5 9 6 23
2 30 -6 9 -10 6 -16 -11 -7 -19 -9 -16 -12 21 l-4 44 -32 -54 c-31 -53 -32
-57 -33 -181 0 -118 -2 -129 -22 -146 -16 -14 -18 -22 -10 -30 18 -18 -10 -23
-79 -14 -69 10 -94 3 -75 -21 7 -7 9 -17 5 -20 -3 -4 1 -7 10 -7 10 0 17 -7
17 -15 0 -11 -7 -14 -25 -9 -18 5 -31 1 -43 -13 -9 -10 -42 -29 -72 -42 -30
-13 -64 -30 -75 -38 -19 -14 -18 -15 9 -8 l29 6 -38 -43 c-21 -24 -42 -44 -47
-46 -4 -2 -8 -10 -8 -18 0 -8 -3 -14 -8 -14 -11 0 -55 -88 -58 -118 -10 -101
-18 -144 -28 -148 -8 -3 -12 -44 -13 -122 -1 -72 2 -103 6 -82 l8 35 12 -30
c8 -19 11 -57 7 -105 -2 -41 0 -80 5 -86 5 -6 17 -60 26 -120 17 -106 24 -344
13 -471 -3 -31 -1 -54 5 -55 6 -2 11 7 13 20 5 32 22 27 22 -7 0 -19 8 -34 24
-44 29 -20 36 -54 37 -187 0 -58 4 -98 9 -91 11 19 18 -7 24 -97 4 -59 2 -81
-13 -110 -12 -25 -17 -53 -15 -87 4 -65 -14 -193 -31 -219 -18 -27 -55 -167
-55 -206 0 -16 4 -30 9 -30 16 0 18 -62 3 -104 -43 -120 -67 -252 -67 -363 0
-48 -4 -73 -11 -73 -21 0 -26 -43 -31 -267 -4 -161 -2 -223 6 -223 6 0 11 13
11 30 0 17 2 30 5 30 11 0 61 -26 68 -35 5 -6 12 -4 21 7 15 20 26 14 26 -14
0 -17 27 -18 659 -18 620 0 660 1 664 18 4 16 5 16 6 0 1 -14 10 -18 46 -18
44 0 45 1 47 33 0 17 1 38 1 46 -2 23 15 -3 24 -39 l9 -35 541 -3 c510 -2 540
-1 538 15 -1 10 -5 26 -9 36 -12 26 1 33 22 14 10 -10 21 -15 24 -12 3 3 8 -5
12 -18 7 -31 30 -37 134 -36 l82 1 -2 696 -3 697 -24 -3 c-20 -3 -23 -1 -16
15 4 10 8 23 10 28 16 52 18 56 26 43 6 -8 9 2 9 28 0 45 -10 59 -53 69 -31 8
-31 28 -1 33 10 1 27 16 37 33 16 29 17 90 17 887 l0 857 -31 29 c-22 21 -29
35 -25 51 4 14 -2 29 -14 43 -20 21 -27 52 -12 52 4 0 25 -10 47 -21 l40 -21
-37 38 c-21 20 -38 40 -38 43 0 4 -18 17 -40 31 -22 14 -40 28 -40 33 0 13
-51 28 -99 29 -37 0 -51 7 -80 35 -20 19 -37 30 -39 24 -2 -7 -22 -9 -56 -5
-48 6 -52 5 -65 -20 -15 -27 -31 -35 -31 -14 0 9 -3 9 -12 0 -14 -14 -74 -16
-82 -3 -3 5 1 11 8 14 8 3 17 1 19 -6 3 -8 10 -6 23 6 17 16 17 17 2 11 -13
-4 -18 -1 -18 10 0 9 8 16 19 16 14 0 17 6 13 25 -2 14 -8 22 -13 19 -5 -3 -9
5 -9 18 0 16 -3 19 -8 10 -13 -20 -42 -3 -43 27 -3 45 -9 125 -11 139 -2 19
-15 14 -36 -13 -14 -18 -22 -22 -26 -13 -6 13 -1 -16 10 -52 4 -14 1 -20 -10
-20 -11 0 -14 -8 -11 -35 5 -33 -7 -47 -20 -25 -3 6 -14 10 -23 9 -14 0 -13
-2 3 -9 11 -5 15 -9 8 -9 -6 -1 -9 -10 -6 -22 4 -16 2 -20 -8 -17 -19 6 -120
188 -112 201 4 6 1 7 -7 2 -10 -6 -12 -3 -8 13 4 12 3 22 -1 22 -4 0 -20 28
-36 63 -41 85 -41 84 -20 67 14 -12 19 -12 23 -2 3 10 7 10 18 1 8 -6 14 -16
14 -21 0 -6 -8 -4 -17 3 -15 12 -16 12 -10 -4 4 -10 7 -23 7 -28 0 -20 18 -7
24 17 5 18 2 32 -10 46 -19 20 -27 48 -15 48 4 0 17 -18 30 -40 12 -22 27 -38
32 -34 5 3 9 2 8 -3 -3 -17 2 -29 22 -53 l21 -25 -17 28 c-9 16 -13 32 -9 35
4 4 9 1 11 -6 3 -7 11 -19 20 -27 8 -8 15 -24 16 -34 0 -11 5 -17 9 -15 4 3 7
16 6 29 -1 13 -5 22 -8 20 -6 -4 -33 44 -44 79 -4 11 -12 16 -21 12 -12 -4
-14 0 -9 22 6 26 6 27 -10 7 -17 -19 -17 -19 -5 5 7 14 19 30 27 36 8 6 12 16
9 21 -4 6 4 9 18 7 29 -3 32 8 9 30 -8 9 -13 20 -9 26 3 5 1 17 -4 27 -5 10
-21 42 -34 71 -15 30 -28 47 -31 40 -4 -7 -4 -3 -2 10 2 12 0 22 -5 22 -5 0
-9 7 -9 15 0 8 -3 15 -8 15 -4 0 -18 28 -32 63 -13 34 -27 67 -31 72 -3 6 -12
33 -19 62 -11 47 -9 74 6 138 4 15 3 17 -4 6 -8 -11 -13 -8 -24 15 -15 31 -13
74 3 74 5 0 15 -12 21 -27 11 -27 12 -27 16 -5 7 45 -35 134 -83 174 -11 9
-42 20 -70 24 -27 3 -54 12 -60 19 -5 8 -19 15 -30 18 -15 4 -14 5 7 6 14 0
28 -4 30 -11 2 -6 10 -8 17 -4 22 14 -19 46 -127 98 -56 27 -126 53 -155 58
-29 5 -68 14 -87 20 -52 15 -158 11 -215 -8z m-135 -102 c-8 -5 -17 -7 -19 -4
-3 3 1 9 9 14 8 5 17 7 19 4 3 -3 -1 -9 -9 -14z m348 3 c-10 -2 -28 -2 -40 0
-13 2 -5 4 17 4 22 1 32 -1 23 -4z m87 -14 c-7 -10 92 -29 153 -30 45 0 52 -2
34 -9 -14 -6 -61 -4 -131 5 -153 20 -170 16 -233 -59 -28 -33 -55 -60 -60 -58
-5 1 -7 -2 -4 -7 3 -5 -10 -42 -29 -83 -19 -41 -46 -114 -59 -162 -27 -92 -45
-134 -46 -106 0 13 -1 13 -10 0 -6 -9 -5 -17 2 -21 8 -5 6 -16 -7 -36 -16 -23
-20 -25 -23 -10 -2 9 -9 17 -15 17 -8 0 -8 3 -2 8 9 6 35 56 35 67 0 2 -8 1
-17 -2 -16 -6 -17 -5 -3 12 9 11 10 16 3 11 -8 -4 -13 -2 -13 5 0 6 -8 9 -20
6 -17 -4 -19 -2 -13 21 14 61 23 74 43 69 11 -3 20 -1 20 3 0 5 6 10 13 13 6
2 5 3 -4 2 -39 -6 -41 11 -10 80 17 37 28 72 25 77 -3 5 6 22 21 38 16 17 24
33 20 40 -5 8 -3 11 6 8 15 -5 39 14 39 32 0 6 7 13 16 17 8 3 13 12 10 20 -3
8 -2 12 2 9 4 -2 21 3 39 12 23 12 59 17 127 17 52 0 93 -2 91 -6z m-19 -241
c9 -26 19 -47 23 -46 3 1 13 -2 23 -6 9 -4 29 -1 45 7 70 37 156 2 169 -69 3
-19 19 -50 35 -70 32 -41 35 -50 17 -57 -10 -3 -10 -7 -1 -18 6 -8 14 -27 17
-44 3 -16 8 -42 12 -56 5 -24 2 -27 -39 -38 -48 -11 -80 -6 -74 12 2 6 25 26
51 44 64 44 28 45 -49 2 -65 -36 -102 -78 -83 -91 10 -6 9 -11 -4 -19 -25 -14
-23 -39 3 -39 11 0 17 -4 14 -10 -4 -6 2 -7 16 -1 13 4 34 3 50 -3 22 -8 35
-6 63 9 20 11 36 26 36 33 0 7 8 12 18 10 13 -2 18 -15 20 -56 2 -38 6 -50 15
-45 9 5 9 3 0 -8 -18 -22 -32 -145 -33 -293 -1 -48 -51 -135 -121 -210 l-67
-71 -79 0 c-75 0 -85 3 -174 48 -100 50 -187 120 -194 155 -2 11 -8 29 -14 40
-12 23 -11 102 2 102 5 0 6 11 3 25 -5 20 -3 23 11 18 13 -4 11 2 -9 23 -49
54 -72 105 -71 162 0 65 11 78 43 55 66 -47 140 -68 140 -42 0 6 8 9 18 7 15
-4 18 -1 14 18 -3 19 0 24 17 24 11 0 21 -4 21 -10 0 -5 11 -10 25 -10 33 0
35 42 3 58 l-23 11 23 0 c23 1 27 8 14 28 -10 16 -122 43 -181 43 -49 0 -51 1
-41 20 9 16 8 20 -7 21 -11 0 -13 3 -5 6 6 2 12 20 12 38 0 19 5 37 11 41 8 5
6 10 -5 16 -16 9 -16 11 1 26 11 9 25 32 33 51 7 18 25 44 39 57 25 23 37 27
134 39 26 4 47 11 47 16 0 6 -5 7 -12 3 -7 -5 -8 -3 -4 5 5 7 14 10 22 7 17
-7 17 -4 -1 64 -26 98 -10 80 31 -32z m-437 -268 c4 0 8 -6 8 -14 0 -8 -6 -12
-12 -10 -6 3 -17 -7 -24 -22 -20 -45 -23 -19 -4 37 13 40 19 48 21 32 2 -13 7
-23 11 -23z m-139 -30 c0 -5 -2 -10 -4 -10 -3 0 -8 5 -11 10 -3 6 -1 10 4 10
6 0 11 -4 11 -10z m-7 -24 c7 4 4 -1 -5 -11 -20 -22 -32 -16 -21 11 4 11 8 13
11 6 2 -7 9 -9 15 -6z m99 -55 c2 -17 1 -28 -3 -25 -7 4 -27 -53 -33 -93 -1
-7 -5 -16 -9 -19 -12 -13 -7 -24 8 -18 8 4 15 1 15 -5 0 -6 -9 -11 -20 -11
-13 0 -22 -9 -26 -25 -3 -14 -10 -25 -14 -25 -10 0 -3 34 15 75 7 17 23 63 36
103 13 39 24 72 25 72 1 0 4 -13 6 -29z m99 -42 c-6 -14 -10 -17 -11 -9 0 8
-7 2 -15 -15 -12 -26 -13 -27 -14 -8 -1 12 9 31 21 43 26 24 32 21 19 -11z
m-60 8 c-6 -8 -7 -18 -3 -22 4 -5 2 -5 -5 -2 -6 4 -13 1 -16 -5 -2 -8 -8 -9
-13 -4 -5 5 -4 11 4 13 6 3 12 11 12 19 0 8 7 14 16 14 13 0 14 -3 5 -13z
m239 -2 c25 -15 5 -25 -49 -25 -59 0 -79 9 -66 31 7 10 96 6 115 -6z m480 -25
c11 -7 6 -10 -22 -10 -20 0 -40 5 -43 10 -8 13 45 13 65 0z m-400 -30 c20 -6
14 -8 -28 -9 -33 -1 -51 3 -47 9 7 12 39 12 75 0z m394 -9 c3 -5 -1 -12 -10
-15 -22 -9 -24 -8 -24 9 0 16 25 21 34 6z m-734 -9 c0 -5 -6 -16 -13 -27 -10
-12 -16 -14 -21 -7 -4 7 -2 12 3 12 6 0 11 7 11 15 0 8 5 15 10 15 6 0 10 -4
10 -8z m32 -24 c-8 -8 -9 -4 -5 13 4 13 8 18 11 10 2 -7 -1 -18 -6 -23z m-5
-62 c-10 -19 -11 -20 -15 -3 -2 10 -1 26 3 35 5 14 8 14 15 2 5 -8 4 -22 -3
-34z m-137 19 c0 -8 -7 -15 -15 -15 -8 0 -15 7 -15 15 0 8 7 15 15 15 8 0 15
-7 15 -15z m-50 -227 c0 -19 -18 -44 -25 -36 -4 3 0 15 7 27 15 24 18 26 18 9z
m180 -41 c0 -5 -4 -5 -10 -2 -5 3 -10 14 -10 23 0 15 2 15 10 2 5 -8 10 -19
10 -23z m8 -111 c11 -52 16 -100 12 -115 -5 -21 -9 -13 -23 49 -16 71 -16 40
-1 -44 6 -31 4 -38 -7 -34 -10 3 -15 29 -17 99 -3 86 3 147 13 137 2 -2 13
-44 23 -92z m835 -66 c3 -11 1 -20 -4 -20 -5 0 -9 9 -9 20 0 11 2 20 4 20 2 0
6 -9 9 -20z m-23 -30 c0 -5 -4 -10 -10 -10 -5 0 -10 5 -10 10 0 6 5 10 10 10
6 0 10 -4 10 -10z m5 -29 c3 -5 1 -12 -5 -16 -5 -3 -10 1 -10 9 0 18 6 21 15
7z m-589 -48 c10 -19 17 -41 17 -49 0 -7 4 -11 9 -8 4 3 8 1 8 -5 0 -5 3 -17
7 -27 4 -11 3 -15 -5 -10 -12 7 -35 -27 -25 -38 3 -3 8 -50 10 -103 3 -54 6
-100 9 -102 2 -2 4 43 4 102 0 64 4 108 11 112 17 11 23 -3 22 -48 -1 -23 3
-45 10 -49 8 -5 8 -8 1 -8 -6 0 -12 -26 -13 -66 l-2 -66 25 6 c15 4 26 2 26
-3 0 -15 -35 -31 -69 -31 -24 0 -34 -7 -46 -31 -9 -17 -14 -36 -12 -42 4 -11
9 -4 22 38 6 21 25 19 25 -3 0 -10 -11 -47 -25 -82 -18 -45 -23 -74 -19 -97 5
-25 2 -34 -10 -39 -9 -3 -16 -12 -16 -19 0 -24 -42 -67 -61 -62 -25 7 -24 -5
0 -20 18 -12 19 -53 1 -53 -11 0 -67 -56 -79 -79 -15 -27 -14 -38 4 -45 13 -4
14 -2 5 14 -6 11 -9 20 -8 21 42 11 43 7 85 -238 3 -18 12 -33 23 -36 11 -3
18 -14 18 -32 0 -15 7 -34 16 -43 15 -15 16 -14 12 16 -2 18 1 32 5 32 10 0
11 -7 13 -55 1 -22 7 -30 19 -29 18 2 21 -13 18 -78 -3 -40 20 -92 44 -101 8
-4 15 -12 15 -19 0 -10 -2 -10 -9 1 -7 11 -11 9 -21 -9 -7 -12 -8 -20 -2 -16
13 8 24 -36 12 -48 -7 -7 -10 -2 -10 14 0 35 -11 17 -16 -27 -12 -110 -16
-126 -25 -112 -5 8 -9 30 -10 49 -1 75 -16 75 -22 0 -11 -126 -27 -274 -32
-288 -3 -7 -9 -11 -15 -7 -6 4 -6 15 0 31 6 14 7 36 4 49 -3 12 -1 26 5 30 6
3 9 11 5 16 -3 6 -12 3 -21 -8 -13 -16 -14 -14 -7 22 13 79 12 134 -4 140 -9
3 -12 0 -9 -8 3 -8 1 -20 -5 -28 -8 -11 -9 -10 -4 4 3 9 1 17 -4 17 -5 0 -7
14 -3 30 3 19 1 30 -5 30 -10 0 -13 -12 -25 -90 -3 -14 -5 29 -5 95 -1 81 1
115 8 105 7 -11 10 -11 10 -2 0 7 -12 24 -27 38 l-28 25 -14 -43 c-7 -24 -22
-55 -32 -70 -11 -14 -19 -34 -19 -45 0 -10 -4 -14 -8 -8 -11 15 -52 36 -60 31
-12 -7 -15 -246 -3 -246 16 0 25 88 11 105 -10 12 -10 15 1 15 11 0 13 12 11
48 -4 44 -3 46 13 31 15 -15 17 -52 19 -353 2 -324 -5 -420 -18 -258 -15 183
-29 292 -37 292 -5 0 -10 -17 -10 -37 -2 -56 -26 93 -43 267 -14 152 -25 193
-49 203 -19 7 -27 -1 -27 -26 0 -43 -42 8 -55 67 -4 21 -9 26 -14 17 -15 -23
-22 6 -15 59 8 63 -10 68 -26 8 -6 -24 -16 -57 -21 -74 -5 -17 -9 -45 -9 -62
0 -18 -5 -32 -10 -32 -7 0 -7 -6 0 -19 12 -23 14 -81 2 -81 -4 0 -8 8 -9 18
-1 9 -6 40 -11 67 -9 46 -10 42 -12 -60 l-2 -110 -13 50 c-7 28 -14 71 -14 97
-1 64 -9 82 -28 66 -13 -10 -14 -6 -7 27 5 27 4 36 -5 31 -6 -4 -11 -15 -11
-24 0 -9 -5 -24 -11 -32 -10 -15 -9 12 5 95 3 17 3 22 0 13 -3 -10 -14 -18
-25 -18 -10 0 -19 -4 -19 -10 0 -5 7 -7 15 -4 18 7 18 3 6 -28 -5 -13 -12 -35
-15 -50 -4 -16 -11 -28 -17 -28 -6 0 -8 9 -4 19 3 11 1 23 -6 26 -7 5 -7 10
-1 14 6 4 6 15 1 29 -14 36 -27 17 -35 -49 -4 -33 -10 -57 -15 -52 -4 4 -4 26
1 48 5 22 10 53 10 68 0 32 52 151 78 180 16 18 19 25 29 91 6 40 37 78 123
149 48 39 86 52 58 20 -44 -52 -21 -39 31 17 34 36 69 80 78 98 9 19 26 38 39
42 12 5 25 14 29 19 3 6 11 11 16 11 6 0 7 -6 3 -12 -5 -9 -2 -9 9 1 9 7 17
19 17 27 0 13 39 40 53 36 4 -1 3 6 -2 15 -18 35 -39 129 -36 162 2 19 10 38
18 42 28 16 63 49 45 43 -31 -11 -20 4 27 36 48 33 63 25 18 -9 -16 -11 -23
-20 -18 -21 6 0 26 15 46 33 51 45 100 73 84 47 -9 -14 8 -13 23 2 8 8 3 15
-20 28 -38 20 -47 40 -19 40 25 0 30 18 33 125 2 49 7 78 13 75 6 -3 9 -11 9
-17 -1 -7 2 -13 6 -13 11 0 19 64 9 68 -5 2 -17 18 -26 35 -19 37 -28 91 -13
82 6 -3 10 1 10 10 0 24 17 9 36 -32z m-623 -25 c-4 -7 -8 -15 -8 -18 -2 -15
-37 -71 -42 -66 -10 9 7 56 27 76 22 22 35 26 23 8z m597 -78 c0 -5 -2 -10 -4
-10 -3 0 -8 5 -11 10 -3 6 -1 10 4 10 6 0 11 -4 11 -10z m190 -19 c0 -6 -4
-13 -10 -16 -5 -3 -10 1 -10 9 0 9 5 16 10 16 6 0 10 -4 10 -9z m-802 -32 c-3
-8 -7 -3 -11 10 -4 17 -3 21 5 13 5 -5 8 -16 6 -23z m759 -61 c-1 -51 -8 -102
-14 -113 -10 -16 -12 -2 -11 75 0 101 4 130 18 130 5 0 8 -42 7 -92z m35 -25
c-7 -56 -17 -36 -13 24 3 41 6 51 10 34 4 -14 5 -40 3 -58z m-215 25 c-3 -7
-5 -2 -5 12 0 14 2 19 5 13 2 -7 2 -19 0 -25z m1320 -13 c77 -69 96 -90 114
-122 11 -19 27 -45 35 -59 20 -30 9 -32 -17 -1 -10 12 -18 16 -19 9 0 -13 -43
-8 -65 8 -5 4 -19 10 -29 14 -16 5 -17 4 -6 -9 17 -21 4 -32 -20 -17 -16 10
-20 10 -20 -2 0 -8 4 -17 9 -20 5 -3 11 -15 14 -26 9 -33 -6 -15 -33 39 -19
38 -35 56 -65 71 -22 11 -33 20 -25 20 8 0 -1 8 -20 18 -23 11 -38 14 -43 7
-4 -6 -7 -1 -5 10 2 15 -2 19 -17 18 -11 -1 -14 0 -7 3 6 3 12 15 12 26 0 15
5 19 20 15 10 -3 21 0 23 7 3 8 7 8 18 0 8 -6 28 -14 45 -17 26 -5 33 -2 37
13 7 27 30 25 64 -5z m-2017 -1 c0 -2 -7 -4 -15 -4 -8 0 -15 4 -15 10 0 5 7 7
15 4 8 -4 15 -8 15 -10z m696 -31 c-10 -10 -19 5 -10 18 6 11 8 11 12 0 2 -7
1 -15 -2 -18z m-2 -46 c-9 -24 -23 -11 -17 14 3 12 9 17 15 11 5 -5 6 -16 2
-25z m223 1 c-3 -8 -6 -5 -6 6 -1 11 2 17 5 13 3 -3 4 -12 1 -19z m-933 -17
c3 -4 -11 -17 -32 -27 -20 -10 -40 -23 -44 -29 -4 -5 -10 -6 -15 -2 -8 9 56
67 74 67 6 0 14 -4 17 -9z m660 -6 c3 -8 1 -15 -4 -15 -6 0 -10 7 -10 15 0 8
2 15 4 15 2 0 6 -7 10 -15z m1526 5 c0 -5 -2 -10 -4 -10 -3 0 -8 5 -11 10 -3
6 -1 10 4 10 6 0 11 -4 11 -10z m-473 -39 c19 -24 62 -123 69 -156 3 -15 43
-117 56 -142 8 -17 8 -26 -2 -38 -18 -21 -29 -19 -40 9 -5 13 -13 27 -18 30
-5 3 -13 23 -17 43 -4 21 -10 43 -15 48 -4 6 -10 21 -13 35 -4 21 -4 20 -6 -7
-2 -60 21 -133 75 -238 29 -58 52 -105 50 -105 -2 0 -19 26 -39 58 -19 31 -44
66 -55 78 -11 12 -30 39 -42 60 -11 21 -18 30 -14 19 11 -32 24 -108 20 -112
-2 -3 -9 12 -16 32 -7 20 -18 49 -26 63 -8 15 -13 38 -13 52 2 24 2 24 6 2 5
-23 23 -21 23 3 0 21 -43 63 -59 57 -17 -6 -31 16 -31 50 0 21 -4 26 -20 23
-11 -2 -24 -6 -29 -9 -5 -3 -14 1 -21 9 -10 13 -9 19 5 35 10 11 21 18 25 15
11 -7 50 34 50 52 0 15 2 14 19 -1 17 -16 19 -16 24 5 5 20 7 20 22 5 24 -24
27 -20 10 14 -26 50 -13 56 22 11z m-1680 -27 c-16 -13 -32 -22 -37 -19 -5 3
-11 1 -15 -5 -9 -15 -25 -12 -25 6 0 8 -4 12 -10 9 -5 -3 -10 -4 -10 0 0 3 24
16 53 29 63 28 87 17 44 -20z m800 -36 c-3 -8 -6 -5 -6 6 -1 11 2 17 5 13 3
-3 4 -12 1 -19z m1128 -48 c47 -61 58 -85 26 -56 -11 10 -25 15 -32 10 -7 -4
-10 -3 -6 2 3 6 -8 29 -24 53 -29 44 -37 67 -19 56 5 -3 30 -32 55 -65z
m-1075 21 c0 -17 -4 -32 -9 -35 -11 -7 -22 31 -14 50 9 24 23 15 23 -15z m-39
-38 c-5 -11 -8 -29 -5 -40 3 -12 1 -24 -5 -27 -7 -5 -11 2 -11 16 l-1 23 -14
-25 c-12 -20 -14 -21 -12 -5 2 11 11 38 20 59 13 28 21 36 28 29 8 -8 8 -17 0
-30z m1213 -9 c9 -8 16 -23 16 -32 -1 -14 -5 -12 -20 7 -30 35 -26 56 4 25z
m-219 -48 c11 -8 15 -16 9 -16 -6 0 -24 12 -40 26 -30 26 -7 19 31 -10z m-372
-132 c-5 -15 -25 -15 -24 -1 1 4 1 14 1 23 0 13 3 14 14 4 8 -6 12 -18 9 -26z
m92 -13 c-3 -5 1 -16 9 -24 14 -14 12 -27 -5 -27 -10 0 -49 41 -49 52 0 4 12
8 26 8 14 0 23 -4 19 -9z m-35 -76 c0 -5 -9 1 -20 15 -11 14 -20 30 -20 35 0
6 9 -1 20 -15 11 -14 20 -29 20 -35z m45 -15 c10 -11 14 -20 9 -20 -12 1 -44
25 -44 34 0 12 17 6 35 -14z m-1185 -40 c-18 -23 -35 -39 -37 -36 -3 3 9 23
27 46 18 23 35 39 37 36 3 -3 -9 -23 -27 -46z m1149 -17 c5 13 10 12 30 -9 14
-15 17 -22 8 -18 -12 4 -15 1 -12 -15 4 -24 1 -25 -26 -11 -10 6 -19 20 -19
30 0 11 -4 20 -9 20 -5 0 -11 10 -14 23 -5 19 -3 18 15 -7 18 -23 23 -26 27
-13z m316 27 c3 -5 1 -10 -4 -10 -6 0 -11 5 -11 10 0 6 2 10 4 10 3 0 8 -4 11
-10z m-1176 -115 c0 -31 -2 -36 -9 -20 -5 11 -9 38 -9 60 0 31 2 36 9 20 5
-11 9 -38 9 -60z m578 -347 c43 -156 56 -244 22 -148 -30 82 -59 212 -45 201
6 -5 17 -29 23 -53z m-1267 -28 c-11 -22 -27 -65 -35 -96 -17 -65 -25 -79 -25
-43 0 38 25 124 44 153 26 41 39 30 16 -14z m1220 -79 c11 -37 20 -77 20 -87
1 -10 9 -37 20 -59 11 -22 19 -49 19 -60 0 -19 -1 -19 -9 2 -5 12 -16 25 -25
31 -9 5 -16 12 -15 16 1 3 -1 21 -4 39 -5 23 -9 28 -15 18 -6 -10 -12 3 -20
41 -13 58 -12 128 1 128 4 0 16 -31 28 -69z m-76 23 c3 -8 2 -12 -4 -9 -6 3
-10 10 -10 16 0 14 7 11 14 -7z m-875 -120 c14 -38 12 -47 -5 -36 -13 8 -27
72 -16 72 4 0 14 -16 21 -36z m850 -58 c-14 -15 -11 -26 7 -26 10 0 14 -7 12
-22 -5 -36 -24 -31 -36 10 -15 51 -16 73 -1 52 7 -11 9 -3 5 30 l-5 45 13 -40
c8 -23 10 -44 5 -49z m-176 -11 c9 -25 12 -45 8 -45 -4 0 -9 -29 -10 -64 -1
-35 -6 -76 -11 -92 -9 -27 -10 -27 -6 9 3 20 2 37 -2 37 -4 0 -8 45 -10 100
-1 55 2 100 7 100 5 0 16 -20 24 -45z m-49 -70 c4 -65 2 -105 -5 -115 -9 -12
-10 -11 -6 7 3 13 2 25 -3 28 -4 3 -6 28 -4 55 2 31 0 48 -6 45 -6 -3 -10 -2
-10 4 0 5 5 13 10 16 6 3 10 20 10 37 0 63 8 20 14 -77z m123 60 c0 -8 -4 -15
-9 -15 -4 0 -8 7 -8 15 0 8 4 15 8 15 5 0 9 -7 9 -15z m243 -48 c0 -18 -2 -19
-10 -7 -13 20 -13 43 0 35 6 -3 10 -16 10 -28z m-225 -118 c4 -43 3 -69 -4
-74 -7 -4 -11 5 -11 23 0 16 -2 65 -5 108 -6 95 10 50 20 -57z m260 101 c3 -5
1 -10 -4 -10 -6 0 -11 5 -11 10 0 6 2 10 4 10 3 0 8 -4 11 -10z m-21 -53 c4
-25 2 -36 -4 -32 -5 3 -10 22 -10 42 0 45 6 40 14 -10z m-197 -34 c-3 -10 -5
-2 -5 17 0 19 2 27 5 18 2 -10 2 -26 0 -35z m-657 -117 c6 -49 13 -103 16
-120 3 -17 -6 5 -20 50 -30 98 -29 90 -27 139 2 64 18 28 31 -69z m670 84 c0
-5 -4 -10 -10 -10 -5 0 -10 5 -10 10 0 6 5 10 10 10 6 0 10 -4 10 -10z m-506
-71 c9 -17 13 -42 10 -59 -4 -15 -1 -31 5 -34 6 -4 11 -19 11 -34 -1 -26 -1
-26 -19 9 -27 55 -43 149 -25 149 1 0 9 -14 18 -31z m493 -1 c-3 -7 -5 -2 -5
12 0 14 2 19 5 13 2 -7 2 -19 0 -25z m-492 -183 c9 -33 17 -64 18 -70 0 -12
-22 -114 -31 -135 -9 -23 -20 74 -21 185 -1 110 8 116 34 20z m-878 43 c-3 -8
-6 -5 -6 6 -1 11 2 17 5 13 3 -3 4 -12 1 -19z m2073 -10 c0 -19 -2 -20 -10 -8
-13 19 -13 30 0 30 6 0 10 -10 10 -22z m-1333 -65 c-3 -10 -5 -4 -5 12 0 17 2
24 5 18 2 -7 2 -21 0 -30z m1369 -19 c-4 -14 -9 -24 -12 -21 -3 2 -2 17 2 31
3 15 9 25 11 22 3 -3 2 -17 -1 -32z m-1775 -62 c-8 -23 -9 -17 -9 33 0 55 1
57 9 27 7 -22 7 -43 0 -60z m196 36 c-3 -8 -6 -5 -6 6 -1 11 2 17 5 13 3 -3 4
-12 1 -19z m220 -10 c-3 -7 -5 -2 -5 12 0 14 2 19 5 13 2 -7 2 -19 0 -25z
m-24 -15 c3 -16 2 -32 -3 -36 -4 -5 -10 7 -12 27 -5 42 7 49 15 9z m54 -5 c-3
-7 -5 -2 -5 12 0 14 2 19 5 13 2 -7 2 -19 0 -25z m-229 -33 c-3 -3 -9 2 -12
12 -6 14 -5 15 5 6 7 -7 10 -15 7 -18z m209 -7 c-3 -7 -5 -2 -5 12 0 14 2 19
5 13 2 -7 2 -19 0 -25z m1289 4 c-18 -16 -18 -16 -6 6 6 13 14 21 18 18 3 -4
-2 -14 -12 -24z m-1269 -4 c-3 -8 -6 -5 -6 6 -1 11 2 17 5 13 3 -3 4 -12 1
-19z m1347 -3 c-5 -19 -2 -25 10 -25 9 0 16 -4 16 -9 0 -5 5 -22 11 -38 7 -20
12 -24 19 -14 16 27 37 2 59 -71 48 -157 49 -164 41 -206 -5 -31 -3 -48 10
-69 13 -23 16 -49 14 -138 -4 -190 -4 -209 1 -255 10 -82 10 -103 -2 -107 -6
-2 -21 14 -33 36 -13 21 -36 49 -51 60 -31 23 -69 89 -69 119 0 26 -51 94 -83
111 -19 10 -31 29 -42 67 -17 58 -20 114 -6 114 5 0 7 9 4 20 -3 11 0 20 6 20
6 0 11 7 11 15 0 9 -6 12 -17 8 -16 -6 -16 -3 2 18 11 13 23 26 27 30 4 3 6
45 3 95 -5 92 10 173 41 222 19 30 36 28 28 -3z m446 0 c-7 -9 -15 -13 -17
-11 -7 7 7 26 19 26 6 0 6 -6 -2 -15z m-50 -52 c0 -3 -7 -11 -15 -19 -13 -14
-15 -13 -15 4 0 10 7 19 15 19 8 0 15 -2 15 -4z m-1721 -75 c0 -10 -3 -18 -9
-18 -5 0 -9 21 -9 48 1 42 2 44 9 17 4 -16 8 -38 9 -47z m1646 -15 c-29 -20
-38 -4 -13 22 19 21 24 22 27 8 2 -9 -5 -22 -14 -30z m-405 -101 c0 -53 -17
-47 -20 8 -3 47 -2 52 10 45 6 -3 10 -27 10 -53z m467 52 c-3 -3 -12 -4 -19
-1 -8 3 -5 6 6 6 11 1 17 -2 13 -5z m-1672 -35 c-42 -5 -74 -4 -79 2 -6 5 20
9 70 8 l79 -2 -70 -8z m135 -24 c-24 -14 -24 -14 -3 -15 12 0 28 -6 35 -13 22
-22 58 -38 68 -32 17 10 70 -5 70 -20 0 -8 -9 -17 -21 -20 -11 -4 -19 -9 -16
-11 2 -2 27 3 56 12 29 8 59 14 68 12 22 -4 -213 -75 -309 -92 -7 -1 -28 -6
-45 -10 -24 -6 -37 -3 -49 8 -14 15 -14 17 1 22 8 4 40 4 70 2 30 -3 55 -1 55
3 0 11 -41 18 -70 12 -24 -4 -30 0 -44 28 -23 46 -13 68 34 75 22 4 45 13 51
20 9 12 3 14 -37 15 -43 1 -45 2 -19 9 17 4 53 8 80 8 48 1 49 1 25 -13z
m-167 -93 c-3 -23 -8 -41 -10 -38 -8 8 -14 68 -8 84 11 29 24 -2 18 -46z m-33
44 c0 -15 -22 -58 -27 -53 -3 3 -14 -4 -24 -16 -20 -25 -34 -17 -44 24 -6 24
-3 27 37 36 55 13 58 14 58 9z m-10 -118 c0 -4 -16 -8 -36 -8 -19 0 -33 4 -30
8 3 5 19 9 36 9 16 0 30 -4 30 -9z m530 2 c-8 -5 -31 -9 -50 -9 -32 1 -33 2
-10 9 14 4 36 8 50 9 20 1 22 -1 10 -9z m-105 -109 c-4 -7 9 -11 37 -11 l43 0
-30 -16 c-16 -8 -40 -13 -52 -11 -12 2 -24 0 -25 -5 -2 -5 -62 -7 -133 -6
l-130 3 35 17 c19 10 28 18 20 19 -23 3 76 14 164 17 54 2 76 0 71 -7z m-318
-7 c-3 -3 -12 -4 -19 -1 -8 3 -5 6 6 6 11 1 17 -2 13 -5z m1681 -46 c-5 -13
-26 -18 -42 -9 -5 2 -1 8 10 12 28 11 36 10 32 -3z m144 -33 c4 -32 -2 -40
-24 -36 -13 2 -9 -17 5 -22 9 -3 9 -7 0 -17 -8 -9 -9 -19 -2 -32 11 -21 -6
-62 -22 -53 -13 8 -11 35 2 35 8 0 8 4 -1 15 -6 8 -9 19 -5 24 6 11 -38 26
-52 18 -4 -3 -13 1 -20 8 -10 11 -7 17 12 29 13 9 33 16 45 16 13 0 20 7 20
18 0 14 -9 19 -37 20 -61 4 -51 12 14 12 l61 0 4 -35z m-1536 13 c4 -5 -53 -8
-127 -7 -74 0 -126 3 -117 7 24 9 234 9 244 0z m212 5 c-10 -2 -26 -2 -35 0
-10 3 -2 5 17 5 19 0 27 -2 18 -5z m1170 -32 c-8 -13 -16 -17 -24 -11 -6 6
-15 6 -20 2 -4 -4 -2 1 5 11 7 9 22 17 32 17 17 0 17 -3 7 -19z m-1465 -88
c-7 -2 -19 -2 -25 0 -7 3 -2 5 12 5 14 0 19 -2 13 -5z m372 -3 c-28 -12 -85
-12 -85 0 0 6 24 10 53 9 38 0 47 -3 32 -9z m-121 -9 c14 -23 -464 -37 -549
-16 -31 8 20 11 220 15 143 3 274 7 292 8 17 1 34 -2 37 -7z m1251 -16 c33
-15 24 -18 -24 -9 -17 4 -31 10 -31 15 0 13 20 10 55 -6z m-1865 -111 c0 9 5
14 10 11 6 -3 10 -15 10 -26 0 -10 10 -27 21 -37 12 -9 51 -43 86 -74 36 -32
69 -55 74 -52 5 3 9 -2 9 -10 0 -9 4 -16 9 -16 4 0 6 11 4 24 -3 13 0 27 6 30
6 4 11 0 12 -11 0 -16 1 -16 9 2 8 19 9 19 9 -2 1 -13 -3 -23 -9 -23 -28 0 -4
-43 47 -87 32 -26 66 -56 77 -65 18 -17 38 -23 59 -19 5 1 6 -3 3 -8 -3 -5 5
-16 18 -25 23 -14 25 -14 29 2 4 13 5 13 6 -4 0 -11 12 -27 25 -34 14 -7 27
-19 30 -27 9 -22 -52 16 -204 127 -30 23 -77 56 -105 74 -57 38 -285 253 -285
269 0 6 11 0 25 -13 21 -20 25 -21 25 -6z m77 -41 c-2 -16 -4 -5 -4 22 0 28 2
40 4 28 2 -13 2 -35 0 -50z m155 -41 c3 -29 2 -50 -2 -45 -5 4 -11 37 -14 73
-4 40 -3 57 3 45 4 -11 10 -44 13 -73z m1658 53 c0 -9 6 -15 13 -13 14 3 17
-2 17 -32 0 -11 -4 -20 -10 -20 -5 0 -7 7 -4 15 7 16 -6 20 -21 6 -6 -4 -26
-11 -45 -15 -21 -3 -30 -3 -22 3 11 6 9 10 -7 14 -12 3 -24 1 -27 -4 -3 -5 1
-9 8 -9 9 0 9 -3 -2 -10 -16 -10 -36 13 -25 30 3 6 1 10 -5 10 -7 0 -10 6 -8
13 3 7 30 14 64 18 32 3 62 6 67 7 4 1 7 -5 7 -13z m-2 -106 c24 -9 25 -12 11
-22 -9 -7 -19 -24 -22 -39 -4 -14 -15 -28 -25 -30 -22 -5 -64 21 -55 35 3 5 1
7 -5 3 -13 -8 -18 -1 -27 43 l-7 34 51 -7 c29 -4 64 -11 79 -17z m-63 -158
c-8 -14 -55 -14 -55 -1 0 6 11 8 25 4 17 -4 25 -2 25 7 0 7 3 10 6 6 3 -3 3
-10 -1 -16z m-1818 -23 c-3 -7 -5 -2 -5 12 0 14 2 19 5 13 2 -7 2 -19 0 -25z
m483 -9 c0 -11 -4 -17 -10 -14 -5 3 -10 15 -10 26 0 11 5 17 10 14 6 -3 10
-15 10 -26z m1390 -14 c28 -14 50 -30 50 -36 0 -6 -6 -8 -12 -5 -7 2 -32 10
-55 17 -31 8 -43 17 -43 30 0 24 1 24 60 -6z m-70 -11 c0 -2 -7 -4 -15 -4 -8
0 -15 4 -15 10 0 5 7 7 15 4 8 -4 15 -8 15 -10z m-6 -60 c3 -8 2 -12 -4 -9 -6
3 -10 10 -10 16 0 14 7 11 14 -7z m75 -72 c14 -10 27 -24 29 -31 5 -15 -89 31
-107 53 -11 13 -9 14 21 6 18 -6 44 -18 57 -28z m-64 -119 c19 -9 35 -20 35
-25 0 -14 -20 -9 -58 17 -42 29 -30 33 23 8z m-1338 -120 c-3 -10 -5 -2 -5 17
0 19 2 27 5 18 2 -10 2 -26 0 -35z m-1215 -135 c-17 -17 -19 -9 -13 47 l5 50
9 -43 c7 -30 7 -46 -1 -54z"/>
<path d="M1326 5155 c-10 -7 -16 -18 -15 -23 2 -6 12 1 22 14 21 27 19 29 -7
9z"/>
<path d="M1215 5099 c-10 -14 -1 -21 19 -13 9 3 13 10 10 15 -7 12 -21 11 -29
-2z"/>
<path d="M1149 4968 c-6 -21 -5 -39 2 -44 5 -3 9 6 9 20 0 21 -7 36 -11 24z"/>
<path d="M1201 4954 c0 -11 3 -14 6 -6 3 7 2 16 -1 19 -3 4 -6 -2 -5 -13z"/>
<path d="M1165 4840 c-4 -6 -11 -24 -15 -38 -8 -24 -8 -25 -9 -4 -1 12 -5 22
-11 22 -12 0 3 -43 17 -47 5 -2 15 13 21 34 11 37 10 54 -3 33z"/>
<path d="M1597 4213 c-15 -15 -21 -15 -53 -4 -44 16 -111 7 -95 -13 6 -7 34
-16 61 -19 41 -5 56 -2 85 16 19 12 34 25 35 30 0 12 -15 8 -33 -10z"/>
<path d="M1457 4089 c-31 -11 -55 -25 -51 -30 9 -15 263 6 281 24 13 13 -5 18
-88 22 -68 4 -95 1 -142 -16z"/>
<path d="M1600 4030 c-9 -6 -39 -8 -72 -4 -61 6 -71 -1 -38 -29 31 -27 111
-23 138 6 12 13 22 26 22 30 0 10 -33 8 -50 -3z"/>
<path d="M1263 3633 c1 -32 -3 -70 -6 -85 -4 -16 -3 -28 2 -28 4 0 11 14 15
31 9 45 7 139 -2 139 -5 0 -9 -26 -9 -57z"/>
<path d="M1180 3425 c-11 -13 -10 -14 4 -9 9 3 16 10 16 15 0 13 -6 11 -20 -6z"/>
<path d="M1140 3382 c-25 -8 -39 -17 -33 -19 7 -3 31 5 55 16 51 23 41 25 -22
3z"/>
<path d="M1059 3341 c-13 -11 -22 -22 -19 -24 3 -3 16 3 29 14 13 11 22 22 19
25 -3 2 -16 -4 -29 -15z"/>
<path d="M1230 3343 c0 -4 5 -15 10 -23 8 -13 10 -13 10 2 0 9 -4 20 -10 23
-5 3 -10 3 -10 -2z"/>
<path d="M1104 3323 c-11 -12 -13 -18 -5 -21 13 -4 41 16 41 29 0 14 -17 10
-36 -8z"/>
<path d="M1175 3330 c-3 -5 -1 -10 4 -10 6 0 11 5 11 10 0 6 -2 10 -4 10 -3 0
-8 -4 -11 -10z"/>
<path d="M1060 3290 c-8 -5 -11 -12 -7 -16 4 -4 13 -2 19 4 15 15 7 24 -12 12z"/>
<path d="M1197 3273 c-10 -9 -9 -23 1 -23 5 0 9 7 9 15 0 17 -1 18 -10 8z"/>
<path d="M1136 3181 c-4 -7 -5 -15 -2 -18 9 -9 19 4 14 18 -4 11 -6 11 -12 0z"/>
<path d="M1070 3167 c0 -9 4 -18 9 -21 5 -4 8 1 7 9 -3 21 -16 31 -16 12z"/>
<path d="M978 3030 c-53 -66 -52 -88 1 -36 20 20 45 37 56 38 23 4 27 11 19
32 -12 31 -31 22 -76 -34z"/>
<path d="M1060 2980 c-6 -11 -8 -20 -6 -20 3 0 10 9 16 20 6 11 8 20 6 20 -3
0 -10 -9 -16 -20z"/>
<path d="M870 2947 c-8 -7 -35 -35 -60 -62 l-45 -49 60 54 c54 49 73 71 63 70
-1 0 -10 -6 -18 -13z"/>
<path d="M906 2908 l-17 -33 20 24 c18 20 27 41 18 41 -1 0 -11 -15 -21 -32z"/>
<path d="M906 2805 c-3 -8 -1 -15 4 -15 6 0 10 7 10 15 0 8 -2 15 -4 15 -2 0
-6 -7 -10 -15z"/>
<path d="M876 2753 c-6 -14 -5 -15 5 -6 7 7 10 15 7 18 -3 3 -9 -2 -12 -12z"/>
<path d="M773 2600 c-17 -26 -16 -40 1 -40 20 0 24 10 17 38 -6 22 -6 22 -18
2z"/>
<path d="M1127 2549 c7 -27 23 -34 23 -11 0 11 -6 22 -14 25 -10 4 -12 0 -9
-14z"/>
<path d="M1141 2484 c0 -11 3 -14 6 -6 3 7 2 16 -1 19 -3 4 -6 -2 -5 -13z"/>
<path d="M1241 2114 c0 -11 3 -14 6 -6 3 7 2 16 -1 19 -3 4 -6 -2 -5 -13z"/>
<path d="M971 1974 c0 -11 3 -14 6 -6 3 7 2 16 -1 19 -3 4 -6 -2 -5 -13z"/>
<path d="M777 4453 c-11 -10 -8 -43 3 -43 6 0 10 11 10 25 0 26 -2 29 -13 18z"/>
<path d="M2175 4250 c-3 -5 -1 -10 4 -10 6 0 11 5 11 10 0 6 -2 10 -4 10 -3 0
-8 -4 -11 -10z"/>
<path d="M2140 4235 c0 -8 2 -15 4 -15 2 0 6 7 10 15 3 8 1 15 -4 15 -6 0 -10
-7 -10 -15z"/>
<path d="M2166 4222 c-4 -7 -2 -12 3 -12 6 0 11 -9 11 -20 0 -24 29 -38 40
-20 10 16 1 42 -12 34 -5 -3 -15 2 -22 12 -9 12 -15 14 -20 6z"/>
<path d="M2146 4185 c4 -8 10 -15 15 -15 4 0 6 7 3 15 -4 8 -10 15 -15 15 -4
0 -6 -7 -3 -15z"/>
<path d="M2230 4131 c0 -7 7 -19 15 -27 19 -20 19 -5 0 20 -9 11 -15 14 -15 7z"/>
<path d="M2110 4054 c23 -25 24 -26 3 -15 -12 6 -24 11 -26 11 -7 0 5 -50 12
-51 28 -3 45 -9 55 -19 8 -8 7 -11 -4 -8 -8 2 -18 7 -21 12 -4 4 -9 4 -12 -1
-9 -14 55 -113 71 -113 11 0 12 3 3 13 -6 8 -7 18 -3 22 4 5 1 5 -5 1 -9 -5
-13 1 -14 21 -1 15 -2 35 -3 43 -2 25 -48 99 -65 105 -9 4 -6 -5 9 -21z"/>
<path d="M640 4059 c0 -5 5 -7 10 -4 6 3 10 8 10 11 0 2 -4 4 -10 4 -5 0 -10
-5 -10 -11z"/>
<path d="M825 3990 c-4 -6 -10 -8 -14 -6 -3 3 -7 -4 -7 -15 0 -24 0 -24 20 6
9 14 14 25 12 25 -3 0 -8 -5 -11 -10z"/>
<path d="M2186 3987 c3 -10 9 -15 12 -12 3 3 0 11 -7 18 -10 9 -11 8 -5 -6z"/>
<path d="M741 3935 c-17 -20 -31 -43 -31 -53 1 -17 6 -12 63 57 37 46 9 42
-32 -4z"/>
<path d="M2206 3947 c3 -10 9 -15 12 -12 3 3 0 11 -7 18 -10 9 -11 8 -5 -6z"/>
<path d="M650 3927 c0 -5 -4 -6 -9 -2 -5 3 -13 0 -17 -6 -5 -8 -1 -10 14 -7
12 3 22 2 24 -4 4 -12 38 1 38 16 0 6 -11 11 -25 11 -14 0 -25 -4 -25 -8z"/>
<path d="M2410 3770 c0 -5 7 -10 15 -10 8 0 15 5 15 10 0 6 -7 10 -15 10 -8 0
-15 -4 -15 -10z"/>
<path d="M11 3144 c0 -11 3 -14 6 -6 3 7 2 16 -1 19 -3 4 -6 -2 -5 -13z"/>
</g>
</svg>
