<?xml version="1.0" standalone="no"?>
<!DOCTYPE svg PUBLIC "-//W3C//DTD SVG 20010904//EN"
 "http://www.w3.org/TR/2001/REC-SVG-20010904/DTD/svg10.dtd">
<svg version="1.0" xmlns="http://www.w3.org/2000/svg"
 width="672.000000pt" height="933.000000pt" viewBox="0 0 672.000000 933.000000"
 preserveAspectRatio="xMidYMid meet">

<g transform="translate(0.000000,933.000000) scale(0.100000,-0.100000)"
fill="#000000" stroke="none">
<path d="M4075 9255 c-90 -11 -321 -65 -346 -80 -5 -4 -16 0 -24 8 -26 27
-132 -14 -228 -87 -26 -20 -51 -36 -55 -36 -4 0 -5 25 -2 55 3 31 4 58 1 60
-2 3 -17 5 -33 5 -33 0 -67 -41 -121 -153 -44 -88 -60 -163 -52 -238 7 -55 6
-56 -34 -95 -44 -42 -101 -143 -101 -178 0 -42 -103 -163 -196 -232 -35 -25
-77 -62 -93 -82 l-28 -36 -32 140 c-50 217 -81 326 -97 341 -8 8 -14 20 -14
27 0 7 -7 36 -16 65 -13 44 -18 52 -37 49 -28 -4 -48 -78 -71 -268 -10 -74
-21 -149 -26 -165 -6 -17 -14 -73 -20 -125 -5 -52 -14 -129 -19 -170 -5 -41
-8 -148 -7 -238 1 -146 3 -165 19 -177 26 -19 53 -115 61 -215 5 -67 3 -104
-13 -175 -11 -49 -21 -102 -21 -117 0 -16 -3 -28 -6 -28 -4 0 -61 11 -128 24
-432 87 -680 83 -938 -14 -84 -31 -187 -116 -243 -201 -126 -189 -149 -386
-67 -572 24 -53 35 -62 22 -17 -8 29 -6 34 14 31 5 -1 5 6 1 16 -16 41 -17
103 0 159 15 52 27 69 103 144 95 93 146 125 267 165 101 35 247 43 350 22
320 -67 545 -140 545 -176 0 -45 -28 -103 -85 -175 -35 -45 -79 -101 -97 -126
-27 -36 -64 -62 -184 -130 -83 -47 -187 -111 -232 -143 -45 -32 -103 -67 -129
-79 -26 -11 -86 -38 -132 -60 -47 -22 -137 -60 -200 -85 -243 -96 -473 -212
-588 -299 -76 -57 -161 -151 -192 -212 -21 -42 -61 -176 -92 -307 -11 -49 -40
-148 -64 -220 -24 -71 -60 -191 -81 -265 -39 -141 -44 -205 -34 -445 3 -74 -3
-91 -104 -320 -41 -92 -47 -161 -20 -251 25 -88 21 -293 -16 -725 -15 -172 -4
-227 111 -589 34 -107 57 -205 74 -315 43 -275 64 -383 95 -479 17 -51 30
-100 30 -109 0 -8 4 -17 9 -19 5 -2 20 -29 33 -61 l24 -57 24 25 c23 24 32 67
28 130 -12 217 10 535 38 535 29 0 68 -178 89 -410 43 -457 94 -770 155 -946
17 -49 35 -104 40 -123 13 -53 26 -59 58 -28 15 15 28 35 29 45 3 41 26 158
70 359 43 200 57 237 77 204 16 -26 67 -372 127 -856 6 -50 13 -105 15 -122
l5 -33 87 0 c55 0 92 4 100 12 9 9 12 9 12 0 0 -9 177 -12 765 -12 l765 0 -47
58 c-60 74 -104 143 -97 153 10 16 23 9 56 -28 18 -21 54 -60 80 -89 27 -28
48 -61 48 -72 0 -20 5 -22 60 -22 70 0 75 11 36 69 -28 42 -44 87 -27 77 6 -4
11 -13 11 -19 0 -7 14 -25 31 -40 22 -19 32 -38 33 -57 l1 -30 373 0 372 0 0
33 c0 17 4 39 10 47 7 11 11 9 19 -13 6 -16 11 -37 11 -48 0 -19 15 -19 786
-19 l785 0 -6 23 c-4 12 -9 30 -12 40 -2 10 0 24 6 30 6 8 6 18 1 27 -8 13
-10 12 -10 -2 0 -10 -4 -19 -10 -19 -30 -5 -35 -2 -36 18 -1 12 3 20 7 17 13
-8 11 14 -6 69 -8 26 -12 54 -8 62 3 10 1 13 -8 10 -8 -3 -21 7 -31 25 -10 18
-25 30 -38 30 -23 0 -146 -56 -197 -90 -18 -12 -33 -17 -33 -11 0 6 10 16 23
21 12 5 40 23 62 40 58 43 124 72 169 74 39 1 40 0 78 -69 38 -71 98 -238 98
-275 0 -17 7 -20 50 -20 28 0 50 2 50 4 0 15 -139 345 -168 398 -32 59 -40 68
-65 68 -15 0 -45 -11 -65 -25 -38 -26 -76 -35 -55 -14 8 8 6 20 -8 42 -17 29
-18 46 -13 212 5 143 3 199 -10 274 -9 52 -14 96 -11 99 10 10 93 -17 167 -53
38 -19 76 -35 83 -35 29 0 135 94 205 181 41 52 94 114 116 139 23 25 44 54
46 65 2 11 9 19 15 18 5 -1 22 11 37 26 34 35 44 118 21 165 -8 16 -15 47 -15
69 0 78 -22 217 -35 217 -23 0 -38 57 -56 215 -23 199 -23 275 -1 441 17 129
18 131 74 225 32 51 95 180 141 284 110 247 188 396 305 580 109 170 120 206
102 332 -17 128 -15 146 37 236 l47 82 -1 158 c-2 174 -13 236 -63 339 -16 36
-30 71 -30 79 0 31 -52 225 -77 288 -28 72 -96 179 -119 188 -8 3 -14 11 -14
17 0 23 -87 190 -120 231 -33 42 -106 105 -175 152 -22 15 -70 51 -106 80 -37
28 -94 63 -128 77 -88 35 -153 94 -223 202 -56 86 -64 93 -87 87 -14 -3 -31
-10 -37 -15 -6 -4 -18 -6 -26 -3 -17 7 -63 -39 -54 -54 4 -5 -6 -24 -21 -41
l-28 -31 -73 40 c-40 22 -101 64 -134 93 -33 29 -103 80 -155 114 l-94 62
-144 -6 -143 -5 -47 94 c-26 52 -56 106 -66 121 -11 14 -19 28 -19 31 0 3 30
8 68 11 137 14 262 40 443 91 224 64 237 70 345 140 46 30 102 64 124 75 64
33 164 134 269 274 112 149 118 159 167 293 54 151 67 221 67 373 0 121 -4
151 -38 290 -46 195 -63 242 -125 346 -28 47 -50 87 -50 90 0 2 -21 36 -46 74
-72 109 -212 244 -358 344 -184 125 -225 146 -461 224 -299 100 -470 120 -730
87z m471 -589 c264 -90 297 -105 380 -166 27 -21 77 -51 110 -68 130 -66 240
-226 277 -402 47 -224 50 -258 33 -367 -8 -57 -25 -121 -37 -144 -17 -35 -19
-46 -9 -64 16 -31 -16 -93 -84 -159 -52 -52 -217 -155 -317 -200 -91 -40 -549
-176 -593 -176 -40 0 -60 48 -47 111 16 72 14 116 -10 215 -17 72 -20 104 -14
177 8 103 36 203 62 222 16 12 18 31 17 202 -1 177 -23 430 -44 498 -12 41
-47 327 -42 343 3 8 34 12 111 12 95 0 118 -4 207 -34z m-436 6 c0 -5 -7 -22
-15 -39 -8 -16 -29 -87 -45 -158 -17 -71 -35 -134 -39 -140 -5 -5 -16 -35 -26
-65 -24 -76 -23 -75 -59 -43 -17 16 -55 47 -84 69 -56 41 -172 175 -172 199 0
10 23 12 118 8 134 -7 175 2 228 49 36 32 37 48 2 48 -18 0 -17 4 13 39 31 35
79 55 79 33z m-629 -63 c38 -29 69 -55 69 -60 0 -19 -23 -19 -36 0 -8 12 -21
21 -27 21 -17 1 -98 76 -90 84 10 10 11 9 84 -45z m1955 -79 c5 0 11 -6 12
-15 3 -14 1 -14 -17 2 -12 9 -21 22 -21 28 0 5 4 4 9 -3 4 -8 12 -13 17 -12z
m-1940 -70 c52 -27 105 -57 118 -67 21 -18 61 -101 52 -110 -10 -10 -45 18
-48 39 -2 18 -26 35 -102 73 -82 42 -102 57 -113 83 -7 18 -10 32 -7 32 3 0
48 -22 100 -50z m-5 -159 c57 -27 118 -53 134 -57 62 -15 74 -33 75 -105 0
-37 -7 -86 -15 -109 -8 -23 -15 -47 -15 -52 0 -6 7 -8 15 -4 8 3 15 1 15 -4 0
-20 22 -9 38 20 23 41 39 44 55 12 7 -16 20 -26 29 -24 12 2 21 -12 33 -55 9
-31 25 -64 34 -73 27 -23 42 -102 35 -178 -5 -55 -16 -88 -64 -182 -94 -187
-103 -199 -159 -231 -63 -36 -94 -92 -122 -222 -23 -105 -39 -133 -39 -68 0
61 -21 49 -45 -27 -11 -35 -25 -62 -32 -62 -17 0 -34 -45 -26 -66 7 -19 37
-13 100 18 24 12 46 18 50 15 8 -9 -27 -76 -49 -91 -27 -20 -105 -124 -118
-159 -6 -18 -16 -40 -21 -49 -5 -10 -9 -31 -9 -47 0 -17 -4 -32 -9 -35 -14 -9
-44 31 -35 46 5 7 11 49 16 93 4 44 11 129 17 190 6 65 14 111 21 113 6 2 20
24 31 49 22 53 23 54 7 48 -7 -3 -20 -1 -28 5 -12 8 -15 42 -17 197 -1 103 -4
195 -8 204 -10 26 -1 112 12 116 24 8 79 -98 93 -179 11 -68 11 -83 -4 -128
-17 -53 -24 -160 -10 -160 1 0 19 30 39 68 21 37 48 81 60 97 29 39 40 85 22
85 -17 0 -67 58 -67 77 0 7 -4 13 -10 13 -5 0 -10 6 -10 13 0 6 -15 31 -34 55
-19 23 -37 54 -40 68 -6 22 -11 25 -36 22 -30 -5 -30 -4 -30 45 0 27 -3 140
-6 251 -4 110 -6 212 -5 226 1 14 2 39 3 57 1 18 5 30 10 27 4 -3 8 0 8 5 0 6
5 11 11 11 8 0 10 -17 6 -55 -4 -40 -2 -59 9 -69 8 -8 14 -19 14 -25 0 -5 18
-44 39 -85 l40 -74 -20 -38 c-10 -21 -19 -43 -19 -49 0 -5 -14 -30 -30 -55
-25 -37 -30 -55 -30 -102 0 -58 6 -68 28 -46 9 9 13 7 17 -8 17 -50 25 -63 38
-58 9 3 23 -7 35 -23 12 -15 38 -46 59 -69 l37 -40 21 25 c12 14 24 34 28 44
3 9 12 17 20 17 21 0 74 61 95 109 16 40 17 49 5 85 -17 50 -73 165 -85 172
-16 10 -8 -37 17 -98 30 -74 33 -153 7 -184 -26 -31 -80 -66 -92 -59 -6 4 -17
1 -25 -5 -11 -9 -19 -2 -39 39 -30 59 -30 59 -12 57 15 -1 54 47 83 102 10 19
24 32 36 32 16 0 18 5 14 38 -3 20 -9 45 -12 54 -8 20 -52 51 -63 44 -5 -3
-25 10 -45 29 -30 28 -37 41 -37 72 0 52 10 83 25 83 8 0 20 7 29 15 13 14 16
13 25 -2 10 -17 12 -17 26 1 10 14 15 15 15 6 0 -12 3 -11 16 1 13 14 14 23 4
60 -14 53 -35 77 -92 105 -127 64 -156 79 -188 101 -58 39 -9 26 101 -26z
m-171 31 c0 -20 -124 -101 -137 -89 -2 3 8 12 24 21 15 8 44 29 63 45 36 31
50 37 50 23z m130 -67 c0 -8 -7 -15 -15 -15 -9 0 -12 6 -9 15 4 8 10 15 15 15
5 0 9 -7 9 -15z m2150 -7 c0 -11 -5 -18 -12 -16 -19 7 -21 35 -3 35 8 0 15 -9
15 -19z m-13 -60 c-3 -8 -6 -5 -6 6 -1 11 2 17 5 13 3 -3 4 -12 1 -19z m33 -8
c0 -5 -4 -10 -10 -10 -5 0 -10 5 -10 10 0 6 5 10 10 10 6 0 10 -4 10 -10z
m-1425 -225 c-3 -81 -1 -135 5 -135 14 0 0 -87 -23 -145 -46 -115 -67 -208
-67 -294 0 -46 4 -98 9 -115 22 -73 29 -106 20 -106 -23 0 -71 161 -49 168 5
2 10 8 10 13 0 6 -4 8 -9 4 -19 -11 -35 85 -18 112 4 6 4 19 1 30 -4 12 -3 14
3 6 6 -8 9 13 9 58 -1 63 11 99 26 83 11 -10 28 102 64 418 11 95 23 34 19
-97z m-890 -146 c26 -83 31 -119 17 -119 -10 0 -54 91 -58 118 -2 9 -4 24 -5
32 -4 27 1 50 11 50 5 0 21 -36 35 -81z m-320 -271 c10 -18 36 -55 57 -83 21
-27 38 -58 38 -67 0 -35 -31 -17 -67 40 -20 31 -47 72 -59 91 -13 19 -21 38
-18 43 11 17 30 7 49 -24z m323 2 c-7 -11 -18 -20 -25 -20 -6 0 -17 -17 -23
-37 -7 -21 -16 -42 -21 -47 -5 -6 -9 -20 -9 -31 0 -12 -9 -30 -21 -41 -21 -19
-21 -19 -16 11 2 17 16 48 31 69 14 21 26 44 26 50 0 11 50 63 63 65 4 1 2 -8
-5 -19z m588 -162 c-8 -75 -24 -128 -37 -128 -6 0 -8 -4 -4 -10 3 -5 -6 -37
-19 -71 -14 -34 -29 -78 -32 -98 -4 -20 -12 -40 -19 -46 -16 -14 -38 -83 -30
-95 4 -6 -5 -20 -19 -31 -14 -11 -26 -27 -26 -35 0 -24 -54 -93 -73 -94 -16 0
-18 5 -12 33 14 68 39 131 104 259 37 73 75 160 84 192 9 33 24 67 33 75 9 9
14 11 10 4 -3 -6 -1 -15 5 -19 8 -4 9 3 4 24 -6 28 17 102 32 102 3 0 3 -28
-1 -62z m-814 -105 c20 -24 30 -53 17 -53 -5 0 -15 12 -22 28 -6 15 -16 30
-22 34 -7 5 -6 8 1 8 6 0 18 -8 26 -17z m77 -198 c0 -13 -7 -6 -19 20 -24 53
-24 80 0 35 11 -19 19 -44 19 -55z m986 -21 c-25 -86 -53 -187 -71 -257 -15
-60 -23 -74 -68 -114 -28 -25 -52 -40 -54 -34 -4 12 55 102 74 114 7 4 20 42
29 85 20 91 43 179 54 207 5 11 14 33 21 50 20 49 32 8 15 -51z m-1186 -154
c12 -22 20 -40 18 -40 -2 0 -16 18 -31 40 -14 22 -23 40 -18 40 5 0 18 -18 31
-40z m385 -135 c3 -8 1 -15 -4 -15 -6 0 -10 7 -10 15 0 8 2 15 4 15 2 0 6 -7
10 -15z m-227 -82 c3 -9 -8 -10 -35 -4 -2 1 0 6 3 12 8 12 27 7 32 -8z m414
-116 c-10 -9 -11 -8 -5 6 3 10 9 15 12 12 3 -3 0 -11 -7 -18z m-61 -77 c0 -5
-4 -10 -10 -10 -5 0 -10 5 -10 10 0 6 5 10 10 10 6 0 10 -4 10 -10z m369 -422
c-13 -23 -22 -53 -20 -64 1 -13 -11 -37 -28 -56 -24 -27 -28 -37 -18 -47 9
-10 8 -11 -7 -5 -13 5 -17 4 -12 -4 4 -7 18 -12 31 -12 23 0 35 -17 35 -49 0
-16 -91 -104 -220 -215 -135 -116 -160 -140 -160 -156 0 -33 -163 -132 -281
-170 -51 -17 -69 -28 -79 -48 -8 -18 -14 -22 -18 -13 -2 7 2 17 9 22 9 6 2 8
-21 6 -19 -1 -36 -8 -36 -15 -3 -22 -4 -23 -24 -12 -27 14 -26 40 1 37 12 -1
24 4 26 11 7 18 -44 15 -51 -3 -3 -9 -14 -15 -23 -13 -11 2 -18 -3 -18 -14 0
-24 -36 -60 -54 -53 -13 5 -13 4 -4 -6 10 -10 16 -9 31 4 23 21 32 21 32 3 0
-8 3 -16 8 -19 4 -2 1 -2 -5 -1 -7 2 -13 -1 -13 -5 0 -5 -9 -7 -19 -4 -13 3
-21 -2 -26 -16 -4 -14 -15 -21 -30 -21 -17 0 -23 4 -19 14 3 8 -4 15 -20 18
-16 3 -23 1 -19 -8 6 -17 -18 -29 -27 -13 -7 10 -11 10 -24 0 -9 -7 -13 -17
-10 -22 3 -5 -1 -6 -9 -3 -9 3 -21 -4 -29 -15 -8 -12 -18 -18 -21 -15 -9 9
-77 -35 -77 -50 0 -7 6 -18 13 -26 6 -8 2 -6 -11 5 -22 18 -24 18 -33 3 -6
-11 -16 -15 -27 -11 -15 6 -15 4 2 -15 11 -12 14 -22 8 -22 -6 0 -12 5 -14 12
-3 7 -13 5 -31 -7 -15 -9 -27 -14 -27 -11 0 8 -56 -21 -82 -43 -10 -8 -18 -11
-18 -7 0 4 -15 -3 -32 -16 -18 -13 -35 -23 -38 -23 -3 -1 -19 -8 -36 -17 -22
-12 -34 -14 -42 -6 -7 7 -16 7 -29 -1 -17 -10 -17 -10 2 -11 17 -1 15 -3 -9
-16 -15 -9 -36 -14 -46 -11 -10 3 -27 -1 -37 -8 -10 -7 -36 -18 -58 -25 -22
-7 -44 -16 -50 -19 -5 -4 -23 -4 -40 -1 l-30 7 28 11 c15 6 27 15 28 19 5 40
2 67 -8 70 -7 3 -13 -3 -13 -13 0 -14 -3 -15 -12 -6 -8 8 -8 15 3 28 12 14 10
19 -10 36 -14 10 -31 16 -39 13 -50 -19 -444 -89 -464 -82 -14 4 115 34 267
62 111 21 161 33 200 51 17 8 91 32 166 54 74 21 155 49 180 60 l44 20 -67 -5
c-79 -6 -89 7 -20 25 26 7 52 16 57 20 6 4 52 20 103 35 50 16 92 32 92 36 0
6 149 62 175 65 13 1 56 21 235 104 301 141 356 168 409 204 29 20 59 36 66
36 8 0 17 5 20 10 4 6 40 33 82 61 122 83 178 141 352 368 30 39 56 69 59 67
2 -2 -7 -24 -19 -48z m-879 -85 c14 -26 40 -72 58 -103 19 -30 42 -76 53 -102
l18 -47 -22 -7 c-12 -4 -33 -15 -46 -25 -28 -23 -41 -24 -41 -5 0 8 -4 18 -10
21 -6 3 -7 -1 -4 -9 20 -53 -45 44 -73 108 -18 40 -16 49 7 43 15 -4 20 -1 18
11 -2 9 3 17 11 17 8 0 16 6 19 13 5 16 -7 15 -42 -3 -16 -9 -30 -14 -31 -13
-2 2 -6 19 -9 38 -5 28 -5 31 4 18 6 -10 15 -18 20 -18 5 0 7 8 3 18 -5 14 -3
13 10 -3 14 -17 18 -18 26 -5 5 8 7 18 5 22 -3 4 -7 16 -9 25 -2 10 -6 26 -10
36 -5 11 -2 17 6 17 8 0 25 -21 39 -47z m-174 -5 c3 -12 22 -54 40 -94 19 -39
34 -75 34 -79 0 -4 15 -38 34 -74 34 -68 35 -101 1 -101 -12 0 -67 69 -115
146 -10 16 -21 22 -35 18 -19 -5 -19 -4 -2 9 20 17 22 28 3 21 -9 -4 -15 5
-19 28 -4 26 0 37 16 50 16 12 21 27 20 57 -1 44 11 55 23 19z m2606 -10 c-7
-7 -12 -8 -12 -2 0 14 12 26 19 19 2 -3 -1 -11 -7 -17z m-32 -38 c0 -5 -4 -10
-8 -10 -5 0 -14 -10 -20 -22 -6 -13 -11 -17 -11 -10 -1 19 18 52 29 52 6 0 10
-4 10 -10z m-50 -61 c0 -5 -8 -9 -17 -8 -11 0 -13 3 -5 6 6 2 9 10 6 15 -4 7
-2 8 4 4 7 -4 12 -11 12 -17z m-10 -26 c0 -9 -91 -186 -99 -193 -3 -3 -14 -28
-23 -55 -14 -40 -16 -70 -11 -138 3 -48 9 -90 13 -92 4 -3 19 22 34 54 27 62
131 250 146 265 5 5 0 -15 -11 -45 -19 -51 -33 -80 -81 -172 -11 -21 -17 -41
-14 -44 3 -3 -2 -12 -10 -21 -9 -9 -12 -18 -6 -24 14 -14 2 -60 -14 -54 -9 3
-14 -2 -14 -13 0 -11 5 -21 11 -23 7 -2 7 -12 -1 -32 -6 -16 -8 -43 -4 -60 4
-22 1 -36 -9 -44 -12 -10 -19 -2 -42 50 -15 34 -29 78 -30 97 -2 20 -6 77 -10
128 -7 81 -5 97 12 135 11 24 24 53 27 66 4 12 12 22 17 22 5 0 9 7 9 16 0 27
83 184 97 184 7 0 13 -3 13 -7z m-2845 -23 c3 -11 10 -20 16 -20 5 0 15 -15
22 -33 8 -18 27 -46 43 -62 34 -35 88 -117 103 -158 10 -25 9 -29 -9 -34 -11
-3 -20 -14 -20 -25 0 -15 -5 -18 -20 -13 -14 5 -20 2 -20 -9 0 -9 -5 -16 -12
-16 -6 0 -20 -8 -30 -17 -16 -14 -21 -15 -28 -4 -5 8 -18 12 -34 9 -21 -4 -31
2 -53 31 -15 20 -30 38 -34 41 -8 6 -30 83 -34 119 -2 16 7 33 25 50 15 14 31
36 35 49 3 12 15 27 26 32 15 9 17 15 9 30 -13 23 -13 50 -1 50 5 0 13 -9 16
-20z m2964 -397 c-113 -140 -114 -142 -114 -318 0 -144 1 -154 34 -253 19 -56
38 -102 41 -102 4 0 7 38 6 85 -1 53 3 88 10 93 6 4 14 23 18 43 5 28 12 38
31 43 14 4 25 11 25 16 0 6 6 10 14 10 31 0 30 69 -2 118 -12 18 -22 22 -41
19 -16 -3 -34 2 -50 15 -15 11 -27 15 -29 9 -2 -6 -10 -11 -18 -11 -29 0 15
104 66 158 30 32 37 20 11 -21 -21 -34 -28 -67 -13 -67 4 0 23 16 43 34 l36
34 26 -30 c15 -16 27 -33 27 -37 0 -4 18 -16 39 -27 l39 -19 -14 -35 c-7 -19
-12 -44 -10 -55 3 -11 5 -23 5 -27 1 -5 5 -8 10 -8 4 0 16 26 25 58 21 71 86
186 109 190 15 3 14 -2 -5 -44 -15 -34 -18 -52 -11 -63 6 -9 13 -14 16 -11 9
7 36 -32 37 -52 0 -10 4 -18 10 -18 5 0 7 -7 4 -15 -4 -9 0 -15 9 -15 22 0 30
-29 10 -37 -14 -5 -13 -8 6 -14 12 -5 32 -4 46 3 14 6 28 9 31 5 11 -11 -8
-28 -50 -47 -34 -15 -228 -196 -317 -297 -9 -10 -35 -29 -58 -43 -22 -13 -41
-30 -41 -37 0 -17 10 -16 35 1 11 7 27 13 35 14 42 3 57 11 99 56 25 27 70 62
99 78 29 17 58 40 65 52 7 11 23 22 37 23 40 2 75 9 87 16 6 4 14 -1 17 -10 9
-23 -13 -83 -30 -83 -22 0 -41 -55 -55 -156 -13 -95 -29 -133 -29 -70 0 37 -1
38 -22 24 -24 -16 -31 -35 -54 -148 -8 -41 -24 -105 -36 -142 l-20 -68 -40 33
c-42 35 -127 85 -198 118 -25 11 -85 40 -135 64 -49 24 -108 49 -130 56 -52
15 -65 26 -65 56 0 13 -20 63 -45 111 -75 148 -84 192 -38 192 8 0 18 12 23
26 14 35 13 39 -7 23 -15 -13 -15 -12 -4 9 6 12 16 22 22 22 19 0 69 44 69 61
0 18 19 38 21 22 0 -4 2 -21 3 -36 1 -16 7 -31 13 -35 19 -12 19 -40 -1 -55
-15 -11 -17 -17 -8 -33 6 -10 12 -14 12 -7 0 19 32 3 62 -31 18 -20 28 -42 28
-63 0 -26 4 -33 20 -33 13 0 24 10 30 26 13 32 13 137 1 150 -6 5 -12 45 -16
89 -3 44 -8 110 -11 147 -6 69 8 160 30 187 6 7 11 19 12 25 0 6 2 17 2 24 1
6 9 12 18 12 13 0 15 7 11 29 -5 25 -3 30 18 33 18 4 22 1 17 -11 -3 -9 14 1
38 22 24 20 52 37 62 37 14 0 0 -22 -53 -87z m126 27 c-3 -5 -11 -10 -16 -10
-6 0 -7 5 -4 10 3 6 11 10 16 10 6 0 7 -4 4 -10z m-1735 -14 c0 -2 -8 -10 -17
-17 -16 -13 -17 -12 -4 4 13 16 21 21 21 13z m-960 -30 c0 -3 -4 -8 -10 -11
-5 -3 -10 -1 -10 4 0 6 5 11 10 11 6 0 10 -2 10 -4z m937 -55 c8 -8 12 -22 10
-32 -3 -12 0 -19 9 -19 8 0 14 -5 14 -11 0 -8 6 -7 18 2 14 11 15 11 5 -1 -17
-19 -16 -30 2 -30 20 0 19 -12 -6 -44 -11 -14 -21 -36 -22 -48 -1 -13 -7 -28
-13 -35 -6 -7 -24 -49 -39 -95 -25 -75 -70 -157 -87 -158 -3 0 -12 24 -19 53
-18 76 -35 111 -69 145 -16 17 -30 35 -30 41 0 6 -17 19 -37 30 l-37 19 42 21
c23 12 86 62 140 111 54 50 99 84 101 77 2 -6 11 -18 18 -26z m413 -32 c-7
-24 -26 -70 -42 -103 -17 -34 -26 -62 -20 -64 7 -2 7 -14 1 -35 -12 -42 -11
-67 1 -67 6 0 10 7 10 15 0 8 5 15 11 15 6 0 8 -9 4 -22 -4 -13 -8 -27 -9 -33
0 -5 -3 -12 -7 -15 -9 -8 -36 -72 -54 -129 -15 -45 -15 -55 -4 -62 12 -7 11
-9 -1 -9 -9 -1 -32 -36 -55 -83 -22 -45 -44 -85 -50 -89 -6 -5 -4 -12 5 -18
13 -8 13 -10 -1 -10 -11 0 -33 -31 -60 -85 -39 -77 -59 -102 -59 -75 0 6 -5
10 -11 10 -6 0 -17 7 -26 16 -9 8 -22 13 -30 9 -11 -3 -13 -1 -9 10 4 11 -3
17 -24 22 -38 7 -44 17 -26 36 8 8 13 17 10 20 -3 3 -1 8 5 12 6 3 11 -2 11
-13 0 -20 25 -36 41 -26 14 9 10 34 -6 41 -14 5 -14 8 -2 22 7 9 22 39 32 66
10 28 22 56 28 62 5 7 7 20 3 28 -3 9 1 18 9 21 8 4 15 15 15 25 0 10 5 19 10
19 6 0 10 7 10 15 0 9 9 26 20 38 11 12 19 30 18 42 -2 11 3 20 11 20 14 0
110 179 111 207 0 9 10 29 23 45 13 15 43 60 67 100 24 40 46 71 48 69 2 -2
-2 -23 -8 -47z m-2030 30 c0 -6 -9 -13 -19 -16 -11 -3 -17 -11 -14 -18 3 -9
-2 -14 -14 -14 -10 0 -38 -1 -62 -2 -33 -1 -48 3 -58 17 -8 10 -10 20 -6 21 7
2 123 18 161 22 6 0 12 -4 12 -10z m-225 -42 c27 -8 51 -19 53 -26 2 -6 -3 -9
-12 -5 -9 4 -16 1 -16 -6 0 -7 -8 -10 -20 -7 -10 3 -20 1 -22 -3 -2 -4 -17 -5
-34 -3 -32 5 -54 34 -54 73 0 17 2 18 28 5 15 -7 49 -20 77 -28z m565 -52 c0
-8 -4 -15 -10 -15 -5 0 -10 7 -10 15 0 8 5 15 10 15 6 0 10 -7 10 -15z m-400
-5 c0 -5 -4 -10 -10 -10 -5 0 -10 5 -10 10 0 6 5 10 10 10 6 0 10 -4 10 -10z
m850 -19 c0 -5 3 -18 7 -28 6 -16 5 -16 -10 -4 -19 15 -23 41 -7 41 6 0 10 -4
10 -9z m1972 -113 c-7 -7 -12 -8 -12 -2 0 14 12 26 19 19 2 -3 -1 -11 -7 -17z
m-2128 3 c3 -5 -1 -14 -9 -21 -13 -10 -15 -9 -15 9 0 21 14 28 24 12z m2403
-33 c-3 -7 -5 -2 -5 12 0 14 2 19 5 13 2 -7 2 -19 0 -25z m-1824 -6 c9 -10 14
-27 11 -39 -5 -18 -16 -22 -72 -28 -67 -7 -147 -39 -171 -69 -18 -22 -28 -20
-26 4 1 12 21 33 48 51 l47 31 -23 18 c-28 23 -21 29 40 40 84 14 128 12 146
-8z m-613 -2 c0 -5 -9 -10 -20 -10 -11 0 -20 5 -20 10 0 6 9 10 20 10 11 0 20
-4 20 -10z m-623 -6 c-3 -3 -12 -4 -19 -1 -8 3 -5 6 6 6 11 1 17 -2 13 -5z
m2754 -43 c-10 -15 -24 -43 -30 -63 -7 -20 -19 -42 -27 -48 -24 -21 -17 6 22
88 25 52 39 71 44 61 5 -8 2 -23 -9 -38z m-2171 19 c0 -5 -4 -10 -10 -10 -5 0
-10 5 -10 10 0 6 5 10 10 10 6 0 10 -4 10 -10z m352 -94 c-9 -19 -19 -30 -20
-25 -4 10 24 59 33 59 3 0 -3 -15 -13 -34z m485 8 c7 -20 -8 -36 -25 -25 -14
8 -6 41 9 41 5 0 12 -7 16 -16z m-627 -58 c0 -8 -4 -26 -10 -40 -5 -14 -10
-62 -11 -106 -2 -58 -6 -80 -15 -80 -8 0 -11 6 -8 15 4 8 1 22 -6 30 -15 18
-35 7 -100 -50 -25 -22 -62 -55 -83 -72 -20 -18 -43 -33 -52 -33 -8 0 -15 -8
-16 -17 0 -10 -26 -39 -57 -64 -43 -34 -63 -44 -80 -40 -22 6 -21 8 28 66 27
32 50 65 50 72 0 7 6 13 14 13 8 0 17 11 20 25 4 14 17 32 31 41 25 16 35 66
17 78 -15 9 -92 -36 -130 -76 -46 -50 -136 -120 -182 -142 l-35 -17 38 36 c21
20 35 39 33 44 -6 10 27 38 40 34 5 -2 15 10 22 27 8 17 18 27 24 24 5 -3 12
2 14 13 3 10 19 27 37 38 185 113 313 176 343 169 14 -4 24 -2 24 4 0 9 15 17
43 21 4 0 7 -5 7 -13z m172 -8 c-7 -7 -12 -8 -12 -2 0 6 3 14 7 17 3 4 9 5 12
2 2 -3 -1 -11 -7 -17z m224 -55 c47 -15 52 -18 43 -35 -8 -15 -7 -23 8 -34 16
-12 16 -15 3 -24 -8 -5 -24 -10 -35 -11 -11 0 -33 -2 -50 -4 -38 -5 -79 20
-70 43 4 9 7 24 8 32 0 15 25 50 35 50 3 0 29 -7 58 -17z m-1926 -3 c0 -5 -10
-10 -22 -10 -19 0 -20 2 -8 10 19 13 30 13 30 0z m2184 -134 c-11 -52 -24 -77
-34 -71 -7 4 -8 11 -1 18 5 7 12 39 16 72 7 50 9 56 17 35 5 -13 6 -38 2 -54z
m-964 -5 c0 -5 -7 -12 -16 -15 -14 -5 -15 -4 -4 9 14 17 20 19 20 6z m2340
-77 c6 -29 22 -87 34 -128 25 -78 25 -86 0 -62 -7 8 -18 16 -24 18 -21 7 -68
212 -56 244 7 19 8 19 21 0 8 -10 19 -42 25 -72z m940 -34 c0 -5 -7 -16 -17
-25 -13 -13 -13 -19 -4 -25 8 -4 9 -10 3 -14 -5 -3 -12 -27 -16 -54 -3 -27
-12 -57 -20 -67 -12 -17 -14 -16 -22 11 -23 71 8 178 53 180 12 1 23 -2 23 -6z
m-2603 -106 c-3 -3 -12 -4 -19 -1 -8 3 -5 6 6 6 11 1 17 -2 13 -5z m1496 -54
c-7 -8 -23 24 -22 45 0 15 3 13 13 -10 7 -16 11 -32 9 -35z m-597 -37 c-6 -15
-9 -15 -16 -3 -6 9 -5 17 3 22 16 10 21 2 13 -19z m-1738 -8 c-12 -14 -26 -25
-32 -25 -5 0 1 11 14 25 13 14 27 25 32 25 4 0 -2 -11 -14 -25z m2352 -8 c0
-5 -4 -5 -10 -2 -5 3 -10 14 -10 23 0 15 2 15 10 2 5 -8 10 -19 10 -23z m486
-28 c80 -25 164 -81 253 -170 61 -61 63 -65 57 -104 -6 -35 -16 -63 -47 -127
-5 -10 -9 -25 -9 -33 0 -8 -5 -15 -11 -15 -10 0 -8 57 4 112 3 15 -74 43 -82
30 -4 -6 -17 -9 -29 -5 -18 4 -22 13 -22 47 -1 51 -19 77 -48 69 -23 -6 -31
-46 -12 -58 16 -10 12 -25 -5 -19 -8 4 -12 10 -9 15 3 5 -1 9 -9 9 -7 0 -24
11 -37 25 -13 14 -28 25 -33 25 -5 0 -32 16 -61 35 -29 19 -81 48 -117 65 -55
27 -59 30 -29 26 19 -2 42 -7 51 -11 27 -10 32 32 6 50 -12 8 -27 15 -35 15
-23 0 -2 19 31 29 54 16 122 12 193 -10z m-1878 -167 c18 -34 32 -77 34 -103
l3 -44 -40 -3 c-38 -3 -39 -3 -22 16 16 18 16 19 -8 30 -14 6 -25 16 -25 22 0
21 -29 40 -60 40 -34 0 -137 -31 -189 -58 -18 -9 -37 -27 -42 -39 -4 -12 -18
-27 -30 -34 -21 -11 -22 -10 -17 29 5 37 4 39 -16 34 -19 -4 -19 -3 4 15 32
25 185 94 270 121 36 12 72 23 80 26 8 2 18 5 21 5 3 1 20 -25 37 -57z m2493
-2 c6 0 9 -12 7 -27 -2 -15 2 -28 10 -30 7 -3 12 4 12 16 0 19 25 40 35 30 8
-9 -23 -100 -41 -121 -37 -41 -97 -89 -103 -83 -3 4 2 11 12 16 10 6 17 22 17
37 1 43 6 86 14 103 4 8 5 38 2 65 -4 48 -4 48 10 22 8 -16 19 -28 25 -28z
m-2314 -11 c16 -19 52 -58 81 -87 46 -47 68 -92 43 -92 -12 0 -32 26 -25 33 3
3 -4 8 -15 12 -12 3 -21 10 -21 15 0 5 -10 10 -22 12 -13 2 -22 9 -20 16 1 6
-1 11 -5 11 -21 -3 -34 2 -28 11 4 6 -7 13 -23 16 -23 5 -32 14 -41 44 -15 50
-15 50 19 46 19 -2 40 -16 57 -37z m2117 26 c3 -8 12 -15 19 -15 16 0 27 -21
57 -104 34 -94 24 -88 -60 39 -38 57 -50 95 -31 95 5 0 11 -7 15 -15z m-627
-41 c-3 -3 -12 -4 -19 -1 -8 3 -5 6 6 6 11 1 17 -2 13 -5z m118 -65 c36 -34
65 -66 65 -72 0 -6 -19 7 -42 30 -24 22 -63 55 -87 72 -35 24 -39 31 -23 31
12 0 49 -26 87 -61z m-2253 -78 c-10 -27 -19 -45 -22 -41 -3 5 -14 2 -24 -6
-14 -10 -16 -14 -5 -14 12 0 12 -2 -1 -10 -11 -7 -18 -3 -27 13 -7 12 -12 25
-13 29 0 17 75 74 102 77 3 1 -1 -21 -10 -48z m3008 29 c0 -5 -4 -10 -10 -10
-5 0 -10 5 -10 10 0 6 5 10 10 10 6 0 10 -4 10 -10z m-500 -54 c0 -21 -20 -30
-33 -17 -9 9 -8 14 3 21 21 14 30 12 30 -4z m-1940 -53 c22 -70 20 -156 -4
-182 -17 -18 -30 -21 -103 -21 -83 0 -84 0 -70 20 8 12 35 34 61 50 25 16 46
33 46 37 -1 20 -18 33 -36 26 -16 -6 -17 -4 -6 9 7 8 9 23 6 32 -6 15 -16 16
-78 10 -39 -4 -89 -12 -112 -19 -45 -13 -101 -2 -74 15 13 8 12 10 -3 10 -10
0 -16 4 -13 9 3 4 36 11 73 15 38 4 102 13 143 21 41 7 93 14 115 14 40 1 41
0 55 -46z m1682 -88 c45 -69 67 -125 49 -125 -5 0 -21 25 -36 55 -28 58 -45
65 -39 18 2 -16 -6 2 -19 39 -12 37 -25 70 -29 74 -5 4 -8 18 -8 32 l0 25 18
-24 c10 -13 39 -55 64 -94z m-1512 88 c69 -11 113 -102 80 -164 -13 -23 -35
-26 -26 -3 9 23 -2 54 -20 54 -8 0 -36 11 -63 26 -42 21 -50 30 -53 59 -4 36
6 47 32 38 8 -2 31 -7 50 -10z m1139 1 c2 -2 2 -6 -1 -9 -8 -9 -58 6 -58 16 0
8 48 2 59 -7z m-1709 -44 c-20 -13 -33 -13 -25 0 3 6 14 10 23 10 15 0 15 -2
2 -10z m-92 -32 c-3 -7 -11 -13 -18 -13 -7 0 -15 6 -17 13 -3 7 4 12 17 12 13
0 20 -5 18 -12z m-85 -78 c4 -41 5 -86 1 -100 l-6 -25 -27 34 c-53 64 -65 96
-51 130 12 29 30 40 60 37 11 -1 17 -21 23 -76z m-103 14 c0 -8 -5 -12 -10 -9
-6 4 -8 11 -5 16 9 14 15 11 15 -7z m-15 -76 c-2 -29 -4 -70 -4 -90 -1 -29 -5
-38 -18 -38 -9 0 -25 -7 -35 -17 -17 -15 -18 -15 -18 11 0 21 68 186 76 186 2
0 1 -24 -1 -52z m1065 22 c9 -16 8 -20 -5 -20 -8 0 -15 2 -15 4 0 2 -3 11 -6
20 -9 23 13 20 26 -4z m112 -94 c-2 -22 -17 -76 -33 -120 -16 -45 -29 -93 -29
-107 0 -31 -54 -115 -90 -138 -28 -19 -28 -19 34 72 29 44 36 60 27 71 -9 10
-4 30 20 82 22 49 31 83 31 118 -1 57 4 68 26 64 13 -3 16 -12 14 -42z m-421
-28 c3 -95 -2 -140 -14 -168 -12 -24 -18 -25 -112 -30 -55 -3 -102 -4 -105 -1
-3 2 4 8 14 15 34 20 86 68 86 79 0 6 7 19 17 29 15 17 14 18 -15 18 -25 0
-30 3 -25 16 5 14 0 16 -32 12 -31 -3 -39 -1 -43 14 -4 17 -12 18 -65 13 -34
-4 -64 -8 -68 -11 -10 -6 -39 6 -39 16 0 4 15 10 33 14 17 3 59 11 92 17 33 6
101 14 150 18 50 4 98 8 108 9 14 2 17 -7 18 -60z m118 -2 c16 -16 19 -26 11
-31 -13 -8 -62 34 -54 46 8 14 19 10 43 -15z m-559 -6 c-8 -5 -19 -10 -25 -10
-5 0 -3 5 5 10 8 5 20 10 25 10 6 0 3 -5 -5 -10z m-175 -79 c-19 -33 -35 -51
-47 -51 -21 0 -34 23 -24 43 21 39 35 59 52 72 16 11 21 12 33 0 11 -11 9 -21
-14 -64z m-275 35 c6 -8 15 -67 19 -133 7 -102 6 -120 -8 -131 -9 -7 -15 -25
-14 -40 l2 -27 -8 25 c-5 14 -9 46 -10 72 -1 26 -5 50 -11 53 -5 3 -10 24 -10
45 0 21 -3 41 -7 43 -18 10 -85 -6 -91 -22 -3 -9 -10 -19 -16 -23 -6 -4 2 -8
17 -8 28 0 29 -1 25 -50 -2 -40 -1 -47 9 -34 20 27 35 -16 24 -68 -6 -24 -8
-83 -5 -131 7 -95 0 -106 -39 -62 l-22 26 -3 -57 c-4 -83 -13 -92 -44 -44 -25
40 -46 139 -33 160 3 5 -2 10 -13 10 -15 0 -21 -9 -26 -46 -3 -26 -6 -62 -6
-81 0 -62 -17 -25 -23 49 -8 112 -26 180 -49 186 -13 3 -17 10 -12 21 3 9 9
26 11 39 5 20 23 38 93 93 42 33 221 149 230 149 4 0 13 -6 20 -14z m158 -114
c6 -15 10 -48 8 -73 -2 -24 -4 -54 -5 -66 -2 -37 -35 -22 -39 18 -2 19 -8 38
-13 44 -13 13 -11 27 6 69 18 43 26 45 43 8z m2586 -27 c25 -19 8 -19 -35 0
-31 13 -32 14 -9 14 14 0 34 -6 44 -14z m-1952 -107 c0 -18 0 -40 -1 -48 -2
-8 -4 -28 -4 -45 -1 -16 -6 -36 -10 -42 -11 -18 -37 -16 -37 2 0 8 5 15 10 15
6 0 10 5 10 11 0 5 -10 9 -22 7 -17 -2 -22 1 -20 14 2 12 -6 20 -23 24 -25 6
-25 7 -9 25 20 22 7 25 -20 4 -21 -16 -40 -20 -32 -7 2 4 1 14 -3 21 -6 10
-21 10 -66 2 -131 -24 -125 -6 8 26 51 12 120 22 155 22 l62 1 2 -32z m99 -5
c-9 -16 -10 -14 -11 12 0 21 3 26 11 18 8 -8 8 -16 0 -30z m1684 -67 c25 10
53 -27 48 -63 -8 -50 13 -47 27 5 16 59 34 81 27 32 -16 -119 -68 -290 -87
-290 -4 0 -29 39 -56 86 -74 128 -103 164 -174 212 -63 42 -67 44 -125 39 -59
-5 -59 -5 -31 10 37 20 115 12 160 -16 33 -21 56 -14 56 16 0 7 9 17 20 23 11
6 20 18 20 28 0 11 16 0 50 -35 33 -36 54 -51 65 -47z m-2305 19 c-7 -9 -15
-13 -19 -10 -3 3 1 10 9 15 21 14 24 12 10 -5z m-644 -22 c3 -16 10 -41 15
-58 16 -54 21 -268 6 -289 -11 -15 -15 3 -26 126 -15 156 -16 164 -36 171 -18
7 -98 -17 -103 -31 -2 -7 -9 -12 -16 -12 -24 0 -76 -31 -76 -46 0 -8 -7 -14
-15 -14 -8 0 -20 -10 -26 -22 -7 -13 -34 -43 -61 -68 -47 -42 -50 -47 -44 -82
4 -23 2 -38 -4 -38 -5 0 -10 -7 -10 -16 0 -8 5 -12 10 -9 9 5 14 -9 8 -18 -2
-2 3 -11 11 -20 28 -34 52 -16 64 50 5 25 3 31 -8 27 -9 -4 -13 1 -12 15 1 12
5 21 9 21 4 0 8 7 8 15 0 21 18 19 22 -2 2 -12 11 -1 22 30 10 26 23 47 28 47
6 0 8 6 5 14 -3 7 7 26 23 41 22 21 35 26 54 21 18 -4 29 -1 39 14 24 35 39 0
53 -126 8 -64 14 -121 15 -127 1 -7 -6 -30 -15 -51 -15 -32 -16 -49 -8 -88 6
-34 6 -48 -1 -45 -13 4 -24 25 -32 60 -4 21 -11 27 -31 27 -26 0 -26 -1 -19
-47 4 -27 11 -53 17 -60 12 -15 7 -58 -7 -58 -5 0 -17 14 -25 30 -8 17 -25 45
-38 62 -13 18 -21 37 -18 41 3 5 -3 22 -14 39 -15 26 -16 36 -7 72 6 22 14 41
18 41 4 0 13 16 19 36 10 30 10 39 -4 52 -8 9 -17 14 -19 11 -11 -12 -57 -122
-76 -179 -12 -36 -30 -76 -40 -89 -16 -20 -19 -21 -24 -7 -5 12 -3 15 6 10 6
-4 -2 7 -19 23 -38 36 -77 120 -70 149 4 14 0 24 -9 28 -8 3 -15 11 -15 18 0
27 297 269 360 294 8 4 33 14 55 25 52 24 54 24 61 -8z m2836 -280 c19 -27 49
-79 68 -117 31 -64 34 -81 25 -141 -1 -11 -3 -26 -4 -32 -1 -14 -31 -18 -31
-5 0 10 -68 90 -122 144 -41 40 -78 61 -146 80 -24 7 -42 18 -40 23 5 16 89 6
125 -15 18 -11 39 -17 46 -14 18 7 36 87 25 108 -6 11 -5 16 6 16 8 0 29 -21
48 -47z m-1613 -64 c28 -18 51 -34 51 -36 0 -2 -12 0 -27 3 -25 7 -27 6 -14
-9 7 -9 17 -15 21 -12 10 6 73 -25 83 -42 4 -7 14 -13 21 -13 8 0 16 -7 20
-15 3 -8 10 -15 16 -15 6 0 8 5 5 10 -3 6 -5 10 -3 10 14 0 199 -79 188 -80
-9 -1 -6 -5 8 -10 24 -10 26 -18 13 -38 -18 -30 -65 -21 -161 30 -107 57 -110
59 -92 65 9 4 5 13 -13 30 -14 14 -25 30 -25 34 0 5 -8 9 -17 9 -15 0 -16 -2
-3 -10 11 -7 12 -12 3 -21 -15 -15 -145 -70 -151 -64 -7 7 -1 12 49 38 57 30
60 49 13 72 -37 17 -38 17 -142 -18 -92 -30 -107 -33 -120 -20 -13 12 -12 17
8 38 12 13 36 29 53 37 33 13 147 54 159 57 4 0 29 -13 57 -30z m261 16 c7 -8
25 -15 40 -15 21 0 39 -12 69 -46 23 -26 41 -54 41 -62 0 -9 10 -26 22 -39 17
-18 18 -23 6 -23 -9 0 -21 7 -28 15 -7 8 -20 15 -29 15 -10 0 -30 14 -46 30
-16 17 -36 30 -44 30 -9 1 -29 12 -46 26 -29 25 -29 25 -5 19 l25 -7 -22 24
c-13 13 -23 30 -23 36 0 17 25 15 40 -3z m-590 -54 c0 -5 -17 -12 -37 -16 -21
-4 -49 -15 -64 -26 -32 -22 -49 -24 -49 -5 0 7 -10 17 -22 20 -22 6 -22 7 -5
20 20 15 177 21 177 7z m-1425 -41 c-10 -11 -26 -20 -37 -20 -11 0 -18 -7 -18
-19 0 -21 -49 -34 -72 -19 -10 6 -10 8 0 9 23 3 27 5 67 30 35 23 60 35 74 38
2 1 -4 -8 -14 -19z m1245 -10 c0 -5 -5 -10 -11 -10 -5 0 -7 5 -4 10 3 6 8 10
11 10 2 0 4 -4 4 -10z m348 -37 c-10 -2 -18 -9 -18 -15 0 -6 -3 -9 -6 -5 -10
10 6 27 24 26 15 -1 15 -2 0 -6z m304 -84 c44 -26 131 -83 147 -96 2 -1 2 -6
-2 -9 -3 -4 -43 6 -88 22 -72 26 -83 33 -98 64 -9 19 -20 38 -26 42 -29 21 21
4 67 -23z m-2158 -24 c-3 -8 -21 -24 -39 -35 -19 -12 -37 -30 -40 -40 -4 -11
-13 -20 -21 -20 -23 0 19 55 65 85 44 29 42 28 35 10z m2596 -20 c7 -8 9 -15
5 -15 -4 0 -2 -7 5 -15 9 -11 9 -21 -4 -46 -21 -42 -20 -51 5 -83 l20 -26 -36
0 c-20 0 -53 9 -75 20 l-39 20 -16 -24 c-10 -15 -19 -63 -25 -131 -5 -71 -13
-111 -21 -116 -8 -5 -16 -3 -20 4 -11 19 -17 184 -9 228 4 22 3 42 -1 45 -31
19 48 100 122 126 16 5 29 14 29 19 0 15 47 10 60 -6z m-645 -29 c22 -8 86
-29 142 -46 57 -18 101 -36 98 -40 -7 -12 -65 -30 -65 -21 0 15 -61 24 -165
25 -97 1 -100 0 -103 -21 -4 -27 0 -27 -48 -7 -22 9 -55 23 -74 30 l-35 15 25
14 c50 29 90 45 112 46 13 0 32 4 43 9 27 12 24 12 70 -4z m703 0 c42 -21 95
-36 133 -37 48 0 174 -35 160 -43 -6 -4 -15 -5 -20 -2 -4 3 -41 10 -82 16 -41
6 -87 16 -103 22 -24 10 -30 9 -40 -8 -6 -10 -13 -37 -16 -58 -3 -22 -11 -42
-19 -44 -11 -4 -13 2 -7 29 19 88 19 99 3 99 -19 0 -67 39 -49 40 8 0 26 -6
40 -14z m951 0 c13 -15 7 -55 -12 -94 -9 -19 -17 -23 -41 -18 -16 4 -38 13
-47 22 -17 16 -17 17 2 33 11 9 21 23 22 31 6 40 52 55 76 26z m-1979 -22 c0
-4 -7 -12 -16 -19 -24 -17 -11 -99 19 -120 20 -14 21 -15 2 -15 -11 0 -33 11
-50 24 -27 21 -28 26 -17 50 16 35 -9 36 -36 1 -24 -30 -29 -31 -35 -7 -2 10
11 33 32 55 27 28 43 37 68 37 18 0 33 -3 33 -6z m1828 -31 c2 -8 -6 -13 -22
-13 -26 0 -40 12 -29 24 11 11 46 2 51 -11z m-3268 -8 c0 -8 -7 -15 -15 -15
-13 0 -14 3 -3 15 16 18 18 18 18 0z m41 -17 c20 -22 26 -83 9 -93 -5 -3 -7
-12 -3 -21 3 -9 0 -14 -7 -12 -6 2 -20 -12 -30 -30 -27 -50 -28 -50 -32 6 -2
31 30 172 40 172 2 0 13 -10 23 -22z m2769 12 c0 -5 -7 -10 -16 -10 -8 0 -12
5 -9 10 3 6 10 10 16 10 5 0 9 -4 9 -10z m-191 -59 c21 -21 18 -69 -5 -78 -22
-8 -5 -25 18 -17 11 3 23 2 27 -2 3 -5 20 -16 36 -24 26 -14 30 -21 27 -50 -2
-18 -5 -56 -7 -84 -5 -72 -20 -131 -39 -161 -20 -30 -40 -33 -33 -5 4 17 2 20
-15 14 -20 -6 -21 -4 -15 47 l7 54 -25 -53 c-22 -49 -26 -52 -45 -40 -23 15
-24 17 -9 55 6 15 12 77 13 136 1 92 4 111 19 122 12 8 14 16 8 20 -6 3 -11
21 -11 39 0 50 17 59 49 27z m434 -18 c20 -3 37 -10 37 -14 0 -12 -200 -9
-225 4 -19 10 -19 10 0 18 19 8 109 5 188 -8z m-2903 -8 c0 -8 -4 -15 -10 -15
-5 0 -7 7 -4 15 4 8 8 15 10 15 2 0 4 -7 4 -15z m1950 -93 c0 -18 -3 -32 -7
-30 -49 24 -63 32 -63 40 0 4 -7 8 -16 8 -10 0 -14 6 -11 14 3 8 3 17 -1 21
-4 4 -7 12 -7 18 -1 26 21 24 62 -5 36 -27 43 -37 43 -66z m688 -34 c2 -68 4
-149 7 -180 4 -57 -8 -86 -20 -49 -16 51 -29 192 -24 253 4 53 20 98 33 98 1
0 3 -55 4 -122z m408 97 c32 -13 39 -35 11 -35 -21 0 -97 33 -97 41 0 14 47
11 86 -6z m-3053 -10 c-3 -9 -8 -14 -10 -11 -3 3 -2 9 2 15 9 16 15 13 8 -4z
m3117 -25 c0 -5 -7 -10 -16 -10 -8 0 -12 5 -9 10 3 6 10 10 16 10 5 0 9 -4 9
-10z m-3130 -25 c0 -8 -2 -15 -4 -15 -2 0 -6 7 -10 15 -3 8 -1 15 4 15 6 0 10
-7 10 -15z m2894 -13 c8 -13 -21 -49 -44 -55 -25 -6 -27 18 -3 45 17 19 38 24
47 10z m376 -12 c0 -5 -7 -10 -15 -10 -8 0 -15 5 -15 10 0 6 7 10 15 10 8 0
15 -4 15 -10z m86 0 c23 0 16 -19 -10 -26 -26 -6 -66 10 -66 28 0 6 12 8 31 4
17 -3 38 -6 45 -6z m-1159 -32 c-3 -7 -5 -2 -5 12 0 14 2 19 5 13 2 -7 2 -19
0 -25z m-597 -11 c42 -14 97 -52 65 -44 -57 15 -87 18 -98 9 -22 -17 -86 -34
-107 -27 -22 7 -28 43 -7 49 28 8 93 24 102 25 6 0 26 -5 45 -12z m-1740 -37
c12 -44 7 -60 -16 -60 -16 0 -34 39 -34 76 0 17 5 24 20 24 14 0 22 -11 30
-40z m2542 -3 c-5 -7 -12 -21 -15 -32 -4 -16 -5 -16 -6 5 0 14 2 36 6 49 5 20
7 21 15 7 6 -11 6 -22 0 -29z m-1062 -11 c-65 -22 -94 -23 -87 -2 5 14 48 24
107 24 l45 0 -65 -22z m630 14 c8 -5 12 -11 10 -14 -3 -2 -14 2 -24 10 -22 15
-10 19 14 4z m940 -44 c0 -29 45 -123 62 -128 9 -3 9 -12 -2 -38 -8 -19 -13
-44 -12 -57 1 -15 -4 -23 -15 -23 -14 0 -15 9 -10 65 4 36 3 65 -1 65 -4 -1
-17 -9 -29 -19 -17 -14 -23 -30 -23 -58 0 -46 -11 -65 -29 -54 -10 7 -11 19
-2 57 9 44 8 50 -9 63 -35 24 -20 122 23 152 18 13 47 -3 47 -25z m-1049 -13
l62 -27 -49 -17 c-68 -24 -82 -24 -60 0 20 22 11 51 -15 51 -10 0 -19 5 -19
10 0 15 13 12 81 -17z m-566 -3 c4 -6 22 -17 41 -25 43 -18 36 -39 -10 -31
-35 7 -77 -18 -69 -41 3 -7 0 -13 -5 -13 -13 0 -21 81 -10 103 9 19 43 23 53
7z m345 -40 c0 -10 10 -28 22 -40 16 -15 18 -20 7 -20 -9 0 -23 16 -32 35 -20
42 -20 45 -7 45 6 0 10 -9 10 -20z m-25 -178 c22 -5 49 -14 60 -20 20 -11 20
-11 -1 -12 -12 0 -35 5 -53 11 -26 9 -35 8 -49 -4 -20 -18 -102 -33 -102 -19
0 5 -10 13 -22 17 -20 6 -20 8 -5 12 9 2 17 8 17 13 0 19 75 20 155 2z m130
-42 c7 -12 -2 -12 -30 0 -19 8 -19 9 2 9 12 1 25 -3 28 -9z m65 -34 c0 -2 -9
-2 -20 1 -11 3 -20 9 -20 15 0 5 9 4 20 -2 11 -6 20 -12 20 -14z m-65 -26 c-3
-5 -11 -10 -16 -10 -6 0 -7 5 -4 10 3 6 11 10 16 10 6 0 7 -4 4 -10z m-419
-48 c-4 -3 -14 2 -24 12 -16 18 -16 18 6 6 13 -6 21 -14 18 -18z m206 -194
c-7 -7 -12 -8 -12 -2 0 14 12 26 19 19 2 -3 -1 -11 -7 -17z m649 -169 c19 -6
46 -17 60 -24 14 -8 45 -17 68 -21 58 -9 67 -29 10 -21 -24 4 -57 9 -74 13
-25 5 -28 4 -17 -7 17 -18 15 -29 -5 -29 -12 -1 -8 -6 12 -17 17 -9 35 -22 40
-29 6 -7 19 -14 30 -16 29 -5 31 -36 3 -47 -17 -7 -32 -4 -57 10 -20 12 -54
20 -88 21 l-54 2 4 77 c7 105 8 107 68 88z m-1013 -44 c19 -58 28 -165 13
-165 -6 0 -11 -14 -11 -32 0 -39 -12 -29 -17 14 -5 46 -17 54 -46 31 -18 -14
-36 -18 -66 -15 -39 4 -55 22 -31 37 5 3 7 12 3 20 -3 9 1 15 8 16 8 1 23 2
34 3 11 0 24 11 30 24 5 12 15 22 22 22 7 0 11 12 10 27 -2 25 -7 28 -46 31
-40 3 -42 1 -36 -19 6 -19 4 -20 -24 -14 -39 8 -52 -16 -26 -45 18 -19 17 -20
-10 -20 -26 0 -27 -2 -22 -37 6 -36 5 -37 -7 -13 -24 46 -28 105 -8 123 38 34
106 57 162 55 55 -3 55 -3 68 -43z m142 29 c14 -8 17 -13 8 -10 -9 3 -19 0
-22 -7 -3 -9 -8 -8 -15 3 -7 10 -11 11 -11 3 0 -7 -4 -13 -10 -13 -5 0 -10 9
-10 20 0 24 25 26 60 4z m698 -6 c18 -18 15 -28 -8 -28 -13 0 -20 7 -20 20 0
23 10 26 28 8z m-470 -17 c9 -11 33 -40 51 -66 31 -42 33 -48 18 -57 -25 -13
-21 -41 9 -69 25 -23 26 -26 18 -99 -4 -41 -6 -114 -5 -162 2 -76 0 -87 -13
-82 -17 6 -23 54 -7 54 10 0 2 48 -10 56 -5 3 -9 22 -9 44 0 24 -5 40 -15 44
-8 3 -15 12 -15 21 0 8 -9 15 -19 15 -11 0 -23 5 -27 11 -9 15 26 89 43 89 15
0 18 65 3 75 -5 3 -10 17 -10 30 0 17 -9 26 -37 37 -30 13 -36 20 -37 47 -1
26 3 31 22 31 12 0 30 -9 40 -19z m82 -7 c0 -8 -4 -12 -10 -9 -5 3 -10 13 -10
21 0 8 5 12 10 9 6 -3 10 -13 10 -21z m150 -44 c24 -24 25 -33 4 -51 -14 -11
-18 -11 -29 4 -7 9 -17 17 -24 17 -12 0 -15 32 -4 43 12 12 33 7 53 -13z
m-690 -9 c0 -5 -12 -8 -26 -8 -18 0 -22 2 -13 8 18 11 39 11 39 0z m320 -1 c0
-5 -2 -10 -4 -10 -3 0 -8 5 -11 10 -3 6 -1 10 4 10 6 0 11 -4 11 -10z m960 3
c0 -5 -5 -15 -10 -23 -8 -12 -10 -11 -10 8 0 12 5 22 10 22 6 0 10 -3 10 -7z
m-54 -40 c-10 -10 -19 5 -10 18 6 11 8 11 12 0 2 -7 1 -15 -2 -18z m-876 -10
c20 -26 21 -28 3 -41 -16 -11 -20 -10 -36 9 l-17 21 -21 -26 c-24 -30 -45 -26
-28 7 14 26 49 56 66 57 6 0 21 -12 33 -27z m490 -2 c0 -12 -39 -21 -45 -11
-3 5 3 11 12 13 29 8 33 7 33 -2z m552 -26 c-5 -41 -20 -65 -37 -59 -19 8 -19
16 0 60 17 42 42 41 37 -1z m-1618 -10 c22 -34 20 -38 -9 -19 -14 9 -25 23
-25 30 0 22 16 17 34 -11z m1121 -5 c28 -10 42 -19 32 -20 -20 0 -87 26 -87
34 0 8 -1 8 55 -14z m636 -53 c7 -44 0 -51 -36 -37 -20 8 -26 15 -22 30 6 22
-8 28 -16 8 -3 -8 -6 -6 -6 5 -1 18 33 38 59 34 9 -1 17 -18 21 -40z m-1853 3
c14 -23 18 -20 -58 -40 -56 -14 -64 -14 -68 -1 -2 6 11 19 29 30 23 14 38 17
55 11 18 -7 22 -6 17 5 -8 22 10 18 25 -5z m-202 -87 c6 -24 -4 -39 -81 -114
-48 -48 -74 -58 -83 -31 -2 7 26 42 62 79 37 37 66 74 65 82 -3 39 1 46 17 26
8 -11 17 -30 20 -42z m2233 43 c10 -12 9 -20 -5 -41 -18 -28 -20 -22 31 -117
5 -10 13 -18 17 -18 12 0 39 -60 33 -70 -3 -6 -15 -10 -26 -10 -13 0 -19 7
-19 23 0 12 -9 28 -20 35 -11 7 -20 19 -20 27 0 23 -37 78 -44 66 -4 -6 -12
-11 -17 -11 -20 0 27 129 47 130 6 0 17 -6 23 -14z m-2659 -151 c0 -57 -9 -97
-20 -90 -9 6 -13 142 -4 156 12 20 24 -13 24 -66z m-117 -85 c-3 -11 -9 -20
-14 -20 -14 0 -22 27 -15 46 9 24 35 -1 29 -26z m3262 1 c8 -46 -8 -89 -19
-54 -4 12 -13 24 -21 27 -15 5 -21 47 -8 59 3 4 14 7 24 7 12 0 19 -11 24 -39z
m-1797 -21 c4 -3 16 -23 27 -45 16 -32 29 -42 67 -55 52 -17 59 -29 48 -86 -4
-21 -8 -29 -9 -17 -1 16 -14 29 -48 45 -37 18 -52 33 -72 73 -40 81 -41 84
-40 112 l0 28 10 -25 c6 -13 13 -27 17 -30z m366 31 c7 -11 -13 -71 -30 -92
-8 -9 -11 -19 -7 -22 9 -10 -44 -64 -68 -70 -12 -3 -23 2 -29 13 -8 15 -3 23
28 46 26 19 42 41 51 68 18 58 40 81 55 57z m1296 -119 c-7 -13 -9 -8 -9 23 0
35 1 37 10 17 6 -15 5 -30 -1 -40z m29 -107 c1 -16 -1 -17 -9 -5 -5 8 -9 29
-9 45 1 29 1 29 9 5 4 -14 8 -34 9 -45z m-2005 12 c18 -47 21 -87 7 -87 -5 0
-9 12 -9 28 0 15 -7 41 -16 57 -18 34 -20 45 -7 45 4 0 16 -19 25 -43z m274
-91 c43 -29 92 -61 110 -70 34 -18 43 -46 15 -46 -38 0 -183 84 -183 106 0 7
-9 20 -21 28 -18 12 -20 36 -2 36 3 0 39 -24 81 -54z m742 -135 c0 -9 4 -21 9
-26 4 -6 14 -32 21 -60 8 -27 24 -71 37 -96 28 -57 29 -68 3 -66 -21 1 -26 12
-11 21 12 8 1 49 -16 59 -7 4 -13 17 -13 27 0 10 -4 21 -10 25 -5 3 -7 12 -3
20 3 8 1 15 -5 15 -5 0 -12 13 -15 29 -3 16 -9 41 -13 56 -5 20 -4 26 5 21 6
-4 11 -15 11 -25z m-1060 -99 c0 -5 -6 -17 -14 -27 -13 -18 -14 -18 -9 8 5 24
23 39 23 19z m210 -27 c0 -8 -2 -15 -4 -15 -2 0 -6 7 -10 15 -3 8 -1 15 4 15
6 0 10 -7 10 -15z m-29 -68 c-13 -13 -15 1 -4 30 7 17 8 17 11 -1 2 -10 -1
-23 -7 -29z m-1468 -8 c9 -10 17 -22 17 -27 0 -4 16 -16 36 -26 58 -27 35 -28
-45 -1 -40 14 -78 25 -85 25 -7 0 -23 -33 -36 -72 -13 -40 -27 -77 -32 -83 -4
-5 -8 -19 -8 -31 0 -34 -21 -84 -35 -84 -14 0 -29 43 -16 48 4 1 6 14 3 27 -3
19 0 25 12 25 10 0 14 4 11 10 -3 6 -2 10 4 10 5 0 9 24 9 53 -1 51 23 117 41
117 5 0 11 9 14 20 5 18 11 20 49 14 23 -4 51 -15 61 -25z m2206 -64 c27 -76
24 -118 -10 -164 -22 -30 -55 -46 -64 -30 -3 4 7 32 21 61 30 57 31 91 8 147
-8 18 -14 42 -14 53 0 39 35 0 59 -67z m-742 0 c-11 -36 -42 -73 -53 -62 -10
10 34 97 50 97 12 0 12 -6 3 -35z m1022 -80 c0 -5 -11 4 -24 20 -14 17 -25 35
-25 40 0 6 11 -3 25 -20 13 -16 24 -34 24 -40z m-386 8 c4 -3 -2 -12 -13 -20
-11 -8 -20 -23 -20 -33 0 -11 -9 -25 -20 -32 -11 -7 -20 -21 -20 -30 0 -14 -8
-18 -39 -18 -35 0 -38 2 -33 25 3 16 11 25 23 25 12 0 19 7 19 20 0 11 8 24
18 27 9 4 28 15 41 25 26 19 34 22 44 11z m1667 -13 c0 -5 -4 -10 -10 -10 -5
0 -10 5 -10 10 0 6 5 10 10 10 6 0 10 -4 10 -10z"/>
<path d="M3790 7430 c0 -5 7 -10 16 -10 8 0 12 5 9 10 -3 6 -10 10 -16 10 -5
0 -9 -4 -9 -10z"/>
<path d="M2000 4859 c0 -5 5 -7 10 -4 6 3 10 8 10 11 0 2 -4 4 -10 4 -5 0 -10
-5 -10 -11z"/>
<path d="M2918 5832 c12 -13 21 -16 30 -9 11 8 11 12 0 18 -7 5 -21 9 -30 9
-17 0 -17 -1 0 -18z"/>
<path d="M2976 5831 c-4 -5 -2 -12 3 -15 5 -4 12 -2 15 3 4 5 2 12 -3 15 -5 4
-12 2 -15 -3z"/>
<path d="M2430 5719 c0 -5 5 -7 10 -4 6 3 10 8 10 11 0 2 -4 4 -10 4 -5 0 -10
-5 -10 -11z"/>
<path d="M2445 5700 c-3 -5 -1 -10 4 -10 6 0 11 5 11 10 0 6 -2 10 -4 10 -3 0
-8 -4 -11 -10z"/>
<path d="M5484 5285 c-4 -8 -11 -12 -16 -9 -6 4 -8 -2 -6 -12 5 -29 31 -23 35
9 4 29 -4 37 -13 12z"/>
<path d="M5120 4945 c0 -14 5 -25 10 -25 6 0 10 11 10 25 0 14 -4 25 -10 25
-5 0 -10 -11 -10 -25z"/>
<path d="M5865 4870 c3 -5 8 -10 11 -10 2 0 4 5 4 10 0 6 -5 10 -11 10 -5 0
-7 -4 -4 -10z"/>
<path d="M5014 4849 c-3 -6 -1 -16 5 -22 8 -8 11 -5 11 11 0 24 -5 28 -16 11z"/>
<path d="M5123 4830 c4 -16 2 -32 -3 -35 -6 -3 -10 -15 -10 -26 0 -30 30 -23
41 10 6 16 17 32 25 35 8 3 14 11 14 17 0 7 -8 5 -19 -5 -24 -21 -41 -14 -34
14 3 12 0 20 -7 20 -9 0 -11 -10 -7 -30z"/>
<path d="M5070 4750 c0 -5 7 -10 16 -10 8 0 12 5 9 10 -3 6 -10 10 -16 10 -5
0 -9 -4 -9 -10z"/>
<path d="M3756 5283 c-6 -14 -5 -15 5 -6 7 7 10 15 7 18 -3 3 -9 -2 -12 -12z"/>
<path d="M3900 4729 c0 -5 5 -7 10 -4 6 3 10 8 10 11 0 2 -4 4 -10 4 -5 0 -10
-5 -10 -11z"/>
<path d="M3850 4635 c-11 -13 -10 -14 5 -9 10 4 20 1 25 -7 12 -18 22 -7 14
15 -8 20 -28 21 -44 1z"/>
<path d="M3841 4531 c-13 -12 -18 -22 -12 -26 6 -3 20 3 32 13 27 26 8 37 -20
13z"/>
<path d="M2080 5339 c0 -5 5 -7 10 -4 6 3 10 8 10 11 0 2 -4 4 -10 4 -5 0 -10
-5 -10 -11z"/>
<path d="M2697 4760 c3 -11 12 -20 19 -20 18 0 18 8 0 26 -20 19 -25 18 -19
-6z"/>
<path d="M2666 4625 c4 -8 10 -12 15 -9 11 6 2 24 -11 24 -5 0 -7 -7 -4 -15z"/>
<path d="M5900 4100 c0 -5 5 -10 10 -10 6 0 10 5 10 10 0 6 -4 10 -10 10 -5 0
-10 -4 -10 -10z"/>
<path d="M2472 3395 c-46 -31 -51 -39 -46 -61 6 -23 4 -25 -15 -19 -32 10 -27
-27 6 -42 38 -18 43 -16 43 12 0 14 4 25 10 25 14 0 62 87 58 105 -2 12 -14 8
-56 -20z"/>
<path d="M2136 3065 c4 -8 8 -15 10 -15 2 0 4 7 4 15 0 8 -4 15 -10 15 -5 0
-7 -7 -4 -15z"/>
<path d="M3515 2890 c3 -5 8 -10 11 -10 2 0 4 5 4 10 0 6 -5 10 -11 10 -5 0
-7 -4 -4 -10z"/>
<path d="M4346 2213 c-6 -14 -5 -15 5 -6 7 7 10 15 7 18 -3 3 -9 -2 -12 -12z"/>
</g>
</svg>
