<?xml version="1.0" standalone="no"?>
<!DOCTYPE svg PUBLIC "-//W3C//DTD SVG 20010904//EN"
 "http://www.w3.org/TR/2001/REC-SVG-20010904/DTD/svg10.dtd">
<svg version="1.0" xmlns="http://www.w3.org/2000/svg"
 width="278.000000pt" height="505.000000pt" viewBox="0 0 278.000000 505.000000"
 preserveAspectRatio="xMidYMid meet">

<g transform="translate(0.000000,505.000000) scale(0.100000,-0.100000)"
fill="#000000" stroke="none">
<path d="M1298 4997 c-7 -8 -23 -19 -34 -25 -12 -6 -36 -32 -55 -57 -19 -25
-56 -73 -82 -106 -65 -83 -87 -130 -98 -206 -8 -54 -17 -75 -57 -129 -26 -35
-64 -88 -84 -117 -80 -113 -92 -127 -106 -127 -19 0 -82 -56 -105 -93 -10 -16
-40 -52 -67 -79 -27 -28 -63 -78 -79 -112 -16 -34 -36 -68 -45 -75 -15 -12
-28 -48 -40 -106 -6 -27 -4 -26 22 15 16 25 41 51 56 58 14 6 26 19 26 27 0 9
11 33 25 53 14 20 25 42 25 48 0 22 48 119 66 135 21 17 109 69 118 69 19 0
-58 -175 -106 -242 -11 -16 -22 -47 -23 -69 -2 -21 -11 -53 -20 -71 -23 -46
-44 -140 -35 -158 5 -8 15 -55 24 -104 l15 -89 -24 -28 c-13 -16 -27 -38 -30
-49 -4 -11 -23 -29 -43 -39 -20 -11 -59 -40 -86 -65 -46 -43 -48 -47 -41 -83
4 -20 13 -50 21 -65 22 -42 17 -63 -22 -93 -34 -26 -36 -30 -30 -69 6 -41 6
-41 -80 -126 -47 -47 -135 -139 -195 -204 l-109 -119 1 -789 1 -788 30 25 c16
14 33 23 38 20 13 -8 23 -121 12 -142 -14 -27 -24 -93 -15 -93 5 0 24 42 43
92 35 97 45 116 56 105 4 -3 -9 -49 -27 -102 -23 -64 -30 -98 -23 -103 5 -4
11 -27 11 -52 1 -25 4 -135 8 -245 6 -158 4 -216 -8 -278 -15 -82 -7 -113 14
-50 30 93 66 143 104 143 15 0 26 7 30 20 7 21 25 28 25 9 0 -8 5 -8 15 1 13
10 15 9 15 -11 l0 -23 18 24 c9 14 22 36 29 50 l11 25 1 -25 c0 -14 -4 -56 -9
-95 -5 -38 -7 -72 -5 -74 8 -8 45 91 45 121 0 69 35 189 108 370 19 48 36 107
38 130 2 26 11 49 22 58 10 8 29 30 41 48 13 18 25 31 28 28 2 -2 -13 -60 -36
-128 -22 -68 -39 -137 -39 -154 1 -17 -6 -51 -15 -75 -43 -120 -117 -363 -117
-385 0 -20 3 -23 18 -15 9 5 25 12 34 15 10 3 19 15 22 28 31 152 54 226 103
327 35 74 63 152 80 220 41 173 89 310 112 319 21 8 41 -26 83 -147 20 -58 73
-212 118 -341 101 -289 115 -338 130 -437 6 -43 13 -88 16 -101 l4 -22 257 2
257 3 32 90 c17 50 42 113 56 140 14 28 31 67 37 88 14 43 33 41 24 -3 -6 -32
4 -38 26 -17 11 10 12 5 7 -25 -6 -34 -5 -38 19 -44 38 -9 148 1 153 14 6 19
19 14 25 -8 5 -18 8 -19 30 -9 14 6 31 24 37 40 9 20 32 38 79 62 l66 33 3 79
c2 44 -2 111 -9 150 -15 90 -27 271 -35 506 -6 184 -6 187 15 194 11 3 31 3
44 0 14 -4 18 -3 9 3 -10 7 -10 11 3 22 13 11 15 5 15 -56 0 -131 10 -277 25
-379 8 -56 19 -165 24 -244 4 -78 11 -144 14 -148 10 -9 57 98 57 128 0 15 6
32 14 38 12 10 17 8 27 -10 l12 -23 24 30 c13 16 28 39 33 52 11 27 41 29 63
4 9 -10 41 -72 71 -138 30 -65 64 -137 75 -159 l21 -39 0 149 c0 115 -4 159
-17 193 -15 41 -15 46 0 72 15 25 17 75 17 469 l0 442 -39 122 c-22 67 -54
176 -71 242 -17 66 -37 126 -43 134 -9 10 -14 126 -18 395 l-5 381 -37 199
c-54 293 -95 488 -128 606 -16 58 -29 119 -29 136 0 45 -15 59 -120 108 -53
25 -107 57 -120 72 -28 29 -106 84 -121 84 -15 0 -11 -17 6 -24 8 -3 15 -10
15 -15 0 -6 -16 -1 -35 10 -19 11 -38 18 -43 16 -4 -3 -8 2 -8 11 -1 9 -3 24
-6 32 -3 8 -3 12 -1 7 3 -4 9 -4 15 -1 5 4 1 15 -11 28 -15 15 -21 37 -22 74
-1 29 -4 50 -7 47 -3 -3 -11 0 -19 6 -10 9 -13 7 -13 -7 -1 -17 -17 16 -77
159 -21 49 -32 47 -27 -5 4 -38 2 -36 -16 22 -10 36 -19 75 -20 86 0 24 -22
37 -47 27 -12 -5 -14 -3 -8 7 6 9 4 11 -5 5 -8 -5 -18 -1 -27 10 -7 11 -13 14
-13 8 0 -7 6 -18 13 -25 16 -15 43 -72 50 -105 9 -40 -12 -25 -23 17 -13 49
-39 78 -52 58 -7 -10 -11 -9 -23 6 -8 11 -15 16 -15 12 0 -4 17 -28 39 -54 43
-52 133 -230 120 -238 -4 -2 -27 34 -49 81 -23 47 -48 94 -56 103 -9 9 -36 45
-60 80 -24 34 -49 62 -54 62 -19 0 -10 -18 26 -54 24 -24 34 -42 30 -53 -6
-14 -10 -13 -31 7 l-25 23 0 -24 c0 -13 7 -37 15 -53 12 -22 13 -32 4 -40 -8
-8 -13 -7 -16 2 -3 8 -16 11 -36 7 -27 -5 -38 0 -70 31 -21 20 -39 35 -41 33
-10 -12 -14 -59 -6 -64 6 -3 10 4 10 17 0 19 11 12 69 -46 60 -60 71 -76 84
-127 8 -31 13 -68 12 -81 -1 -13 -3 -30 -4 -38 -2 -19 -70 119 -71 143 0 9 -4
17 -9 17 -6 0 -8 -36 -6 -87 2 -54 0 -81 -6 -72 -6 10 -9 11 -9 1 0 -7 -11 -1
-25 14 -22 24 -29 48 -26 94 0 10 -2 11 -5 3 -4 -8 -11 -9 -22 -3 -9 4 -31 14
-49 20 -21 8 -31 18 -30 31 1 17 3 17 24 4 13 -9 23 -14 24 -13 10 35 7 60
-11 78 -24 24 -26 43 -5 60 33 27 0 82 -36 59 -7 -5 -18 -9 -24 -9 -5 0 -3 5
5 10 12 8 9 10 -12 10 -50 0 -118 -128 -118 -224 0 -29 -3 -37 -9 -27 -8 12
-11 8 -16 -15 -4 -16 -11 -39 -16 -52 -5 -13 -8 -49 -8 -80 1 -47 3 -52 9 -27
l8 30 1 -32 c1 -21 -7 -40 -21 -56 -36 -37 -59 -67 -69 -90 -16 -36 0 262 16
313 8 25 25 51 36 58 21 14 21 13 14 -43 -4 -37 -3 -55 3 -51 5 3 12 23 15 43
5 38 46 166 69 213 7 14 23 38 35 53 27 33 29 47 8 47 -18 0 -19 12 -2 29 20
20 -23 1 -60 -27 -45 -33 -42 -11 3 26 27 22 36 38 36 59 0 15 6 38 14 50 19
30 18 47 -2 39 -15 -6 -15 -4 -3 11 8 10 24 29 37 43 26 29 30 49 5 29 -15
-13 -15 -12 -4 9 8 14 8 22 1 22 -12 0 16 49 39 68 8 6 10 12 4 12 -7 0 -18
-6 -25 -13z m348 -572 c24 -36 14 -38 -19 -4 -20 21 -24 29 -13 29 9 0 23 -11
32 -25z m229 -132 c-3 -13 -1 -23 5 -23 5 0 10 -4 10 -10 0 -18 -25 1 -49 38
-19 30 -20 34 -4 20 11 -10 22 -18 24 -18 3 0 4 30 3 68 l-3 67 10 -60 c5 -33
7 -70 4 -82z m-765 112 c0 -2 -10 -9 -22 -15 -22 -11 -22 -10 -4 4 21 17 26
19 26 11z m-106 -132 c-16 -21 -50 -60 -76 -87 -26 -27 -45 -54 -41 -60 3 -6
1 -6 -7 1 -11 10 -11 16 2 30 9 10 25 37 37 61 12 23 32 47 44 51 12 5 31 18
41 30 31 34 31 16 0 -26z m940 11 c3 -8 2 -12 -4 -9 -6 3 -10 10 -10 16 0 14
7 11 14 -7z m-748 -66 c9 -18 12 -34 6 -44 -13 -23 -66 48 -57 77 6 16 9 18
22 8 8 -7 21 -25 29 -41z m344 10 c0 -12 -1 -19 -3 -17 -1 2 -9 12 -16 22 -12
14 -11 17 3 17 10 0 16 -8 16 -22z m83 -40 c6 -22 5 -22 -8 -4 -17 22 -20 40
-6 32 5 -3 11 -16 14 -28z m-643 -23 c0 -8 -4 -15 -9 -15 -12 0 -54 -127 -46
-139 3 -6 15 -1 27 11 65 65 0 -146 -74 -242 l-19 -25 4 43 c7 55 -9 54 -22 0
-9 -38 -10 -33 -6 37 5 104 41 206 116 323 16 25 29 29 29 7z m530 -5 c0 -5
-4 -10 -9 -10 -6 0 -13 5 -16 10 -3 6 1 10 9 10 9 0 16 -4 16 -10z m160 -45
c7 -9 8 -15 2 -15 -5 0 -12 7 -16 15 -3 8 -4 15 -2 15 2 0 9 -7 16 -15z m-774
-23 c-18 -16 -18 -16 -6 6 6 13 14 21 18 18 3 -4 -2 -14 -12 -24z m783 -29 c0
-25 -1 -26 -9 -8 -12 27 -12 35 0 35 6 0 10 -12 9 -27z m-846 -8 c-3 -9 -8
-14 -10 -11 -3 3 -2 9 2 15 9 16 15 13 8 -4z m873 -105 l4 -35 -15 29 c-8 15
-15 42 -14 60 0 31 0 31 11 6 6 -14 12 -41 14 -60z m-586 -57 c-11 -17 -11
-17 -6 0 3 10 7 35 8 55 l1 37 4 -37 c2 -21 -1 -46 -7 -55z m570 -38 c-9 -59
-15 -64 -17 -12 0 33 8 54 23 57 0 0 -2 -20 -6 -45z m-551 -6 c5 8 11 3 19
-14 6 -14 7 -25 2 -25 -19 0 -1 -123 27 -179 35 -69 39 -82 18 -56 -9 11 -19
20 -23 20 -4 0 -6 6 -6 13 1 6 -2 12 -6 12 -5 0 -12 10 -16 22 -3 12 -13 37
-22 57 -9 20 -15 44 -13 54 1 9 -3 17 -8 17 -6 0 -11 -8 -11 -17 0 -11 -3 -13
-9 -7 -12 11 0 75 14 74 6 0 12 12 14 27 3 21 5 23 9 9 3 -13 6 -15 11 -7z
m41 1 c0 -5 -5 -10 -11 -10 -5 0 -7 5 -4 10 3 6 8 10 11 10 2 0 4 -4 4 -10z
m-150 -27 c0 -5 -10 -19 -21 -33 l-20 -25 16 33 c15 30 25 41 25 25z m703 -27
c3 -8 2 -16 -2 -18 -5 -2 -11 -37 -14 -78 -3 -41 -3 -64 1 -50 5 14 10 20 13
15 3 -6 -2 -35 -12 -65 l-18 -55 4 130 c3 72 5 131 5 133 1 8 19 -1 23 -12z
m-942 -52 c-5 -16 -10 -21 -10 -12 -1 18 10 51 15 45 2 -1 -1 -16 -5 -33z
m114 -179 c16 -38 16 -39 0 -24 -20 20 -57 163 -48 187 4 9 12 -13 19 -53 7
-39 20 -88 29 -110z m160 91 c-14 -31 -25 -63 -25 -70 0 -7 -8 -20 -17 -27
-16 -12 -17 -12 -7 1 6 8 22 50 35 92 13 42 27 73 32 69 4 -4 -4 -33 -18 -65z
m955 59 c0 -8 -4 -15 -10 -15 -5 0 -7 7 -4 15 4 8 8 15 10 15 2 0 4 -7 4 -15z
m-939 -98 c-10 -9 -11 -8 -5 6 3 10 9 15 12 12 3 -3 0 -11 -7 -18z m696 -19
c-3 -8 -6 -5 -6 6 -1 11 2 17 5 13 3 -3 4 -12 1 -19z m-924 -128 c3 -41 2 -54
-3 -35 -8 31 -13 112 -6 104 2 -2 6 -33 9 -69z m1417 -1062 c0 -172 -14 -174
-31 -5 -9 92 -8 121 1 132 7 8 16 15 21 15 5 0 9 -64 9 -142z m-900 -157 c0
-5 -9 -7 -20 -4 -11 3 -20 7 -20 9 0 2 9 4 20 4 11 0 20 -4 20 -9z m-63 -33
c-3 -7 -5 -2 -5 12 0 14 2 19 5 13 2 -7 2 -19 0 -25z m-9 -148 c0 -28 -5 -40
-15 -40 -10 0 -12 7 -8 23 4 12 9 30 11 40 8 28 13 20 12 -23z m-874 -1674
c-3 -14 -10 -26 -15 -26 -11 0 -11 3 1 36 13 33 23 26 14 -10z m-63 -33 c-9
-16 -10 -15 -11 8 0 14 3 29 8 33 12 12 14 -22 3 -41z"/>
<path d="M1575 4700 c3 -5 8 -10 11 -10 2 0 4 5 4 10 0 6 -5 10 -11 10 -5 0
-7 -4 -4 -10z"/>
<path d="M1802 4670 c0 -14 2 -19 5 -12 2 6 2 18 0 25 -3 6 -5 1 -5 -13z"/>
<path d="M1640 4665 c7 -8 16 -15 21 -15 5 0 6 7 3 15 -4 8 -13 15 -21 15 -13
0 -13 -3 -3 -15z"/>
<path d="M1801 4624 c0 -11 3 -14 6 -6 3 7 2 16 -1 19 -3 4 -6 -2 -5 -13z"/>
<path d="M1905 4575 c4 -11 9 -36 12 -55 3 -27 2 -31 -6 -20 -8 12 -11 6 -10
-25 1 -22 5 -51 9 -65 l8 -25 1 25 c1 14 8 37 15 53 14 25 13 32 -10 80 -14
28 -22 43 -19 32z"/>
<path d="M1441 4425 c0 -27 4 -57 9 -65 8 -12 10 -10 9 10 0 14 -4 43 -8 65
l-9 40 -1 -50z"/>
<path d="M1482 4295 c0 -16 2 -22 5 -12 2 9 2 23 0 30 -3 6 -5 -1 -5 -18z"/>
<path d="M1091 4294 c0 -11 3 -14 6 -6 3 7 2 16 -1 19 -3 4 -6 -2 -5 -13z"/>
<path d="M514 4015 c-9 -14 -15 -28 -12 -30 2 -2 12 9 22 25 21 36 13 40 -10
5z"/>
<path d="M503 3638 c-30 -14 -29 -28 1 -28 41 0 58 10 45 26 -13 16 -16 16
-46 2z"/>
</g>
</svg>
