<?xml version="1.0" standalone="no"?>
<!DOCTYPE svg PUBLIC "-//W3C//DTD SVG 20010904//EN"
 "http://www.w3.org/TR/2001/REC-SVG-20010904/DTD/svg10.dtd">
<svg version="1.0" xmlns="http://www.w3.org/2000/svg"
 width="419.000000pt" height="517.000000pt" viewBox="0 0 419.000000 517.000000"
 preserveAspectRatio="xMidYMid meet">

<g transform="translate(0.000000,517.000000) scale(0.100000,-0.100000)"
fill="#000000" stroke="none">
<path d="M1450 5049 c0 -6 20 -49 45 -96 25 -47 45 -99 45 -116 0 -17 14 -59
31 -94 24 -50 30 -71 25 -98 l-7 -35 -59 0 c-49 0 -61 3 -70 20 -12 22 -72 29
-68 8 2 -6 -8 -15 -22 -19 -38 -11 -138 -10 -145 1 -4 6 18 10 59 10 36 0 66
4 66 9 0 11 -25 21 -50 21 -9 0 -23 7 -30 15 -7 9 -15 13 -17 11 -3 -2 -23 2
-46 10 -22 8 -50 11 -61 8 -36 -11 -96 -58 -96 -76 0 -11 -19 -22 -62 -36
l-63 -19 -20 28 c-24 34 -34 35 -69 8 -14 -11 -47 -26 -73 -32 -51 -13 -73
-39 -73 -89 0 -17 -5 -28 -14 -28 -14 0 -39 -25 -42 -44 -9 -42 -14 -58 -23
-73 -8 -16 -10 -15 -16 9 -9 36 -2 63 16 62 8 -1 16 8 16 19 2 19 1 19 -20 1
-65 -57 -78 -92 -48 -130 12 -15 21 -37 21 -49 0 -13 11 -53 25 -89 33 -87 32
-102 -11 -144 -24 -23 -34 -41 -31 -54 3 -10 1 -63 -4 -116 -10 -103 0 -220
28 -351 31 -145 13 -213 -116 -429 -76 -128 -134 -248 -146 -300 -3 -17 -22
-50 -40 -72 -18 -22 -39 -57 -45 -78 -7 -20 -18 -44 -25 -52 -21 -25 -46 -79
-62 -134 -8 -28 -25 -62 -38 -76 -12 -14 -30 -50 -39 -81 -8 -31 -29 -73 -46
-94 l-30 -38 0 -540 0 -541 36 43 c20 23 70 64 110 92 64 43 83 63 138 148
115 177 292 393 377 459 84 64 121 160 117 299 -2 69 1 83 20 108 13 16 22 42
22 62 0 18 9 51 20 73 11 22 20 47 20 58 0 48 83 60 125 17 29 -29 30 -41 9
-143 -9 -42 -17 -114 -17 -158 -1 -73 2 -86 26 -122 14 -22 47 -55 72 -72 28
-19 47 -41 51 -58 3 -15 10 -37 16 -49 10 -20 5 -28 -43 -75 -30 -29 -66 -70
-79 -90 -15 -22 -33 -38 -45 -38 -53 -1 -76 -57 -160 -375 -46 -176 -70 -233
-98 -237 -17 -2 -22 -10 -23 -33 -3 -44 -48 -234 -60 -243 -5 -5 -47 -21 -94
-37 -47 -15 -89 -34 -93 -41 -4 -8 -14 -14 -21 -14 -8 0 -19 -7 -26 -15 -20
-24 -110 -46 -158 -39 -56 8 -42 22 34 33 48 7 52 9 21 10 -49 1 -114 35 -213
110 l-79 60 -3 -93 -3 -93 76 -74 c41 -41 99 -87 128 -102 45 -25 59 -28 109
-23 31 3 87 17 125 32 53 20 151 53 159 54 1 0 4 -31 6 -70 3 -56 8 -74 27
-94 22 -23 23 -31 18 -94 -4 -38 -9 -82 -13 -98 -7 -36 31 -97 64 -102 14 -2
22 -10 22 -23 0 -18 12 -19 433 -19 l434 0 51 64 c44 53 56 63 77 58 14 -2 25
-8 25 -11 0 -4 -16 -29 -35 -56 -19 -27 -32 -51 -28 -54 3 -4 8 1 11 9 7 22
101 114 108 107 4 -3 -8 -25 -27 -49 -18 -24 -37 -49 -42 -55 -8 -10 147 -13
767 -13 l776 0 0 45 c0 44 0 44 30 39 18 -4 30 -2 30 4 0 6 -16 45 -35 87 -28
62 -31 76 -17 70 9 -4 22 -8 29 -8 7 0 10 -4 7 -9 -5 -7 10 -12 29 -9 4 0 7
-4 7 -10 0 -5 5 -7 10 -4 5 3 10 2 10 -4 0 -6 7 -7 17 -4 12 5 14 3 8 -7 -6
-10 -4 -12 8 -7 10 3 17 2 17 -3 0 -24 72 -22 153 4 110 35 198 87 272 162 33
34 70 66 82 73 33 17 103 13 148 -9 51 -24 77 -25 98 -2 16 17 17 99 17 975 0
653 -3 965 -11 984 -6 15 -19 37 -29 48 -10 11 -26 34 -34 50 -13 24 -16 26
-16 10 0 -11 -8 -30 -18 -42 -17 -22 -17 -22 -15 30 1 28 2 59 3 67 1 8 -2 26
-6 40 -7 22 -6 24 9 11 15 -11 17 -11 17 2 0 25 -33 57 -66 63 -28 5 -32 3
-42 -25 -14 -41 -35 -48 -79 -25 -63 33 -108 107 -211 350 -121 284 -161 394
-207 569 l-46 180 3 210 c3 226 -7 304 -40 301 -12 -1 -22 14 -33 49 -11 36
-24 54 -47 67 -18 10 -32 17 -32 15 0 -1 7 -40 15 -87 8 -47 15 -105 16 -130
0 -25 4 -53 8 -63 6 -17 8 -17 25 2 11 12 28 21 39 21 16 0 9 -12 -35 -62 -30
-35 -63 -78 -73 -95 -21 -35 -35 -42 -35 -18 0 8 -4 15 -10 15 -5 0 -10 -9
-10 -20 0 -28 -7 -26 -60 19 -66 56 -155 102 -300 156 -121 45 -129 47 -244
48 l-119 2 -3 54 c-1 30 -6 57 -11 60 -5 3 -13 17 -20 31 -25 57 82 437 178
632 65 132 75 172 31 123 -31 -34 -70 -66 -59 -48 4 6 3 14 -1 17 -5 3 -21
-26 -36 -64 -17 -42 -32 -67 -38 -63 -7 3 -8 1 -4 -5 4 -6 -2 -28 -13 -49 -11
-21 -20 -34 -21 -30 0 5 5 18 11 30 9 18 9 20 -1 10 -7 -6 -19 -9 -26 -6 -17
6 -18 -9 -2 -25 9 -9 9 -12 0 -12 -7 0 -12 -9 -12 -19 0 -11 -4 -23 -10 -26
-5 -3 -10 2 -10 12 0 10 -3 29 -7 42 -5 18 -3 22 7 16 10 -6 11 0 5 31 -4 21
-8 40 -10 42 -1 1 -27 -11 -58 -28 -36 -20 -67 -29 -88 -28 -35 3 -32 9 -96
-170 -8 -24 -16 -42 -18 -40 -2 2 -5 47 -7 101 -4 76 -2 97 9 97 7 0 13 5 13
10 0 6 -5 10 -10 10 -6 0 -9 3 -9 8 3 20 -2 32 -16 32 -12 0 -14 -12 -9 -74 6
-69 -4 -185 -13 -159 -2 7 -18 27 -34 44 -16 17 -29 35 -29 39 0 5 -9 12 -20
15 -11 3 -20 13 -20 21 0 8 -4 14 -9 14 -6 0 -11 -19 -13 -42 -2 -24 -6 -36
-10 -28 -13 31 -40 126 -43 148 -1 12 -4 24 -6 26 -6 5 -92 27 -109 28 -21 1
-32 21 -17 30 9 6 9 8 0 8 -7 0 -10 7 -6 17 4 11 3 14 -5 9 -6 -4 -11 -22 -10
-42 1 -29 6 -35 27 -40 63 -13 111 -27 107 -32 -10 -9 -155 30 -168 45 -11 15
-11 16 5 10 15 -5 16 -4 7 13 -5 10 -7 26 -3 35 5 14 2 16 -18 10 -24 -8 -24
-8 -5 14 25 28 9 27 -23 -1 l-25 -23 17 27 17 27 -35 -15 c-42 -17 -87 -18
-104 -1 -11 10 -12 8 -6 -11 6 -22 5 -23 -17 -17 -12 4 -34 17 -48 29 -31 27
-87 66 -95 66 -3 0 -5 -5 -5 -11z m205 -120 c6 -19 8 -19 24 -5 18 17 40 21
42 9 5 -47 3 -61 -5 -53 -6 6 -14 6 -23 -1 -7 -7 -13 -8 -13 -3 0 5 -4 3 -8
-3 -5 -8 -14 3 -24 32 -10 25 -13 45 -8 45 5 0 12 -9 15 -21z m181 -129 c10
-30 21 -59 25 -65 9 -13 22 -95 15 -95 -13 0 -68 135 -73 182 -7 65 7 56 33
-22z m-107 -102 c12 -34 21 -69 21 -77 0 -26 -14 -1 -27 47 -7 26 -15 57 -19
70 -14 48 5 18 25 -40z m714 -3 c-3 -11 -9 -41 -13 -67 -5 -26 -14 -56 -20
-68 -6 -11 -8 -30 -5 -40 5 -16 2 -20 -19 -20 -14 0 -26 2 -26 4 0 19 34 145
52 192 17 44 23 52 29 38 3 -11 4 -28 2 -39z m-633 -76 c-7 -11 -14 -19 -16
-16 -7 7 7 37 17 37 6 0 5 -9 -1 -21z m66 -55 c-3 -8 -10 -14 -16 -14 -8 0 -8
6 0 20 7 14 7 20 0 20 -6 0 -5 8 2 20 13 20 13 20 16 -5 2 -15 1 -33 -2 -41z
m-89 -60 c-13 -13 -33 21 -29 50 l5 30 15 -38 c8 -20 12 -39 9 -42z m-175 21
c9 -20 9 -20 -6 -1 -9 11 -16 27 -15 35 0 14 1 14 6 1 3 -8 10 -24 15 -35z
m538 2 c0 -21 -5 -24 -37 -24 -21 0 -30 2 -20 4 9 2 17 9 17 14 0 5 7 9 15 9
8 0 15 5 15 10 0 6 2 10 5 10 3 0 5 -11 5 -23z m-263 -17 c2 -19 -8 -26 -20
-14 -7 7 2 34 12 34 4 0 7 -9 8 -20z m267 -32 c-3 -5 7 -6 23 -3 19 3 15 0
-12 -10 -51 -20 -176 -17 -183 4 -3 10 2 13 22 9 14 -3 26 -2 26 1 0 3 29 6
64 7 36 0 63 -4 60 -8z m-947 -50 c-2 -13 -4 -5 -4 17 -1 22 1 32 4 23 2 -10
2 -28 0 -40z m0 -105 c-3 -10 -5 -4 -5 12 0 17 2 24 5 18 2 -7 2 -21 0 -30z
m240 -127 c-9 -13 -30 -77 -47 -142 -17 -65 -33 -120 -35 -123 -17 -17 14 183
33 214 4 6 7 16 8 23 3 17 34 52 47 52 5 0 2 -11 -6 -24z m-194 -16 c-4 -4
-33 -10 -63 -14 l-55 -6 33 18 c32 17 104 19 85 2z m-527 -142 c-1 -68 1 -143
3 -168 3 -25 1 -47 -4 -50 -16 -9 -37 83 -41 182 -3 79 0 103 14 127 9 17 20
31 23 31 3 0 5 -55 5 -122z m454 87 c-66 -17 -80 -18 -80 -6 0 11 26 16 90 18
l45 1 -55 -13z m58 -20 c-3 -3 -25 -12 -49 -19 l-44 -14 49 -1 c55 -1 55 -7
-1 -26 -28 -11 -32 -14 -15 -15 43 0 13 -18 -53 -30 -36 -7 -64 -15 -61 -18 3
-2 31 0 63 6 122 24 133 24 127 7 -3 -8 -10 -15 -15 -15 -4 0 -20 -12 -36 -26
l-28 -26 28 7 c19 5 28 3 31 -6 2 -8 18 -52 35 -99 37 -97 52 -150 42 -150 -3
0 -28 44 -56 97 l-50 97 -60 2 c-57 3 -58 3 -21 -7 53 -13 69 -29 101 -100 29
-66 29 -104 -1 -50 -18 31 -73 100 -60 74 4 -6 2 -14 -3 -18 -14 -8 -3 -84 20
-131 10 -22 19 -48 19 -57 0 -9 5 -27 11 -40 19 -42 -39 -132 -72 -111 -6 3
-16 1 -24 -6 -7 -6 -29 -10 -47 -8 -32 3 -33 4 -38 59 -3 31 -11 63 -18 72
-26 31 -10 148 26 185 16 17 16 57 -1 70 -7 6 -34 9 -60 7 -54 -5 -61 7 -18
30 42 21 52 40 17 31 -17 -4 -25 -3 -22 3 3 5 0 11 -6 14 -8 3 0 16 22 36 35
31 19 33 -27 3 -16 -10 -23 -11 -23 -3 0 6 12 17 28 24 39 17 101 60 77 54
-11 -3 -31 -8 -45 -12 l-25 -6 25 20 c14 12 42 26 63 33 24 7 33 14 25 19 -6
4 -16 5 -22 2 -5 -3 -6 -1 -2 5 5 9 29 16 131 36 31 6 69 7 63 1z m-612 -150
c8 -22 17 -65 20 -96 5 -46 4 -56 -9 -56 -19 0 -46 93 -45 155 1 52 15 50 34
-3z m2147 -24 c63 -21 101 -39 108 -52 10 -19 9 -19 -28 -3 -75 32 -166 64
-171 59 -3 -3 0 -5 6 -5 6 0 17 -6 24 -13 7 -8 45 -23 85 -35 64 -20 111 -47
100 -58 -2 -3 -37 7 -78 22 -41 14 -81 27 -89 29 -8 1 -22 5 -30 8 -8 3 -31
10 -50 15 -19 5 -34 14 -32 21 1 6 -11 11 -28 11 -22 0 -28 4 -24 15 4 8 14
15 24 15 10 0 20 -7 24 -15 8 -23 36 -18 36 6 0 13 5 19 13 17 6 -3 56 -20
110 -37z m116 -5 c10 -9 28 -16 41 -16 19 0 21 -3 12 -12 -10 -10 -28 -7 -83
12 -39 14 -73 29 -76 34 -10 15 87 -1 106 -18z m111 -6 c0 -5 -7 -7 -15 -4 -8
4 -12 10 -9 15 6 11 24 2 24 -11z m-336 -44 c22 -9 46 -14 55 -11 9 2 23 0 31
-6 12 -8 9 -9 -10 -4 -20 4 -18 2 10 -15 33 -20 33 -21 8 -15 -32 6 -36 -2
-11 -21 10 -7 16 -15 13 -18 -5 -4 -44 6 -150 40 -25 8 -51 16 -58 18 -7 1
-12 5 -12 9 0 4 0 11 0 16 0 5 7 16 15 25 16 16 37 12 109 -18z m432 -12 c1
-16 7 -47 13 -69 23 -76 49 -180 54 -215 l6 -35 -19 42 c-22 49 -45 126 -60
206 -13 64 -25 70 -61 32 -13 -13 -32 -25 -41 -25 -10 0 -42 -11 -73 -24 -30
-14 -57 -21 -60 -16 -6 9 6 19 60 45 22 10 58 31 80 45 90 58 99 59 101 14z
m-676 -87 l0 -32 -13 25 c-14 26 -11 54 4 44 5 -3 9 -20 9 -37z m200 28 c17
-9 32 -15 35 -15 3 0 20 -10 37 -21 19 -12 24 -18 13 -15 -11 2 -39 10 -62 16
-48 12 -100 49 -70 50 10 0 31 -7 47 -15z m22 -54 c25 -11 49 -25 54 -32 5 -9
2 -10 -12 -4 -80 34 -144 51 -153 42 -7 -7 -10 -4 -8 10 1 18 5 19 38 12 20
-5 56 -17 81 -28z m-1862 -24 c11 -4 10 -6 -4 -6 -21 -1 -56 26 -56 42 0 6 10
1 23 -10 12 -11 29 -23 37 -26z m1790 -7 c12 -8 9 -10 -13 -10 -16 0 -26 4
-22 10 8 12 16 12 35 0z m130 -50 c0 -4 -22 -10 -48 -14 -27 -3 -73 -13 -103
-20 -30 -8 -55 -13 -56 -12 -2 1 3 10 10 20 9 12 37 21 90 28 42 6 77 15 77
21 0 5 7 4 15 -3 8 -7 15 -16 15 -20z m556 -122 c-3 -13 -6 -30 -6 -37 0 -11
-3 -12 -11 -4 -9 9 -16 6 -29 -9 -17 -21 -17 -21 -28 13 -10 29 -10 31 1 17
11 -13 16 -15 25 -6 7 7 12 18 12 26 0 7 5 10 10 7 6 -3 10 -1 10 4 0 6 5 11
11 11 7 0 9 -9 5 -22z m-2273 -3 c-3 -9 -8 -14 -10 -11 -3 3 -2 9 2 15 9 16
15 13 8 -4z m1421 -14 c3 -5 -10 -16 -29 -26 -20 -9 -34 -22 -33 -28 2 -7 -7
-25 -20 -41 -12 -16 -22 -25 -22 -21 0 5 7 17 17 27 9 10 11 18 5 18 -12 0
-64 -72 -76 -105 -5 -15 -4 -17 5 -8 6 6 17 10 23 7 6 -2 35 14 64 36 52 40
86 52 76 27 -3 -8 2 -14 11 -14 8 0 15 7 15 15 0 24 24 7 32 -23 10 -40 -1
-108 -17 -101 -17 6 -27 -4 -16 -18 15 -20 18 -63 5 -81 -10 -13 -22 -16 -47
-12 -31 5 -34 3 -30 -14 5 -16 0 -19 -34 -19 -27 0 -46 6 -58 20 -23 26 -38
26 -30 0 6 -18 4 -19 -21 -5 -14 7 -32 11 -40 8 -8 -3 -15 5 -19 24 -11 45
-13 50 -14 21 -1 -40 19 -130 35 -155 20 -32 17 -39 -6 -18 -11 10 -26 38 -32
62 -12 51 -24 55 -34 11 -6 -29 -8 -30 -15 -13 -15 38 -10 122 10 162 10 21
23 49 29 63 7 16 11 19 11 9 1 -9 8 -19 16 -22 9 -4 25 12 49 52 38 63 146
171 170 171 8 0 17 -4 20 -9z m-1689 -53 c15 -28 17 -40 8 -49 -9 -9 -18 1
-38 41 -23 46 -24 51 -8 48 10 -2 27 -20 38 -40z m885 15 c0 -15 -41 -75 -47
-69 -3 3 5 21 18 41 25 36 29 40 29 28z m28 -30 c-15 -35 -29 -55 -36 -49 -4
5 36 76 44 76 2 0 -2 -12 -8 -27z m39 -1 c-7 -15 -22 -41 -35 -57 l-23 -30 17
35 c32 66 65 108 41 52z m12 -46 c-19 -41 -39 -67 -39 -51 0 13 52 107 56 102
3 -3 -5 -26 -17 -51z m32 -13 c-11 -21 -20 -35 -21 -31 0 12 33 78 38 74 2 -2
-6 -21 -17 -43z m44 -2 c-4 -23 -12 -44 -18 -48 -6 -4 -8 0 -4 10 3 8 9 32 13
52 9 49 18 36 9 -14z m385 -17 c-28 -36 -50 -69 -50 -75 0 -5 -4 -9 -10 -9
-19 0 12 56 58 103 25 26 47 47 49 47 1 0 -20 -29 -47 -66z m-950 -38 c0 -2
-8 -10 -17 -17 -16 -13 -17 -12 -4 4 13 16 21 21 21 13z m1820 -21 c15 -29 17
-26 -37 -54 -48 -24 -53 -25 -53 -10 0 14 59 89 69 89 4 0 14 -11 21 -25z
m-1882 -7 c-6 -19 -112 -71 -134 -66 -12 2 5 12 44 26 35 13 66 30 69 38 6 17
26 19 21 2z m-488 -13 c0 -8 -2 -15 -4 -15 -2 0 -6 7 -10 15 -3 8 -1 15 4 15
6 0 10 -7 10 -15z m1003 3 c12 -6 56 -20 97 -30 l75 -18 -60 3 c-57 3 -155 34
-155 50 0 10 18 9 43 -5z m-673 -62 c0 -11 -19 -15 -25 -6 -3 5 1 10 9 10 9 0
16 -2 16 -4z m1030 -47 c-25 -32 -28 -39 -11 -30 11 7 21 8 21 3 0 -9 -87
-102 -95 -102 -10 0 -4 10 27 47 18 21 23 30 11 19 -48 -40 -39 -7 13 52 62
69 87 77 34 11z m-446 -14 c-26 -30 -50 -55 -52 -55 -6 0 18 29 62 78 48 52
41 37 -10 -23z m1251 46 c3 -5 1 -12 -5 -16 -5 -3 -10 1 -10 9 0 18 6 21 15 7z
m-1186 -38 c-12 -21 -32 -49 -44 -63 -11 -14 -34 -44 -50 -68 -15 -23 -30 -41
-32 -38 -4 4 97 156 125 189 25 28 25 20 1 -20z m10 -45 c-48 -81 -116 -178
-126 -178 -3 0 0 8 9 18 8 9 38 58 67 107 79 133 82 137 88 132 3 -3 -15 -38
-38 -79z m-389 -17 c0 -3 9 -17 20 -31 16 -21 21 -22 29 -11 8 12 11 9 16 -12
4 -15 11 -27 16 -27 5 0 6 -7 3 -15 -4 -8 -10 -13 -14 -10 -5 3 -11 1 -15 -5
-3 -5 -22 -10 -41 -10 -19 0 -33 4 -29 9 3 5 1 12 -5 16 -5 3 -10 14 -10 23 0
10 -9 36 -21 57 -24 47 -40 85 -35 85 2 0 23 -34 47 -75 23 -41 46 -75 51 -75
12 0 11 6 -27 87 -19 42 -35 79 -35 82 0 8 50 -79 50 -88z m400 -35 c-34 -64
-66 -116 -71 -116 -10 0 85 196 109 223 33 37 21 4 -38 -107z m95 48 c-9 -31
-19 -54 -22 -51 -3 3 0 22 7 41 23 71 3 57 -30 -20 -33 -79 -50 -108 -56 -101
-5 4 65 167 78 184 6 7 14 10 19 7 5 -3 9 1 10 8 0 10 2 10 6 1 2 -7 -3 -38
-12 -69z m46 19 c-8 -15 -10 -15 -11 -2 0 17 10 32 18 25 2 -3 -1 -13 -7 -23z
m-682 -19 c3 -16 1 -17 -13 -5 -19 16 -21 34 -3 29 6 -3 14 -13 16 -24z m-41
-19 c14 -29 -2 -34 -18 -6 -12 24 -13 31 -2 31 5 0 14 -11 20 -25z m822 -10
c-12 -19 -19 -38 -16 -43 3 -5 1 -22 -4 -38 -8 -27 -8 -26 -9 15 -1 37 -3 42
-16 31 -8 -7 -17 -28 -21 -47 -8 -41 -22 -26 -16 16 4 32 64 101 87 101 14 0
14 -5 -5 -35z m-868 -23 c-4 -13 -7 -12 -12 4 -4 10 -5 23 -2 28 7 13 21 -16
14 -32z m2083 20 c-3 -3 -11 0 -18 7 -9 10 -8 11 6 5 10 -3 15 -9 12 -12z
m-894 -9 c13 -16 12 -17 -3 -4 -10 7 -18 15 -18 17 0 8 8 3 21 -13z m-227 -15
c-21 -37 -47 -68 -56 -68 -5 0 5 18 22 40 30 38 49 53 34 28z m-884 -18 c6
-11 8 -20 6 -20 -3 0 -10 9 -16 20 -6 11 -8 20 -6 20 3 0 10 -9 16 -20z m-30
-50 c-8 -5 -19 -10 -25 -10 -5 0 -3 5 5 10 8 5 20 10 25 10 6 0 3 -5 -5 -10z
m158 -15 c59 -19 69 -30 17 -22 -20 3 -35 2 -35 -4 0 -6 -5 -7 -10 -4 -6 4 -8
11 -5 16 4 5 -5 13 -19 19 -14 5 -26 12 -26 16 0 3 6 3 13 0 6 -2 36 -12 65
-21z m519 -19 c-3 -8 -1 -16 5 -18 11 -4 -100 -138 -114 -138 -18 0 -6 18 47
70 30 30 55 59 55 64 0 5 -9 1 -20 -9 -27 -24 -26 -7 2 22 25 26 33 29 25 9z
m-472 -26 c8 -13 -15 -13 -35 0 -12 8 -11 10 7 10 12 0 25 -4 28 -10z m26 -67
c22 -45 22 -46 10 -39 -15 10 -44 66 -33 66 5 0 15 -12 23 -27z m51 -22 c15
-26 34 -54 43 -61 19 -16 19 -39 0 -46 -8 -4 -12 -10 -9 -15 3 -5 -5 -9 -18
-10 -21 -1 -21 -2 -3 -7 25 -9 31 -32 7 -32 -24 0 -86 34 -90 49 -1 6 3 11 10
10 36 -4 48 2 48 26 0 18 4 23 15 19 21 -8 19 -1 -16 61 -17 30 -27 55 -22 55
4 0 20 -22 35 -49z m347 -38 c-23 -21 -47 -39 -53 -41 -6 -2 -4 1 4 7 8 6 11
11 5 11 -5 0 11 20 35 46 31 31 46 40 48 30 2 -8 -16 -32 -39 -53z m1631 -143
c-20 -13 -40 -13 -40 0 0 6 12 10 28 10 21 0 24 -2 12 -10z m490 -91 c-12 -16
-25 -28 -27 -25 -8 8 25 56 38 56 6 0 1 -14 -11 -31z m-793 6 c20 -9 43 -21
51 -28 9 -6 24 -12 36 -12 15 0 25 -11 36 -40 28 -75 89 -152 131 -169 35 -14
39 -19 39 -52 0 -43 26 -101 50 -114 25 -14 60 -90 60 -131 0 -19 4 -39 8 -44
5 -6 14 -30 21 -54 18 -62 38 -89 82 -112 51 -25 128 -144 145 -220 14 -67 42
-113 123 -201 65 -71 83 -116 55 -138 -21 -18 -17 -65 9 -97 50 -61 137 -196
137 -212 0 -10 -15 -39 -34 -66 -19 -26 -38 -65 -41 -87 -4 -21 -11 -41 -16
-44 -23 -14 -29 -55 -13 -92 27 -66 43 -85 60 -71 25 21 24 4 -1 -33 -27 -39
-61 -56 -78 -39 -7 7 -3 13 15 20 15 5 29 14 32 20 4 6 -6 4 -21 -5 -21 -10
-45 -13 -93 -8 -57 5 -67 4 -83 -14 -17 -19 -17 -22 -2 -51 12 -24 13 -36 4
-52 -10 -19 -8 -20 10 -14 17 5 21 3 18 -14 -4 -29 -32 -56 -110 -108 -65 -43
-69 -44 -82 -27 -16 23 -15 24 19 27 14 1 25 7 24 12 -4 31 -11 43 -23 39 -7
-3 -16 -1 -20 5 -3 6 -12 11 -20 11 -8 0 -37 14 -65 30 -64 38 -136 68 -106
45 11 -8 24 -15 29 -15 4 0 5 -6 1 -12 -4 -7 -4 -10 0 -7 7 7 89 -61 82 -69
-4 -4 -86 39 -221 116 -38 21 -115 65 -170 96 -55 30 -93 56 -84 56 18 0 198
-77 214 -91 5 -5 14 -9 20 -9 5 0 2 5 -7 11 -12 6 -18 22 -18 43 0 20 -11 48
-28 72 -40 57 -92 181 -92 221 0 81 -33 166 -116 298 l-82 130 -7 102 -7 102
27 25 c30 28 28 56 -4 56 -29 0 -33 14 -17 57 9 21 18 58 20 82 3 24 12 51 21
61 19 21 19 34 -2 77 -16 35 -16 36 7 53 21 16 22 20 10 36 -12 13 -12 18 -3
21 9 3 10 10 3 23 -6 10 -6 30 -1 48 7 23 6 34 -5 43 -12 10 -13 8 -9 -7 4
-14 3 -14 -6 2 -6 12 -21 27 -33 32 -20 10 -20 11 -1 12 19 1 19 2 -2 10 -12
5 -33 6 -48 2 -28 -8 -171 1 -181 11 -4 3 16 61 42 128 39 97 59 133 100 178
28 31 59 72 69 91 37 73 68 86 142 55z m-1557 -25 c0 -5 -4 -10 -10 -10 -5 0
-10 5 -10 10 0 6 5 10 10 10 6 0 10 -4 10 -10z m-2 -32 c-2 -4 6 -13 16 -21
18 -13 18 -14 -13 -19 -34 -5 -53 7 -24 15 10 3 4 5 -14 6 -36 1 -52 17 -26
24 25 7 64 3 61 -5z m-115 -5 c-7 -2 -19 -2 -25 0 -7 3 -2 5 12 5 14 0 19 -2
13 -5z m2160 -30 c-7 -2 -19 -2 -25 0 -7 3 -2 5 12 5 14 0 19 -2 13 -5z
m-1933 -13 c-14 -4 -52 -22 -85 -39 -33 -17 -69 -31 -80 -31 l-20 1 20 12 c48
29 142 66 165 66 l25 -1 -25 -8z m-1310 -15 c0 -8 -4 -15 -10 -15 -5 0 -10 7
-10 15 0 8 5 15 10 15 6 0 10 -7 10 -15z m1279 -38 c-20 -16 -102 -58 -105
-54 -5 4 33 32 76 54 20 10 43 10 29 0z m15 -47 c-26 -43 -98 -122 -83 -90 6
14 21 39 32 55 l20 30 -33 -30 c-19 -16 -40 -36 -48 -43 -8 -7 -17 -10 -20 -7
-8 7 56 73 93 96 46 29 60 25 39 -11z m-203 0 c-22 -19 -41 -26 -41 -15 0 5
51 34 60 34 3 0 -6 -9 -19 -19z m362 -5 c-3 -9 -8 -14 -10 -11 -3 3 -2 9 2 15
9 16 15 13 8 -4z m2178 -12 c-8 -15 -10 -15 -11 -2 0 17 10 32 18 25 2 -3 -1
-13 -7 -23z m-2329 -43 c-15 -27 -31 -50 -35 -50 -5 0 4 23 19 50 15 28 31 50
36 50 4 0 -4 -22 -20 -50z m323 18 c38 -19 58 -38 40 -38 -10 0 -105 50 -105
55 0 10 21 4 65 -17z m-282 -53 c-27 -55 -51 -77 -33 -30 18 46 40 85 50 85 5
0 -2 -25 -17 -55z m271 19 c32 -14 55 -28 52 -31 -7 -8 -109 27 -126 43 -24
23 10 18 74 -12z m-174 -8 c0 -2 -7 -6 -15 -10 -8 -3 -15 -1 -15 4 0 6 7 10
15 10 8 0 15 -2 15 -4z m318 -31 c2 -29 -12 -64 -22 -54 -3 2 -8 24 -12 48 -6
39 -5 43 12 39 13 -2 20 -13 22 -33z m-154 0 c31 -14 30 -14 -19 -8 -56 6 -65
10 -65 25 0 12 37 4 84 -17z m6 -56 c57 -13 93 -39 88 -65 -3 -18 -7 -19 -37
-11 -27 7 -32 11 -20 19 11 7 9 9 -8 5 -13 -3 -21 0 -20 6 1 6 -20 24 -48 40
-29 16 -40 26 -25 23 14 -4 45 -11 70 -17z m225 11 c13 -5 14 -9 5 -9 -8 0
-24 4 -35 9 -13 5 -14 9 -5 9 8 0 24 -4 35 -9z m1878 -62 c2 -7 -5 -24 -15
-38 -11 -14 -29 -41 -41 -60 -13 -19 -29 -35 -37 -35 -8 0 -17 -3 -20 -6 -9
-11 -72 -41 -77 -36 -2 3 22 31 54 63 32 33 70 74 85 92 28 34 44 40 51 20z
m-1818 -8 c18 -8 18 -9 -5 -9 -14 0 -32 4 -40 9 -12 8 -12 10 5 9 11 0 29 -4
40 -9z m157 -52 c-3 -61 -12 -60 -12 2 0 29 3 50 7 47 3 -4 6 -26 5 -49z
m-189 21 c36 -10 50 -28 25 -30 -7 -1 9 -7 36 -13 27 -7 52 -18 54 -25 3 -10
0 -12 -14 -7 -11 5 -44 15 -74 24 -59 16 -93 36 -50 29 14 -2 19 -2 13 0 -7 3
-13 8 -13 13 0 5 -8 11 -17 13 -10 3 -13 5 -8 6 6 0 27 -4 48 -10z m528 -25
c7 -9 9 -28 4 -51 l-7 -38 -14 34 c-8 18 -11 38 -7 44 4 6 0 8 -9 4 -10 -3
-18 1 -21 12 -3 14 1 17 19 13 13 -2 29 -10 35 -18z m-1562 -407 c-2 -1 -12
-9 -22 -16 -15 -12 -17 -12 -11 3 3 9 13 16 22 16 8 0 13 -1 11 -3z m2662 -74
c13 -16 12 -17 -3 -4 -10 7 -18 15 -18 17 0 8 8 3 21 -13z m-2791 -138 c0 -5
-5 -3 -10 5 -5 8 -10 20 -10 25 0 6 5 3 10 -5 5 -8 10 -19 10 -25z m96 -123
c-10 -2 -22 0 -28 6 -6 6 0 7 19 4 21 -5 23 -7 9 -10z m1502 -53 c-28 -16
-108 -38 -108 -29 0 12 60 32 115 38 6 1 2 -3 -7 -9z m-1094 -521 c152 -25
306 -88 306 -124 0 -7 13 -20 29 -29 35 -18 55 -43 25 -31 -10 4 -75 26 -144
47 -176 56 -357 82 -530 76 l-135 -4 66 21 c37 12 73 26 80 32 8 7 23 14 34
17 34 9 207 6 269 -5z m1286 -57 c-35 -31 -58 -45 -62 -38 -7 12 9 37 24 37 5
0 26 11 46 25 55 38 53 30 -8 -24z m310 -3 c0 -6 7 -20 17 -30 14 -16 15 -18
0 -18 -18 0 -49 39 -41 52 8 12 24 10 24 -4z m-466 -65 c10 -10 70 -30 168
-57 139 -39 156 -57 32 -35 -72 12 -252 0 -378 -26 -43 -9 -80 -14 -83 -11 -3
2 7 20 22 40 14 19 25 38 23 43 -3 8 152 52 188 52 11 1 24 -2 28 -6z m341
-111 c-3 -3 -11 0 -18 7 -9 10 -8 11 6 5 10 -3 15 -9 12 -12z m-2664 -2 c11 0
17 -4 14 -10 -10 -16 -41 -12 -56 7 -12 15 -12 16 4 10 10 -4 28 -7 38 -7z
m2174 -50 c-3 -5 -16 -10 -28 -9 -20 1 -20 2 3 9 14 4 26 8 28 9 2 1 0 -3 -3
-9z m1085 -165 c11 -13 10 -14 -4 -9 -9 3 -16 10 -16 15 0 13 6 11 20 -6z
m-533 -42 c-3 -3 -11 -2 -17 2 -8 5 -7 11 2 22 12 15 13 14 16 -1 2 -10 1 -20
-1 -23z m513 -9 c0 -2 -9 0 -20 6 -11 6 -20 13 -20 16 0 2 9 0 20 -6 11 -6 20
-13 20 -16z"/>
<path d="M1058 4013 c7 -3 16 -2 19 1 4 3 -2 6 -13 5 -11 0 -14 -3 -6 -6z"/>
<path d="M1085 3950 c-13 -6 -15 -9 -5 -9 8 0 22 4 30 9 18 12 2 12 -25 0z"/>
<path d="M2570 3870 c0 -5 6 -10 14 -10 8 0 23 -3 33 -6 16 -6 16 -5 -2 9 -23
19 -45 22 -45 7z"/>
<path d="M3050 2540 c0 -5 5 -10 11 -10 5 0 7 5 4 10 -3 6 -8 10 -11 10 -2 0
-4 -4 -4 -10z"/>
<path d="M2916 1662 c-2 -4 -1 -14 3 -21 6 -10 10 -9 14 3 6 16 -8 32 -17 18z"/>
<path d="M3265 521 c6 -5 28 -17 50 -26 22 -9 36 -12 30 -6 -5 5 -28 17 -50
26 -22 9 -35 12 -30 6z"/>
<path d="M3709 393 l-24 -26 33 23 c33 25 38 30 24 30 -5 0 -19 -12 -33 -27z"/>
<path d="M3595 400 c-4 -6 7 -10 27 -10 25 0 29 3 18 10 -19 13 -37 13 -45 0z"/>
<path d="M2290 5012 c0 -5 23 -33 51 -63 l50 -54 -38 57 c-35 52 -63 79 -63
60z"/>
<path d="M2230 4920 c0 -23 15 -27 23 -6 3 8 -1 17 -9 20 -9 4 -14 -1 -14 -14z"/>
<path d="M2395 4885 c-29 -23 -29 -24 -5 -18 29 7 50 21 50 34 0 15 -13 10
-45 -16z"/>
<path d="M3377 4314 c-13 -14 -7 -41 15 -60 l21 -19 -7 35 c-7 37 -18 54 -29
44z"/>
<path d="M4091 2544 c0 -11 3 -14 6 -6 3 7 2 16 -1 19 -3 4 -6 -2 -5 -13z"/>
</g>
</svg>
