<?xml version="1.0" standalone="no"?>
<!DOCTYPE svg PUBLIC "-//W3C//DTD SVG 20010904//EN"
 "http://www.w3.org/TR/2001/REC-SVG-20010904/DTD/svg10.dtd">
<svg version="1.0" xmlns="http://www.w3.org/2000/svg"
 width="457.000000pt" height="546.000000pt" viewBox="0 0 457.000000 546.000000"
 preserveAspectRatio="xMidYMid meet">

<g transform="translate(0.000000,546.000000) scale(0.100000,-0.100000)"
fill="#000000" stroke="none">
<path d="M2615 5106 c-153 -32 -364 -155 -453 -267 -73 -90 -100 -117 -141
-136 -44 -20 -49 -32 -172 -388 -28 -82 -73 -196 -99 -252 -50 -105 -63 -148
-62 -194 1 -51 23 -109 46 -124 20 -13 27 -14 57 -1 50 21 70 7 64 -47 -9 -69
-14 -78 -39 -71 -34 8 -48 -17 -50 -90 -2 -65 -6 -75 -57 -131 -18 -19 -29
-44 -31 -68 l-3 -38 -67 -5 c-106 -6 -153 -32 -170 -91 -2 -8 -13 -8 -43 3
-62 22 -81 13 -99 -50 -15 -51 -18 -54 -60 -65 -25 -6 -52 -11 -61 -11 -27 0
-75 -39 -75 -61 0 -13 -7 -19 -24 -19 -50 0 -81 -20 -106 -67 -14 -26 -34 -61
-46 -78 -31 -46 -44 -109 -32 -153 19 -68 -6 -158 -71 -254 -52 -76 -270 -499
-336 -649 -75 -169 -123 -355 -130 -494 -3 -65 -3 -72 5 -35 12 62 33 109 75
164 47 61 45 68 -4 14 l-40 -43 16 55 c8 30 19 60 23 65 5 6 11 26 14 45 10
68 140 359 153 346 3 -3 0 -12 -7 -21 -8 -10 -9 -15 -1 -15 6 0 11 4 11 10 0
5 10 19 23 31 12 12 17 19 11 16 -22 -13 17 78 49 113 18 19 24 28 15 21 -24
-18 -23 2 1 23 11 10 17 24 15 31 -3 7 5 24 18 37 12 12 22 28 20 34 -1 6 14
29 34 52 19 23 33 42 29 42 -3 0 2 13 11 29 10 17 22 27 27 24 6 -3 7 -1 3 5
-4 7 5 29 19 49 14 21 25 44 25 51 0 7 5 10 12 6 7 -4 8 -3 4 4 -13 22 156
308 175 297 4 -3 25 2 46 11 69 29 127 28 102 -2 -10 -12 -9 -13 5 -8 9 3 16
10 16 15 0 5 5 9 11 9 5 0 7 -5 3 -11 -5 -8 -2 -9 11 -1 21 11 75 -3 75 -20 0
-5 4 -7 9 -4 5 3 24 -8 42 -24 19 -16 38 -30 42 -30 16 0 107 -67 100 -73 -3
-4 1 -7 11 -7 9 0 14 -4 11 -10 -3 -5 0 -8 7 -5 19 7 52 -21 42 -36 -5 -8 -2
-11 8 -6 10 3 29 -6 49 -24 18 -16 37 -29 42 -29 5 0 7 -6 4 -14 -4 -10 2 -16
16 -18 13 -2 22 -10 21 -19 -1 -12 5 -15 20 -12 16 4 18 3 7 -5 -12 -9 -10
-12 12 -17 15 -4 24 -12 20 -18 -3 -5 -1 -7 5 -3 10 6 25 -8 28 -26 1 -5 3
-11 4 -15 1 -5 2 -15 1 -25 -1 -9 2 -19 6 -21 5 -3 8 -31 7 -61 -2 -53 7 -71
20 -43 3 6 4 -1 0 -17 -7 -39 6 -162 16 -146 6 9 9 8 13 -6 3 -10 3 3 0 29
-12 101 -9 187 7 198 13 9 12 10 -2 5 -14 -4 -18 0 -18 19 0 28 16 31 44 10
14 -11 16 -15 5 -15 -8 0 0 -7 17 -16 17 -8 31 -20 31 -27 6 -90 33 -319 40
-330 3 -5 9 -111 14 -236 14 -364 25 -324 21 82 l-3 377 25 0 c13 0 29 -7 36
-15 9 -10 9 -15 1 -15 -6 0 -11 5 -11 10 0 13 -27 13 -35 0 -3 -6 1 -7 9 -4 9
4 18 0 22 -9 3 -9 12 -13 19 -10 8 2 20 1 27 -3 9 -6 6 -10 -11 -14 -14 -3
-26 -11 -27 -18 -1 -7 0 -8 3 -2 9 18 43 11 73 -17 28 -24 28 -27 12 -40 -15
-12 -15 -13 8 -8 18 4 31 0 44 -14 19 -21 19 -21 -2 -21 -12 0 -22 -4 -22 -9
0 -4 11 -6 25 -3 17 3 33 -2 46 -14 l21 -19 -24 -6 c-23 -7 -23 -7 3 -8 14 -1
34 -8 45 -16 18 -14 18 -14 -11 -15 -30 -1 -30 -1 -7 -13 12 -7 19 -16 16 -20
-4 -4 10 -8 32 -8 l39 -2 -35 -7 -35 -7 45 -3 c25 -2 35 -5 23 -7 -24 -5 -30
-18 -13 -28 5 -3 8 -11 6 -18 -1 -7 -1 -9 1 -4 3 4 11 7 19 7 9 0 12 -4 9 -10
-4 -6 11 -11 37 -11 31 -2 35 -3 15 -6 -23 -4 -26 -7 -17 -18 9 -11 18 -11 38
-4 15 6 23 7 19 3 -4 -4 2 -21 13 -39 29 -47 33 -116 20 -380 -7 -132 -13
-280 -15 -330 l-3 -90 13 105 c7 58 17 200 21 315 6 173 10 212 23 223 9 8 10
11 4 7 -7 -3 -13 -2 -13 3 0 5 9 12 20 15 17 4 20 1 18 -21 -1 -15 4 -38 11
-50 7 -13 11 -34 8 -45 -3 -12 -1 -44 3 -72 l7 -50 3 55 c1 30 2 60 1 67 -1 6
3 14 9 18 16 10 12 -260 -6 -447 -27 -282 -30 -341 -24 -408 6 -56 7 -48 9 55
1 66 11 194 22 285 12 91 24 264 27 385 l7 220 25 3 c20 2 22 1 10 -7 -12 -9
-9 -11 15 -11 23 0 27 -3 15 -10 -11 -7 -7 -10 18 -10 20 0 31 -4 27 -10 -3
-6 4 -10 17 -11 22 0 22 -1 3 -9 -17 -7 -14 -9 15 -10 29 -1 32 -3 15 -10 -17
-7 -14 -9 15 -10 29 -1 32 -3 15 -10 -18 -8 -18 -9 5 -10 l25 -2 -25 -7 c-20
-6 -14 -9 32 -14 64 -8 110 -25 102 -38 -3 -5 12 -10 33 -10 23 -1 29 -3 16
-6 -13 -2 -23 -9 -23 -14 0 -6 5 -7 10 -4 6 4 34 3 63 -1 l52 -8 -40 -7 -40
-6 46 -2 c48 -1 52 -3 228 -149 24 -21 60 -48 80 -61 66 -45 178 -138 225
-189 68 -73 117 -104 158 -100 30 3 36 9 70 78 31 60 38 86 38 132 0 65 -13
105 -42 132 -28 26 -18 66 32 126 49 59 54 107 15 165 -23 33 -25 43 -19 99 6
58 27 122 63 194 13 27 13 34 3 41 -17 10 -22 41 -11 63 11 22 -5 98 -23 110
-7 4 -26 8 -43 7 -16 0 -35 -1 -41 0 -6 1 -25 29 -43 64 -30 59 -31 65 -17 91
15 31 12 76 -7 88 -7 4 -21 8 -32 8 -26 0 -68 27 -129 82 -45 42 -47 46 -31
61 24 24 31 82 13 109 -28 42 -27 73 3 109 25 31 29 32 53 21 35 -16 58 -15
115 4 32 10 53 24 62 41 19 36 16 148 -6 214 -21 65 -82 198 -100 219 -29 33
-196 381 -224 467 -39 119 -51 193 -51 323 0 68 -10 168 -30 285 -25 158 -37
201 -93 350 -112 298 -204 465 -256 465 -10 0 -26 7 -37 15 -19 15 -93 40
-107 37 -4 -1 -10 5 -13 13 -3 8 -10 12 -15 9 -5 -2 -61 20 -124 51 -124 59
-128 60 -220 41z m127 -65 c59 -39 159 -88 218 -105 105 -31 160 -65 161 -100
0 -21 1 -21 9 -1 l9 20 2 -20 c1 -11 2 -31 1 -45 0 -16 1 -18 5 -7 6 24 27 22
20 -3 -3 -13 -1 -18 6 -13 6 4 8 0 4 -10 -3 -9 0 -18 9 -21 8 -3 14 -16 14
-28 0 -22 20 -64 20 -43 0 5 7 0 15 -12 8 -12 12 -29 8 -39 -4 -11 -2 -15 4
-11 6 4 8 -3 5 -20 -3 -18 -1 -24 7 -19 10 6 32 -30 35 -59 4 -34 19 -75 27
-75 5 0 4 -12 -2 -26 -13 -36 -3 -63 20 -57 21 5 34 -27 67 -167 19 -79 24
-260 9 -294 -7 -15 -5 -18 6 -14 10 4 15 -1 15 -13 0 -13 -3 -15 -13 -7 -20
16 -16 -7 4 -28 10 -10 13 -19 8 -21 -13 -4 -7 -143 6 -143 5 0 9 -5 9 -11 0
-5 -4 -7 -10 -4 -5 3 -10 1 -10 -4 0 -6 4 -11 9 -11 5 0 13 -14 16 -32 4 -18
11 -39 16 -48 5 -8 23 -52 40 -98 30 -82 95 -214 217 -443 34 -64 69 -136 78
-160 27 -75 43 -139 33 -139 -5 0 -9 6 -9 14 0 13 -15 35 -101 143 -52 66
-112 177 -101 188 4 5 2 5 -4 2 -6 -4 -22 5 -35 19 -12 13 -29 22 -36 20 -7
-3 -13 -1 -13 4 0 6 -5 10 -10 10 -18 0 -122 80 -177 137 -31 32 -66 83 -89
130 -49 99 -56 176 -26 279 12 38 23 83 25 99 3 17 10 61 17 98 16 87 5 271
-17 292 -27 28 -103 19 -166 -19 -58 -35 -96 -52 -109 -48 -5 1 -8 -2 -8 -7 0
-17 -72 -34 -120 -28 -60 7 -176 45 -195 63 -8 8 -18 14 -22 13 -25 -4 -43 2
-37 13 4 6 3 8 -3 5 -6 -4 -38 3 -71 14 -33 11 -75 19 -93 17 -28 -3 -34 -8
-42 -37 -9 -37 4 -200 28 -346 17 -103 19 -222 5 -259 -10 -29 -61 -59 -84
-50 -19 7 -111 -53 -183 -122 -31 -29 -57 -52 -58 -51 -24 39 -85 287 -85 343
0 35 -13 46 -24 18 -3 -8 -10 -13 -15 -9 -6 3 -18 -6 -27 -20 -9 -13 -19 -23
-23 -21 -6 4 -9 -5 -13 -56 -1 -13 -5 -26 -10 -29 -4 -3 5 -15 22 -27 25 -19
29 -20 24 -5 -4 10 3 6 13 -10 l20 -27 12 26 c9 21 9 30 0 38 -9 8 -10 8 -5
-1 3 -6 3 -14 -2 -17 -13 -8 -11 26 2 44 9 12 7 12 -9 -1 -30 -23 -49 -18 -52
14 -1 15 2 25 7 22 12 -7 29 26 22 44 -3 8 0 11 6 7 6 -3 13 -2 17 4 12 20 23
10 25 -22 2 -43 7 -102 10 -108 1 -3 3 -9 4 -15 1 -5 5 -17 9 -25 3 -8 16 -49
27 -90 28 -96 91 -209 133 -235 18 -12 52 -29 77 -40 25 -10 66 -33 91 -51 26
-18 61 -40 78 -49 57 -29 5 -46 -64 -21 l-20 8 20 -17 c16 -13 33 -16 79 -12
42 4 69 1 89 -10 16 -8 51 -21 78 -29 49 -15 99 -63 99 -97 0 -9 11 -28 24
-44 22 -26 29 -28 102 -28 82 0 119 -14 130 -47 6 -20 67 -68 86 -68 10 0 10
2 -1 9 -9 6 2 9 30 9 171 2 342 66 497 186 87 68 116 74 47 10 -58 -53 -197
-141 -273 -172 -112 -45 -402 -66 -402 -29 0 8 -3 8 -8 2 -4 -5 -15 -11 -25
-11 -15 -2 -16 1 -5 14 11 13 10 14 -9 4 -28 -15 -34 -15 -31 1 2 7 -5 11 -17
9 -16 -3 -17 -1 -8 9 10 10 15 9 28 -1 12 -10 18 -11 28 -1 9 10 8 11 -7 5
-12 -5 -17 -4 -13 3 8 13 -24 13 -40 0 -9 -7 -25 1 -56 26 -39 31 -49 35 -117
38 -64 4 -81 8 -115 34 -22 17 -45 37 -52 45 -6 8 -15 12 -19 7 -10 -10 33
-54 82 -83 30 -18 60 -25 107 -27 59 -3 71 -7 119 -44 73 -56 129 -80 227 -97
76 -13 86 -13 100 2 14 14 14 15 -9 9 -14 -3 -48 0 -75 7 l-50 13 133 7 c73 4
158 14 189 22 54 14 205 92 268 138 54 40 59 41 39 6 -31 -52 -107 -113 -172
-138 -34 -13 -65 -21 -70 -18 -5 3 -22 -2 -38 -11 -16 -8 -62 -18 -102 -21
-47 -3 -69 -8 -60 -14 19 -12 123 0 198 24 120 38 189 78 269 159 26 25 37 29
71 26 22 -2 42 -6 46 -9 13 -13 -30 -75 -77 -111 -27 -21 -54 -48 -58 -60 -5
-12 -20 -28 -34 -36 -23 -12 -38 -34 -51 -73 -3 -12 -16 -18 -34 -18 -39 0
-76 -31 -96 -80 -9 -22 -21 -41 -28 -41 -34 -3 -66 -9 -93 -18 -23 -7 -25 -10
-10 -11 34 -3 77 1 104 11 17 7 27 6 33 -3 5 -8 8 1 8 24 0 20 4 39 9 42 4 3
6 -6 3 -21 -3 -18 -1 -24 7 -19 6 4 11 1 11 -6 1 -15 24 26 35 61 5 15 4 21
-3 17 -6 -3 -14 -2 -17 4 -4 6 -3 10 2 9 4 -1 10 0 13 1 3 1 15 3 28 4 16 2
21 -1 17 -11 -3 -8 -5 -19 -5 -24 0 -5 -8 -9 -17 -9 -15 0 -16 -2 -3 -10 11
-7 19 -2 33 23 15 26 17 27 11 7 -3 -14 -6 -36 -6 -49 0 -18 -2 -20 -9 -10 -5
8 -9 10 -9 5 0 -5 7 -18 16 -27 16 -17 14 -19 -30 -31 -105 -28 -246 -194
-246 -290 0 -20 38 -78 52 -78 5 0 1 12 -9 26 -13 21 -14 30 -5 45 10 16 9 17
-6 12 -14 -6 -15 -4 -5 9 7 8 10 18 6 21 -3 4 -1 7 5 7 6 0 9 9 7 20 -2 11 0
18 5 15 6 -3 18 -1 27 5 17 11 17 11 0 6 -12 -4 -17 -2 -14 6 2 7 15 12 28 11
l24 -3 -24 10 c-20 9 -22 12 -10 28 23 29 42 40 59 34 12 -4 13 -2 3 8 -10 11
-9 16 5 26 21 16 32 17 32 4 0 -5 -8 -10 -17 -10 -15 0 -16 -2 -3 -10 20 -13
33 -13 25 0 -3 6 1 10 11 10 13 0 14 3 4 15 -11 13 -8 15 15 15 22 0 25 3 16
13 -8 11 -4 13 21 9 22 -3 29 -1 23 7 -13 22 47 -15 90 -54 53 -49 124 -95
147 -95 23 0 23 -27 1 -52 -15 -17 -15 -21 7 -61 13 -23 34 -57 47 -75 12 -19
25 -42 28 -52 4 -12 20 -21 45 -25 37 -6 40 -9 40 -38 0 -18 4 -47 10 -66 7
-27 5 -41 -10 -72 -47 -90 -69 -320 -36 -365 14 -17 12 -22 -25 -55 -30 -29
-39 -44 -39 -70 0 -19 -3 -44 -6 -55 -4 -15 4 -32 27 -59 29 -33 33 -43 33
-98 0 -61 -10 -90 -44 -134 l-17 -22 -64 39 c-35 21 -74 48 -86 59 -12 12 -25
21 -28 21 -6 0 -61 38 -81 55 -6 6 -39 30 -74 55 -165 118 -400 333 -475 435
-16 22 -44 58 -62 79 -19 22 -33 51 -33 65 0 15 -11 43 -25 64 -14 20 -22 37
-17 37 5 0 35 -9 68 -21 107 -37 551 -57 666 -29 54 12 57 14 38 27 -11 8 -17
19 -14 25 4 7 2 8 -5 4 -9 -6 -9 -11 0 -22 14 -17 -2 -19 -21 -1 -12 10 -12 9
-2 -4 20 -26 -47 -23 -78 4 l-25 22 24 -27 c29 -34 17 -37 -18 -6 -14 13 -20
16 -13 8 23 -27 12 -31 -20 -9 -33 23 -33 23 -14 1 15 -17 16 -22 5 -22 -8 0
-20 5 -27 12 -9 9 -12 9 -12 0 0 -17 -20 -15 -44 5 -20 17 -20 17 -7 1 24 -32
-12 -22 -44 12 -16 16 -31 28 -33 25 -3 -2 6 -13 19 -24 16 -13 19 -20 10 -21
-8 0 -24 8 -35 17 -15 13 -17 14 -8 2 10 -14 6 -16 -36 -16 -29 0 -54 6 -65
16 -15 13 -18 13 -15 1 5 -22 -41 -13 -72 13 l-25 22 19 -22 c17 -20 17 -23 3
-23 -9 0 -26 10 -38 23 l-21 22 11 -22 c13 -26 0 -31 -19 -8 -7 8 -17 12 -22
9 -5 -3 -18 2 -29 12 -16 14 -19 15 -14 2 12 -31 -44 -7 -66 28 -22 36 -32 44
-22 17 5 -12 3 -14 -7 -8 -9 6 -11 4 -5 -4 5 -9 2 -12 -11 -9 -11 2 -19 10
-19 18 0 8 6 14 13 12 9 -2 6 8 -8 28 -12 16 -25 30 -29 30 -9 0 -8 -37 2 -46
4 -4 7 -12 7 -18 -1 -12 -23 23 -26 40 -1 6 -9 24 -17 40 l-16 29 3 -28 c1
-15 6 -30 9 -34 14 -13 6 -25 -8 -13 -9 7 -14 19 -11 26 3 7 1 16 -4 19 -6 4
-10 15 -10 25 0 12 -5 17 -13 14 -8 -3 -19 5 -26 18 -8 17 -10 17 -5 3 3 -11
7 -25 7 -32 0 -7 3 -10 7 -8 4 2 12 -7 18 -20 7 -14 9 -25 7 -25 -10 0 -46 41
-56 63 -9 21 -9 21 -5 -3 5 -21 -1 -18 -43 25 -27 27 -48 54 -46 60 1 5 0 7
-2 2 -6 -10 -62 44 -59 57 2 6 1 7 -2 3 -6 -11 -192 174 -192 191 0 7 -4 10
-10 7 -5 -3 -10 1 -10 10 0 9 -4 14 -9 10 -6 -3 -33 17 -62 44 -43 41 -48 50
-33 54 17 5 17 6 -1 4 -27 -2 -45 11 -45 33 0 12 -6 17 -17 16 -10 -2 -28 8
-40 21 -13 13 -23 22 -23 19 0 -4 -8 2 -18 12 -10 9 -17 24 -14 32 3 12 2 13
-6 1 -8 -11 -21 -5 -66 29 -31 23 -56 47 -56 52 0 5 -4 7 -10 3 -5 -3 -16 7
-25 22 -10 17 -14 20 -11 8 5 -17 3 -16 -15 5 -11 14 -17 19 -13 11 9 -17
-121 72 -157 108 -14 14 -31 35 -38 46 l-13 20 7 -20 c5 -17 3 -17 -18 5 -14
14 -22 29 -19 34 3 5 -5 6 -18 3 -15 -4 -36 3 -64 20 -56 36 -116 52 -164 46
-35 -5 -41 -3 -47 18 l-7 22 -13 -23 c-9 -17 -14 -19 -18 -9 -4 10 -6 9 -6 -3
-1 -25 -20 -22 -31 5 l-9 22 0 -22 c-1 -18 -6 -22 -23 -20 -12 2 -25 12 -29
23 -7 18 -8 18 -8 -1 -1 -17 -3 -17 -11 -5 -6 10 -10 11 -10 3 0 -7 -7 -13
-15 -13 -19 0 -19 14 0 30 8 7 15 23 15 35 0 50 65 61 200 35 134 -26 200 -60
293 -147 65 -60 84 -73 110 -72 l32 1 -26 11 c-40 19 -99 69 -99 85 0 9 -3 12
-6 9 -4 -3 -25 9 -48 29 -22 19 -65 47 -96 61 -30 15 -59 33 -63 40 -5 7 -12
11 -17 8 -4 -3 -6 5 -4 17 2 13 1 17 -2 9 -5 -11 -8 -11 -16 0 -7 10 -8 8 -4
-7 4 -14 2 -21 -8 -21 -9 0 -13 4 -10 9 3 5 1 14 -4 21 -5 7 -12 21 -16 32 -3
11 -3 2 -1 -20 l4 -40 -14 40 c-11 34 -14 36 -15 15 -2 -19 -3 -20 -7 -7 -7
27 5 67 21 67 7 0 21 -9 31 -20 15 -16 26 -19 54 -14 42 7 61 27 61 66 0 16 7
31 18 36 29 15 99 23 124 13 26 -10 58 2 58 22 0 8 23 13 68 14 37 1 83 2 102
4 36 2 92 -26 137 -67 25 -23 73 -90 73 -102 0 -4 24 -27 54 -51 45 -35 53
-47 47 -63 -5 -15 1 -37 22 -75 40 -74 88 -119 136 -127 35 -5 41 -11 60 -55
11 -27 21 -53 21 -57 0 -16 84 -115 128 -151 46 -37 45 -36 -15 30 -54 60
-106 147 -127 212 -6 18 -68 55 -92 55 -28 0 -104 113 -104 153 0 31 40 62 70
54 11 -3 20 -1 20 4 0 13 -67 11 -92 -2 -17 -9 -25 -6 -55 23 -19 18 -48 56
-64 85 -16 28 -45 64 -63 80 -33 28 -97 67 -105 63 -2 -1 -7 4 -12 11 -6 11
-21 11 -79 1 -111 -19 -117 -18 -112 21 2 17 15 43 27 57 13 14 30 40 39 58
18 34 43 51 55 36 3 -5 31 -21 63 -36 31 -15 65 -39 75 -53 10 -15 28 -38 41
-53 l22 -27 -11 30 c-6 16 -22 46 -37 65 -15 19 -25 40 -24 45 2 6 1 7 -3 3
-25 -25 -184 83 -171 117 4 10 12 15 22 11 9 -3 25 4 40 19 23 24 24 24 24 3
0 -37 19 5 22 49 1 6 6 9 13 7 16 -7 49 32 35 41 -8 5 -7 11 2 23 12 15 11 16
-4 3 -11 -8 -18 -9 -18 -3 0 6 5 14 10 17 6 4 8 15 5 25 -3 10 -2 21 4 24 9 6
9 72 -2 82 -3 3 -3 18 -1 32 3 21 2 23 -6 12 -9 -13 -10 -13 -10 0 0 9 4 20 9
25 6 6 11 49 13 97 2 49 6 88 9 88 3 0 4 11 1 25 -5 27 15 145 31 185 6 14 11
28 11 32 1 3 4 9 8 13 4 4 4 13 1 21 -3 8 0 14 6 14 6 0 8 7 4 17 -4 9 -2 14
3 11 5 -4 10 12 11 34 3 49 64 191 103 240 17 20 30 41 30 47 0 12 127 141
139 141 5 0 25 13 45 29 49 39 144 85 236 116 41 13 78 24 82 25 4 0 26 -13
50 -29z m-658 -422 c-8 -14 -21 -11 -21 5 0 8 6 12 14 9 7 -3 10 -9 7 -14z
m-37 -39 c0 -22 -5 -44 -13 -51 -16 -13 -19 -43 -4 -34 6 3 10 1 10 -4 0 -6
-5 -11 -11 -11 -6 0 -9 -7 -6 -15 4 -8 2 -17 -4 -20 -5 -4 -7 -11 -3 -16 3 -5
-2 -31 -10 -57 -9 -26 -23 -81 -31 -122 -8 -41 -27 -109 -44 -150 -28 -72 -31
-125 -4 -65 l14 30 -6 -30 c-5 -28 -4 -29 10 -11 14 18 14 17 12 -12 -1 -23
-5 -28 -15 -20 -7 6 -15 8 -19 4 -3 -3 -1 -6 5 -6 7 0 12 -9 12 -20 0 -11 -5
-20 -10 -20 -6 0 -9 3 -8 8 0 4 -2 15 -6 24 -8 18 -26 15 -26 -4 0 -6 3 -8 7
-4 10 9 45 -70 58 -131 9 -40 8 -56 -1 -65 -14 -15 -28 -81 -15 -74 5 3 14 0
20 -8 9 -10 7 -17 -6 -27 -11 -9 -14 -10 -9 -1 4 6 2 12 -3 12 -6 0 -14 0 -18
1 -5 0 -11 -10 -15 -23 -4 -17 -6 -12 -7 20 -1 23 3 42 7 42 11 0 9 35 -4 52
-5 7 -18 29 -28 48 -27 49 -66 94 -68 78 0 -7 -2 -17 -3 -23 -2 -5 -4 -19 -5
-30 -1 -20 -2 -20 -9 0 -7 17 -9 16 -16 -10 -7 -27 -8 -28 -16 -10 -13 33 2
106 37 175 39 78 68 154 139 365 30 88 60 176 67 195 27 72 44 79 45 20z
m1284 -201 c-5 -13 -10 -19 -10 -12 -1 15 10 45 15 40 3 -2 0 -15 -5 -28z
m-1373 -324 c-3 -3 -9 2 -12 12 -6 14 -5 15 5 6 7 -7 10 -15 7 -18z m1246 -19
c-2 -45 2 -46 16 -3 l10 32 -6 -37 c-6 -47 2 -49 15 -5 8 28 9 29 10 7 1 -18
4 -21 10 -11 17 26 10 -132 -9 -228 -11 -53 -20 -99 -20 -103 0 -5 -4 -8 -10
-8 -6 0 -10 41 -10 103 0 56 -6 131 -13 167 -19 92 -20 133 -5 127 8 -2 13
-19 12 -41z m-1334 -230 c0 -6 -7 -1 -15 10 -8 10 -15 23 -15 28 0 6 7 1 15
-10 8 -10 15 -23 15 -28z m83 -201 c-3 -9 -8 -14 -10 -11 -3 3 -2 9 2 15 9 16
15 13 8 -4z m317 -200 c-7 -8 -18 -15 -24 -15 -6 0 -2 7 8 15 25 19 32 19 16
0z m48 -56 c-3 -15 -2 -26 2 -24 3 2 12 -17 19 -43 12 -48 18 -57 107 -192 74
-110 73 -108 44 -89 -14 9 -36 22 -50 30 -14 8 -37 24 -52 36 -15 12 -53 33
-84 48 -34 16 -58 35 -62 47 -4 15 -7 17 -14 6 -7 -9 -8 -5 -3 12 4 14 7 33 8
42 1 13 5 14 14 6 7 -6 13 -9 14 -7 0 2 2 24 4 49 2 24 8 46 14 48 6 2 11 12
11 22 0 29 11 51 22 44 5 -4 8 -19 6 -35z m-58 -48 c-27 -54 -34 -53 -11 2 10
23 16 49 14 57 -3 12 -2 11 6 -1 8 -12 5 -27 -9 -58z m-34 17 c4 -25 2 -29 -5
-18 -11 16 -15 68 -5 58 3 -4 8 -21 10 -40z m-69 -30 c-3 -7 -5 -2 -5 12 0 14
2 19 5 13 2 -7 2 -19 0 -25z m43 -53 c1 -26 3 -27 10 -10 10 23 13 5 4 -19 -6
-15 -8 -15 -20 1 -7 10 -10 29 -7 42 4 17 2 22 -6 17 -16 -10 -14 -43 5 -71
26 -40 9 -29 -20 13 -14 21 -26 45 -25 53 0 8 4 6 9 -6 7 -17 9 -17 9 -2 1 9
5 17 11 17 5 0 7 8 3 18 -5 14 -3 13 10 -3 9 -11 17 -33 17 -50z m1220 -96 c0
-6 4 -7 10 -4 6 3 7 -1 4 -9 -3 -9 -11 -14 -17 -13 -6 1 -12 -7 -14 -18 -3
-16 -2 -17 6 -5 12 17 13 4 2 -25 -7 -17 -9 -16 -15 9 -4 17 -3 33 3 39 16 16
13 27 -4 21 -8 -4 -15 -2 -15 3 0 5 9 9 20 10 11 1 20 -3 20 -8z m52 -45 c-2
-14 0 -15 6 -6 5 7 16 10 25 7 18 -7 31 -35 17 -35 -6 0 -6 -9 -1 -22 4 -13 6
-30 4 -38 -4 -12 -3 -12 5 -2 5 7 7 24 5 36 -6 27 14 45 23 22 3 -9 11 -13 17
-9 6 4 8 -2 5 -15 -4 -12 -2 -22 3 -22 5 0 9 7 9 16 0 25 21 4 42 -42 18 -41
18 -45 2 -69 -20 -31 -25 -31 -23 -2 5 51 -5 68 -10 18 -4 -38 -12 -57 -25
-65 -10 -6 -30 -21 -44 -34 -17 -15 -28 -19 -32 -11 -4 6 -10 2 -13 -12 -5
-20 -8 -21 -23 -8 -10 8 -15 9 -11 3 4 -7 -1 -18 -10 -25 -14 -12 -15 -11 -10
6 3 11 9 32 13 48 5 22 9 25 20 16 12 -10 13 -8 8 6 -6 14 -4 16 6 10 8 -5 11
-4 6 3 -4 6 -13 9 -21 5 -10 -3 -15 2 -15 16 0 12 -9 46 -19 76 -14 38 -17 63
-11 82 5 16 9 22 9 14 1 -11 5 -10 16 5 8 10 14 24 15 29 0 6 -5 3 -10 -5 -8
-13 -10 -13 -10 1 0 9 3 19 7 23 12 12 28 -1 25 -20z m-2284 -194 c53 -8 106
-9 150 -4 37 4 80 7 97 6 33 -3 156 -69 207 -113 31 -27 74 -57 233 -166 180
-124 409 -318 398 -337 -3 -6 -3 -8 1 -4 5 4 27 -10 49 -30 86 -77 496 -491
514 -518 10 -16 28 -37 40 -47 13 -10 23 -22 23 -27 0 -5 13 -23 29 -40 19
-21 27 -39 24 -53 -4 -18 -3 -19 6 -7 9 12 11 11 11 -7 0 -15 5 -21 15 -17 13
5 19 -6 27 -56 4 -27 -12 -71 -23 -64 -8 4 -8 9 1 14 8 5 9 20 4 46 l-8 39 -8
-42 c-10 -48 -27 -57 -29 -15 -2 23 -2 24 -6 4 -5 -27 -23 -19 -23 11 0 16 -3
18 -9 8 -7 -11 -14 -10 -37 6 -16 11 -51 35 -79 53 -47 32 -185 140 -212 167
-7 6 -13 16 -13 21 0 5 -10 12 -23 16 -20 5 -225 207 -440 434 -38 40 -72 72
-77 72 -13 0 -31 36 -22 45 4 5 1 5 -6 1 -8 -5 -35 14 -75 52 -120 117 -323
277 -475 375 -129 83 -125 82 -250 81 -104 -1 -115 -3 -153 -28 -49 -33 -106
-34 -101 -1 3 18 58 107 90 147 13 15 18 16 41 3 15 -7 64 -19 109 -25z m2502
-30 c0 -5 -5 -10 -11 -10 -5 0 -7 5 -4 10 3 6 8 10 11 10 2 0 4 -4 4 -10z m38
-42 c17 -17 15 -33 -2 -19 -9 7 -25 9 -43 5 -25 -7 -27 -6 -14 9 16 20 42 22
59 5z m53 -91 c-10 -9 -11 -8 -5 6 3 10 9 15 12 12 3 -3 0 -11 -7 -18z m-2826
-7 c3 -5 1 -10 -4 -10 -6 0 -11 5 -11 10 0 6 2 10 4 10 3 0 8 -4 11 -10z m65
-15 c-7 -8 -17 -15 -22 -15 -6 0 -5 7 2 15 7 8 17 15 22 15 6 0 5 -7 -2 -15z
m2795 -16 c-4 -5 -1 -9 4 -9 6 0 11 -5 11 -11 0 -5 -4 -8 -9 -4 -5 3 -11 -5
-13 -17 -4 -28 -55 -50 -67 -29 -5 8 -14 10 -20 7 -6 -4 -11 -2 -11 3 0 6 5
11 10 11 6 0 10 6 10 14 0 8 4 18 10 21 6 3 7 -1 4 -9 -3 -9 -1 -16 6 -16 6 0
8 -4 5 -10 -8 -13 1 -13 24 0 25 13 36 42 14 38 -9 -2 -18 3 -20 10 -3 7 1 10
11 6 9 -3 16 -1 16 6 0 6 5 8 10 5 6 -4 8 -11 5 -16z m-2831 -17 c3 -5 -1 -9
-9 -9 -8 0 -12 4 -9 9 3 4 7 8 9 8 2 0 6 -4 9 -8z m2667 -99 c-10 -17 -10 -16
-11 3 0 23 13 41 18 25 2 -6 -1 -18 -7 -28z m-31 -34 c0 -13 -8 -23 -21 -26
-16 -4 -17 -8 -7 -14 10 -7 9 -9 -4 -9 -22 0 -24 18 -3 26 8 4 12 10 9 15 -3
5 0 9 6 9 6 0 8 5 5 10 -3 6 -1 10 4 10 6 0 11 -9 11 -21z m-27 -66 c-9 -3
-10 -10 -3 -24 8 -15 7 -17 -5 -13 -8 3 -12 10 -9 15 3 5 0 9 -6 9 -6 0 -8 5
-5 10 3 6 14 10 23 9 10 0 12 -3 5 -6z m-126 -65 c-3 -8 -6 -5 -6 6 -1 11 2
17 5 13 3 -3 4 -12 1 -19z m128 -6 c6 -4 11 -15 13 -24 3 -20 -33 -44 -43 -28
-4 6 -1 9 5 8 7 -2 14 8 16 21 4 20 2 22 -11 11 -13 -11 -14 -10 -9 4 7 18 14
20 29 8z m-1495 -262 c0 -5 -7 -10 -15 -10 -8 0 -15 5 -15 10 0 6 7 10 15 10
8 0 15 -4 15 -10z m754 -306 c3 -8 2 -12 -4 -9 -6 3 -10 10 -10 16 0 14 7 11
14 -7z m61 -54 c3 -5 1 -10 -4 -10 -6 0 -11 5 -11 10 0 6 2 10 4 10 3 0 8 -4
11 -10z m-3 -105 c6 -11 -12 5 -40 35 -28 30 -51 60 -51 65 0 12 77 -72 91
-100z m-438 87 c2 -4 -7 -9 -22 -10 -21 -1 -24 0 -12 8 18 12 27 12 34 2z m33
-28 c-3 -3 -12 -4 -19 -1 -8 3 -5 6 6 6 11 1 17 -2 13 -5z m123 -196 c0 -14
-18 -9 -24 8 -11 28 -6 39 9 20 8 -11 15 -23 15 -28z m67 -18 c-1 -12 -5 -16
-10 -11 -5 5 -6 14 -3 20 11 16 15 13 13 -9z m353 -66 c0 -8 -4 -14 -8 -14 -5
0 -13 -12 -20 -27 -11 -25 -11 -26 -6 -3 4 14 6 38 6 53 -1 24 1 27 13 17 8
-7 15 -19 15 -26z m5 -43 c-3 -5 -1 -12 5 -16 5 -3 10 -11 10 -17 0 -7 -6 -6
-15 2 -8 7 -15 9 -15 5 0 -5 -2 -6 -5 -3 -8 8 6 38 17 38 5 0 7 -4 3 -9z m35
-6 c4 3 6 -4 3 -16 -4 -16 -8 -17 -14 -7 -5 7 -8 20 -8 28 0 10 2 11 6 2 2 -6
8 -10 13 -7z m40 -45 c0 -5 -7 -7 -15 -4 -8 4 -12 10 -9 15 6 11 24 2 24 -11z"/>
<path d="M2450 4865 c-7 -8 -16 -13 -20 -10 -5 3 -11 2 -14 -3 -10 -17 24 -8
41 10 9 10 14 18 11 18 -3 0 -11 -7 -18 -15z"/>
<path d="M2973 4785 c20 -20 37 -39 37 -44 0 -4 9 -16 19 -25 11 -10 40 -61
66 -114 26 -53 53 -108 60 -122 22 -42 91 -213 100 -245 4 -16 9 -25 12 -18 9
26 -160 404 -221 493 -43 63 -86 109 -101 109 -5 0 7 -15 28 -34z"/>
<path d="M3123 4735 c0 -8 4 -12 9 -9 5 3 6 10 3 15 -9 13 -12 11 -12 -6z"/>
<path d="M2239 4723 c-13 -16 -12 -17 4 -4 9 7 17 15 17 17 0 8 -8 3 -21 -13z"/>
<path d="M2127 4533 c-10 -10 -8 -33 3 -33 5 0 6 7 3 17 -5 12 -3 14 7 8 9 -5
11 -4 6 3 -8 14 -10 14 -19 5z"/>
<path d="M3265 4524 c3 -12 12 -41 20 -65 12 -38 14 -39 8 -9 -3 19 -12 49
-19 65 -8 17 -11 21 -9 9z"/>
<path d="M2412 4470 c-1 -14 3 -43 7 -65 l9 -40 0 35 c0 19 -4 49 -8 65 -7 27
-8 28 -8 5z"/>
<path d="M2436 4330 c4 -19 12 -46 20 -60 18 -35 17 -24 -6 40 -14 38 -18 44
-14 20z"/>
<path d="M2470 4236 c0 -2 8 -10 18 -17 15 -13 16 -12 3 4 -13 16 -21 21 -21
13z"/>
<path d="M2089 4194 c-7 -21 -6 -32 7 -51 9 -14 14 -38 12 -54 -3 -15 -1 -26
2 -24 11 7 39 -98 35 -130 -4 -23 -2 -21 6 8 9 29 8 46 -3 75 -9 23 -13 61
-11 99 5 89 -25 137 -48 77z"/>
<path d="M3357 4191 c-4 -17 -3 -21 5 -13 5 5 8 16 6 23 -3 8 -7 3 -11 -10z"/>
<path d="M2165 4020 c2 -25 0 -76 -5 -114 -5 -41 -5 -77 1 -90 8 -19 9 -18 6
6 -2 15 0 25 4 22 5 -3 10 -22 11 -42 l1 -37 8 45 c6 33 7 20 5 -50 -2 -52 -1
-84 1 -70 3 14 10 30 17 35 7 6 15 17 19 25 3 8 7 -21 8 -65 l2 -80 7 60 7 60
1 -57 c1 -33 7 -58 13 -58 5 0 7 -4 4 -10 -3 -5 -2 -10 3 -10 5 0 13 10 17 23
6 18 8 19 12 5 2 -9 11 -19 19 -22 15 -6 20 9 5 19 -13 7 -41 64 -41 82 0 8
-4 11 -10 8 -5 -3 -10 1 -10 10 0 14 -19 54 -31 65 -13 12 -45 113 -61 195
-10 50 -16 70 -13 45z m24 -155 c0 -5 -4 -3 -9 5 -5 8 -9 22 -9 30 0 16 17
-16 18 -35z m28 -112 c-3 -10 -5 -2 -5 17 0 19 2 27 5 18 2 -10 2 -26 0 -35z
m60 -120 c-3 -10 -5 -4 -5 12 0 17 2 24 5 18 2 -7 2 -21 0 -30z"/>
<path d="M2333 3995 c0 -22 2 -30 4 -17 2 12 2 30 0 40 -3 9 -5 -1 -4 -23z"/>
<path d="M3347 3858 c-14 -20 -18 -45 -17 -110 0 -69 16 -182 19 -140 1 7 6
10 12 7 6 -4 8 -13 5 -21 -3 -7 -1 -16 4 -19 15 -9 -5 92 -23 114 -7 8 -7 12
-2 9 6 -4 10 11 10 37 0 24 -3 41 -6 39 -10 -6 -4 74 6 83 4 5 5 -3 2 -16 -4
-16 -3 -21 4 -14 6 6 9 21 7 34 l-3 24 -18 -27z"/>
<path d="M2149 3768 c4 -28 6 -29 9 -9 2 13 0 27 -5 32 -6 6 -7 -3 -4 -23z"/>
<path d="M2173 3725 c0 -22 2 -30 4 -17 2 12 2 30 0 40 -3 9 -5 -1 -4 -23z"/>
<path d="M2070 3726 c0 -14 4 -27 8 -30 5 -3 6 8 4 25 -5 35 -12 38 -12 5z"/>
<path d="M2002 3710 c0 -14 2 -19 5 -12 2 6 2 18 0 25 -3 6 -5 1 -5 -13z"/>
<path d="M1974 3598 c-4 -7 -14 -22 -21 -34 -11 -17 -11 -21 0 -21 17 0 49 55
37 62 -5 3 -12 0 -16 -7z"/>
<path d="M2270 3561 c0 -11 4 -22 9 -25 4 -3 6 6 3 19 -5 30 -12 33 -12 6z"/>
<path d="M3350 3564 c0 -25 32 -102 43 -100 16 2 15 21 0 20 -7 -1 -13 2 -13
7 0 5 5 9 10 9 7 0 7 6 1 18 -17 30 -40 57 -41 46z"/>
<path d="M1876 3551 c-4 -5 -2 -12 3 -15 5 -4 12 -2 15 3 4 5 2 12 -3 15 -5 4
-12 2 -15 -3z"/>
<path d="M2375 3530 c-16 -4 -22 -8 -12 -9 12 -1 16 -6 11 -13 -4 -7 2 -4 14
6 19 16 29 29 20 25 -2 -1 -16 -5 -33 -9z"/>
<path d="M2110 3511 c0 -6 4 -13 10 -16 6 -3 7 1 4 9 -7 18 -14 21 -14 7z"/>
<path d="M2010 3451 c0 -11 4 -22 9 -25 5 -3 8 5 7 19 -1 29 -16 34 -16 6z"/>
<path d="M3401 3428 c6 -13 28 -36 48 -53 39 -33 25 -10 -26 42 -25 26 -30 28
-22 11z"/>
<path d="M3420 3436 c0 -2 8 -10 18 -17 15 -13 16 -12 3 4 -13 16 -21 21 -21
13z"/>
<path d="M1850 3395 c0 -5 5 -17 10 -25 5 -8 10 -10 10 -5 0 6 -5 17 -10 25
-5 8 -10 11 -10 5z"/>
<path d="M1780 3370 c-30 -19 11 -35 75 -30 24 2 21 4 -15 9 -28 4 -44 11 -42
19 2 14 1 15 -18 2z"/>
<path d="M3460 3326 c16 -25 35 -48 41 -52 6 -3 -6 17 -26 45 -45 63 -58 68
-15 7z"/>
<path d="M1715 3230 c-3 -6 6 -15 22 -21 15 -6 35 -16 43 -24 8 -7 44 -29 80
-47 52 -27 70 -42 89 -78 34 -65 52 -92 56 -88 3 2 -12 35 -32 74 -19 38 -41
79 -47 91 -6 13 -14 23 -18 23 -5 0 -8 7 -8 15 0 9 6 12 15 9 8 -4 15 -2 15 3
0 6 -19 18 -41 29 -38 17 -43 17 -68 2 -25 -14 -31 -14 -64 3 -22 12 -38 15
-42 9z m135 -35 c0 -8 -4 -15 -10 -15 -5 0 -7 7 -4 15 4 8 8 15 10 15 2 0 4
-7 4 -15z m43 -12 c-4 -11 -8 -12 -13 -2 -6 8 -9 6 -13 -7 -3 -14 -5 -12 -6 8
-1 21 3 25 18 21 12 -3 17 -11 14 -20z"/>
<path d="M1546 3171 c-8 -13 -5 -14 46 -11 20 1 52 -5 70 -13 18 -9 42 -18 53
-21 28 -9 106 -83 142 -136 17 -25 59 -67 94 -94 l64 -48 -61 59 c-34 32 -76
79 -92 104 -17 25 -52 63 -79 84 -26 22 -50 42 -53 45 -23 26 -172 51 -184 31z"/>
<path d="M2032 3152 c-22 -7 -32 -48 -21 -81 6 -16 38 -53 72 -82 34 -29 49
-38 33 -21 -17 18 -31 39 -32 48 -3 21 -14 31 -14 14 0 -8 -11 1 -25 20 -29
39 -32 65 -9 78 19 11 15 31 -4 24z"/>
<path d="M1600 3132 c0 -10 33 -42 43 -42 4 0 7 7 7 15 0 8 -7 15 -15 15 -8 0
-15 5 -15 10 0 6 -4 10 -10 10 -5 0 -10 -4 -10 -8z"/>
<path d="M1656 3095 c-4 -10 6 -20 31 -30 42 -18 54 -14 18 5 -14 7 -25 19
-25 27 0 18 -16 17 -24 -2z"/>
<path d="M1560 3083 c0 -19 11 -43 21 -43 13 0 11 14 -6 36 -8 10 -15 14 -15
7z"/>
<path d="M1597 3044 c-13 -13 -7 -23 28 -55 40 -37 88 -60 159 -78 85 -21 135
-58 216 -159 14 -18 38 -34 55 -37 l30 -6 -32 16 c-17 9 -44 36 -58 58 -31 48
-114 126 -134 127 -7 0 -34 10 -60 23 -25 13 -51 22 -58 20 -6 -2 -14 5 -18
17 -3 11 -11 18 -16 14 -5 -3 -6 -10 -3 -16 16 -26 -47 27 -66 55 -19 29 -21
30 -15 7 l6 -25 -14 23 c-7 12 -16 19 -20 16z"/>
<path d="M1691 2994 c0 -11 3 -14 6 -6 3 7 2 16 -1 19 -3 4 -6 -2 -5 -13z"/>
<path d="M2343 2953 c9 -2 23 -2 30 0 6 3 -1 5 -18 5 -16 0 -22 -2 -12 -5z"/>
<path d="M1990 2910 c0 -5 13 -10 29 -10 20 0 36 -9 51 -27 46 -60 68 -103 75
-144 7 -44 65 -129 87 -129 6 0 -6 18 -25 39 -25 28 -38 53 -43 86 -6 46 -50
127 -92 173 -22 22 -82 32 -82 12z"/>
<path d="M2388 2907 c-32 -5 -58 -13 -58 -16 0 -17 48 -61 73 -67 23 -5 27 -3
27 14 0 28 -17 36 -29 15 -9 -16 -10 -16 -8 4 1 19 10 24 55 34 69 14 147 -8
210 -58 46 -38 58 -31 15 9 -64 58 -181 85 -285 65z m29 -69 c-3 -8 -6 -5 -6
6 -1 11 2 17 5 13 3 -3 4 -12 1 -19z"/>
<path d="M1832 2820 c5 -15 26 -28 81 -49 22 -9 25 -14 16 -24 -16 -17 -69
-21 -69 -6 0 8 -4 8 -13 1 -10 -9 -19 -7 -35 4 -28 19 -29 3 -1 -22 44 -39
164 -10 157 39 -2 17 -13 23 -53 30 -27 5 -58 16 -69 25 -15 14 -18 14 -14 2z"/>
<path d="M1870 2749 c0 -5 5 -7 10 -4 6 3 10 8 10 11 0 2 -4 4 -10 4 -5 0 -10
-5 -10 -11z"/>
<path d="M2270 2740 c0 -6 7 -10 15 -8 8 2 32 -19 52 -46 44 -57 63 -68 62
-34 0 13 -3 17 -6 10 -2 -6 -9 -10 -13 -7 -5 3 -7 11 -4 18 3 8 0 24 -5 38 -5
13 -10 18 -10 12 -1 -7 -6 -13 -13 -13 -6 0 -8 3 -5 7 10 9 -25 32 -50 33 -13
0 -23 -5 -23 -10z"/>
<path d="M3638 2704 c-15 -8 -35 -28 -43 -45 -9 -16 -20 -27 -25 -24 -5 3 -23
-12 -40 -34 -17 -21 -47 -47 -66 -57 -19 -10 -34 -22 -34 -27 0 -13 72 32 102
64 15 16 30 29 33 29 3 0 21 18 41 40 19 21 44 42 55 45 10 4 19 11 19 16 0
12 -10 11 -42 -7z"/>
<path d="M2270 2682 c0 -33 59 -112 106 -141 25 -16 64 -33 87 -36 23 -4 48
-12 55 -17 6 -6 12 -7 12 -2 0 20 -17 31 -54 38 -24 5 -47 17 -60 33 -18 24
-20 25 -27 7 -6 -15 -8 -13 -9 11 -1 26 -3 27 -10 10 -7 -17 -9 -16 -16 15 -6
29 -9 31 -15 15 -6 -17 -8 -16 -8 8 -1 16 -5 26 -11 22 -5 -3 -10 2 -10 12 0
10 -9 24 -20 31 -17 10 -20 10 -20 -6z m145 -132 c3 -5 1 -10 -4 -10 -6 0 -11
5 -11 10 0 6 2 10 4 10 3 0 8 -4 11 -10z"/>
<path d="M2406 2625 c-3 -8 -1 -15 3 -15 5 0 11 7 15 15 3 8 1 15 -3 15 -5 0
-11 -7 -15 -15z"/>
<path d="M2827 2624 c-10 -10 21 -62 45 -75 50 -27 128 -39 253 -39 131 0 212
13 294 46 55 22 47 29 -10 8 -64 -23 -284 -53 -259 -35 8 6 10 11 5 11 -6 0
-16 -5 -23 -12 -9 -9 -12 -9 -12 1 0 11 -3 11 -17 0 -13 -11 -17 -11 -21 -1
-3 10 -7 10 -18 1 -9 -7 -14 -8 -14 -1 0 6 -14 9 -31 7 -17 -3 -47 2 -66 10
-19 8 -40 12 -46 8 -5 -3 -7 -1 -4 4 4 6 -5 14 -20 18 -21 5 -24 8 -13 15 12
7 11 10 -5 16 -11 4 -23 11 -26 16 -3 5 -8 5 -12 2z"/>
<path d="M2095 2610 c-16 -7 -17 -9 -3 -9 9 -1 20 4 23 9 7 11 7 11 -20 0z"/>
<path d="M2440 2590 c6 -11 13 -20 16 -20 2 0 0 9 -6 20 -6 11 -13 20 -16 20
-2 0 0 -9 6 -20z"/>
<path d="M2677 2533 c-13 -13 -7 -21 12 -16 20 5 89 -54 110 -94 14 -28 104
-148 141 -188 15 -16 44 -61 64 -100 20 -38 57 -92 82 -120 l45 -50 -41 55
c-23 30 -57 84 -75 120 -18 36 -57 94 -86 130 -29 36 -68 90 -87 120 -64 101
-141 168 -165 143z"/>
<path d="M2815 2500 c-9 -14 19 -48 123 -152 75 -76 95 -91 150 -109 35 -12
65 -19 68 -17 2 3 -24 13 -57 23 -54 17 -72 30 -142 99 -44 44 -93 100 -108
124 -15 24 -30 38 -34 32z"/>
<path d="M2472 2446 c-11 -25 -6 -66 9 -66 5 0 7 11 3 25 -4 16 -2 25 6 25 6
0 9 -4 6 -9 -3 -5 3 -20 15 -32 19 -23 19 -23 10 -2 -6 12 -9 28 -6 35 3 8 -3
22 -13 31 -18 16 -19 16 -30 -7z"/>
<path d="M2985 2459 c-4 -6 -5 -12 -2 -15 2 -3 7 2 10 11 7 17 1 20 -8 4z"/>
<path d="M3506 2447 c3 -10 9 -15 12 -12 3 3 0 11 -7 18 -10 9 -11 8 -5 -6z"/>
<path d="M2571 2383 c12 -21 33 -49 47 -63 l26 -25 -17 25 c-9 14 -27 42 -39
62 -13 21 -27 38 -31 38 -5 0 1 -17 14 -37z"/>
<path d="M3279 2393 c-13 -16 -12 -17 4 -4 16 13 21 21 13 21 -2 0 -10 -8 -17
-17z"/>
<path d="M3349 2393 c-13 -16 -12 -17 4 -4 16 13 21 21 13 21 -2 0 -10 -8 -17
-17z"/>
<path d="M3487 2385 c-4 -8 -3 -16 1 -19 4 -3 9 4 9 15 2 23 -3 25 -10 4z"/>
<path d="M2710 2368 c0 -9 -6 -19 -12 -21 -10 -4 -10 -6 0 -6 14 -1 28 26 18
36 -3 4 -6 -1 -6 -9z"/>
<path d="M3207 2359 c-10 -6 -32 -8 -50 -4 -24 5 -28 4 -17 -4 8 -6 40 -10 70
-9 30 0 44 3 31 5 -19 4 -21 7 -10 14 20 12 -2 11 -24 -2z"/>
<path d="M2777 2215 c-4 -8 -2 -17 3 -20 6 -4 10 3 10 14 0 25 -6 27 -13 6z"/>
<path d="M3581 2194 c0 -11 3 -14 6 -6 3 7 2 16 -1 19 -3 4 -6 -2 -5 -13z"/>
<path d="M3408 2193 c7 -3 16 -2 19 1 4 3 -2 6 -13 5 -11 0 -14 -3 -6 -6z"/>
<path d="M2647 2173 c104 -88 297 -218 388 -263 79 -39 93 -42 178 -45 70 -3
82 -1 52 5 -22 5 -59 9 -82 9 -45 1 -128 30 -178 61 -74 47 -320 214 -325 220
-3 4 -16 12 -30 19 l-25 12 22 -18z"/>
<path d="M3450 2156 c34 -42 231 -74 279 -46 15 9 15 9 -1 10 -9 0 -24 10 -32
22 -9 12 -16 18 -16 12 0 -5 5 -15 12 -22 9 -9 0 -12 -43 -12 -57 0 -167 24
-183 41 -16 15 -30 10 -16 -5z"/>
<path d="M3541 2154 c0 -11 3 -14 6 -6 3 7 2 16 -1 19 -3 4 -6 -2 -5 -13z"/>
<path d="M3650 2161 c0 -6 4 -13 10 -16 6 -3 7 1 4 9 -7 18 -14 21 -14 7z"/>
<path d="M3082 2120 c0 -19 2 -27 5 -17 2 9 2 25 0 35 -3 9 -5 1 -5 -18z"/>
<path d="M3112 2120 c0 -14 2 -19 5 -12 2 6 2 18 0 25 -3 6 -5 1 -5 -13z"/>
<path d="M2901 2104 c0 -11 3 -14 6 -6 3 7 2 16 -1 19 -3 4 -6 -2 -5 -13z"/>
<path d="M2611 2084 c0 -11 3 -14 6 -6 3 7 2 16 -1 19 -3 4 -6 -2 -5 -13z"/>
<path d="M3447 2093 c-4 -3 -7 -11 -7 -17 0 -6 5 -5 12 2 6 6 9 14 7 17 -3 3
-9 2 -12 -2z"/>
<path d="M3121 2074 c0 -11 3 -14 6 -6 3 7 2 16 -1 19 -3 4 -6 -2 -5 -13z"/>
<path d="M3415 2070 c3 -5 8 -10 11 -10 2 0 4 5 4 10 0 6 -5 10 -11 10 -5 0
-7 -4 -4 -10z"/>
<path d="M3181 2067 c-2 -15 27 -75 40 -83 11 -6 12 -5 2 7 -6 8 -18 30 -26
49 -9 19 -16 31 -16 27z"/>
<path d="M2651 2024 c0 -11 3 -14 6 -6 3 7 2 16 -1 19 -3 4 -6 -2 -5 -13z"/>
<path d="M2682 1990 c0 -14 2 -19 5 -12 2 6 2 18 0 25 -3 6 -5 1 -5 -13z"/>
<path d="M2661 1974 c0 -11 3 -14 6 -6 3 7 2 16 -1 19 -3 4 -6 -2 -5 -13z"/>
<path d="M2800 1975 c-7 -9 -8 -15 -2 -15 5 0 12 7 16 15 3 8 4 15 2 15 -2 0
-9 -7 -16 -15z"/>
<path d="M3687 1950 c-3 -11 -1 -20 4 -20 5 0 9 9 9 20 0 11 -2 20 -4 20 -2 0
-6 -9 -9 -20z"/>
<path d="M2920 1890 c8 -5 20 -10 25 -10 6 0 3 5 -5 10 -8 5 -19 10 -25 10 -5
0 -3 -5 5 -10z"/>
<path d="M3783 1868 c7 -21 -1 -22 -58 -8 -52 12 -58 4 -8 -9 83 -23 160 -28
185 -14 22 14 22 14 1 10 -13 -3 -28 2 -38 13 -15 17 -53 22 -47 7 1 -4 2 -10
2 -13 0 -4 6 -1 14 5 8 7 17 8 20 3 3 -6 -4 -12 -17 -16 -16 -4 -28 1 -41 17
-14 16 -18 17 -13 5z"/>
<path d="M2950 1831 c0 -6 4 -13 10 -16 6 -3 7 1 4 9 -7 18 -14 21 -14 7z"/>
<path d="M3000 1810 c6 -11 13 -20 16 -20 2 0 0 9 -6 20 -6 11 -13 20 -16 20
-2 0 0 -9 6 -20z"/>
<path d="M3070 1806 c0 -2 8 -10 18 -17 15 -13 16 -12 3 4 -13 16 -21 21 -21
13z"/>
<path d="M2943 1785 c0 -8 7 -15 15 -15 12 0 12 3 2 15 -7 8 -13 15 -15 15 -1
0 -2 -7 -2 -15z"/>
<path d="M3356 1775 c4 -8 11 -15 16 -15 6 0 5 6 -2 15 -7 8 -14 15 -16 15 -2
0 -1 -7 2 -15z"/>
<path d="M3140 1766 c0 -2 8 -10 18 -17 15 -13 16 -12 3 4 -13 16 -21 21 -21
13z"/>
<path d="M3235 1750 c17 -19 41 -18 29 1 -3 5 -10 7 -15 4 -5 -4 -9 -1 -9 4 0
6 -5 11 -12 11 -6 0 -3 -8 7 -20z"/>
<path d="M3005 1679 c-4 -6 -5 -12 -2 -15 2 -3 7 2 10 11 7 17 1 20 -8 4z"/>
<path d="M3090 1636 c-8 -11 -9 -20 -1 -33 9 -16 10 -16 11 -1 0 14 8 16 58
11 31 -2 70 -9 86 -14 58 -18 60 -8 3 17 -32 14 -67 22 -77 19 -10 -3 -21 -1
-25 5 -9 15 -41 12 -55 -4z"/>
<path d="M3123 1575 c0 -22 2 -30 4 -17 2 12 2 30 0 40 -3 9 -5 -1 -4 -23z"/>
<path d="M3142 1580 c0 -14 2 -19 5 -12 2 6 2 18 0 25 -3 6 -5 1 -5 -13z"/>
<path d="M3158 1568 c-3 -55 1 -81 13 -92 9 -8 10 -7 4 3 -4 8 -7 38 -6 67 2
58 -8 76 -11 22z"/>
<path d="M3406 1587 c3 -10 9 -15 12 -12 3 3 0 11 -7 18 -10 9 -11 8 -5 -6z"/>
<path d="M3050 1581 c0 -17 54 -103 90 -145 14 -16 24 -32 23 -37 -2 -5 1 -8
6 -6 6 1 29 -13 53 -31 24 -18 70 -53 103 -78 69 -52 121 -80 220 -118 39 -15
86 -34 105 -43 43 -18 61 -23 123 -30 38 -5 47 -3 47 10 0 9 -9 22 -20 30 -12
8 -20 21 -18 28 2 8 -3 13 -10 11 -10 -2 -12 4 -7 20 5 18 4 20 -4 8 -10 -13
-15 -8 -12 13 0 4 -3 7 -9 7 -13 0 -13 -27 0 -35 5 -3 15 -16 22 -28 10 -20
10 -21 -6 -8 -15 13 -18 12 -23 -7 -3 -12 -9 -19 -15 -16 -5 4 -5 10 1 18 12
15 9 39 -8 60 -14 17 -32 13 -30 -7 0 -9 2 -8 6 1 2 6 9 9 14 6 6 -3 5 -12 -3
-21 -11 -13 -15 -10 -30 23 -10 22 -16 31 -14 22 6 -20 -10 -25 -16 -6 -8 23
-43 14 -58 -15 -15 -25 -17 -26 -35 -12 -19 14 -19 15 -1 8 11 -3 17 -2 15 3
-3 5 -11 21 -19 37 -10 20 -16 24 -22 15 -5 -9 -8 -8 -8 5 0 16 -2 17 -15 3
-8 -8 -15 -22 -15 -30 0 -9 -3 -16 -8 -16 -14 0 -87 43 -122 72 -68 57 -76 63
-86 66 -5 1 -9 8 -9 15 -1 6 -6 11 -13 9 -17 -3 -109 91 -155 158 -20 30 -37
49 -37 41z m471 -346 c8 18 9 19 6 1 -2 -21 -37 -32 -37 -12 0 22 15 29 19 9
3 -17 4 -17 12 2z m107 -40 c-3 -3 -9 2 -12 12 -6 14 -5 15 5 6 7 -7 10 -15 7
-18z m27 -16 c-4 -13 -3 -19 2 -16 5 4 10 0 10 -8 0 -17 0 -17 -21 -9 -12 5
-13 10 -4 30 14 30 22 32 13 3z"/>
<path d="M3193 1545 c0 -27 2 -38 4 -22 2 15 2 37 0 50 -2 12 -4 0 -4 -28z"/>
<path d="M3547 1517 c102 -113 196 -167 289 -167 48 0 53 8 27 46 -18 28 -22
128 -8 175 5 16 4 21 -3 14 -17 -17 -31 -106 -21 -132 12 -32 11 -56 -1 -48
-5 3 -10 1 -10 -4 0 -6 6 -11 14 -11 8 0 18 -4 21 -10 4 -6 -7 -10 -24 -10
-26 0 -31 4 -31 25 0 14 -5 25 -11 25 -6 0 -8 -9 -4 -20 10 -30 -19 -25 -33 5
-7 14 -12 45 -12 68 -1 30 -3 38 -10 26 -5 -9 -5 -31 0 -53 8 -37 8 -38 -18
-31 -15 3 -37 17 -49 31 -12 13 -25 23 -29 22 -3 -2 -12 11 -20 27 l-13 30 4
-30 5 -30 -14 30 c-9 17 -15 23 -16 15 0 -9 -6 -5 -15 10 -8 14 -14 21 -15 16
0 -6 -17 6 -37 25 -20 18 -5 -1 34 -44z"/>
<path d="M3731 1564 c0 -11 3 -14 6 -6 3 7 2 16 -1 19 -3 4 -6 -2 -5 -13z"/>
<path d="M3243 1535 c0 -22 2 -30 4 -17 2 12 2 30 0 40 -3 9 -5 -1 -4 -23z"/>
<path d="M3412 1540 c0 -14 2 -19 5 -12 2 6 2 18 0 25 -3 6 -5 1 -5 -13z"/>
<path d="M3780 1544 c0 -10 5 -26 10 -34 8 -11 9 -7 4 15 -8 37 -14 45 -14 19z"/>
<path d="M3222 1490 c0 -19 2 -27 5 -17 2 9 2 25 0 35 -3 9 -5 1 -5 -18z"/>
<path d="M3276 1485 c-3 -9 -6 -29 -5 -43 1 -22 3 -19 10 12 10 40 6 60 -5 31z"/>
<path d="M3691 1484 c0 -11 3 -14 6 -6 3 7 2 16 -1 19 -3 4 -6 -2 -5 -13z"/>
<path d="M3252 1465 c0 -16 2 -22 5 -12 2 9 2 23 0 30 -3 6 -5 -1 -5 -18z"/>
<path d="M3660 1470 c0 -11 4 -20 9 -20 5 0 7 9 4 20 -3 11 -7 20 -9 20 -2 0
-4 -9 -4 -20z"/>
<path d="M3777 1451 c-4 -17 -3 -21 5 -13 5 5 8 16 6 23 -3 8 -7 3 -11 -10z"/>
<path d="M3201 1452 c-1 -8 -6 -10 -13 -6 -10 5 -10 4 -1 -6 15 -16 28 -8 20
12 -4 11 -6 11 -6 0z"/>
<path d="M3317 1437 c-11 -29 -9 -43 4 -30 6 6 9 19 7 29 -3 18 -4 18 -11 1z"/>
<path d="M3231 1414 c0 -11 3 -14 6 -6 3 7 2 16 -1 19 -3 4 -6 -2 -5 -13z"/>
<path d="M3352 1380 c0 -14 2 -19 5 -12 2 6 2 18 0 25 -3 6 -5 1 -5 -13z"/>
<path d="M3325 1340 c-3 -5 -1 -10 4 -10 6 0 11 5 11 10 0 6 -2 10 -4 10 -3 0
-8 -4 -11 -10z"/>
<path d="M3357 1343 c-4 -3 -7 -11 -7 -17 0 -6 5 -5 12 2 6 6 9 14 7 17 -3 3
-9 2 -12 -2z"/>
<path d="M3367 1313 c-10 -9 -9 -23 1 -23 5 0 9 7 9 15 0 17 -1 18 -10 8z"/>
<path d="M3451 1294 c0 -11 3 -14 6 -6 3 7 2 16 -1 19 -3 4 -6 -2 -5 -13z"/>
<path d="M3471 1284 c0 -11 3 -14 6 -6 3 7 2 16 -1 19 -3 4 -6 -2 -5 -13z"/>
<path d="M3395 1280 c-3 -5 -1 -10 4 -10 6 0 11 5 11 10 0 6 -2 10 -4 10 -3 0
-8 -4 -11 -10z"/>
<path d="M3446 1248 c3 -5 10 -6 15 -3 13 9 11 12 -6 12 -8 0 -12 -4 -9 -9z"/>
<path d="M3567 1246 c-4 -10 -5 -21 -2 -24 9 -9 17 6 13 25 -3 17 -4 17 -11
-1z"/>
<path d="M3649 1023 c-13 -16 -12 -17 4 -4 9 7 17 15 17 17 0 8 -8 3 -21 -13z"/>
<path d="M2029 4598 c-4 -12 -5 -57 0 -53 6 6 10 55 4 55 -1 0 -3 -1 -4 -2z"/>
<path d="M1865 4139 c-4 -6 -5 -12 -2 -15 2 -3 7 2 10 11 7 17 1 20 -8 4z"/>
<path d="M1887 4136 c-4 -10 -1 -13 9 -9 15 6 19 23 5 23 -5 0 -11 -7 -14 -14z"/>
<path d="M2270 3261 c0 -6 4 -13 10 -16 6 -3 7 1 4 9 -7 18 -14 21 -14 7z"/>
<path d="M2240 3201 c0 -6 4 -13 10 -16 6 -3 7 1 4 9 -7 18 -14 21 -14 7z"/>
<path d="M3481 3071 c-12 -8 -12 -14 -2 -39 7 -17 11 -35 8 -39 -3 -5 -2 -15
4 -23 5 -8 9 -10 10 -5 5 56 5 72 -3 87 -5 10 -3 18 5 21 6 3 8 6 2 6 -5 0
-16 -3 -24 -8z m19 -46 c0 -5 -5 -3 -10 5 -5 8 -10 20 -10 25 0 6 5 3 10 -5 5
-8 10 -19 10 -25z"/>
<path d="M3438 3014 c-3 -12 -2 -28 3 -35 7 -12 9 -12 9 0 0 11 4 9 16 -5 14
-18 15 -18 4 4 -8 16 -8 22 0 22 6 0 8 5 4 11 -5 8 -9 7 -14 -1 -6 -9 -9 -8
-12 6 -3 17 -4 17 -10 -2z"/>
<path d="M3577 2993 c-4 -3 -7 -16 -7 -27 0 -17 -2 -18 -10 -6 -6 9 -10 10
-10 3 0 -6 5 -15 11 -19 7 -4 9 -21 6 -43 -5 -31 -4 -33 5 -16 14 24 18 55 7
55 -4 0 -4 14 1 30 9 31 8 35 -3 23z"/>
<path d="M3453 2935 c0 -8 4 -12 9 -9 4 3 8 9 8 15 0 5 -4 9 -8 9 -5 0 -9 -7
-9 -15z"/>
<path d="M3500 2939 c0 -5 -4 -8 -8 -5 -10 6 -9 -40 1 -50 4 -5 5 0 1 10 -5
13 -4 17 4 12 8 -5 10 -1 5 10 -5 14 -3 16 12 11 15 -6 16 -5 5 8 -15 18 -20
19 -20 4z"/>
<path d="M1027 2843 c-13 -12 -7 -23 14 -23 11 0 17 -4 14 -10 -3 -5 1 -10 10
-10 24 0 12 24 -13 28 -12 2 -20 8 -17 13 7 10 1 12 -8 2z"/>
<path d="M1030 2801 c0 -6 4 -13 10 -16 6 -3 7 1 4 9 -7 18 -14 21 -14 7z"/>
<path d="M1826 2472 c-3 -5 1 -9 9 -9 8 0 12 4 9 9 -3 4 -7 8 -9 8 -2 0 -6 -4
-9 -8z"/>
<path d="M2103 2282 c-1 -22 0 -24 9 -8 6 10 6 22 2 26 -5 5 -10 -3 -11 -18z"/>
<path d="M2640 1770 c-8 -5 -10 -10 -5 -10 6 0 17 5 25 10 8 5 11 10 5 10 -5
0 -17 -5 -25 -10z"/>
<path d="M2901 1524 c0 -11 3 -14 6 -6 3 7 2 16 -1 19 -3 4 -6 -2 -5 -13z"/>
<path d="M2931 1514 c0 -11 3 -14 6 -6 3 7 2 16 -1 19 -3 4 -6 -2 -5 -13z"/>
<path d="M2962 1500 c0 -14 2 -19 5 -12 2 6 2 18 0 25 -3 6 -5 1 -5 -13z"/>
<path d="M1115 2740 c-3 -6 1 -7 9 -4 18 7 21 14 7 14 -6 0 -13 -4 -16 -10z"/>
<path d="M1300 2741 c0 -6 12 -16 28 -22 59 -24 73 -34 131 -88 69 -64 85
-103 51 -121 -22 -12 -23 -25 -9 -125 1 -5 5 8 9 30 4 22 4 45 -1 51 -6 7 -2
20 10 35 l20 24 7 -33 c4 -21 10 -30 16 -24 6 6 3 24 -6 47 -9 21 -16 45 -16
54 0 18 -74 101 -90 101 -6 0 -10 4 -10 10 0 5 -19 20 -42 34 -52 30 -98 43
-98 27z"/>
<path d="M1019 2573 c-13 -17 -13 -17 6 -3 11 8 22 16 24 17 2 2 0 3 -6 3 -6
0 -17 -8 -24 -17z"/>
<path d="M1570 2575 c0 -6 40 -77 51 -91 4 -5 15 -35 23 -65 21 -78 38 -122
53 -137 16 -16 17 -36 2 -26 -15 9 -1 -38 15 -51 7 -5 12 -20 11 -32 -1 -12 2
-20 6 -17 12 7 16 -39 4 -60 -7 -14 -7 -20 3 -23 10 -4 10 -8 0 -21 -10 -12
-10 -14 0 -8 9 5 12 -3 12 -29 0 -20 -4 -34 -8 -31 -4 2 -9 -5 -9 -17 -2 -16
0 -18 6 -8 5 7 13 11 18 8 16 -10 2 149 -22 243 -47 179 -127 370 -156 370 -5
0 -9 -2 -9 -5z"/>
<path d="M1630 2530 c0 -5 5 -10 11 -10 5 0 7 5 4 10 -3 6 -8 10 -11 10 -2 0
-4 -4 -4 -10z"/>
<path d="M934 2448 l-19 -23 23 19 c21 18 27 26 19 26 -2 0 -12 -10 -23 -22z"/>
<path d="M909 2393 c-13 -16 -12 -17 4 -4 9 7 17 15 17 17 0 8 -8 3 -21 -13z"/>
<path d="M1520 2333 c0 -4 5 -15 10 -23 8 -13 10 -13 10 2 0 9 -4 20 -10 23
-5 3 -10 3 -10 -2z"/>
<path d="M829 2303 c-13 -16 -12 -17 4 -4 9 7 17 15 17 17 0 8 -8 3 -21 -13z"/>
<path d="M1380 2194 c-24 -54 -27 -93 -4 -51 8 15 16 27 17 27 1 0 3 -26 5
-57 1 -31 6 -61 10 -67 4 -6 8 -53 7 -103 0 -51 3 -93 7 -93 4 0 12 -15 18
-32 l10 -33 -6 35 c-10 50 -12 92 -6 113 4 17 6 17 14 3 6 -10 4 -24 -3 -38
-11 -21 -11 -22 4 -9 10 8 17 9 17 3 0 -6 -4 -13 -9 -16 -10 -7 -7 -152 4
-187 l8 -24 8 29 c4 16 6 43 3 60 -4 30 -4 30 7 6 7 -14 13 -38 14 -55 1 -16
8 -50 15 -75 8 -25 13 -47 13 -50 0 -3 -3 -27 -6 -55 l-6 -50 14 45 15 45 -5
-50 c-3 -38 -2 -45 5 -30 8 15 9 9 5 -25 -5 -45 -5 -45 9 -15 14 29 14 28 10
-25 -2 -30 -1 -47 3 -38 13 29 36 5 31 -31 -2 -17 -1 -31 4 -31 4 0 8 8 9 18
0 15 2 14 10 -3 l9 -20 -4 20 c-3 11 -23 67 -44 125 -22 58 -47 141 -56 185
-38 180 -46 223 -56 290 -5 39 -11 99 -14 135 -6 84 -32 170 -52 170 -8 0 -24
-21 -34 -46z m48 -2 c2 -7 -5 -12 -17 -12 -14 0 -19 5 -14 15 6 17 25 15 31
-3z m49 -394 c-3 -8 -6 -5 -6 6 -1 11 2 17 5 13 3 -3 4 -12 1 -19z m1 -78 c0
-9 -3 -7 -8 5 -5 11 -8 29 -8 40 0 16 2 15 8 -5 4 -14 8 -32 8 -40z"/>
<path d="M789 2193 c-13 -16 -12 -17 4 -4 9 7 17 15 17 17 0 8 -8 3 -21 -13z"/>
<path d="M1090 2149 c0 -5 5 -7 10 -4 6 3 10 8 10 11 0 2 -4 4 -10 4 -5 0 -10
-5 -10 -11z"/>
<path d="M735 2110 c-3 -6 1 -7 9 -4 18 7 21 14 7 14 -6 0 -13 -4 -16 -10z"/>
<path d="M665 2000 c-10 -11 -15 -20 -10 -20 4 0 1 -8 -6 -17 -7 -10 -2 -8 12
5 14 12 26 29 26 37 0 19 0 19 -22 -5z"/>
<path d="M2198 2013 c7 -3 16 -2 19 1 4 3 -2 6 -13 5 -11 0 -14 -3 -6 -6z"/>
<path d="M1912 1980 c0 -19 2 -27 5 -17 2 9 2 25 0 35 -3 9 -5 1 -5 -18z"/>
<path d="M2238 1963 c6 -2 18 -2 25 0 6 3 1 5 -13 5 -14 0 -19 -2 -12 -5z"/>
<path d="M1761 1934 c0 -11 3 -14 6 -6 3 7 2 16 -1 19 -3 4 -6 -2 -5 -13z"/>
<path d="M634 1888 l-29 -33 33 29 c17 17 32 31 32 33 0 8 -8 1 -36 -29z"/>
<path d="M1762 1870 c0 -14 2 -19 5 -12 2 6 2 18 0 25 -3 6 -5 1 -5 -13z"/>
<path d="M1222 1848 c-7 -7 -12 -23 -12 -37 0 -35 33 -171 41 -171 4 0 1 23
-6 51 -11 42 -11 58 0 95 7 24 9 44 5 44 -5 0 -11 -6 -13 -12 -3 -8 -6 -6 -6
4 -1 9 7 22 17 27 14 9 14 10 2 11 -9 0 -21 -5 -28 -12z"/>
<path d="M579 1833 c-13 -16 -12 -17 4 -4 9 7 17 15 17 17 0 8 -8 3 -21 -13z"/>
<path d="M1411 1824 c0 -11 3 -14 6 -6 3 7 2 16 -1 19 -3 4 -6 -2 -5 -13z"/>
<path d="M589 1803 l-24 -28 28 24 c25 23 32 31 24 31 -2 0 -14 -12 -28 -27z"/>
<path d="M1421 1784 c0 -11 3 -14 6 -6 3 7 2 16 -1 19 -3 4 -6 -2 -5 -13z"/>
<path d="M1291 1774 c0 -11 3 -14 6 -6 3 7 2 16 -1 19 -3 4 -6 -2 -5 -13z"/>
<path d="M569 1743 c-13 -16 -12 -17 4 -4 9 7 17 15 17 17 0 8 -8 3 -21 -13z"/>
<path d="M1251 1714 c0 -11 3 -14 6 -6 3 7 2 16 -1 19 -3 4 -6 -2 -5 -13z"/>
<path d="M1435 1720 c3 -5 8 -10 11 -10 2 0 4 5 4 10 0 6 -5 10 -11 10 -5 0
-7 -4 -4 -10z"/>
<path d="M529 1703 c-13 -16 -12 -17 4 -4 9 7 17 15 17 17 0 8 -8 3 -21 -13z"/>
<path d="M1291 1664 c0 -11 3 -14 6 -6 3 7 2 16 -1 19 -3 4 -6 -2 -5 -13z"/>
<path d="M1452 1655 c0 -16 2 -22 5 -12 2 9 2 23 0 30 -3 6 -5 -1 -5 -18z"/>
<path d="M2155 1669 c-4 -6 -5 -12 -2 -15 2 -3 7 2 10 11 7 17 1 20 -8 4z"/>
<path d="M1492 1630 c0 -14 2 -19 5 -12 2 6 2 18 0 25 -3 6 -5 1 -5 -13z"/>
<path d="M503 1626 c1 -6 -5 -9 -13 -8 -8 2 -12 0 -8 -4 4 -4 2 -14 -4 -23 -7
-9 2 -3 20 13 37 34 36 33 18 33 -8 0 -14 -5 -13 -11z"/>
<path d="M1462 1580 c0 -14 2 -19 5 -12 2 6 2 18 0 25 -3 6 -5 1 -5 -13z"/>
<path d="M1482 1575 c0 -16 2 -22 5 -12 2 9 2 23 0 30 -3 6 -5 -1 -5 -18z"/>
<path d="M1512 1570 c0 -19 2 -27 5 -17 2 9 2 25 0 35 -3 9 -5 1 -5 -18z"/>
<path d="M504 1574 c-18 -14 -18 -15 4 -4 12 6 22 13 22 15 0 8 -5 6 -26 -11z"/>
<path d="M1272 1565 c0 -16 2 -22 5 -12 2 9 2 23 0 30 -3 6 -5 -1 -5 -18z"/>
<path d="M1321 1559 c0 -15 6 -32 14 -39 13 -10 15 -9 15 11 0 18 -2 21 -9 10
-7 -11 -10 -7 -14 15 -4 28 -4 28 -6 3z"/>
<path d="M1301 1554 c0 -11 3 -14 6 -6 3 7 2 16 -1 19 -3 4 -6 -2 -5 -13z"/>
<path d="M444 1508 l-19 -23 23 19 c21 18 27 26 19 26 -2 0 -12 -10 -23 -22z"/>
<path d="M1502 1480 c0 -14 2 -19 5 -12 2 6 2 18 0 25 -3 6 -5 1 -5 -13z"/>
<path d="M2620 1375 c0 -8 4 -15 10 -15 5 0 7 7 4 15 -4 8 -8 15 -10 15 -2 0
-4 -7 -4 -15z"/>
<path d="M1585 1367 c-6 -7 -10 -18 -9 -24 1 -7 3 -23 4 -35 1 -16 5 -11 11
16 11 45 9 59 -6 43z"/>
<path d="M2092 1340 c0 -19 2 -27 5 -17 2 9 2 25 0 35 -3 9 -5 1 -5 -18z"/>
<path d="M1640 1269 c-12 -22 -12 -23 3 -10 14 11 17 11 17 1 0 -8 3 -11 6 -7
3 3 1 13 -4 23 -9 16 -11 15 -22 -7z"/>
<path d="M2102 1265 c0 -16 2 -22 5 -12 2 9 2 23 0 30 -3 6 -5 -1 -5 -18z"/>
<path d="M1607 1241 c-4 -17 -3 -21 5 -13 5 5 8 16 6 23 -3 8 -7 3 -11 -10z"/>
<path d="M2111 1214 c0 -11 3 -14 6 -6 3 7 2 16 -1 19 -3 4 -6 -2 -5 -13z"/>
<path d="M2610 1215 c0 -8 8 -15 18 -14 10 0 12 3 4 6 -6 2 -10 9 -6 14 3 5 0
9 -5 9 -6 0 -11 -7 -11 -15z"/>
<path d="M1631 1184 c0 -11 3 -14 6 -6 3 7 2 16 -1 19 -3 4 -6 -2 -5 -13z"/>
<path d="M3077 1158 c-21 -11 -21 -36 -2 -62 13 -17 15 -18 15 -3 0 9 0 20 -1
24 0 3 6 10 15 15 9 5 16 13 16 17 0 14 -25 20 -43 9z"/>
<path d="M1632 1140 c0 -14 2 -19 5 -12 2 6 2 18 0 25 -3 6 -5 1 -5 -13z"/>
<path d="M2605 1079 c-11 -16 -1 -19 13 -3 7 8 8 14 3 14 -5 0 -13 -5 -16 -11z"/>
<path d="M3091 1054 c0 -11 3 -14 6 -6 3 7 2 16 -1 19 -3 4 -6 -2 -5 -13z"/>
<path d="M3101 1004 c0 -11 3 -14 6 -6 3 7 2 16 -1 19 -3 4 -6 -2 -5 -13z"/>
<path d="M3111 964 c0 -11 3 -14 6 -6 3 7 2 16 -1 19 -3 4 -6 -2 -5 -13z"/>
<path d="M2553 815 c0 -22 2 -30 4 -17 2 12 2 30 0 40 -3 9 -5 -1 -4 -23z"/>
<path d="M2682 340 c0 -14 2 -19 5 -12 2 6 2 18 0 25 -3 6 -5 1 -5 -13z"/>
</g>
</svg>
