<?xml version="1.0" standalone="no"?>
<!DOCTYPE svg PUBLIC "-//W3C//DTD SVG 20010904//EN"
 "http://www.w3.org/TR/2001/REC-SVG-20010904/DTD/svg10.dtd">
<svg version="1.0" xmlns="http://www.w3.org/2000/svg"
 width="413.000000pt" height="605.000000pt" viewBox="0 0 413.000000 605.000000"
 preserveAspectRatio="xMidYMid meet">

<g transform="translate(0.000000,605.000000) scale(0.100000,-0.100000)"
fill="#000000" stroke="none">
<path d="M1768 6033 c-35 -39 -80 -151 -143 -349 -54 -171 -68 -229 -76 -319
-6 -61 -17 -123 -26 -139 -8 -15 -21 -67 -28 -115 -7 -47 -25 -130 -39 -183
-15 -53 -33 -134 -41 -180 -21 -119 -30 -357 -16 -452 7 -48 8 -83 2 -89 -5
-5 3 -20 22 -38 18 -16 27 -29 20 -29 -6 0 -15 5 -18 10 -3 6 -15 10 -25 10
-10 0 -23 7 -28 16 -8 14 -11 14 -26 -7 -13 -19 -16 -46 -15 -129 1 -58 4 -94
6 -80 8 46 20 42 26 -10 6 -48 38 -110 57 -110 5 0 21 -10 37 -23 15 -13 44
-29 63 -37 19 -7 41 -20 48 -28 17 -22 16 -107 -3 -122 -9 -8 -15 -8 -15 -2 0
11 -38 27 -46 19 -3 -2 1 -16 7 -31 9 -19 9 -32 2 -49 -6 -12 -14 -30 -17 -40
-4 -11 -11 -15 -18 -11 -7 4 -6 -1 3 -12 16 -18 37 -134 25 -134 -9 0 -36 70
-37 94 0 20 -1 20 -10 -3 -5 -13 -9 -35 -8 -50 1 -14 -2 -35 -6 -46 -5 -16 -5
-17 4 -5 7 9 11 10 11 3 0 -6 -4 -14 -9 -17 -5 -3 -9 -24 -9 -47 -1 -22 -4
-54 -7 -70 -5 -21 -2 -36 9 -48 11 -12 15 -31 13 -55 -5 -42 -15 -56 -26 -37
-6 10 -10 9 -15 -4 -10 -28 -7 -53 9 -59 12 -4 14 -14 9 -38 -4 -18 -7 -41 -8
-50 0 -10 -4 -18 -9 -18 -5 0 -7 -12 -4 -26 2 -14 -3 -42 -13 -62 -10 -20 -16
-42 -13 -49 3 -7 0 -13 -6 -13 -6 0 -11 -7 -11 -15 0 -22 -16 -18 -38 10 -11
14 -25 25 -31 25 -20 0 8 -52 63 -114 73 -84 76 -91 40 -82 -16 4 -55 30 -86
57 -65 57 -77 45 -23 -22 l35 -44 -53 -3 c-71 -4 -121 6 -109 21 21 25 60 107
52 107 -16 0 -81 -73 -137 -153 -37 -52 -67 -84 -91 -95 -23 -11 -51 -39 -77
-77 -70 -104 -268 -285 -328 -300 -20 -5 -43 2 -94 31 -63 35 -74 38 -148 39
l-80 0 -1 50 c-2 145 -17 374 -25 402 -6 17 -25 43 -43 57 -27 20 -36 37 -50
93 -26 108 -23 130 21 150 32 16 40 26 55 78 10 33 30 72 45 87 27 28 27 27 1
136 -9 41 -9 62 0 97 27 100 8 160 -56 189 -35 16 -43 26 -62 78 -24 65 -42
78 -111 78 l-39 0 0 -1825 0 -1825 1625 0 c894 0 1625 4 1625 8 0 4 -15 22
-33 40 -33 32 -55 38 -178 47 -64 4 -111 52 -172 175 -26 52 -74 128 -107 169
-56 70 -71 101 -34 70 16 -13 16 -12 5 9 -15 28 -3 47 34 56 26 7 192 103 214
124 13 12 12 16 -5 26 -10 6 -44 14 -74 18 -48 5 -184 47 -275 84 -16 6 -66
27 -110 45 -44 18 -111 52 -149 76 -38 24 -92 53 -121 64 -30 11 -72 38 -96
62 -72 70 -319 335 -319 342 0 4 -8 14 -18 23 -10 10 -13 14 -6 9 6 -4 41 -22
77 -40 45 -22 101 -65 177 -137 62 -58 121 -111 131 -118 10 -7 56 -23 102
-37 46 -13 101 -31 123 -39 171 -64 213 -78 239 -80 17 -2 62 -13 101 -26 l70
-23 73 23 c40 13 75 28 77 34 5 12 168 15 180 3 4 -4 20 -7 36 -7 17 0 28 -5
28 -14 0 -8 6 -16 12 -18 17 -6 -9 -44 -69 -102 l-48 -46 35 -27 c19 -16 41
-35 47 -43 7 -8 26 -31 42 -50 26 -30 32 -33 49 -23 12 7 23 8 29 2 5 -5 9 -1
10 12 1 11 -18 49 -42 85 -24 35 -42 64 -39 64 2 0 60 -54 127 -120 67 -66
133 -123 147 -127 40 -9 89 -42 182 -120 136 -115 148 -137 103 -189 -14 -16
-32 -43 -40 -61 -9 -18 -19 -34 -24 -37 -10 -6 -77 55 -146 134 -26 30 -54 58
-60 62 -7 4 1 -36 20 -95 18 -56 45 -144 61 -194 l28 -93 243 0 243 0 0 146 0
146 -61 138 c-64 147 -96 204 -79 141 5 -19 8 -36 6 -38 -4 -4 -49 48 -123
139 -44 55 -56 65 -77 61 -15 -3 -55 10 -110 37 -59 29 -93 40 -110 36 -27 -7
-97 38 -116 75 -8 14 -18 19 -31 16 -15 -4 -22 5 -36 49 -17 57 -14 75 12 54
17 -14 20 -9 29 52 5 42 -1 45 -45 22 -35 -18 -35 -18 -57 28 -18 34 -52 51
-52 25 0 -21 -128 -51 -220 -51 -109 -1 -270 22 -300 41 -14 10 -38 19 -55 21
-16 2 -77 28 -135 57 -58 30 -132 63 -166 75 -78 27 -127 57 -118 72 4 6 3 8
-4 4 -5 -3 -12 -2 -14 2 -1 5 -22 21 -45 36 -24 14 -43 31 -43 37 0 5 -4 7
-10 4 -6 -3 -10 -1 -10 5 0 6 -18 28 -40 49 -22 21 -40 47 -40 57 0 11 -16 35
-35 54 -19 19 -35 39 -35 46 0 7 -31 44 -69 82 -37 38 -75 83 -84 101 l-16 31
33 -27 c18 -16 58 -49 88 -76 30 -26 59 -47 63 -47 5 0 39 -21 77 -46 38 -26
71 -44 74 -41 6 6 107 -57 229 -141 91 -63 217 -128 209 -107 -4 8 -4 15 -1
15 16 0 126 -55 147 -74 14 -13 45 -31 70 -40 41 -16 397 -126 408 -126 3 0
-8 10 -24 22 -16 13 -37 31 -46 40 -17 17 -17 18 2 18 24 0 25 17 5 67 -13 32
-30 46 -99 86 -46 26 -89 47 -95 47 -6 0 -11 5 -11 11 0 5 -4 8 -9 5 -12 -8
-95 30 -112 50 -7 8 -40 29 -73 46 -95 48 -165 95 -241 163 -38 34 -158 121
-265 192 -110 73 -216 152 -242 181 -26 27 -60 60 -75 72 -24 18 -20 17 20 -4
72 -39 140 -78 164 -94 21 -13 22 -13 18 17 -2 17 -2 31 0 31 2 0 16 -20 31
-45 27 -42 101 -95 135 -95 20 -1 75 -45 187 -148 203 -188 349 -284 586 -386
77 -33 94 -37 137 -31 27 4 49 12 49 19 0 16 -62 106 -130 191 -31 39 -73 97
-92 130 -24 40 -66 85 -122 133 -48 41 -84 77 -82 81 11 18 -377 251 -417 251
-24 0 -22 23 22 188 35 135 59 298 41 287 -4 -3 -18 11 -31 30 -13 19 -32 38
-41 41 -25 8 -22 23 3 17 19 -5 20 -4 8 15 -11 18 -9 23 21 49 18 15 42 31 53
36 22 8 21 -1 -7 -65 -18 -42 -8 -50 31 -23 24 17 40 88 28 125 -7 21 -7 21
-28 3 -38 -32 -88 -65 -93 -60 -11 11 194 207 248 237 32 18 60 36 63 41 4 5
37 29 75 53 70 46 131 122 153 191 5 17 25 63 45 104 20 40 37 78 37 85 1 6 5
19 9 29 5 11 6 57 3 103 -4 52 -2 86 4 90 6 3 8 13 4 21 -5 16 20 53 37 53 4
0 15 -18 24 -40 15 -38 16 -38 35 -22 37 35 61 225 44 354 -5 37 -3 74 6 106
11 47 14 49 33 39 12 -7 25 -16 29 -22 4 -5 5 4 1 20 -6 30 -6 30 10 8 16 -21
20 -38 32 -140 8 -62 -2 -123 -20 -123 -8 0 -21 -23 -30 -51 -10 -29 -24 -58
-32 -66 -16 -17 -19 -43 -4 -43 6 0 10 5 10 10 0 14 27 12 34 -2 3 -7 4 0 2
16 -5 34 10 80 22 72 5 -3 19 8 31 24 18 26 19 30 5 30 -12 0 -15 5 -9 23 3
12 7 29 7 37 0 8 5 35 10 60 5 25 10 60 10 78 0 17 4 32 10 32 5 0 6 -4 3 -10
-3 -5 -1 -10 5 -10 6 0 15 11 19 24 5 13 17 26 25 29 26 10 20 46 -9 53 -14 3
-25 11 -25 16 0 6 11 7 25 4 14 -4 25 -2 25 4 0 5 -7 10 -15 10 -16 0 -14 23
6 78 5 13 9 35 8 50 0 22 -3 19 -14 -16 -7 -24 -21 -52 -31 -63 -14 -15 -14
-21 -4 -34 14 -17 7 -19 -20 -5 -20 11 -17 41 3 37 7 -1 12 8 11 20 0 12 3 20
8 17 4 -3 8 15 8 40 0 24 3 51 6 59 3 10 -2 17 -13 20 -17 4 -17 5 0 6 10 0
15 6 12 11 -9 14 19 12 34 -2 11 -11 12 24 7 197 -3 116 -10 253 -16 305 -6
52 -15 149 -20 215 -10 149 -50 366 -85 464 -14 41 -30 109 -35 151 -5 42 -17
90 -27 108 l-18 32 -736 0 c-688 0 -737 -1 -751 -17z m105 -73 c-40 -39 -77
-70 -83 -70 -14 0 -12 40 4 69 18 32 84 71 121 71 29 -1 28 -2 -42 -70z m317
-104 c0 -7 -7 -19 -16 -27 -13 -10 -17 -10 -24 1 -10 17 5 40 26 40 8 0 14 -6
14 -14z m-247 -68 c-18 -21 -18 -21 9 -15 14 4 33 10 42 13 11 4 16 0 16 -14
0 -11 7 -25 15 -32 19 -16 6 -34 -44 -60 -20 -10 -45 -27 -55 -39 -17 -19 -17
-21 -3 -21 10 0 17 5 17 10 0 6 6 10 13 10 6 -1 2 -9 -11 -20 -20 -17 -22 -25
-17 -64 6 -40 9 -43 22 -31 21 21 43 18 43 -5 0 -11 7 -23 15 -26 11 -5 12
-11 4 -25 -5 -10 -7 -19 -5 -19 3 0 -4 -18 -15 -40 -11 -22 -19 -45 -17 -52 3
-7 10 4 17 24 7 21 21 40 32 43 10 4 19 11 19 16 0 6 9 32 21 59 18 42 25 48
55 52 23 3 34 0 34 -9 0 -7 -4 -13 -10 -13 -5 0 -10 -8 -10 -17 0 -28 -72
-125 -82 -111 -14 22 -49 -29 -42 -59 5 -20 0 -30 -21 -49 -36 -31 -38 -30
-30 5 7 32 -9 51 -28 32 -8 -8 -8 -11 1 -11 7 0 12 -4 12 -10 0 -5 -7 -7 -16
-3 -13 5 -15 -1 -12 -42 2 -34 -1 -49 -11 -53 -8 -3 -11 0 -7 6 11 18 -17 94
-36 100 -10 2 -18 9 -19 16 0 6 -6 -7 -14 -29 -7 -22 -13 -32 -14 -23 -1 9
-19 32 -42 51 -40 34 -40 36 -26 64 19 34 97 112 97 95 0 -24 16 -10 38 33 26
53 27 65 7 65 -8 0 -15 -4 -15 -9 0 -9 -41 -23 -48 -16 -2 2 13 13 35 24 21
11 32 20 24 21 -20 0 -82 -40 -76 -50 3 -5 1 -11 -5 -15 -5 -3 -10 -1 -10 5 0
6 -17 2 -40 -10 -21 -11 -44 -20 -50 -20 -18 0 15 40 50 62 27 16 31 23 27 47
-5 24 0 33 35 62 23 19 51 39 62 46 47 27 2 11 -58 -22 -68 -37 -77 -40 -74
-27 0 4 -2 15 -7 25 -8 19 7 42 28 42 11 0 13 5 16 47 2 25 35 31 75 14 29
-12 37 -12 46 -1 6 8 17 12 25 9 7 -3 17 1 21 8 7 10 9 9 12 -5 2 -10 -5 -28
-15 -39z m222 -78 c-10 -11 -20 -18 -23 -15 -7 6 18 35 31 35 5 0 2 -9 -8 -20z
m823 -77 c-11 -15 -11 -16 5 -10 13 5 17 1 17 -18 0 -32 -13 -32 -34 0 -18 27
-21 49 -6 40 6 -3 13 2 17 11 4 12 8 14 11 6 2 -7 -2 -20 -10 -29z m-803 -3
c-2 -28 -15 -57 -15 -32 0 7 -7 12 -15 12 -19 0 -19 9 2 32 23 26 30 23 28
-12z m192 -12 c-3 -8 -6 -5 -6 6 -1 11 2 17 5 13 3 -3 4 -12 1 -19z m90 -106
c-9 -10 -17 -28 -20 -42 -3 -15 -4 -12 -3 9 l2 34 -18 -23 c-10 -12 -18 -31
-18 -42 0 -18 5 -20 39 -15 45 6 56 0 40 -20 -12 -14 -64 -18 -72 -5 -5 9 -2
-7 8 -38 7 -21 6 -23 -6 -13 -8 7 -20 8 -28 4 -9 -6 -6 -17 13 -46 14 -21 26
-46 26 -56 0 -11 5 -19 11 -19 6 0 9 6 6 14 -6 16 18 42 27 28 5 -9 -27 -64
-38 -63 -25 4 -40 -2 -61 -23 -32 -32 -65 -42 -77 -25 -7 10 -8 9 -4 -5 4 -10
-1 -29 -9 -42 -18 -28 -9 -31 23 -8 13 9 33 13 46 10 20 -5 22 -2 18 22 -5 39
26 66 61 53 28 -11 45 -47 28 -64 -16 -16 -45 11 -30 29 9 11 8 14 -4 14 -17
0 -37 -29 -37 -54 0 -8 15 -19 33 -25 17 -6 57 -33 87 -60 53 -48 54 -49 25
-46 -16 2 -34 4 -38 4 -5 1 -5 6 -1 13 5 7 3 8 -5 3 -8 -4 -24 1 -40 13 -53
39 -134 39 -146 1 -4 -11 -1 -26 5 -34 10 -12 10 -15 -1 -15 -11 0 -11 -2 1
-10 12 -8 9 -10 -12 -10 -15 0 -30 5 -33 10 -9 15 -28 12 -22 -4 4 -11 -8 -13
-61 -10 -37 2 -61 -1 -53 -5 15 -9 8 -15 -35 -31 -23 -9 -27 -9 -16 1 16 17
15 36 -2 42 -9 4 -12 0 -9 -13 4 -14 0 -17 -21 -13 -30 6 -33 18 -8 33 15 10
15 10 -3 8 -25 -4 -32 -49 -11 -71 8 -8 12 -17 9 -20 -3 -4 18 2 47 13 79 29
202 51 262 48 l53 -3 -35 -12 -35 -11 35 -1 c25 -1 40 -9 53 -26 18 -25 18
-25 -5 -34 -19 -7 -25 -4 -31 12 -4 12 -13 25 -19 28 -11 7 -68 -16 -68 -27 0
-3 6 -2 13 2 9 6 9 5 0 -7 -8 -9 -9 -20 -3 -29 6 -8 10 -11 10 -7 0 5 5 5 12
1 8 -5 6 -10 -8 -15 -18 -7 -18 -8 1 -8 11 -1 31 6 44 15 19 14 25 14 32 3 7
-11 9 -10 9 4 0 21 10 22 36 3 18 -14 18 -15 -6 -20 -14 -3 -38 -7 -55 -9 -16
-2 0 -5 38 -6 43 0 67 -5 67 -13 0 -6 -3 -8 -6 -5 -4 3 -14 2 -23 -2 -9 -5
-48 -12 -88 -15 -63 -5 -139 -24 -105 -25 7 -1 10 -5 7 -11 -4 -6 29 -10 92
-11 132 -2 152 -4 197 -23 21 -9 49 -16 62 -16 12 0 26 -5 29 -11 4 -6 14 -8
22 -4 9 3 24 -2 34 -11 11 -10 19 -14 19 -10 0 3 11 -1 25 -10 14 -9 25 -12
25 -8 0 5 7 0 15 -10 12 -16 17 -17 32 -5 10 7 15 10 11 5 -4 -4 -3 -19 2 -32
12 -30 14 -114 6 -174 -5 -34 -2 -54 13 -84 22 -42 14 -71 -24 -82 -11 -4 -27
-12 -35 -19 -8 -7 -28 -16 -45 -19 -32 -8 -56 -29 -69 -61 -5 -11 -11 -121
-13 -245 -2 -127 -9 -229 -14 -235 -8 -8 -69 -11 -131 -5 -17 1 -97 -58 -98
-72 0 -3 14 -11 32 -17 17 -6 29 -14 26 -17 -10 -10 19 -56 43 -68 15 -7 27
-27 34 -57 l12 -45 -28 4 c-18 3 -26 9 -23 17 6 15 -34 41 -44 30 -4 -4 2 -14
13 -22 20 -16 20 -16 0 -8 -11 4 -31 10 -45 12 -20 4 -22 2 -10 -6 11 -8 -2
-9 -47 -5 -42 4 -79 1 -116 -10 -30 -9 -64 -16 -75 -16 -29 0 -38 -20 -13 -27
11 -3 18 -10 14 -16 -4 -6 7 -7 30 -3 30 6 36 4 31 -8 -8 -21 32 -89 64 -109
l27 -16 -42 -7 c-86 -13 -79 -54 9 -54 25 0 67 -9 92 -20 37 -16 46 -24 46
-45 0 -14 6 -34 12 -45 16 -25 -5 -65 -52 -97 -30 -21 -44 -23 -156 -22 -120
0 -124 1 -143 25 -11 14 -18 31 -15 39 4 8 -9 23 -33 38 -21 14 -47 35 -59 48
-11 13 -60 62 -108 108 -110 105 -174 190 -226 301 -10 21 -51 192 -50 212 0
9 -5 18 -10 20 -6 2 -13 28 -15 58 -3 30 -3 49 1 43 3 -7 12 -13 19 -13 9 0
12 11 9 38 -2 20 2 68 8 105 9 53 8 71 -1 76 -18 11 -17 40 3 93 14 36 16 53
8 75 -6 17 -11 21 -11 11 -1 -10 -5 -18 -11 -18 -10 0 -1 29 25 80 8 16 15 32
15 35 1 24 15 67 26 76 8 6 14 8 14 3 0 -10 127 122 140 147 7 12 7 19 1 19
-5 0 -12 -9 -16 -19 -7 -23 -89 -101 -106 -101 -6 0 18 30 55 66 52 51 70 63
80 55 10 -8 20 -6 39 9 14 11 28 20 32 20 4 0 30 23 60 50 29 28 61 57 71 65
17 14 17 14 -9 5 -36 -13 -50 -13 -42 0 10 16 -14 11 -43 -9 -15 -10 -54 -35
-87 -56 -33 -21 -81 -58 -107 -84 -27 -25 -48 -40 -48 -34 0 9 25 34 134 132
16 14 43 36 60 49 34 25 28 30 -8 6 -14 -8 -27 -11 -30 -6 -3 5 3 12 14 15 20
5 37 33 27 43 -3 3 -17 -2 -31 -11 -14 -10 -26 -13 -26 -7 0 14 49 44 60 37 6
-3 10 -12 10 -19 0 -8 7 -19 15 -26 13 -11 13 -8 4 18 -13 38 -33 46 -70 27
-16 -9 -41 -20 -56 -26 l-28 -10 30 32 c26 28 27 30 5 16 -33 -22 -49 -22 -43
2 3 11 -3 27 -15 39 -11 11 -22 26 -24 33 -3 8 -9 -3 -13 -24 -6 -31 -4 -41
10 -51 12 -8 14 -15 7 -20 -6 -3 -18 4 -26 16 -9 12 -16 17 -16 11 0 -6 12
-21 27 -33 22 -17 25 -23 13 -30 -36 -23 -62 -7 -75 45 -7 27 -8 28 -15 10 -7
-16 -9 -17 -9 -3 -1 26 10 48 22 41 6 -3 7 -1 3 6 -4 6 0 23 8 36 23 34 6 31
-29 -5 -27 -28 -65 -41 -65 -22 0 5 12 18 26 31 20 18 23 25 14 37 -7 8 -18
14 -24 14 -7 0 -20 6 -30 13 -15 11 -5 13 66 12 50 0 83 4 83 10 0 6 10 22 23
35 19 21 21 26 8 28 -20 4 -21 21 -1 28 24 10 17 24 -12 25 -25 0 -24 2 12 15
22 8 53 26 70 40 16 14 43 34 60 44 31 19 100 98 100 114 0 5 7 12 16 15 9 3
29 21 44 39 15 17 31 30 36 27 5 -4 6 0 3 8 -5 14 177 192 196 192 5 0 15 6
22 13 20 20 30 14 14 -9 -11 -17 -12 -26 -3 -39 8 -14 7 -28 -8 -59 -10 -23
-25 -46 -32 -53 -8 -7 -28 -32 -45 -57 -29 -45 -28 -45 29 15 l58 62 -1 -34
c-1 -19 2 -34 7 -34 5 0 9 -18 9 -40 0 -22 5 -40 10 -40 6 0 10 15 10 34 0 19
-4 38 -10 41 -14 9 -12 87 4 107 7 10 25 22 40 28 20 7 26 15 21 29 -3 11 1
24 11 32 16 13 16 12 6 -8 -11 -20 -11 -21 18 -10 24 9 30 18 32 42 l1 30 4
-33 c3 -21 -1 -40 -10 -50z m-707 8 c-24 -19 -40 -25 -40 -15 0 5 51 34 60 34
3 0 -6 -8 -20 -19z m-60 -40 c-8 -5 -17 -7 -19 -4 -3 3 1 9 9 14 8 5 17 7 19
4 3 -3 -1 -9 -9 -14z m80 13 c0 -15 -53 -82 -61 -77 -24 15 11 84 42 84 11 0
19 -3 19 -7z m730 -39 c0 -8 -4 -14 -10 -14 -5 0 -10 9 -10 21 0 11 5 17 10
14 6 -3 10 -13 10 -21z m-710 -206 c0 -14 5 -18 15 -15 17 7 20 3 30 -42 7
-33 6 -34 -9 -18 -10 9 -20 17 -24 18 -4 0 -20 2 -37 4 l-30 4 35 -28 c29 -25
32 -31 21 -45 -27 -33 -114 -13 -104 23 4 15 -1 22 -20 26 -33 9 -48 62 -28
94 8 12 13 12 35 -2 14 -9 34 -27 45 -39 22 -23 42 -18 22 6 -7 8 -9 25 -5 40
6 24 7 25 30 9 13 -8 24 -24 24 -35z m734 -15 c1 -46 6 -67 21 -84 17 -19 17
-21 3 -16 -12 4 -15 2 -11 -8 3 -8 10 -12 17 -8 6 3 8 3 4 -2 -4 -4 -3 -14 3
-22 17 -20 -5 -16 -24 5 -22 24 -57 102 -57 129 0 30 21 74 33 70 6 -2 11 -30
11 -64z m16 -158 c11 -13 10 -14 -5 -9 -13 5 -16 4 -10 -5 6 -10 3 -11 -13 -2
-32 17 -36 31 -9 31 14 0 30 -7 37 -15z m-80 -90 c0 -8 -8 -15 -17 -15 -10 0
-35 -3 -55 -6 -31 -5 -38 -4 -38 10 0 10 8 16 24 16 13 0 29 7 36 15 14 17 50
3 50 -20z m-800 -10 c11 -13 10 -14 -4 -9 -9 3 -16 10 -16 15 0 13 6 11 20 -6z
m25 -35 c7 -12 -2 -12 -30 0 -19 8 -19 9 2 9 12 1 25 -3 28 -9z m861 -101 c19
-22 19 -22 -3 -8 -13 8 -23 17 -23 21 0 12 6 9 26 -13z m124 -59 c8 -5 12 -12
8 -15 -9 -9 -59 6 -52 16 7 12 25 11 44 -1z m-142 -7 c-10 -2 -26 -2 -35 0
-10 3 -2 5 17 5 19 0 27 -2 18 -5z m-872 -49 c39 -38 37 -48 -11 -60 l-29 -7
16 25 c19 29 14 39 -27 61 -28 15 -28 16 -7 17 13 0 38 -15 58 -36z m701 10
c-3 -3 -12 -4 -19 -1 -8 3 -5 6 6 6 11 1 17 -2 13 -5z m-753 -39 c3 -8 1 -15
-4 -15 -6 0 -10 7 -10 15 0 8 2 15 4 15 2 0 6 -7 10 -15z m306 -110 c-7 -8
-17 -15 -23 -15 -5 0 -2 9 8 20 21 23 35 19 15 -5z m-30 -29 c0 -2 -8 -10 -17
-17 -16 -13 -17 -12 -4 4 13 16 21 21 21 13z m1464 -122 c3 -8 2 -12 -4 -9 -6
3 -10 10 -10 16 0 14 7 11 14 -7z m14 -102 c-3 -15 -5 -14 -15 3 -6 11 -14 36
-17 55 l-7 35 21 -38 c12 -21 20 -46 18 -55z m-1994 -271 c-10 -48 -14 -55
-24 -45 -6 6 -7 31 -4 59 6 43 9 46 20 30 8 -10 11 -30 8 -44z m66 -38 c0 -5
-9 -19 -20 -33 -29 -37 -25 -72 15 -120 19 -23 35 -44 35 -47 0 -8 -74 58 -84
75 -12 21 -9 101 5 118 12 15 49 20 49 7z m150 -125 c-6 -29 -14 -69 -19 -88
l-7 -35 -22 49 c-25 54 -27 71 -10 60 6 -4 8 -3 4 4 -6 10 25 71 49 98 15 18
18 -25 5 -88z m1580 -29 c0 -6 -4 -7 -10 -4 -5 3 -10 11 -10 16 0 6 5 7 10 4
6 -3 10 -11 10 -16z m-473 -241 c-3 -8 -6 -5 -6 6 -1 11 2 17 5 13 3 -3 4 -12
1 -19z m-388 -310 c-1 -17 -3 -18 -6 -6 -3 11 -10 15 -20 11 -11 -4 -14 -2 -9
5 13 21 36 13 35 -10z m36 -18 c3 -5 -1 -10 -10 -10 -9 0 -13 5 -10 10 3 6 8
10 10 10 2 0 7 -4 10 -10z m-1345 -1395 c7 -9 8 -15 2 -15 -5 0 -12 7 -16 15
-3 8 -4 15 -2 15 2 0 9 -7 16 -15z m43 -71 c21 -29 16 -54 -11 -54 -18 0 -42
37 -42 65 0 24 33 17 53 -11z m1804 -143 c13 -29 22 -55 20 -57 -2 -3 -15 5
-30 16 -24 19 -58 79 -72 130 -7 25 -7 25 25 -5 18 -16 43 -54 57 -84z m-2152
-80 c29 -17 74 -95 63 -106 -7 -7 -76 30 -117 64 -60 49 -14 84 54 42z m2389
-301 c32 -33 56 -63 53 -66 -6 -6 -157 115 -157 126 0 14 13 19 29 11 9 -5 43
-37 75 -71z m-1898 -9 c45 -28 98 -53 117 -56 50 -10 92 -38 94 -64 2 -18 -2
-21 -20 -16 -46 14 -289 148 -307 171 -27 32 36 13 116 -35z m194 -192 c63
-27 73 -49 22 -49 -24 0 -51 9 -75 25 -67 46 -34 61 53 24z m258 -104 c42 -18
82 -53 82 -71 0 -7 -8 -17 -17 -22 -16 -9 -16 -12 1 -37 29 -44 9 -42 -39 5
-29 28 -43 50 -40 60 3 9 -4 25 -15 35 -18 16 -28 45 -15 45 3 0 22 -7 43 -15z
m1732 -52 c12 -26 26 -59 32 -72 l9 -25 -22 19 c-24 23 -59 87 -59 110 0 29
18 15 40 -32z m-1252 -284 c36 -28 72 -53 79 -56 6 -3 21 -20 32 -39 11 -19
28 -34 38 -34 18 -1 95 -60 78 -60 -5 0 -37 10 -71 21 -48 16 -64 26 -66 43
-2 14 -35 43 -100 86 -142 96 -175 130 -97 104 22 -8 70 -37 107 -65z m1532 6
c0 -8 -7 -15 -15 -15 -16 0 -20 12 -8 23 11 12 23 8 23 -8z m124 -102 c62 -60
126 -145 126 -167 0 -10 -4 -16 -8 -14 -17 7 -192 203 -192 215 0 24 25 13 74
-34z m-1200 -333 c25 -9 35 -33 18 -44 -11 -7 -92 31 -92 44 0 13 41 13 74 0z"/>
<path d="M1923 5485 c-3 -9 -3 -18 -1 -21 3 -3 8 4 11 16 6 23 -1 27 -10 5z"/>
<path d="M1927 5413 c-4 -3 -7 -20 -7 -36 0 -25 2 -28 15 -17 8 7 15 18 15 24
0 6 -5 4 -11 -4 -8 -12 -9 -9 -5 13 6 27 5 32 -7 20z"/>
<path d="M2256 5451 c-3 -5 1 -11 9 -15 9 -3 15 0 15 9 0 16 -16 20 -24 6z"/>
<path d="M2373 5424 c-20 -20 -16 -44 7 -44 17 0 19 4 14 28 -4 15 -7 28 -8
28 -1 1 -7 -4 -13 -12z"/>
<path d="M2274 5299 c-4 -8 1 -9 16 -4 20 6 22 4 17 -14 -3 -11 -1 -21 4 -21
5 0 9 11 9 25 0 18 -5 25 -19 25 -11 0 -23 -5 -27 -11z"/>
<path d="M2372 5251 c-24 -33 -19 -40 11 -16 10 7 17 21 15 30 -2 13 -8 10
-26 -14z"/>
<path d="M2088 5183 c-31 -36 -31 -46 0 -24 18 12 32 27 32 32 0 15 -16 11
-32 -8z"/>
<path d="M2252 5130 c0 -14 2 -19 5 -12 2 6 2 18 0 25 -3 6 -5 1 -5 -13z"/>
<path d="M2029 5113 c-13 -16 -12 -17 4 -4 9 7 17 15 17 17 0 8 -8 3 -21 -13z"/>
<path d="M2252 5060 c-7 -11 -12 -32 -11 -47 1 -24 3 -21 15 16 15 50 14 60
-4 31z"/>
<path d="M2061 4816 c-10 -11 -8 -16 9 -21 26 -8 35 -1 27 20 -8 19 -21 19
-36 1z"/>
<path d="M2175 4740 c-25 -11 1 -11 35 0 20 6 21 8 5 8 -11 0 -29 -3 -40 -8z"/>
<path d="M2142 4683 c-38 -39 -10 -42 34 -4 30 27 32 31 14 31 -12 0 -33 -12
-48 -27z"/>
<path d="M2117 4420 c4 -4 32 -15 61 -25 34 -11 50 -21 45 -28 -3 -7 -3 -9 2
-5 11 10 47 -11 40 -23 -4 -5 -29 -9 -56 -9 -58 0 -203 -34 -237 -56 -13 -8
-22 -23 -20 -32 1 -9 -1 -22 -4 -28 -4 -6 4 -17 18 -25 14 -7 35 -33 47 -57
21 -46 56 -74 117 -93 19 -7 43 -20 53 -30 12 -13 32 -19 64 -19 53 0 182 43
146 48 -15 2 -23 10 -23 23 0 16 5 18 25 13 18 -4 27 -1 31 10 6 16 8 16 25 0
26 -23 43 -13 59 35 9 28 22 45 42 53 25 11 28 17 22 42 -3 16 -7 34 -8 41 -3
18 -26 45 -39 45 -5 0 -24 10 -41 23 -44 33 -152 77 -202 83 -23 3 -53 7 -65
10 -41 8 -110 11 -102 4z m201 -166 c12 -20 22 -39 22 -44 0 -9 -38 -2 -55 10
-5 4 -23 10 -40 14 -25 6 -27 9 -13 17 10 5 15 16 12 24 -5 11 1 15 22 15 22
-1 35 -10 52 -36z m-163 -12 c-3 -3 -11 0 -18 7 -9 10 -8 11 6 5 10 -3 15 -9
12 -12z m-31 -108 c5 -14 4 -15 -9 -4 -17 14 -19 20 -6 20 5 0 12 -7 15 -16z
m122 -1 c16 -16 18 -16 27 -1 8 12 15 14 33 6 24 -11 40 -48 21 -48 -7 0 -5
-5 3 -10 11 -7 -5 -10 -52 -10 -44 0 -68 -4 -71 -12 -3 -8 -6 -6 -6 5 -1 20
-31 23 -49 5 -9 -9 -15 -8 -27 8 -22 29 -18 34 24 29 22 -3 43 -1 46 5 3 5 0
10 -7 10 -8 1 -6 6 6 15 25 19 31 19 52 -2z m-149 -39 c-3 -3 -12 -4 -19 -1
-8 3 -5 6 6 6 11 1 17 -2 13 -5z"/>
<path d="M3375 4071 c4 -7 3 -16 -3 -20 -6 -4 -7 -12 -3 -20 7 -10 10 -8 16 9
4 13 2 27 -5 34 -10 8 -11 8 -5 -3z"/>
<path d="M72 4016 c7 -8 15 -12 17 -11 5 6 -10 25 -20 25 -5 0 -4 -6 3 -14z"/>
<path d="M3268 3836 c-20 -15 -23 -26 -8 -26 5 0 14 9 20 20 12 23 11 24 -12
6z"/>
<path d="M3183 3685 c0 -22 2 -30 4 -17 2 12 2 30 0 40 -3 9 -5 -1 -4 -23z"/>
<path d="M1293 2833 c-7 -3 -13 -12 -13 -21 0 -15 2 -15 17 1 18 18 16 27 -4
20z"/>
<path d="M3720 893 c0 -10 39 -50 113 -113 63 -55 76 -62 53 -28 -9 12 -16 30
-16 40 0 9 -19 30 -42 46 -56 38 -108 65 -108 55z"/>
<path d="M3906 707 c3 -10 9 -15 12 -12 3 3 0 11 -7 18 -10 9 -11 8 -5 -6z"/>
<path d="M3410 563 c0 -18 38 -59 46 -50 4 4 -4 20 -19 35 -15 14 -27 22 -27
15z"/>
</g>
</svg>
