<?xml version="1.0" standalone="no"?>
<!DOCTYPE svg PUBLIC "-//W3C//DTD SVG 20010904//EN"
 "http://www.w3.org/TR/2001/REC-SVG-20010904/DTD/svg10.dtd">
<svg version="1.0" xmlns="http://www.w3.org/2000/svg"
 width="318.000000pt" height="409.000000pt" viewBox="0 0 318.000000 409.000000"
 preserveAspectRatio="xMidYMid meet">

<g transform="translate(0.000000,409.000000) scale(0.100000,-0.100000)"
fill="#000000" stroke="none">
<path d="M2386 4039 c59 -65 76 -108 85 -203 8 -100 0 -123 -36 -101 -27 17
-142 28 -126 12 31 -31 -20 -38 -72 -10 l-32 18 45 5 45 6 -45 7 c-153 22
-217 17 -160 -13 25 -13 26 -30 2 -30 -10 0 -23 -5 -29 -11 -7 -7 -24 -8 -42
-4 -56 12 -51 40 11 56 28 7 26 8 -15 4 -64 -6 -92 -21 -76 -41 9 -11 7 -14
-15 -14 -14 0 -26 3 -26 8 0 4 -22 7 -49 7 -35 0 -47 -4 -44 -12 3 -8 -3 -13
-13 -13 -22 0 -142 -55 -165 -76 -13 -12 -22 -12 -63 2 -60 21 -71 12 -14 -11
41 -16 42 -17 23 -31 -11 -8 -31 -17 -45 -20 -14 -3 -33 -9 -42 -15 -32 -17
-63 -10 -157 36 -51 25 -94 45 -97 45 -15 0 77 -105 105 -119 l35 -18 -25 -16
c-18 -12 -34 -14 -67 -7 l-44 8 43 -44 c51 -52 45 -67 -11 -30 -80 53 -132 78
-152 73 -11 -3 -17 -3 -14 0 8 9 -93 65 -104 58 -5 -3 -12 0 -16 6 -4 8 -3 9
4 5 7 -4 12 -5 12 -2 0 3 -14 13 -31 22 -17 8 -28 11 -25 5 9 -14 -17 -14 -30
-1 -5 5 -51 13 -102 16 -88 7 -110 15 -76 28 43 17 210 -9 295 -45 54 -24 77
-18 42 11 -64 51 -605 209 -962 279 -57 12 -105 21 -107 21 -2 0 -4 -24 -4
-53 0 -53 0 -54 43 -75 23 -11 63 -26 90 -33 52 -13 63 -29 20 -29 -51 0 -58
-17 -11 -24 41 -6 149 -36 213 -58 17 -6 45 -15 62 -22 18 -6 33 -14 33 -17 0
-11 -98 -18 -253 -19 -176 0 -197 -4 -197 -35 0 -21 4 -22 67 -20 38 1 84 9
103 17 19 9 79 18 133 22 53 3 120 12 147 18 37 8 56 9 72 0 32 -16 69 -18 93
-5 31 16 140 34 169 28 14 -3 38 -8 53 -11 21 -4 24 -7 12 -15 -10 -6 -3 -9
24 -9 l38 0 -28 -35 c-20 -25 -48 -43 -96 -61 -38 -14 -66 -28 -64 -30 2 -3
16 0 31 6 46 17 66 13 66 -14 0 -13 -7 -27 -16 -30 -24 -9 -103 -7 -122 3 -9
5 -47 11 -85 13 -58 3 -64 2 -45 -9 13 -7 36 -12 51 -13 16 0 38 -5 49 -11 12
-7 95 -16 186 -20 90 -5 168 -12 174 -15 5 -3 2 -14 -8 -25 -17 -18 -15 -19
42 -19 32 0 69 -3 82 -6 34 -9 39 -48 11 -82 -13 -16 -29 -37 -34 -47 -7 -11
-28 -19 -58 -22 -54 -6 -74 -23 -27 -23 18 0 29 -4 25 -10 -9 -15 -57 -12 -99
5 -20 9 -42 15 -49 13 -21 -4 -48 7 -184 70 -18 8 -39 12 -48 8 -11 -4 -14 -2
-9 6 5 7 0 9 -14 6 -14 -4 -20 -2 -16 4 5 7 -2 9 -19 4 -15 -3 -29 -1 -33 5
-4 8 -43 10 -123 6 -64 -3 -107 -3 -97 0 14 4 16 7 6 13 -9 6 -1 11 26 15 21
4 62 15 89 25 81 31 143 43 188 37 52 -7 164 -66 171 -89 2 -10 11 -18 19 -18
9 0 31 -8 49 -19 39 -22 99 -33 119 -21 15 10 10 13 -42 24 -15 3 -39 19 -55
35 -65 64 -134 95 -263 116 -107 18 -258 8 -579 -37 l-82 -11 0 -513 c0 -401
3 -513 13 -517 9 -4 9 -7 0 -18 -10 -10 -13 -73 -13 -246 l0 -234 37 26 c60
40 78 35 73 -25 -1 -23 1 -23 30 13 18 21 52 47 76 59 25 11 62 40 83 64 22
25 47 44 59 44 38 0 70 -22 87 -60 10 -21 30 -51 46 -66 16 -15 29 -38 29 -51
0 -32 -42 -122 -76 -163 l-29 -35 31 22 c17 12 39 42 49 67 11 26 25 46 31 46
7 0 27 12 44 26 26 22 38 26 72 21 48 -6 71 -26 74 -64 1 -16 7 -41 13 -56 17
-43 14 -57 -13 -57 -13 0 -29 -7 -36 -15 -15 -18 -37 -19 -43 -2 -3 7 -6 5 -6
-6 -1 -23 -89 -117 -110 -117 -9 0 -24 -6 -33 -14 -13 -10 -15 -15 -6 -24 9
-9 8 -12 -6 -12 -12 0 -16 6 -14 22 4 33 -34 31 -42 -1 -7 -32 -26 -38 -35
-11 -3 11 -11 18 -16 15 -5 -4 -9 4 -9 17 0 22 -1 21 -20 -7 -11 -16 -20 -37
-20 -46 0 -48 -116 -16 -160 43 l-25 33 -7 -50 c-11 -87 -9 -150 7 -171 21
-27 19 -37 -16 -88 -28 -42 -59 -61 -59 -36 0 6 -4 10 -10 10 -10 0 -19 -40
-24 -105 -2 -21 -9 -41 -15 -43 -13 -4 -15 -130 -2 -151 5 -8 14 -10 22 -5 12
7 12 5 0 -9 -7 -9 -17 -14 -23 -11 -5 3 -8 -15 -7 -45 1 -27 6 -48 10 -46 4 3
10 -2 13 -10 3 -9 -1 -18 -9 -21 -15 -6 -15 -53 0 -88 6 -13 4 -21 -3 -24 -9
-3 -12 -48 -12 -156 0 -133 3 -158 20 -194 26 -53 42 -45 38 16 -2 33 1 47 10
47 7 0 17 7 22 15 12 19 18 11 26 -29 7 -31 5 -33 -16 -26 -15 5 -20 4 -16 -4
4 -6 13 -11 20 -11 20 0 72 -28 87 -48 13 -15 11 -15 -16 1 -23 14 -19 8 15
-23 24 -23 53 -46 63 -52 17 -9 18 -7 12 14 -5 12 -18 37 -31 54 -47 61 -25
73 33 17 l38 -37 90 0 c82 0 94 3 133 29 l42 28 63 -21 c34 -11 96 -22 137
-25 41 -3 96 -11 121 -18 42 -11 52 -10 110 11 35 14 89 25 119 26 30 0 60 2
65 4 6 2 41 0 78 -4 62 -8 67 -10 61 -28 -4 -14 -2 -18 5 -14 6 4 11 14 11 22
0 20 44 18 89 -6 21 -10 40 -17 43 -15 2 2 38 11 80 20 52 11 83 13 95 6 10
-5 36 -14 59 -19 34 -8 43 -6 51 8 9 13 5 19 -21 29 -17 8 -36 20 -43 28 -6 8
-17 12 -24 8 -6 -5 -53 -10 -103 -12 -50 -3 -99 -9 -109 -14 -13 -7 -19 -6
-23 6 -5 11 -21 15 -62 15 -81 0 -189 56 -219 114 -8 14 -11 8 -16 -33 -11
-95 -28 -83 -44 33 -4 27 -8 34 -14 25 -5 -8 -9 -24 -9 -36 0 -13 -4 -23 -10
-23 -10 0 -14 19 -11 52 4 31 -17 19 -29 -17 -15 -45 -40 -47 -41 -2 l-1 32
-9 -33 c-5 -17 -12 -32 -15 -32 -3 0 -2 10 1 23 7 22 7 22 -9 2 -8 -11 -16
-26 -16 -32 0 -16 0 -16 -57 -1 -42 10 -44 12 -28 25 18 13 18 13 -1 14 -10 1
-28 3 -39 4 -11 1 -30 2 -43 3 -62 5 -15 82 51 82 20 0 37 5 37 10 0 6 -10 8
-24 4 -69 -17 -11 56 59 76 31 9 97 14 175 14 160 0 216 -9 223 -34 4 -14 18
-20 72 -25 85 -10 139 -2 210 30 32 14 65 25 75 25 9 0 33 15 52 34 19 19 53
39 74 45 57 16 67 14 61 -10 -4 -16 -2 -19 11 -14 9 4 27 10 39 12 20 5 21 2
18 -52 l-3 -57 41 39 c22 21 37 31 34 22 -4 -13 -1 -16 14 -12 23 6 22 9 5
-47 -17 -59 -10 -78 16 -44 16 20 18 28 8 34 -16 10 4 50 25 50 17 0 20 -16 5
-25 -19 -11 -11 -26 8 -16 27 14 40 1 44 -44 l3 -40 18 33 c14 25 21 31 31 23
9 -7 16 -7 24 1 18 18 86 39 91 27 1 -6 8 -3 15 5 16 21 66 32 66 15 1 -18 41
-64 63 -72 19 -7 23 3 6 20 -13 13 16 87 31 78 5 -3 10 3 10 14 0 32 17 33 39
4 16 -23 20 -24 21 -10 0 29 20 9 20 -21 1 -15 7 -38 15 -52 14 -25 14 -24 15
18 0 26 -4 41 -10 37 -11 -6 -14 37 -4 48 13 13 46 -32 61 -83 l16 -55 24 54
c23 50 24 55 9 85 -9 18 -11 35 -6 40 14 15 40 -2 40 -26 l1 -23 13 23 13 24
12 -31 c15 -34 141 -173 141 -154 0 15 -39 120 -69 187 -14 29 -20 58 -17 72
4 14 2 24 -4 24 -15 0 -12 23 5 46 15 18 16 18 37 -10 13 -17 26 -39 30 -50 4
-12 6 1 3 27 -5 49 2 97 14 97 3 0 31 -23 61 -50 30 -28 63 -53 73 -56 9 -3
17 -10 17 -15 0 -10 25 -21 73 -33 45 -11 24 9 -53 49 -37 20 -76 45 -86 56
-16 18 -16 19 4 19 11 0 33 -5 48 -10 35 -14 41 -6 15 17 -12 9 -21 23 -21 29
0 16 24 24 41 13 8 -5 20 -9 28 -9 11 0 11 3 1 15 -9 11 -9 27 0 70 6 31 9 63
6 71 -3 8 -2 13 3 10 4 -3 9 38 10 92 l1 97 -23 -25 c-13 -14 -36 -59 -52
-100 -16 -41 -35 -90 -42 -108 l-14 -33 -45 46 c-25 25 -47 51 -48 58 -3 16
-35 74 -36 64 0 -5 5 -17 10 -28 15 -26 -2 -24 -29 5 -14 15 -19 26 -12 31 17
10 13 57 -8 88 -10 15 -45 56 -79 91 -49 50 -59 65 -49 76 10 10 6 11 -17 6
-25 -6 -28 -5 -21 11 19 47 19 48 -3 29 -12 -11 -25 -16 -29 -12 -4 4 -6 48
-5 99 l2 92 -25 -29 c-13 -17 -22 -33 -19 -37 2 -4 -7 -16 -20 -27 -16 -12
-22 -22 -15 -29 18 -18 -65 -8 -111 14 -55 25 -74 45 -65 73 8 24 -7 27 -26 4
-10 -13 -10 -17 2 -25 11 -8 10 -9 -6 -6 -11 2 -19 8 -18 15 2 6 -8 14 -22 18
-22 5 -24 11 -22 45 3 40 -1 42 -45 26 -47 -18 -49 -17 -65 21 -9 20 -17 64
-19 96 -3 71 -27 106 -43 64 -5 -14 -7 -35 -4 -47 3 -12 1 -21 -6 -21 -7 0
-11 19 -11 48 0 27 -5 74 -11 105 l-11 55 -34 -5 c-32 -5 -35 -4 -55 41 -26
60 -23 122 6 118 11 -2 36 -14 56 -27 50 -33 112 -48 194 -47 90 1 100 -2 129
-45 26 -37 25 -51 -5 -94 -10 -14 -15 -29 -12 -33 4 -3 -4 -5 -18 -4 -18 2
-25 -2 -27 -18 -2 -15 13 -33 57 -67 l60 -46 21 29 c32 45 47 38 55 -25 6 -55
25 -67 25 -17 0 61 -59 289 -83 320 -5 7 -41 29 -78 48 -76 40 -269 215 -269
244 0 10 17 30 38 45 52 39 72 66 72 97 0 15 9 42 20 60 23 40 26 143 5 152
-10 3 -12 16 -8 38 6 38 -15 64 -45 56 -28 -8 -23 18 5 31 19 9 29 8 46 -4 12
-8 31 -15 42 -15 12 0 26 -5 33 -12 9 -9 12 -9 12 -1 0 7 -23 23 -50 37 -40
20 -56 23 -76 16 -47 -18 -53 -7 -21 41 20 29 56 44 71 29 6 -6 22 -10 36 -10
14 0 31 -5 38 -12 6 -6 15 -9 18 -5 7 7 -97 57 -119 57 -8 0 -31 -15 -50 -34
-20 -19 -51 -42 -69 -50 -33 -17 -42 -13 -93 39 -5 6 -22 18 -37 27 -14 10
-32 34 -39 55 -6 21 -19 48 -27 61 -11 18 -13 37 -7 85 4 34 7 81 6 105 -2 40
3 49 79 137 91 106 146 156 196 180 41 19 208 23 230 4 8 -6 14 -8 14 -5 0 14
86 -40 115 -72 17 -19 42 -47 58 -62 28 -29 38 -51 12 -30 -12 10 -13 7 -5
-21 5 -17 17 -40 26 -50 14 -16 14 -19 -5 -38 -12 -12 -27 -21 -35 -21 -8 0
-18 -4 -21 -10 -3 -5 -14 -10 -24 -10 -11 0 -21 -12 -28 -35 -6 -19 -8 -35 -5
-36 43 -7 72 -5 72 6 0 7 7 18 15 25 12 10 15 9 15 -5 0 -10 -5 -35 -12 -56
-9 -31 -19 -43 -50 -56 l-39 -18 27 -7 c33 -9 59 10 69 50 10 39 45 94 59 89
13 -4 18 -95 5 -103 -14 -8 -10 -24 6 -24 18 0 19 -12 3 -28 -16 -16 19 -16
54 0 24 11 25 14 11 35 -9 13 -21 20 -31 17 -14 -5 -13 -2 2 10 11 9 17 19 13
22 -4 4 -3 12 2 18 5 6 11 25 13 41 3 17 3 24 1 17 -3 -7 -8 -10 -13 -7 -5 3
-7 12 -4 20 3 7 1 22 -4 32 -10 18 9 49 22 36 3 -3 9 3 12 13 4 10 16 29 27
41 11 13 18 26 14 29 -4 4 5 20 18 36 14 16 25 36 25 43 0 8 6 18 13 22 7 4
18 19 25 33 8 16 11 18 7 5 -4 -16 0 -14 21 9 l25 28 -3 -28 c-5 -45 24 -36
50 16 26 51 52 119 52 137 0 7 -7 10 -17 6 -13 -5 -15 -2 -11 15 4 12 2 22 -3
22 -5 0 -9 8 -9 17 0 9 3 13 6 10 9 -8 46 12 40 22 -3 4 5 13 17 21 20 12 21
12 8 -4 -8 -9 -12 -18 -10 -21 3 -2 15 13 28 33 13 20 43 53 67 72 39 30 42
35 23 38 -27 5 -208 -86 -224 -113 -7 -11 -30 -71 -50 -133 -24 -72 -45 -117
-57 -123 -22 -12 -24 -34 -2 -25 9 3 12 2 9 -5 -4 -5 -16 -7 -27 -3 -18 5 -19
3 -14 -23 5 -22 2 -34 -12 -47 -17 -15 -20 -15 -25 -1 -4 8 -3 25 2 38 17 47
8 78 -26 92 -24 10 -33 11 -37 2 -2 -7 -5 -4 -5 6 -1 9 4 17 9 17 24 0 10 56
-31 120 -9 14 -38 81 -65 150 -63 164 -99 217 -179 266 l-30 18 31 -35z m-216
-284 c11 -13 8 -15 -17 -15 -20 0 -30 5 -30 15 0 8 8 15 17 15 10 0 23 -7 30
-15z m235 -39 c14 -15 27 -20 31 -15 7 13 54 -29 54 -48 0 -18 -36 -17 -43 1
-3 8 -26 24 -51 35 -26 11 -46 27 -46 35 0 24 28 19 55 -8z m-496 -12 c34 -3
61 -10 61 -14 0 -11 -153 -21 -164 -10 -12 12 13 43 30 36 7 -3 40 -8 73 -12z
m-115 -39 c26 -19 15 -29 -23 -20 -30 6 -38 15 -24 28 10 11 26 8 47 -8z m-58
-24 l23 -18 -44 -1 c-49 -1 -65 11 -38 27 25 14 32 14 59 -8z m410 -23 c4 -5
26 -8 48 -8 23 0 48 -5 56 -10 15 -10 -156 -6 -189 5 -10 3 -21 -3 -29 -15
-11 -18 -10 -20 10 -20 16 0 8 -7 -27 -24 -46 -21 -72 -47 -100 -101 -6 -11
-30 -32 -53 -48 -31 -21 -52 -47 -77 -97 -32 -63 -34 -74 -28 -130 4 -38 2
-60 -4 -60 -6 0 -11 -19 -11 -42 -1 -28 -7 -47 -18 -55 -16 -12 -16 -13 -2
-13 23 0 34 -20 17 -30 -10 -7 -6 -12 13 -20 18 -9 24 -18 21 -31 -4 -13 0
-19 10 -19 21 0 33 -20 18 -29 -7 -5 -3 -12 13 -21 14 -7 27 -19 30 -26 7 -19
-44 -18 -70 1 -25 19 -35 19 -27 -1 5 -13 -3 -11 -38 7 -24 13 -56 24 -71 24
l-26 1 24 -29 c37 -44 30 -66 -8 -26 -26 28 -33 31 -36 17 -2 -9 2 -27 8 -38
17 -32 -2 -67 -65 -119 -30 -24 -52 -47 -50 -51 8 -13 -41 -5 -52 9 -13 17
-16 119 -4 161 4 14 21 32 40 42 18 9 41 29 51 45 15 25 15 29 1 40 -10 8 -12
12 -4 13 7 0 10 6 7 14 -6 16 49 50 69 43 16 -6 49 12 42 23 -3 5 0 12 5 15 7
5 5 11 -6 19 -16 12 -15 14 8 19 21 6 25 12 23 42 -1 20 -5 39 -9 42 -3 3 -6
17 -6 31 0 22 -2 23 -16 11 -15 -12 -16 -11 -9 11 4 14 18 46 31 72 17 33 20
48 11 51 -8 2 -7 11 6 31 l18 27 -50 -26 c-49 -24 -84 -35 -49 -14 20 11 76
89 75 104 -1 6 10 12 24 15 13 3 40 14 59 25 l35 20 -80 5 c-44 3 -73 9 -65
12 8 4 26 6 40 6 14 -1 58 7 98 17 63 15 73 21 69 37 -4 14 2 22 19 29 14 5
23 12 21 16 -6 10 249 10 259 1z m812 -49 c-11 -33 -16 -33 -23 1 -6 29 2 41
20 34 10 -4 11 -12 3 -35z m-87 -2 c-10 -9 -11 -8 -5 6 3 10 9 15 12 12 3 -3
0 -11 -7 -18z m53 -14 c-7 -42 -12 -53 -25 -53 -7 0 -8 7 -4 18 4 9 8 22 9 27
2 12 16 35 21 35 2 0 2 -12 -1 -27z m-431 -34 c21 -17 36 -34 33 -37 -3 -2
-24 12 -46 32 -49 44 -39 48 13 5z m157 6 c-10 -12 -10 -22 -2 -39 8 -19 8
-25 -3 -30 -17 -6 -29 9 -20 24 3 6 1 10 -4 10 -14 0 -14 -21 -1 -54 6 -17 6
-26 0 -26 -6 0 -11 -8 -11 -17 -2 -23 -16 34 -18 69 0 15 6 34 15 42 8 9 13
16 9 16 -3 0 -3 5 0 10 3 6 15 10 27 10 17 0 18 -2 8 -15z m205 -20 c0 -14 -6
-27 -12 -30 -16 -5 -16 -3 -3 29 12 32 15 33 15 1z m-1482 -51 c20 -4 37 -10
37 -15 0 -15 -32 -39 -52 -39 -25 0 -58 27 -58 47 0 14 16 16 73 7z m222 -43
c-11 -10 -40 -15 -65 -11 -8 1 -1 6 15 10 44 11 61 12 50 1z m1043 -36 c-3 -3
-9 2 -12 12 -6 14 -5 15 5 6 7 -7 10 -15 7 -18z m30 -10 c-3 -3 -9 2 -12 12
-6 14 -5 15 5 6 7 -7 10 -15 7 -18z m-2135 -39 c-1 -5 -29 -19 -63 -30 -58
-19 -62 -19 -71 -3 -6 9 -21 17 -34 17 -39 0 -29 18 13 23 63 7 157 3 155 -7z
m2094 -18 c-3 -7 -5 -2 -5 12 0 14 2 19 5 13 2 -7 2 -19 0 -25z m98 -18 c-3
-5 -12 -10 -18 -10 -7 0 -6 4 3 10 19 12 23 12 15 0z m-1185 -4 c0 -2 -7 -6
-15 -10 -8 -3 -15 -1 -15 4 0 6 7 10 15 10 8 0 15 -2 15 -4z m80 -31 c-7 -9
-15 -13 -18 -10 -3 2 1 11 8 20 7 9 15 13 18 10 3 -2 -1 -11 -8 -20z m-1295
-25 c-3 -5 -15 -10 -26 -10 -11 0 -17 5 -14 10 3 6 15 10 26 10 11 0 17 -4 14
-10z m1249 -21 c-10 -11 -28 -26 -39 -31 -14 -8 -12 -2 9 21 33 34 61 44 30
10z m-547 -135 c-3 -3 -12 -4 -19 -1 -8 3 -5 6 6 6 11 1 17 -2 13 -5z m1503
-54 c0 -5 -5 -10 -11 -10 -5 0 -7 5 -4 10 3 6 8 10 11 10 2 0 4 -4 4 -10z
m150 -4 c0 -2 -7 -9 -15 -16 -13 -11 -14 -10 -9 4 5 14 24 23 24 12z m-610
-236 c0 -5 -5 -10 -11 -10 -5 0 -7 5 -4 10 3 6 8 10 11 10 2 0 4 -4 4 -10z
m-200 -40 c0 -5 -2 -10 -4 -10 -3 0 -8 5 -11 10 -3 6 -1 10 4 10 6 0 11 -4 11
-10z m160 -20 c-20 -13 -33 -13 -25 0 3 6 14 10 23 10 15 0 15 -2 2 -10z
m-183 -12 c-28 -7 -42 -7 -50 1 -8 8 2 11 39 10 l49 -1 -38 -10z m103 2 c0 -5
-4 -10 -10 -10 -5 0 -10 5 -10 10 0 6 5 10 10 10 6 0 10 -4 10 -10z m-1680
-15 c0 -26 -47 -65 -77 -65 -28 1 -28 1 17 40 49 44 60 48 60 25z m1613 -42
c-22 -21 -32 -33 -24 -27 39 27 44 28 30 3 -7 -13 -11 -26 -9 -28 5 -5 -143
-187 -163 -200 -17 -11 -17 -11 -1 14 9 14 19 25 23 25 3 0 19 16 35 37 27 34
28 36 8 31 -35 -10 -35 8 0 49 l33 38 -55 -45 c-30 -25 -82 -70 -116 -101 -97
-87 -252 -170 -317 -169 -21 1 -20 2 8 26 17 15 24 23 18 20 -7 -4 -13 -5 -13
-2 0 12 64 37 83 32 43 -11 210 93 339 212 82 77 139 122 152 122 5 0 -9 -17
-31 -37z m92 27 c-3 -5 -14 -10 -23 -10 -15 0 -15 2 -2 10 20 13 33 13 25 0z
m-165 -40 c0 -5 -6 -10 -14 -10 -8 0 -18 5 -21 10 -3 6 3 10 14 10 12 0 21 -4
21 -10z m220 -15 c0 -2 -9 -9 -20 -15 -24 -13 -50 -2 -29 11 15 9 49 12 49 4z
m38 -86 c-16 -11 -28 -27 -28 -34 0 -8 -9 -19 -21 -25 -11 -7 -29 -20 -40 -31
-10 -10 -29 -20 -41 -20 -23 -1 -29 -1 -60 8 -12 4 -19 -3 -24 -23 -7 -27 -7
-27 -15 -6 -5 12 -14 22 -21 22 -8 0 -6 5 5 11 9 5 17 17 17 26 0 9 9 31 21
50 20 32 22 33 36 16 10 -13 16 -15 19 -5 3 6 17 12 30 12 14 0 22 -4 19 -10
-8 -13 52 -2 85 16 38 20 48 16 18 -7z m-687 -68 c-24 -47 -46 -66 -31 -27 19
50 43 91 47 79 2 -6 -5 -30 -16 -52z m-31 -65 c0 -3 -4 -8 -10 -11 -5 -3 -10
-1 -10 4 0 6 5 11 10 11 6 0 10 -2 10 -4z m680 -2 c0 -11 -71 -34 -107 -34
-55 0 -26 23 40 31 28 3 55 7 60 8 4 0 7 -1 7 -5z m-400 -77 c0 -2 -10 -12
-22 -23 l-23 -19 19 23 c18 21 26 27 26 19z m359 -21 c-9 -8 -99 -13 -99 -5 0
5 23 9 52 9 28 0 49 -2 47 -4z m-469 -61 c-24 -28 -150 -82 -150 -64 0 4 15
11 33 14 17 4 52 21 77 39 46 34 63 39 40 11z m-292 -29 c-7 -8 -15 -12 -17
-11 -5 6 10 25 20 25 5 0 4 -6 -3 -14z m599 -12 c-3 -3 -12 -4 -19 -1 -8 3 -5
6 6 6 11 1 17 -2 13 -5z m203 -70 c0 -7 -58 25 -65 36 -3 5 10 1 29 -11 20
-12 36 -23 36 -25z m205 -104 c3 -6 -1 -7 -9 -4 -18 7 -21 14 -7 14 6 0 13 -4
16 -10z m-230 -175 c-10 -19 -22 -35 -28 -35 -5 0 -6 -8 -3 -17 6 -17 5 -17
-8 0 -17 22 -10 58 10 50 8 -3 18 5 25 21 7 14 15 24 18 21 3 -3 -3 -21 -14
-40z m-525 -69 c0 -2 -7 -9 -15 -16 -13 -11 -14 -10 -9 4 5 14 24 23 24 12z
m-288 -33 c-10 -4 -10 -8 -1 -19 8 -10 8 -14 0 -14 -6 0 -11 2 -11 4 0 2 -3
11 -6 20 -4 11 -1 16 12 15 12 0 14 -3 6 -6z m-117 -22 c-3 -6 -14 -10 -23
-10 -15 1 -15 2 1 6 9 2 17 9 17 15 0 6 3 9 6 5 3 -3 3 -10 -1 -16z m479 -18
c-9 -21 -21 -46 -26 -56 -5 -11 -7 -21 -4 -24 3 -3 -4 -15 -15 -26 -12 -14
-15 -23 -8 -28 7 -4 4 -9 -7 -13 -27 -10 -27 -2 -1 45 14 24 28 55 32 69 8 25
34 70 41 70 2 0 -4 -17 -12 -37z m-554 7 c0 -5 -7 -7 -15 -4 -8 4 -15 8 -15
10 0 2 7 4 15 4 8 0 15 -4 15 -10z m835 -44 c-7 -47 1 -90 15 -81 5 3 11 1 15
-5 3 -5 13 -10 22 -10 12 0 14 8 11 38 -3 20 -7 44 -10 52 -2 8 -3 12 -1 8 8
-14 23 -8 24 10 0 9 8 -7 17 -36 9 -30 20 -50 25 -46 4 4 7 -9 7 -29 0 -36 33
-82 52 -71 4 3 8 -3 8 -13 0 -15 2 -16 10 -3 5 8 10 28 10 43 0 17 4 26 10 22
7 -4 8 -21 4 -43 -9 -47 -9 -80 0 -115 5 -21 4 -27 -5 -21 -9 5 -10 -7 -5 -50
4 -38 3 -55 -4 -51 -5 3 -10 12 -10 19 0 7 -7 21 -16 32 -8 10 -13 14 -10 8 7
-13 -61 -80 -71 -70 -4 4 -13 -10 -19 -31 l-12 -38 -1 38 c-1 38 -21 45 -21 7
0 -10 -4 -22 -10 -25 -5 -3 -8 0 -5 7 4 9 -5 13 -25 14 -17 1 -37 10 -45 20
-13 16 -14 17 -9 2 4 -13 1 -18 -11 -18 -9 0 -14 4 -11 9 3 5 0 14 -8 20 -19
16 -31 -16 -14 -38 10 -13 10 -14 -2 -3 -19 17 -30 15 -30 -5 0 -27 -7 -11
-14 32 -5 34 -4 36 5 15 8 -20 12 -22 19 -10 15 23 12 50 -6 50 -11 0 -15 6
-12 18 3 9 -6 27 -19 40 -14 14 -23 18 -23 10 0 -21 -20 14 -20 36 0 20 0 20
14 0 14 -17 14 -15 10 30 -3 41 -2 47 12 42 11 -4 15 -2 11 8 -5 13 24 62 46
77 5 4 5 9 0 12 -6 4 -24 -11 -42 -33 -18 -22 -36 -40 -42 -40 -11 0 -9 3 46
67 20 23 34 46 31 52 -3 5 5 16 19 25 25 16 25 16 25 -13 0 -23 4 -29 15 -25
8 4 15 15 15 26 0 20 27 78 36 78 3 0 2 -20 -1 -44z m-670 14 c3 -6 -1 -7 -9
-4 -18 7 -21 14 -7 14 6 0 13 -4 16 -10z m-44 -18 c-7 -2 -18 1 -23 6 -8 8 -4
9 13 5 13 -4 18 -8 10 -11z m595 -23 c-8 -19 -23 -42 -34 -52 -20 -18 -146
-71 -138 -58 3 4 32 18 65 31 50 20 63 31 87 72 32 54 41 57 20 7z m-756 23
c0 -13 -12 -22 -22 -16 -10 6 -1 24 13 24 5 0 9 -4 9 -8z m637 -8 c-3 -3 -12
-4 -19 -1 -8 3 -5 6 6 6 11 1 17 -2 13 -5z m69 -36 c-18 -26 -22 -17 -5 14 6
11 13 17 16 15 3 -3 -2 -16 -11 -29z m425 9 c-10 -9 -11 -8 -5 6 3 10 9 15 12
12 3 -3 0 -11 -7 -18z m-785 -15 c-4 -3 -14 2 -24 12 -16 18 -16 18 6 6 13 -6
21 -14 18 -18z m-38 -4 c6 -6 12 -15 12 -20 0 -5 -6 -6 -12 -1 -7 4 -17 8 -23
10 -5 1 -30 9 -55 17 l-45 15 55 -5 c30 -4 61 -11 68 -16z m337 12 c3 -5 1
-10 -4 -10 -6 0 -11 5 -11 10 0 6 2 10 4 10 3 0 8 -4 11 -10z m-440 -21 c11
-5 31 -11 45 -13 14 -1 38 -8 53 -14 16 -7 32 -12 36 -12 8 0 23 -32 36 -79 5
-16 4 -21 -4 -17 -13 9 -13 9 -2 -32 8 -25 7 -32 -5 -32 -16 0 -19 -16 -4 -25
6 -3 10 -11 10 -17 0 -6 -9 -3 -20 7 -11 10 -20 24 -20 31 0 7 -5 16 -12 20
-7 4 -8 3 -4 -4 4 -7 3 -12 -3 -12 -6 0 -17 14 -26 30 -9 17 -20 30 -26 30 -6
0 -7 -4 -4 -10 3 -5 1 -10 -4 -10 -20 0 -11 -22 10 -27 14 -4 19 -12 16 -25
-6 -23 17 -48 40 -42 11 3 31 -7 50 -24 17 -17 35 -27 39 -23 4 3 4 1 1 -5 -4
-7 0 -17 8 -24 8 -7 15 -19 15 -27 0 -8 9 -27 20 -43 11 -15 17 -30 13 -34 -3
-3 2 -15 12 -26 10 -11 14 -20 9 -20 -5 0 -15 9 -22 20 -13 21 -32 27 -32 10
0 -5 10 -18 22 -30 12 -11 16 -20 10 -20 -11 0 -28 15 -60 54 -10 13 -10 16 0
16 10 0 9 3 -1 9 -8 5 -20 7 -27 4 -19 -7 -87 69 -103 114 -8 21 -22 44 -33
51 -13 10 -17 20 -12 34 5 18 3 20 -15 15 -17 -4 -21 -1 -21 17 0 12 4 26 9
32 5 5 11 23 13 39 2 25 -1 30 -16 28 -11 -1 -26 6 -33 15 -16 22 -17 37 0 24
7 -6 25 -16 41 -22 24 -9 27 -8 23 5 -4 8 1 19 11 24 15 8 13 11 -13 21 -16 7
-45 12 -62 11 -21 0 -33 4 -33 13 0 14 40 12 75 -5z m305 -13 c0 -2 -8 -10
-17 -17 -16 -13 -17 -12 -4 4 13 16 21 21 21 13z m739 -25 c16 -10 6 -31 -15
-31 -8 0 -14 9 -14 20 0 22 7 25 29 11z m-1131 -26 c-3 -3 -9 2 -12 12 -6 14
-5 15 5 6 7 -7 10 -15 7 -18z m1012 -50 c0 -5 -5 -3 -10 5 -5 8 -10 20 -10 25
0 6 5 3 10 -5 5 -8 10 -19 10 -25z m200 -15 c12 -8 11 -10 -7 -10 -13 0 -23 5
-23 10 0 13 11 13 30 0z m-61 -61 c-4 -34 -13 -66 -20 -73 -9 -8 -10 -7 -4 9
4 11 9 40 11 64 4 39 10 61 18 61 1 0 -1 -27 -5 -61z m62 -2 l0 -22 9 23 c5
12 12 22 16 22 11 0 -6 -52 -25 -76 -17 -22 -17 -21 -17 31 1 50 15 69 17 22z
m-1734 7 c-3 -3 -12 -4 -19 -1 -8 3 -5 6 6 6 11 1 17 -2 13 -5z m1843 -15 c0
-5 -13 -9 -30 -9 -18 0 -30 5 -30 13 0 9 10 12 30 9 17 -2 30 -8 30 -13z
m-323 -36 c-3 -10 -5 -4 -5 12 0 17 2 24 5 18 2 -7 2 -21 0 -30z m393 27 c0
-5 -4 -10 -10 -10 -5 0 -10 5 -10 10 0 6 5 10 10 10 6 0 10 -4 10 -10z m90 -5
c0 -8 -4 -15 -10 -15 -5 0 -10 7 -10 15 0 8 5 15 10 15 6 0 10 -7 10 -15z
m-1853 -62 c-2 -16 -4 -5 -4 22 0 28 2 40 4 28 2 -13 2 -35 0 -50z m573 51 c0
-8 -4 -12 -10 -9 -5 3 -10 10 -10 16 0 5 5 9 10 9 6 0 10 -7 10 -16z m1132 -4
c35 0 37 -2 29 -22 -10 -29 20 -63 39 -44 8 8 9 6 4 -9 -7 -18 -6 -19 9 -6 20
16 30 11 21 -12 -3 -9 -12 -13 -22 -10 -11 5 -14 2 -9 -10 9 -24 -1 -21 -23 5
l-17 22 -21 -46 c-20 -46 -42 -70 -42 -46 0 7 9 30 20 51 l20 37 -20 0 c-11 0
-20 6 -20 14 0 8 -9 18 -20 21 -18 6 -24 17 -21 38 0 4 -3 7 -9 7 -5 0 -10 -5
-10 -12 0 -6 -3 -8 -6 -5 -13 13 19 38 40 33 12 -3 38 -6 58 -6z m-762 -55 c0
-16 -3 -14 -15 9 -19 36 -19 56 0 30 8 -10 14 -28 15 -39z m-1257 16 c3 -13 1
-18 -9 -14 -7 2 -10 11 -7 19 7 19 10 18 16 -5z m1287 3 c0 -8 -4 -12 -10 -9
-5 3 -10 10 -10 16 0 5 5 9 10 9 6 0 10 -7 10 -16z m388 -19 c-3 -31 -18 -21
-18 11 0 14 4 22 10 19 5 -3 9 -17 8 -30z m110 10 c-3 -3 -9 2 -12 12 -6 14
-5 15 5 6 7 -7 10 -15 7 -18z m52 -14 c-5 -11 -15 -32 -20 -47 -6 -15 -13 -24
-16 -21 -6 5 33 87 42 87 2 0 0 -9 -6 -19z m65 -51 c27 -43 33 -67 9 -35 -20
26 -46 75 -39 75 2 0 16 -18 30 -40z m-59 -28 c-23 -23 -26 -12 -8 28 14 33
16 33 20 11 2 -13 -3 -31 -12 -39z m-1782 8 c-5 -5 -10 3 -11 18 -1 22 0 24 9
8 6 -10 6 -22 2 -26z m81 30 c-3 -5 -11 -10 -16 -10 -6 0 -7 5 -4 10 3 6 11
10 16 10 6 0 7 -4 4 -10z m1495 -49 c0 -5 -7 -11 -15 -15 -9 -3 -15 0 -15 9 0
8 7 15 15 15 8 0 15 -4 15 -9z m514 -6 c-4 -8 -1 -15 4 -15 6 0 13 8 15 18 3
10 5 5 7 -13 1 -16 5 -39 9 -50 8 -18 10 -16 24 15 l15 35 1 -38 c1 -25 5 -36
12 -31 17 10 -6 -30 -27 -47 -14 -11 -18 -11 -22 -1 -2 7 -10 18 -17 26 -8 7
-17 25 -21 40 -4 16 -13 26 -24 26 -22 0 -32 24 -17 39 17 17 48 14 41 -4z
m-581 -22 c3 -5 1 -17 -4 -28 -4 -11 -8 -15 -8 -8 -1 6 -4 18 -7 27 -6 16 11
23 19 9z m382 -23 c21 -41 19 -51 -5 -15 -11 17 -20 33 -20 38 0 15 10 6 25
-23z m-331 4 c3 -8 2 -12 -4 -9 -6 3 -10 10 -10 16 0 14 7 11 14 -7z m190 10
c9 -3 16 -10 16 -14 0 -10 -38 -1 -46 11 -6 10 7 12 30 3z m-631 -71 c16 -56
35 -82 69 -95 19 -8 27 -37 17 -63 -7 -19 -8 -19 -8 3 -1 12 -5 22 -11 22 -5
0 -10 6 -10 14 0 8 -7 16 -15 20 -9 3 -15 0 -15 -9 0 -12 -3 -12 -18 3 -10 9
-17 23 -14 30 2 6 -3 23 -12 37 -16 25 -23 110 -7 101 4 -3 16 -32 24 -63z
m-1183 27 c0 -5 -2 -10 -4 -10 -3 0 -8 5 -11 10 -3 6 -1 10 4 10 6 0 11 -4 11
-10z m1775 -17 c-4 -16 -16 -36 -27 -47 -11 -10 -24 -32 -30 -47 -12 -34 -32
-40 -23 -6 7 23 74 127 82 127 3 0 2 -12 -2 -27z m502 -15 c-4 -14 0 -30 11
-42 16 -18 16 -19 -5 -14 -17 5 -23 2 -23 -11 0 -9 6 -23 13 -30 10 -10 8 -11
-7 -5 -13 5 -17 4 -12 -4 4 -7 2 -12 -3 -12 -17 0 -13 88 5 115 20 31 28 32
21 3z m-1207 -28 c0 -5 7 -10 15 -10 8 0 15 -4 15 -10 0 -13 -6 -13 -40 5 -35
18 -38 25 -10 25 11 0 20 -4 20 -10z m1152 -12 c-7 -7 -12 -8 -12 -2 0 14 12
26 19 19 2 -3 -1 -11 -7 -17z m-2292 -43 c0 -24 -16 -52 -25 -44 -3 4 -3 25 1
48 7 43 24 40 24 -4z m1743 15 c-6 -22 -23 -38 -23 -21 0 17 12 41 20 41 5 0
6 -9 3 -20z m-78 -30 c3 -6 -1 -7 -9 -4 -18 7 -21 14 -7 14 6 0 13 -4 16 -10z
m893 -60 c79 -77 88 -101 43 -124 -31 -16 -51 -7 -51 24 0 34 -32 108 -56 130
-24 23 -31 40 -16 40 4 0 40 -31 80 -70z m-2538 9 c0 -6 -4 -7 -10 -4 -5 3
-10 11 -10 16 0 6 5 7 10 4 6 -3 10 -11 10 -16z m1268 12 c10 -6 10 -10 -2
-20 -13 -11 -18 -10 -30 2 -23 23 2 37 32 18z m-1298 -19 c0 -13 -31 -52 -41
-52 -5 0 -3 14 6 30 14 28 35 41 35 22z m2521 -25 c12 -22 12 -22 -10 -3 -11
11 -21 23 -21 28 0 14 19 -1 31 -25z m-15 -18 c28 -30 28 -31 4 -19 -25 13
-40 28 -40 43 0 12 5 8 36 -24z m-1090 6 c8 -8 23 -19 32 -24 9 -5 14 -12 11
-15 -7 -8 -108 36 -109 47 0 13 51 7 66 -8z m74 -7 c0 -7 -5 -20 -10 -28 -8
-12 -10 -9 -10 13 0 15 5 27 10 27 6 0 10 -6 10 -12z m-1420 -66 c0 -23 -17
-4 -23 25 -5 26 -4 26 9 8 8 -10 14 -25 14 -33z m293 16 c-8 -46 -13 -48 -13
-5 0 21 4 37 10 37 5 0 7 -14 3 -32z m1162 22 c-28 -12 -37 -12 -30 0 3 6 16
10 28 9 21 0 21 -1 2 -9z m-1678 -92 l2 -23 -19 25 c-14 17 -20 20 -20 10 -1
-8 -8 5 -16 30 -18 60 -18 61 19 18 18 -20 33 -47 34 -60z m1713 78 c0 -2 -7
-7 -16 -10 -8 -3 -12 -2 -9 4 6 10 25 14 25 6z m116 -18 c7 -12 -58 -10 -76 2
-11 8 -3 10 28 8 24 -1 46 -6 48 -10z m584 3 c0 -5 -8 -12 -17 -14 -13 -3 -10
-5 7 -6 24 -1 23 -2 -8 -18 -19 -9 -37 -26 -42 -38 -11 -28 -33 -45 -48 -36
-9 5 -5 14 14 32 14 13 30 34 35 47 7 18 30 35 57 41 1 1 2 -3 2 -8z m-340
-16 c55 -14 55 -14 -52 -9 -148 9 -200 22 -88 23 47 0 110 -6 140 -14z m-1823
-17 c-3 -8 -6 -5 -6 6 -1 11 2 17 5 13 3 -3 4 -12 1 -19z m410 -8 c-7 -17 -13
-26 -15 -21 -3 10 15 51 22 51 3 0 -1 -14 -7 -30z m-577 -30 c0 -5 -5 -10 -11
-10 -5 0 -7 5 -4 10 3 6 8 10 11 10 2 0 4 -4 4 -10z m-107 -45 c-5 -13 -23
-22 -23 -11 0 15 14 35 21 31 4 -3 6 -12 2 -20z m-48 -14 c-16 -6 -17 -9 -5
-17 15 -9 23 -44 11 -44 -4 0 -16 7 -27 15 -14 11 -16 15 -4 15 12 1 11 3 -3
14 -18 14 -18 14 0 19 30 8 50 6 28 -2z m2309 -26 c-4 -8 -14 -15 -23 -15 -14
1 -13 3 3 15 25 19 27 19 20 0z m-364 -15 c11 -7 7 -10 -17 -10 -17 0 -35 5
-38 10 -8 13 35 13 55 0z m744 -102 c28 -64 23 -72 -16 -30 -29 29 -44 74 -33
92 10 16 19 4 49 -62z m-2686 47 c1 -1 0 -9 -4 -18 -5 -15 -8 -15 -30 1 -31
23 -30 34 4 26 15 -4 28 -8 30 -9z m1398 -60 c19 -15 19 -15 -5 -35 -29 -25
-46 -25 -71 0 -25 25 -25 29 3 40 33 13 51 12 73 -5z m1138 -21 c11 -30 6 -37
-14 -19 -11 10 -20 22 -20 27 0 15 28 9 34 -8z m-1234 -34 c0 -5 -9 -10 -21
-10 -11 0 -17 5 -14 10 3 6 13 10 21 10 8 0 14 -4 14 -10z m-893 -177 c-2 -16
-4 -3 -4 27 0 30 2 43 4 28 2 -16 2 -40 0 -55z m337 -72 c19 -7 31 -51 14 -51
-5 0 -7 -4 -4 -9 3 -4 -6 -6 -19 -3 -27 5 -33 17 -12 25 9 3 9 9 -1 26 -13 22
-9 24 22 12z m156 5 c0 -3 -4 -8 -10 -11 -5 -3 -10 -1 -10 4 0 6 5 11 10 11 6
0 10 -2 10 -4z m27 -20 c-3 -8 -1 -16 6 -19 6 -2 3 -6 -7 -10 -9 -4 -15 -3
-11 2 3 5 0 11 -7 13 -6 2 -8 10 -4 16 10 17 29 15 23 -2z"/>
<path d="M1619 2947 c18 -11 20 -16 10 -20 -9 -3 -7 -5 6 -6 11 0 29 4 40 9
18 7 17 8 -10 15 -72 17 -71 17 -46 2z"/>
<path d="M1910 1646 c0 -8 4 -17 9 -20 5 -4 7 3 4 14 -6 23 -13 26 -13 6z"/>
<path d="M1786 1594 c-3 -8 -2 -12 3 -9 5 3 12 -7 14 -22 4 -27 4 -27 6 4 1
35 -13 52 -23 27z"/>
<path d="M1280 1340 c0 -5 5 -10 11 -10 5 0 7 5 4 10 -3 6 -8 10 -11 10 -2 0
-4 -4 -4 -10z"/>
<path d="M2595 1130 c-3 -5 -1 -10 4 -10 6 0 11 5 11 10 0 6 -2 10 -4 10 -3 0
-8 -4 -11 -10z"/>
<path d="M1690 3830 c0 -9 160 -40 197 -39 l28 1 -30 9 c-44 14 -195 36 -195
29z"/>
<path d="M1510 3750 c0 -13 60 -20 168 -20 62 0 102 4 97 9 -12 11 -265 21
-265 11z"/>
<path d="M1570 3656 c0 -2 7 -7 16 -10 8 -3 12 -2 9 4 -6 10 -25 14 -25 6z"/>
<path d="M1350 3631 c24 -20 40 -26 40 -16 0 2 -15 12 -32 20 l-33 16 25 -20z"/>
<path d="M253 3583 c9 -2 25 -2 35 0 9 3 1 5 -18 5 -19 0 -27 -2 -17 -5z"/>
<path d="M605 3493 c-118 -40 -180 -56 -237 -60 -101 -8 -102 7 -5 52 39 19
70 34 67 34 -9 1 -111 -39 -151 -59 -39 -20 -113 -27 -123 -12 -3 5 21 19 52
32 62 25 85 40 61 40 -20 0 -101 -29 -116 -42 -7 -5 -31 -9 -55 -8 -87 4 -98
1 -98 -20 0 -18 7 -20 59 -20 33 0 90 -7 128 -16 80 -19 197 -14 257 11 21 9
40 14 43 11 3 -3 18 1 33 9 55 28 116 45 168 45 44 0 52 3 50 17 -2 13 9 20
47 29 45 11 46 12 15 12 -19 0 -107 -25 -195 -55z"/>
<path d="M3071 3514 c-6 -21 -9 -40 -6 -42 2 -2 8 13 14 34 6 21 9 40 6 42 -2
2 -8 -13 -14 -34z"/>
<path d="M2927 3433 c-14 -28 -31 -54 -37 -58 -14 -9 -13 8 2 23 6 6 9 14 6
17 -9 10 -38 -25 -32 -39 3 -7 -5 -35 -16 -61 -16 -38 -23 -46 -30 -35 -8 13
-10 13 -10 1 0 -8 -3 -12 -6 -8 -3 3 -3 15 1 28 6 17 9 19 16 8 6 -10 9 -7 9
12 0 14 3 29 8 35 4 5 -12 -11 -35 -36 -24 -25 -46 -56 -49 -70 -7 -23 -8 -23
-15 -5 -6 17 -8 16 -8 -8 -1 -15 -7 -30 -15 -33 -11 -4 -13 -12 -6 -29 5 -12
6 -33 3 -46 -6 -23 -6 -23 10 -7 10 9 26 20 37 23 11 4 18 11 14 16 -4 6 -11
6 -20 -2 -8 -6 -17 -10 -19 -7 -3 3 13 19 36 37 22 18 38 36 35 39 -3 3 -15
-3 -26 -13 -11 -10 -20 -14 -20 -8 0 14 55 64 63 57 3 -3 22 -1 42 6 31 10 34
14 20 24 -16 11 -12 46 5 46 15 0 71 102 68 124 -3 17 -9 10 -31 -31z"/>
<path d="M2847 3423 c-4 -3 -7 -11 -7 -17 0 -6 5 -5 12 2 6 6 9 14 7 17 -3 3
-9 2 -12 -2z"/>
<path d="M2975 3368 c-63 -60 -73 -92 -11 -37 35 31 82 88 75 92 -2 1 -31 -23
-64 -55z"/>
<path d="M426 3388 c3 -4 19 -8 35 -8 18 0 28 4 24 10 -4 6 -19 9 -35 8 -16
-1 -26 -6 -24 -10z"/>
<path d="M2681 3194 c0 -11 3 -14 6 -6 3 7 2 16 -1 19 -3 4 -6 -2 -5 -13z"/>
<path d="M2701 3084 c0 -11 3 -14 6 -6 3 7 2 16 -1 19 -3 4 -6 -2 -5 -13z"/>
<path d="M366 1475 c-3 -8 -1 -15 4 -15 6 0 10 7 10 15 0 8 -2 15 -4 15 -2 0
-6 -7 -10 -15z"/>
<path d="M3060 770 c0 -5 4 -10 9 -10 6 0 13 5 16 10 3 6 -1 10 -9 10 -9 0
-16 -4 -16 -10z"/>
<path d="M2901 717 c2 -1 13 -9 24 -17 19 -14 19 -14 6 3 -7 9 -18 17 -24 17
-6 0 -8 -1 -6 -3z"/>
<path d="M2960 680 c8 -5 22 -9 30 -9 10 0 8 3 -5 9 -27 12 -43 12 -25 0z"/>
<path d="M2828 623 c31 -44 64 -70 97 -77 28 -6 29 -5 11 9 -11 8 -25 15 -32
15 -6 0 -28 18 -48 40 -41 46 -57 53 -28 13z"/>
<path d="M2455 477 c1 -12 17 -31 38 -44 20 -13 37 -21 37 -19 0 2 -17 22 -38
44 -32 33 -38 36 -37 19z"/>
<path d="M853 473 c-7 -2 -13 -11 -13 -19 0 -11 5 -11 25 -2 21 10 28 8 40 -8
11 -15 14 -16 15 -3 0 30 -33 46 -67 32z"/>
<path d="M2310 406 c0 -7 7 -19 15 -26 13 -11 15 -8 15 14 0 16 -5 26 -15 26
-8 0 -15 -6 -15 -14z"/>
</g>
</svg>
