<?xml version="1.0" standalone="no"?>
<!DOCTYPE svg PUBLIC "-//W3C//DTD SVG 20010904//EN"
 "http://www.w3.org/TR/2001/REC-SVG-20010904/DTD/svg10.dtd">
<svg version="1.0" xmlns="http://www.w3.org/2000/svg"
 width="311.000000pt" height="424.000000pt" viewBox="0 0 311.000000 424.000000"
 preserveAspectRatio="xMidYMid meet">

<g transform="translate(0.000000,424.000000) scale(0.100000,-0.100000)"
fill="#000000" stroke="none">
<path d="M913 4110 c-13 -5 -23 -14 -23 -20 0 -13 -1 -13 45 10 40 20 22 28
-22 10z"/>
<path d="M1115 4089 c-4 -6 -23 -9 -44 -8 -23 2 -49 -5 -71 -19 -40 -25 -56
-27 -64 -9 -3 8 -11 5 -25 -12 -26 -29 -26 -41 0 -41 33 0 12 -17 -44 -36 -28
-9 -54 -20 -57 -23 -3 -4 -21 -18 -40 -31 -19 -12 -41 -30 -47 -38 -19 -24
-16 4 3 38 12 20 14 32 6 45 -9 16 -13 12 -35 -31 -19 -35 -26 -43 -27 -27 -1
69 -58 12 -125 -126 -19 -41 -35 -81 -36 -90 -1 -27 -17 20 -18 53 -1 24 -3
27 -16 16 -17 -14 -20 -3 -6 19 15 23 43 23 36 0 -4 -13 -2 -19 8 -19 15 0 27
29 27 68 0 23 -14 30 -25 12 -12 -19 -24 -10 -22 16 3 39 -17 40 -52 2 -41
-43 -42 -72 -1 -33 16 16 30 24 30 19 0 -6 -11 -21 -25 -34 -16 -15 -25 -34
-25 -52 0 -27 -1 -28 -16 -14 -10 11 -15 30 -13 56 4 56 -13 54 -33 -5 -13
-37 -17 -44 -18 -25 -2 25 -2 25 -12 -3 -7 -21 -7 -35 1 -50 11 -23 11 -97 -1
-97 -10 0 -37 29 -50 53 l-11 22 23 -20 22 -20 -7 45 c-3 25 -7 66 -8 93 -2
51 -14 64 -19 20 -2 -17 -8 -27 -16 -25 -10 2 -12 -5 -7 -28 4 -19 3 -30 -4
-30 -6 0 -11 6 -11 14 0 8 -6 16 -14 19 -18 7 -40 -51 -30 -76 3 -10 1 -17 -5
-17 -17 0 -13 -52 5 -79 16 -22 16 -23 -4 -12 -17 9 -23 8 -32 -6 -11 -17 -11
-17 -6 0 7 23 -3 47 -20 47 -9 0 -14 -11 -14 -30 0 -22 6 -33 23 -40 12 -5 18
-9 12 -10 -5 0 -4 -4 4 -9 8 -5 16 -32 19 -62 3 -36 12 -62 26 -78 l21 -23
-25 7 c-63 19 -100 51 -100 86 0 10 3 10 12 1 23 -23 29 -12 9 14 -12 15 -21
38 -22 53 0 19 -5 12 -19 -27 -15 -46 -16 -64 -7 -128 5 -41 14 -75 19 -75 4
-1 13 -2 19 -3 15 -1 45 -44 54 -76 l7 -25 -26 24 c-16 15 -22 27 -16 31 7 4
2 13 -13 23 -13 8 -28 12 -34 9 -18 -13 -9 -145 14 -190 20 -42 16 -62 -15
-62 -11 0 -12 -3 -3 -14 6 -7 9 -20 6 -27 -3 -9 8 -20 26 -29 24 -12 35 -27
49 -70 10 -30 23 -56 29 -58 6 -2 11 -9 11 -16 0 -7 14 -25 30 -41 17 -16 30
-37 30 -46 0 -10 3 -19 8 -21 4 -1 20 -22 36 -45 16 -24 31 -41 35 -39 4 3 27
7 51 10 25 4 56 9 70 11 33 7 68 14 106 21 39 7 51 -7 18 -23 -16 -7 -24 -8
-24 -1 0 6 -6 6 -15 -2 -8 -6 -19 -9 -25 -5 -5 3 -15 3 -21 -1 -7 -4 -28 -8
-48 -10 -20 -2 -37 -8 -39 -13 -2 -6 -10 -7 -18 -4 -8 3 -14 0 -14 -7 0 -10
-3 -10 -14 -1 -11 9 -15 9 -19 -1 -4 -10 -8 -10 -16 2 -9 13 -12 12 -24 -4
-11 -15 -17 -17 -35 -7 -18 10 -22 9 -22 -5 0 -11 -6 -15 -20 -11 -11 3 -26
-1 -34 -8 -7 -7 -21 -15 -32 -18 -10 -2 1 -3 25 -1 24 2 59 4 78 4 19 0 32 3
30 8 -3 4 15 8 39 9 36 1 44 -2 51 -20 11 -34 9 -218 -3 -242 -6 -11 -10 -44
-10 -72 1 -28 -2 -49 -5 -47 -3 2 -6 -9 -5 -24 0 -15 -3 -43 -8 -62 -7 -33 -7
-34 7 -15 14 19 15 18 10 -8 -3 -15 -9 -24 -13 -22 -5 3 -11 1 -15 -5 -3 -5
-1 -10 5 -10 7 0 8 -5 3 -12 -4 -7 -8 -29 -8 -48 0 -22 -4 -34 -12 -33 -7 2
-16 -9 -19 -25 -11 -43 -33 -81 -55 -93 -26 -14 -34 -6 -19 20 15 28 4 27 -15
-2 -28 -43 -27 -92 3 -134 24 -35 26 -45 25 -138 -1 -56 -8 -126 -17 -160 -19
-69 -20 -122 -5 -162 5 -15 16 -59 24 -98 14 -74 38 -140 55 -150 6 -4 5 -13
-3 -26 -10 -17 -9 -22 5 -33 16 -12 16 -14 -7 -24 -27 -12 -29 -23 -26 -122 4
-101 18 -115 52 -49 11 23 34 53 49 66 27 22 130 146 130 155 0 2 -27 2 -60 0
-39 -3 -60 -1 -60 7 0 12 52 41 75 41 20 0 19 12 -6 71 -14 31 -31 54 -48 62
-21 10 -27 20 -29 53 -3 38 0 43 35 65 21 13 51 31 66 39 16 8 42 29 57 47 46
52 71 52 127 1 26 -24 70 -61 96 -82 66 -52 71 -70 42 -142 -30 -73 -32 -110
-5 -126 14 -9 20 -24 20 -47 0 -54 40 -159 69 -182 22 -18 38 -20 126 -18 55
1 118 -1 141 -5 36 -7 44 -5 69 18 26 25 29 25 47 10 10 -10 18 -13 18 -9 0 4
9 0 20 -10 17 -15 19 -26 14 -66 l-6 -47 47 -28 48 -28 44 24 43 23 -6 49 c-4
31 -2 64 6 88 l13 40 61 -3 c66 -2 66 -3 54 68 -2 16 9 26 53 48 l56 28 68
-16 c42 -9 72 -12 79 -6 7 6 25 4 49 -4 20 -7 61 -16 91 -19 30 -4 62 -14 72
-21 26 -20 48 -18 93 5 46 23 51 34 51 113 0 34 5 93 10 131 8 56 7 77 -5 110
-16 45 -45 309 -45 418 0 83 -12 102 -59 88 -20 -5 -31 -5 -31 1 0 6 -17 8
-45 3 -33 -5 -45 -3 -45 6 0 9 -7 6 -21 -6 -22 -19 -22 -19 -8 4 9 14 24 22
42 22 20 0 26 -4 21 -12 -6 -10 -4 -10 8 0 17 14 39 13 51 -3 4 -6 11 -4 17 5
6 10 10 11 10 3 0 -7 4 -13 9 -13 5 0 8 6 7 13 -2 6 -6 29 -11 50 -5 25 -3 54
4 79 10 31 10 47 1 69 -9 21 -9 36 -1 62 16 49 6 70 -33 64 -58 -8 -104 21
-77 49 13 13 81 193 81 214 0 10 14 44 30 75 17 31 30 71 30 88 0 59 69 250
99 273 17 13 8 44 -13 44 -8 0 -191 -29 -408 -65 -216 -36 -396 -65 -400 -65
-5 0 -12 -10 -17 -22 -5 -13 -30 -67 -55 -121 -25 -54 -48 -107 -49 -118 -2
-11 -12 -30 -22 -42 -25 -28 -105 -182 -105 -200 0 -8 -7 -20 -16 -28 -13 -10
-17 -10 -23 0 -7 10 -18 9 -54 -7 -25 -11 -48 -17 -52 -14 -3 4 -3 -2 1 -12 5
-13 4 -17 -3 -13 -14 9 -34 -49 -27 -78 4 -18 12 -22 42 -21 30 1 37 -2 37
-19 0 -11 -12 -25 -30 -35 -16 -8 -32 -18 -35 -22 -3 -3 -22 -9 -42 -13 -21
-4 -43 -13 -49 -21 -10 -12 -16 -11 -44 6 -18 11 -40 20 -49 20 -9 0 -19 7
-23 16 -4 11 -13 14 -30 9 -14 -3 -30 -2 -36 3 -7 5 -36 12 -66 15 -53 6 -53
6 -36 -13 10 -11 25 -21 34 -21 9 -1 -2 -5 -24 -8 -31 -5 -52 0 -92 19 -28 14
-49 28 -46 33 7 12 -12 8 -25 -5 -9 -9 -12 -4 -12 25 0 38 16 72 53 114 17 20
18 26 7 53 -20 49 -8 135 23 168 15 15 30 43 33 62 4 19 11 40 16 47 5 7 10
33 10 58 0 25 4 45 8 45 5 0 24 -13 42 -29 66 -57 116 -67 142 -29 18 25 21
64 6 73 -6 4 -7 12 -3 18 16 26 12 49 -13 74 -23 23 -24 27 -10 42 21 24 20
37 -1 20 -12 -9 -11 -5 3 11 12 14 24 32 26 40 3 8 9 -25 13 -75 4 -49 10 -84
12 -77 3 6 10 12 17 12 14 0 66 -55 66 -70 0 -5 17 -34 38 -65 29 -43 41 -54
57 -50 11 2 31 5 45 6 l25 1 -26 9 c-14 5 -31 20 -36 32 -36 79 -53 110 -53
100 0 -7 -4 -13 -10 -13 -5 0 -7 6 -4 14 3 9 -5 15 -27 20 -25 5 -29 9 -20 19
6 8 8 16 5 19 -3 3 9 8 25 10 16 2 28 1 25 -4 -3 -4 -12 -8 -21 -8 -9 0 -13
-3 -9 -7 3 -4 40 -7 82 -7 49 -1 77 -5 83 -14 6 -10 15 -10 41 0 26 8 35 9 38
0 2 -7 8 -12 14 -12 7 0 6 5 -2 14 -21 26 52 61 155 76 266 36 583 86 1035
160 102 17 264 42 360 56 96 14 179 30 184 35 14 13 -12 11 -126 -6 -53 -8
-137 -17 -187 -20 -97 -5 -91 -8 -136 50 -15 19 -16 18 -10 -17 5 -31 3 -38
-10 -38 -9 0 -13 -4 -10 -10 3 -5 1 -10 -4 -10 -6 0 -11 12 -12 28 -1 46 -6
62 -35 100 -15 20 -31 39 -35 42 -3 3 -16 23 -27 45 -23 44 -71 99 -79 91 -3
-3 -1 -19 5 -35 15 -44 6 -38 -19 12 -12 23 -40 60 -63 82 -23 22 -55 56 -71
75 -32 37 -91 90 -100 90 -3 0 -5 -8 -5 -17 0 -10 -16 16 -35 57 -57 121 -69
142 -91 165 -12 11 -23 25 -25 31 -8 18 -89 64 -113 64 -17 0 -31 11 -47 38
-12 20 -22 42 -21 49 2 6 -6 14 -17 18 -31 10 -44 31 -32 53 9 17 8 19 -10 15
-14 -4 -22 0 -25 15 -4 14 -17 22 -44 26 -24 4 -46 15 -58 31 -18 22 -25 25
-61 19 -33 -5 -38 -9 -27 -18 36 -27 22 -38 -49 -41 -66 -3 -69 -2 -47 12 31
22 27 30 -13 25 -34 -4 -36 -3 -31 22 4 22 1 26 -17 25 -44 -4 -59 1 -53 16 4
11 -2 15 -27 15 -18 0 -42 7 -54 15 -15 10 -24 12 -28 4z m569 -278 c22 -23
27 -36 22 -55 -4 -17 -2 -25 5 -24 6 2 12 -12 14 -30 2 -27 -2 -35 -25 -47
-20 -11 -27 -20 -23 -34 3 -14 -9 -35 -41 -69 -25 -27 -43 -51 -40 -54 8 -9
-18 -98 -27 -92 -5 3 -10 0 -10 -5 -1 -6 -3 -15 -4 -21 -1 -5 -3 -15 -4 -21 0
-6 -8 -3 -17 5 -9 10 -16 36 -17 65 -1 27 -5 47 -9 45 -3 -2 3 20 14 48 45
117 69 159 98 176 33 19 43 61 14 58 -9 0 -19 5 -22 13 -3 10 0 12 11 8 18 -7
28 13 20 42 -8 29 8 26 41 -8z m246 -236 c0 -9 -7 -11 -22 -7 -17 4 -20 2 -15
-11 5 -13 2 -14 -23 -6 -16 6 -31 17 -34 25 -3 8 -2 13 3 9 13 -8 43 24 34 38
-4 6 8 1 25 -12 18 -12 32 -28 32 -36z m-1597 -22 c-5 -12 -7 -12 -14 -1 -5 7
-9 19 -9 27 0 11 3 11 14 1 8 -6 12 -18 9 -27z m463 -77 c-21 -49 -28 -46 -9
4 9 22 18 38 20 36 2 -2 -3 -20 -11 -40z m-228 -1 c-10 -23 -28 -26 -28 -4 0
6 4 8 9 5 5 -3 11 1 15 9 3 8 8 15 10 15 3 0 1 -11 -6 -25z m-197 -18 c12 -22
12 -22 -10 -3 -11 11 -21 23 -21 28 0 14 19 -1 31 -25z m59 -39 c0 -4 -9 0
-20 9 -11 10 -20 27 -20 38 0 17 3 15 20 -10 11 -16 20 -33 20 -37z m36 4 c-3
-10 3 -35 13 -56 17 -35 19 -37 25 -18 4 12 4 26 1 32 -3 5 -2 10 4 10 5 0 12
-6 14 -12 3 -7 6 3 7 22 1 19 4 27 7 17 4 -15 7 -16 20 -5 15 12 15 10 4 -11
-9 -16 -10 -26 -2 -34 7 -7 12 -5 16 6 15 47 17 52 22 39 9 -24 -6 -58 -31
-72 -29 -15 -51 -61 -43 -90 3 -11 1 -20 -4 -20 -4 0 -6 -7 -2 -16 3 -9 -15 5
-42 30 -31 30 -45 52 -41 62 3 8 1 24 -5 35 -7 15 -6 23 6 35 8 8 15 29 15 45
0 18 4 28 10 24 6 -4 9 -14 6 -23z m307 -15 c-4 -7 -8 -14 -8 -17 -2 -18 -44
-82 -45 -68 0 25 42 108 52 102 5 -3 5 -11 1 -17z m-545 -73 c4 -4 -1 -4 -11
-1 -10 4 -26 7 -36 7 -9 0 -26 7 -37 15 -17 13 -14 13 29 1 27 -8 52 -18 55
-22z m186 -84 c-15 -15 -47 0 -73 32 l-24 30 53 -27 c30 -15 49 -30 44 -35z
m-310 -26 c3 -8 2 -12 -4 -9 -6 3 -10 10 -10 16 0 14 7 11 14 -7z m1397 -17
c4 -5 11 -7 16 -4 5 3 10 -1 10 -9 0 -8 -6 -13 -14 -10 -7 3 -13 1 -13 -4 0
-6 -5 -10 -11 -10 -5 0 -7 5 -3 12 5 8 2 9 -9 5 -16 -6 -22 4 -18 27 1 5 -5 6
-14 2 -9 -3 -13 -2 -10 4 7 12 57 2 66 -13z m-416 -18 c-9 -17 -19 -29 -22
-26 -5 5 25 57 33 57 3 0 -3 -14 -11 -31z m-861 -59 c-8 -7 -34 31 -34 49 0
10 8 4 20 -14 10 -16 17 -32 14 -35z m-20 -36 c4 -10 2 -13 -6 -8 -6 4 -25 11
-42 15 l-31 7 36 1 c25 1 39 -4 43 -15z m64 -19 c-3 -3 -9 2 -12 12 -6 14 -5
15 5 6 7 -7 10 -15 7 -18z m792 5 c0 -5 -5 -10 -11 -10 -5 0 -7 5 -4 10 3 6 8
10 11 10 2 0 4 -4 4 -10z m55 -10 c-18 -20 -45 -27 -45 -12 0 6 35 25 59 31 2
1 -4 -8 -14 -19z m-91 -25 c-4 -8 -11 -15 -16 -15 -6 0 -5 6 2 15 7 8 14 15
16 15 2 0 1 -7 -2 -15z m46 -55 c-20 -13 -33 -13 -25 0 3 6 14 10 23 10 15 0
15 -2 2 -10z m-98 -32 c-7 -7 -12 -8 -12 -2 0 14 12 26 19 19 2 -3 -1 -11 -7
-17z m92 -7 c6 -9 -15 -35 -39 -50 -17 -11 -17 -12 -2 -7 29 9 73 17 59 10
-22 -11 -2 -24 23 -14 19 7 23 6 18 -5 -3 -8 -9 -15 -14 -15 -5 0 -9 -4 -9
-10 0 -5 6 -7 14 -4 8 3 17 1 21 -5 3 -6 11 -11 16 -11 6 0 7 5 3 12 -12 19
19 -3 35 -25 13 -18 22 -19 100 -14 47 4 96 9 107 13 15 4 28 -1 43 -17 21
-23 21 -24 2 -30 -26 -10 -155 -14 -169 -5 -14 8 -91 -4 -98 -15 -3 -5 -15 -7
-27 -4 -23 6 -67 -18 -55 -31 4 -4 14 -1 22 5 10 9 16 9 21 1 4 -6 15 -8 26
-5 10 4 27 2 36 -4 15 -9 12 -11 -17 -12 -19 -1 -46 -3 -60 -5 -14 -2 -55 -6
-91 -9 l-67 -5 -12 31 c-7 17 -16 26 -19 21 -6 -9 -45 -32 -55 -32 -2 0 -4 9
-3 19 1 14 5 17 13 11 7 -7 16 -4 26 8 16 18 20 52 6 52 -14 0 -9 18 10 37 40
41 45 52 31 69 -10 13 -10 17 2 25 19 12 32 11 24 -1 -3 -5 -2 -10 4 -10 10 0
24 18 27 33 1 4 2 9 3 11 2 6 41 -5 45 -13z m-308 -20 c-3 -5 1 -12 10 -15 8
-3 13 -2 10 2 -2 4 4 9 15 9 17 2 18 -1 9 -13 -10 -11 -9 -14 4 -14 9 0 16 7
16 15 0 8 5 15 10 15 15 0 12 -26 -5 -40 -12 -10 -18 -10 -31 1 -12 10 -17 10
-23 1 -5 -9 -11 -4 -19 13 -15 32 -15 35 -1 35 5 0 8 -4 5 -9z m1657 -18 c-7
-2 -19 -2 -25 0 -7 3 -2 5 12 5 14 0 19 -2 13 -5z m134 1 c-3 -3 -12 -4 -19
-1 -8 3 -5 6 6 6 11 1 17 -2 13 -5z m-280 -20 c-3 -3 -12 -4 -19 -1 -8 3 -5 6
6 6 11 1 17 -2 13 -5z m-1677 -39 c0 -21 -5 -19 -25 11 -16 25 -16 25 4 14 12
-6 21 -17 21 -25z m310 18 c0 -33 -15 -45 -42 -34 -18 7 -29 6 -37 -2 -6 -6
-11 -7 -11 -1 0 5 14 17 31 26 16 10 27 13 24 8 -3 -6 -1 -10 5 -10 6 0 13 7
16 15 8 20 14 19 14 -2z m1287 11 c-3 -3 -12 -4 -19 -1 -8 3 -5 6 6 6 11 1 17
-2 13 -5z m-1641 -47 c8 3 14 0 14 -6 0 -18 -37 -13 -45 7 -5 13 -3 14 6 5 6
-6 18 -9 25 -6z m1004 -67 c0 -5 -10 -10 -22 -9 -22 0 -22 1 -3 9 11 5 21 9
23 9 1 1 2 -3 2 -9z m-323 -36 c-3 -3 -12 -4 -19 -1 -8 3 -5 6 6 6 11 1 17 -2
13 -5z m785 -90 c-2 -70 -9 -105 -31 -164 -16 -41 -32 -86 -36 -100 -4 -14
-15 -36 -25 -50 -24 -36 -32 -62 -21 -69 5 -4 -6 -17 -26 -29 -19 -13 -32 -19
-29 -13 4 6 -6 5 -24 -3 -18 -7 -37 -24 -44 -37 -10 -21 -23 -26 -106 -37 -75
-11 -106 -11 -145 -2 -41 10 -58 9 -91 -2 l-41 -15 8 31 c5 17 10 42 13 57 3
14 19 45 36 70 16 24 30 51 30 60 0 21 134 287 161 319 11 14 29 36 39 49 30
36 64 22 86 -34 9 -25 21 -48 25 -51 17 -10 113 52 103 67 -3 5 3 9 13 9 10 0
34 9 53 19 19 11 40 18 45 17 6 -2 9 -39 7 -92z m-745 80 c-3 -3 -12 -4 -19
-1 -8 3 -5 6 6 6 11 1 17 -2 13 -5z m-334 -51 c-7 -2 -19 -2 -25 0 -7 3 -2 5
12 5 14 0 19 -2 13 -5z m261 -2 c3 -4 -6 -13 -20 -19 -23 -11 -24 -10 -14 8
11 21 25 26 34 11z m-354 -101 c0 -5 -12 -10 -26 -10 -14 0 -23 4 -19 10 3 6
15 10 26 10 10 0 19 -4 19 -10z m963 -385 c-3 -9 -8 -14 -10 -11 -3 3 -2 9 2
15 9 16 15 13 8 -4z m-644 -31 c-6 -8 -26 -14 -43 -14 l-31 1 35 18 c39 19 58
17 39 -5z m-805 -299 c-9 -14 -25 -25 -35 -25 -16 0 -17 4 -7 33 6 17 19 41
29 53 11 11 20 27 21 35 1 8 3 -5 5 -28 3 -28 -2 -51 -13 -68z m530 79 c28
-11 17 -22 -16 -18 -18 1 -37 3 -41 3 -5 1 -5 6 -2 11 7 11 35 13 59 4z m-409
-186 c33 -15 32 -29 -2 -23 -16 2 -45 7 -66 10 -21 3 -35 10 -32 16 8 13 69
11 100 -3z m-148 -461 c6 -7 5 -8 -34 -12 -12 -1 -29 -5 -39 -9 -17 -6 -17 -6
-1 11 16 18 60 24 74 10z m1867 -71 c-3 -9 -12 -12 -22 -9 -15 6 -9 11 25 22
1 1 0 -5 -3 -13z m-763 -41 c11 -19 39 -48 61 -64 l41 -30 -27 -11 c-15 -5
-38 -10 -50 -10 -32 0 -39 -10 -20 -31 10 -11 13 -25 9 -39 -10 -32 -56 -23
-74 15 -18 39 -23 42 -103 55 -38 7 -68 15 -68 20 0 4 20 15 45 25 32 12 54
29 76 61 24 35 36 44 60 44 23 0 34 -7 50 -35z m705 26 c-10 -4 -23 -16 -30
-27 -10 -18 -16 -19 -56 -11 l-45 9 44 14 c25 7 48 11 52 8 4 -2 10 0 14 6 3
5 14 10 23 9 15 0 14 -1 -2 -8z m-361 -32 c9 -27 -1 -35 -52 -43 -48 -7 -49
-6 -28 34 19 38 70 43 80 9z m49 -45 c17 -6 22 -57 10 -89 -13 -34 -84 -42
-84 -9 0 8 -6 11 -15 8 -10 -4 -15 0 -15 11 0 9 5 13 11 10 6 -4 9 3 7 21 -4
38 43 64 86 48z m-169 -34 c-3 -5 -11 -10 -16 -10 -6 0 -7 5 -4 10 3 6 11 10
16 10 6 0 7 -4 4 -10z m-1235 -64 c0 -2 -18 -6 -40 -8 -22 -2 -40 0 -40 4 0 5
18 8 40 8 22 0 40 -2 40 -4z"/>
<path d="M1630 3595 c-7 -9 -8 -15 -2 -15 5 0 12 7 16 15 3 8 4 15 2 15 -2 0
-9 -7 -16 -15z"/>
<path d="M985 2879 c-4 -6 -5 -12 -2 -15 2 -3 7 2 10 11 7 17 1 20 -8 4z"/>
<path d="M1015 2850 c-4 -16 -12 -30 -18 -30 -7 0 -6 -4 3 -10 12 -8 11 -10
-7 -10 -13 0 -23 -4 -23 -9 0 -4 12 -7 28 -5 15 2 19 1 10 -2 -22 -7 -23 -20
-3 -28 11 -4 14 -13 9 -32 l-7 -27 25 19 c14 10 22 21 17 25 -14 9 -23 95 -10
103 16 10 14 36 -3 36 -8 0 -17 -13 -21 -30z"/>
<path d="M956 2741 c-3 -4 8 -8 24 -7 17 1 30 4 30 9 0 10 -48 9 -54 -2z"/>
<path d="M2065 1180 c-18 -8 -17 -9 8 -9 15 -1 27 4 27 9 0 12 -8 12 -35 0z"/>
<path d="M592 3964 c-37 -29 -42 -45 -11 -37 20 5 56 49 48 58 -3 2 -19 -7
-37 -21z"/>
<path d="M90 3620 c0 -16 5 -30 10 -30 6 0 10 14 10 30 0 17 -4 30 -10 30 -5
0 -10 -13 -10 -30z"/>
<path d="M130 3501 c0 -6 5 -13 10 -16 6 -3 10 1 10 9 0 9 -4 16 -10 16 -5 0
-10 -4 -10 -9z"/>
<path d="M2520 2885 c-41 -8 -106 -19 -143 -25 -50 -9 -66 -15 -58 -23 6 -6
11 -21 11 -34 0 -29 46 -152 65 -173 8 -9 15 -33 15 -54 0 -43 37 -121 75
-156 15 -14 33 -38 40 -55 21 -46 47 -71 116 -111 65 -38 129 -96 129 -117 1
-7 9 -2 19 11 11 12 24 22 29 22 17 0 25 160 12 246 -13 85 -58 234 -71 234
-4 0 -7 13 -7 29 1 30 -46 113 -82 146 -25 23 -25 10 0 -38 11 -20 15 -37 10
-37 -6 0 -26 34 -45 75 -18 41 -35 75 -37 74 -2 -1 -37 -7 -78 -14z"/>
<path d="M968 2643 c7 -3 16 -2 19 1 4 3 -2 6 -13 5 -11 0 -14 -3 -6 -6z"/>
<path d="M1230 679 c-14 -6 -49 -12 -78 -13 -86 -5 -94 -32 -18 -67 62 -28
119 -25 151 8 29 33 32 51 8 69 -21 16 -30 16 -63 3z"/>
<path d="M285 590 c-22 -11 -47 -20 -56 -20 -31 0 -42 -27 -35 -86 3 -31 13
-69 22 -85 8 -17 17 -58 18 -92 2 -34 7 -81 11 -105 7 -40 10 -43 32 -37 32 8
73 -18 73 -46 0 -29 -25 -34 -65 -10 -32 19 -35 19 -35 3 0 -18 26 -62 44 -74
23 -16 55 -8 59 15 l4 22 2 -22 c1 -31 38 -31 50 0 17 44 42 280 32 290 -6 6
-30 20 -53 32 l-43 22 -3 99 c-1 54 -6 102 -10 106 -5 5 -26 -1 -47 -12z"/>
</g>
</svg>
